# This file was created with Minddesk Qubicle 3.0
# Get Qubicle at www.getqubicle.com

mtllib dude_sitting1.mtl

vn 0.0 0.0 1.0
vn 0.0 0.0 -1.0
vn -1.0 0.0 0.0
vn 1.0 0.0 0.0
vn 0.0 1.0 0.0
vn 0.0 -1.0 0.0

v 0.30000 1.20000 -0.20000
v 0.30000 0.40000 -0.20000
v -0.20000 0.40000 -0.20000
v -0.20000 1.20000 -0.20000
v -0.20000 1.20000 -0.10000
v -0.20000 0.40000 -0.10000
v -0.30000 0.40000 -0.10000
v -0.30000 1.20000 -0.10000
v 0.40000 1.20000 -0.10000
v 0.40000 0.40000 -0.10000
v 0.30000 0.40000 -0.10000
v 0.30000 1.20000 -0.10000
v 0.20000 1.70000 -0.20000
v 0.20000 1.30000 -0.20000
v -0.10000 1.30000 -0.20000
v -0.10000 1.70000 -0.20000
v -0.10000 0.40000 0.20000
v -0.10000 0.00000 0.20000
v -0.20000 0.00000 0.20000
v -0.20000 0.40000 0.20000
v 0.30000 0.40000 0.20000
v 0.30000 0.00000 0.20000
v 0.20000 0.00000 0.20000
v 0.20000 0.40000 0.20000
v 0.10000 1.30000 -0.10000
v 0.10000 1.20000 -0.10000
v 0.00000 1.20000 -0.10000
v 0.00000 1.30000 -0.10000
v -0.30000 1.20000 0.00000
v -0.30000 0.50000 0.00000
v 0.40000 0.50000 0.00000
v 0.40000 1.20000 0.00000
v -0.20000 0.50000 0.30000
v -0.20000 0.00000 0.30000
v -0.10000 0.00000 0.30000
v -0.10000 0.50000 0.30000
v 0.20000 0.50000 0.30000
v 0.20000 0.00000 0.30000
v 0.30000 0.00000 0.30000
v 0.30000 0.50000 0.30000
v -0.10000 1.70000 0.10000
v -0.10000 1.30000 0.10000
v 0.20000 1.30000 0.10000
v 0.20000 1.70000 0.10000
v -0.10000 0.50000 0.00000
v -0.10000 0.40000 0.00000
v 0.20000 0.40000 0.00000
v 0.20000 0.50000 0.00000
v 0.00000 1.30000 0.00000
v 0.00000 1.20000 0.00000
v 0.10000 1.20000 0.00000
v 0.10000 1.30000 0.00000
v -0.30000 0.50000 0.10000
v -0.30000 0.40000 0.10000
v -0.20000 0.40000 0.10000
v -0.20000 0.50000 0.10000
v 0.30000 0.50000 0.10000
v 0.30000 0.40000 0.10000
v 0.40000 0.40000 0.10000
v 0.40000 0.50000 0.10000
v -0.30000 0.50000 -0.10000
v -0.20000 0.40000 0.30000
v 0.20000 0.40000 0.30000
v 0.40000 0.50000 -0.10000
v -0.10000 0.40000 0.30000
v 0.30000 0.40000 0.30000
v -0.10000 0.50000 0.10000
v 0.20000 0.50000 0.10000
v -0.30000 0.40000 0.00000
v 0.40000 0.40000 0.00000
v -0.10000 1.30000 -0.10000
v 0.20000 1.30000 -0.10000
v -0.10000 1.30000 0.00000
v 0.20000 1.30000 0.00000
v -0.10000 0.40000 0.10000
v 0.20000 0.40000 0.10000

vt 0.01563 0.28125
vt 0.01563 0.03125
vt 0.09375 0.03125
vt 0.09375 0.28125
vt 0.12500 0.28125
vt 0.12500 0.03125
vt 0.14063 0.03125
vt 0.14063 0.28125
vt 0.17188 0.28125
vt 0.17188 0.03125
vt 0.18750 0.03125
vt 0.18750 0.28125
vt 0.21875 0.28125
vt 0.21875 0.03125
vt 0.23438 0.03125
vt 0.23438 0.28125
vt 0.26563 0.28125
vt 0.26563 0.03125
vt 0.28125 0.03125
vt 0.28125 0.28125
vt 0.31250 0.25000
vt 0.31250 0.03125
vt 0.42188 0.03125
vt 0.42188 0.25000
vt 0.45313 0.25000
vt 0.45313 0.03125
vt 0.46875 0.03125
vt 0.46875 0.25000
vt 0.50000 0.25000
vt 0.50000 0.03125
vt 0.51563 0.03125
vt 0.51563 0.25000
vt 0.54688 0.18750
vt 0.54688 0.03125
vt 0.56250 0.03125
vt 0.56250 0.18750
vt 0.59375 0.18750
vt 0.59375 0.03125
vt 0.60938 0.03125
vt 0.60938 0.18750
vt 0.64063 0.15625
vt 0.64063 0.03125
vt 0.68750 0.03125
vt 0.68750 0.15625
vt 0.71875 0.15625
vt 0.71875 0.03125
vt 0.76563 0.03125
vt 0.76563 0.15625
vt 0.79688 0.15625
vt 0.79688 0.03125
vt 0.84375 0.03125
vt 0.84375 0.15625
vt 0.87500 0.15625
vt 0.87500 0.03125
vt 0.92188 0.03125
vt 0.92188 0.15625
vt 0.95313 0.15625
vt 0.95313 0.03125
vt 0.96875 0.03125
vt 0.96875 0.15625
vt 0.01563 0.46875
vt 0.01563 0.34375
vt 0.03125 0.34375
vt 0.03125 0.46875
vt 0.06250 0.46875
vt 0.06250 0.34375
vt 0.07813 0.34375
vt 0.07813 0.46875
vt 0.10938 0.46875
vt 0.10938 0.34375
vt 0.12500 0.34375
vt 0.12500 0.46875
vt 0.15625 0.46875
vt 0.15625 0.34375
vt 0.17188 0.34375
vt 0.17188 0.46875
vt 0.20313 0.46875
vt 0.20313 0.34375
vt 0.21875 0.34375
vt 0.21875 0.46875
vt 0.25000 0.43750
vt 0.25000 0.34375
vt 0.29688 0.34375
vt 0.29688 0.43750
vt 0.32813 0.40625
vt 0.32813 0.34375
vt 0.34375 0.34375
vt 0.34375 0.40625
vt 0.37500 0.40625
vt 0.37500 0.34375
vt 0.39063 0.34375
vt 0.39063 0.40625
vt 0.42188 0.37500
vt 0.42188 0.34375
vt 0.53125 0.34375
vt 0.53125 0.37500
vt 0.56250 0.37500
vt 0.56250 0.34375
vt 0.64063 0.34375
vt 0.64063 0.37500
vt 0.67188 0.37500
vt 0.67188 0.34375
vt 0.75000 0.34375
vt 0.75000 0.37500
vt 0.78125 0.37500
vt 0.78125 0.34375
vt 0.82813 0.34375
vt 0.82813 0.37500
vt 0.85938 0.37500
vt 0.85938 0.34375
vt 0.90625 0.34375
vt 0.90625 0.37500
vt 0.93750 0.37500
vt 0.93750 0.34375
vt 0.98438 0.34375
vt 0.98438 0.37500
vt 0.01563 0.56250
vt 0.01563 0.53125
vt 0.06250 0.53125
vt 0.06250 0.56250
vt 0.09375 0.56250
vt 0.09375 0.53125
vt 0.14063 0.53125
vt 0.14063 0.56250
vt 0.17188 0.56250
vt 0.17188 0.53125
vt 0.21875 0.53125
vt 0.21875 0.56250
vt 0.25000 0.56250
vt 0.25000 0.53125
vt 0.29688 0.53125
vt 0.29688 0.56250
vt 0.32813 0.56250
vt 0.32813 0.53125
vt 0.35938 0.53125
vt 0.35938 0.56250
vt 0.39063 0.56250
vt 0.39063 0.53125
vt 0.42188 0.53125
vt 0.42188 0.56250
vt 0.45313 0.56250
vt 0.45313 0.53125
vt 0.48438 0.53125
vt 0.48438 0.56250
vt 0.51563 0.56250
vt 0.51563 0.53125
vt 0.54688 0.53125
vt 0.54688 0.56250
vt 0.57813 0.56250
vt 0.57813 0.53125
vt 0.60938 0.53125
vt 0.60938 0.56250
vt 0.64063 0.56250
vt 0.64063 0.53125
vt 0.67188 0.53125
vt 0.67188 0.56250
vt 0.70313 0.56250
vt 0.70313 0.53125
vt 0.73438 0.53125
vt 0.73438 0.56250
vt 0.76563 0.56250
vt 0.76563 0.53125
vt 0.79688 0.53125
vt 0.79688 0.56250
vt 0.82813 0.56250
vt 0.82813 0.53125
vt 0.84375 0.53125
vt 0.84375 0.56250
vt 0.87500 0.56250
vt 0.87500 0.53125
vt 0.89063 0.53125
vt 0.89063 0.56250
vt 0.92188 0.56250
vt 0.92188 0.53125
vt 0.93750 0.53125
vt 0.93750 0.56250
vt 0.96875 0.56250
vt 0.96875 0.53125
vt 0.98438 0.53125
vt 0.98438 0.56250
vt 0.01563 0.65625
vt 0.01563 0.62500
vt 0.03125 0.62500
vt 0.03125 0.65625
vt 0.06250 0.65625
vt 0.06250 0.62500
vt 0.07813 0.62500
vt 0.07813 0.65625
vt 0.10938 0.65625
vt 0.10938 0.62500
vt 0.12500 0.62500
vt 0.12500 0.65625
vt 0.15625 0.65625
vt 0.15625 0.62500
vt 0.17188 0.62500
vt 0.17188 0.65625
vt 0.20313 0.65625
vt 0.20313 0.62500
vt 0.21875 0.62500
vt 0.21875 0.65625
vt 0.25000 0.65625
vt 0.25000 0.62500
vt 0.26563 0.62500
vt 0.26563 0.65625
vt 0.29688 0.65625
vt 0.29688 0.62500
vt 0.31250 0.62500
vt 0.31250 0.65625
vt 0.34375 0.65625
vt 0.34375 0.62500
vt 0.35938 0.62500
vt 0.35938 0.65625

g dude_sitting1
usemtl dude_sitting1_Material
f 1/1/2 2/2/2 3/3/2 4/4/2
f 12/5/4 11/6/4 2/7/4 1/8/4
f 4/9/3 3/10/3 6/11/3 5/12/3
f 5/13/2 6/14/2 7/15/2 8/16/2
f 9/17/2 10/18/2 11/19/2 12/20/2
f 29/21/1 30/22/1 31/23/1 32/24/1
f 32/25/4 31/26/4 64/27/4 9/28/4
f 8/29/3 61/30/3 30/31/3 29/32/3
f 33/33/1 34/34/1 35/35/1 36/36/1
f 37/37/1 38/38/1 39/39/1 40/40/1
f 44/41/4 43/42/4 14/43/4 13/44/4
f 13/45/2 14/46/2 15/47/2 16/48/2
f 41/49/1 42/50/1 43/51/1 44/52/1
f 16/53/3 15/54/3 42/55/3 41/56/3
f 24/57/3 23/58/3 38/59/3 63/60/3
f 65/61/4 35/62/4 18/63/4 17/64/4
f 66/65/4 39/66/4 22/67/4 21/68/4
f 17/69/2 18/70/2 19/71/2 20/72/2
f 21/73/2 22/74/2 23/75/2 24/76/2
f 20/77/3 19/78/3 34/79/3 62/80/3
f 16/81/5 41/82/5 44/83/5 13/84/5
f 56/85/5 33/86/5 36/87/5 67/88/5
f 68/89/5 37/90/5 40/91/5 57/92/5
f 69/93/6 7/94/6 10/95/6 70/96/6
f 4/97/5 5/98/5 12/99/5 1/100/5
f 6/101/6 3/102/6 2/103/6 11/104/6
f 48/105/3 47/106/3 63/107/3 37/108/3
f 8/109/5 29/110/5 50/111/5 27/112/5
f 26/113/5 51/114/5 32/115/5 9/116/5
f 45/117/1 46/118/1 47/119/1 48/120/1
f 71/121/6 15/122/6 14/123/6 72/124/6
f 42/125/6 73/126/6 74/127/6 43/128/6
f 36/129/4 65/130/4 46/131/4 45/132/4
f 60/133/4 59/134/4 10/135/4 64/136/4
f 54/137/6 69/138/6 46/139/6 75/140/6
f 40/141/4 66/142/4 58/143/4 57/144/4
f 76/145/6 47/146/6 70/147/6 59/148/6
f 48/149/5 68/150/5 60/151/5 31/152/5
f 56/153/3 55/154/3 62/155/3 33/156/3
f 61/157/3 7/158/3 54/159/3 53/160/3
f 30/161/5 53/162/5 67/163/5 45/164/5
f 38/165/6 23/166/6 22/167/6 39/168/6
f 52/169/4 51/170/4 26/171/4 25/172/4
f 24/173/6 76/174/6 58/175/6 21/176/6
f 34/177/6 19/178/6 18/179/6 35/180/6
f 20/181/6 55/182/6 75/183/6 17/184/6
f 25/185/2 26/186/2 27/187/2 28/188/2
f 49/189/1 50/190/1 51/191/1 52/192/1
f 53/193/1 54/194/1 55/195/1 56/196/1
f 57/197/1 58/198/1 59/199/1 60/200/1
f 52/201/6 25/202/6 72/203/6 74/204/6
f 73/205/6 71/206/6 28/207/6 49/208/6
f 28/209/3 27/210/3 50/211/3 49/212/3
