# This file was created with Minddesk Qubicle 3.0
# Get Qubicle at www.getqubicle.com

mtllib moai.mtl

vn 0.0 0.0 1.0
vn 0.0 0.0 -1.0
vn -1.0 0.0 0.0
vn 1.0 0.0 0.0
vn 0.0 1.0 0.0
vn 0.0 -1.0 0.0

v 0.70000 2.00000 -0.60000
v 0.70000 0.40000 -0.60000
v -0.70000 0.40000 -0.60000
v -0.70000 2.00000 -0.60000
v 0.70000 2.50000 -0.80000
v 0.70000 2.00000 -0.80000
v -0.70000 2.00000 -0.80000
v -0.70000 2.50000 -0.80000
v 0.70000 3.30000 -0.80000
v 0.70000 2.60000 -0.80000
v -0.70000 2.60000 -0.80000
v -0.70000 3.30000 -0.80000
v 0.60000 0.40000 -0.60000
v 0.60000 0.00000 -0.60000
v -0.60000 0.00000 -0.60000
v -0.60000 0.40000 -0.60000
v 0.80000 2.60000 -0.80000
v 0.80000 2.50000 -0.80000
v -0.80000 2.50000 -0.80000
v -0.80000 2.60000 -0.80000
v -0.60000 2.50000 0.60000
v -0.60000 2.40000 0.60000
v -0.90000 2.40000 0.60000
v -0.90000 2.50000 0.60000
v 0.90000 2.50000 0.60000
v 0.90000 2.40000 0.60000
v 0.60000 2.40000 0.60000
v 0.60000 2.50000 0.60000
v -0.60000 2.30000 0.60000
v -0.80000 2.30000 0.60000
v -0.80000 2.40000 0.60000
v 0.80000 2.40000 0.60000
v 0.80000 2.30000 0.60000
v 0.60000 2.30000 0.60000
v -0.80000 2.60000 0.60000
v -0.80000 2.50000 0.60000
v -0.90000 2.60000 0.60000
v -0.60000 2.60000 0.60000
v -0.70000 2.50000 0.60000
v -0.70000 2.60000 0.60000
v 0.70000 2.60000 0.60000
v 0.70000 2.50000 0.60000
v 0.60000 2.60000 0.60000
v 0.90000 2.60000 0.60000
v 0.80000 2.50000 0.60000
v 0.80000 2.60000 0.60000
v -0.60000 1.30000 0.60000
v -0.10000 1.30000 0.60000
v -0.10000 2.30000 0.60000
v 0.10000 2.30000 0.60000
v 0.10000 1.30000 0.60000
v 0.60000 1.30000 0.60000
v -0.10000 2.40000 0.70000
v -0.10000 1.50000 0.70000
v 0.10000 1.50000 0.70000
v 0.10000 2.40000 0.70000
v -0.70000 2.00000 -0.20000
v -0.70000 0.80000 -0.20000
v -0.60000 0.80000 -0.20000
v -0.60000 2.00000 -0.20000
v 0.60000 2.00000 -0.20000
v 0.60000 0.80000 -0.20000
v 0.70000 0.80000 -0.20000
v 0.70000 2.00000 -0.20000
v -0.70000 3.20000 -0.10000
v -0.70000 2.00000 -0.10000
v -0.60000 2.00000 -0.10000
v -0.60000 3.20000 -0.10000
v 0.60000 3.20000 -0.10000
v 0.60000 2.00000 -0.10000
v 0.70000 2.00000 -0.10000
v 0.70000 3.20000 -0.10000
v -0.60000 3.20000 0.60000
v 0.60000 3.20000 0.60000
v -0.60000 0.40000 0.30000
v -0.60000 0.00000 0.30000
v 0.60000 0.00000 0.30000
v 0.60000 0.40000 0.30000
v -0.70000 0.80000 0.70000
v -0.70000 0.40000 0.70000
v 0.70000 0.40000 0.70000
v 0.70000 0.80000 0.70000
v -0.60000 1.10000 0.60000
v 0.60000 1.10000 0.60000
v -0.60000 0.90000 0.60000
v -0.20000 0.90000 0.60000
v -0.20000 1.10000 0.60000
v 0.20000 1.10000 0.60000
v 0.20000 0.90000 0.60000
v 0.60000 0.90000 0.60000
v -0.20000 1.10000 0.70000
v -0.20000 0.90000 0.70000
v 0.20000 0.90000 0.70000
v 0.20000 1.10000 0.70000
v -0.90000 2.60000 0.70000
v -0.90000 2.50000 0.70000
v 0.90000 2.50000 0.70000
v 0.90000 2.60000 0.70000
v -0.70000 3.30000 -0.10000
v 0.70000 3.30000 -0.10000
v -0.60000 0.80000 0.60000
v 0.60000 0.80000 0.60000
v -0.90000 2.40000 0.70000
v -0.10000 2.50000 0.70000
v -0.80000 2.40000 0.70000
v -0.80000 2.30000 0.70000
v -0.20000 2.30000 0.70000
v -0.20000 2.40000 0.70000
v 0.10000 2.50000 0.70000
v 0.90000 2.40000 0.70000
v 0.20000 2.40000 0.70000
v 0.20000 2.30000 0.70000
v 0.80000 2.30000 0.70000
v 0.80000 2.40000 0.70000
v -0.10000 2.50000 0.60000
v -0.10000 2.40000 0.60000
v 0.10000 2.40000 0.60000
v 0.10000 2.50000 0.60000
v -0.10000 1.50000 0.80000
v -0.10000 1.40000 0.80000
v 0.10000 1.40000 0.80000
v 0.10000 1.50000 0.80000
v -0.10000 1.40000 0.90000
v -0.10000 1.30000 0.90000
v 0.10000 1.30000 0.90000
v 0.10000 1.40000 0.90000
v -0.20000 2.40000 0.60000
v -0.20000 2.30000 0.60000
v 0.20000 2.30000 0.60000
v 0.20000 2.40000 0.60000
v -0.60000 2.00000 0.60000
v -0.70000 0.80000 -0.60000
v -0.10000 1.50000 0.60000
v -0.70000 2.50000 -0.10000
v -0.70000 2.60000 -0.10000
v 0.70000 2.60000 -0.10000
v 0.70000 2.50000 -0.10000
v -0.10000 1.40000 0.60000
v 0.60000 2.00000 0.60000
v 0.70000 0.80000 -0.60000
v 0.10000 1.50000 0.60000
v 0.10000 1.40000 0.60000
v -0.70000 0.80000 0.60000
v 0.70000 0.80000 0.60000
v -0.70000 0.40000 0.30000
v 0.70000 0.40000 0.30000

vt 0.00781 0.26563
vt 0.00781 0.01563
vt 0.11719 0.01563
vt 0.11719 0.26563
vt 0.13281 0.23438
vt 0.13281 0.01563
vt 0.14063 0.01563
vt 0.14063 0.23438
vt 0.15625 0.23438
vt 0.15625 0.01563
vt 0.16406 0.01563
vt 0.16406 0.23438
vt 0.17969 0.23438
vt 0.17969 0.01563
vt 0.18750 0.01563
vt 0.18750 0.23438
vt 0.20313 0.23438
vt 0.20313 0.01563
vt 0.21094 0.01563
vt 0.21094 0.23438
vt 0.22656 0.20313
vt 0.22656 0.01563
vt 0.28906 0.01563
vt 0.28906 0.20313
vt 0.30469 0.20313
vt 0.30469 0.01563
vt 0.36719 0.01563
vt 0.36719 0.20313
vt 0.38281 0.20313
vt 0.38281 0.01563
vt 0.43750 0.01563
vt 0.43750 0.20313
vt 0.45313 0.20313
vt 0.45313 0.01563
vt 0.50781 0.01563
vt 0.50781 0.20313
vt 0.52344 0.20313
vt 0.52344 0.01563
vt 0.55469 0.01563
vt 0.55469 0.20313
vt 0.57031 0.20313
vt 0.57031 0.01563
vt 0.60156 0.01563
vt 0.60156 0.20313
vt 0.61719 0.20313
vt 0.61719 0.01563
vt 0.62500 0.01563
vt 0.62500 0.20313
vt 0.64063 0.20313
vt 0.64063 0.01563
vt 0.64844 0.01563
vt 0.64844 0.20313
vt 0.66406 0.20313
vt 0.66406 0.01563
vt 0.67188 0.01563
vt 0.67188 0.20313
vt 0.68750 0.20313
vt 0.68750 0.01563
vt 0.69531 0.01563
vt 0.69531 0.20313
vt 0.71094 0.17188
vt 0.71094 0.01563
vt 0.75000 0.01563
vt 0.75000 0.17188
vt 0.76563 0.17188
vt 0.76563 0.01563
vt 0.80469 0.01563
vt 0.80469 0.17188
vt 0.82031 0.15625
vt 0.82031 0.01563
vt 0.91406 0.01563
vt 0.91406 0.15625
vt 0.92969 0.15625
vt 0.92969 0.01563
vt 0.94531 0.01563
vt 0.94531 0.15625
vt 0.96094 0.15625
vt 0.96094 0.01563
vt 0.96875 0.01563
vt 0.96875 0.15625
vt 0.98438 0.15625
vt 0.98438 0.01563
vt 0.99219 0.01563
vt 0.99219 0.15625
vt 0.00781 0.43750
vt 0.00781 0.29688
vt 0.01563 0.29688
vt 0.01563 0.43750
vt 0.03125 0.43750
vt 0.03125 0.29688
vt 0.03906 0.29688
vt 0.03906 0.43750
vt 0.05469 0.42188
vt 0.05469 0.29688
vt 0.06250 0.29688
vt 0.06250 0.42188
vt 0.07813 0.42188
vt 0.07813 0.29688
vt 0.08594 0.29688
vt 0.08594 0.42188
vt 0.10156 0.40625
vt 0.10156 0.29688
vt 0.21094 0.29688
vt 0.21094 0.40625
vt 0.22656 0.40625
vt 0.22656 0.29688
vt 0.33594 0.29688
vt 0.33594 0.40625
vt 0.35156 0.40625
vt 0.35156 0.29688
vt 0.44531 0.29688
vt 0.44531 0.40625
vt 0.46094 0.40625
vt 0.46094 0.29688
vt 0.51563 0.29688
vt 0.51563 0.40625
vt 0.53125 0.40625
vt 0.53125 0.29688
vt 0.58594 0.29688
vt 0.58594 0.40625
vt 0.60156 0.39063
vt 0.60156 0.29688
vt 0.69531 0.29688
vt 0.69531 0.39063
vt 0.71094 0.37500
vt 0.71094 0.29688
vt 0.82031 0.29688
vt 0.82031 0.37500
vt 0.83594 0.37500
vt 0.83594 0.29688
vt 0.89063 0.29688
vt 0.89063 0.37500
vt 0.90625 0.37500
vt 0.90625 0.29688
vt 0.96094 0.29688
vt 0.96094 0.37500
vt 0.00781 0.53125
vt 0.00781 0.46875
vt 0.11719 0.46875
vt 0.11719 0.53125
vt 0.13281 0.53125
vt 0.13281 0.46875
vt 0.24219 0.46875
vt 0.24219 0.53125
vt 0.25781 0.53125
vt 0.25781 0.46875
vt 0.35938 0.46875
vt 0.35938 0.53125
vt 0.37500 0.53125
vt 0.37500 0.46875
vt 0.47656 0.46875
vt 0.47656 0.53125
vt 0.49219 0.53125
vt 0.49219 0.46875
vt 0.58594 0.46875
vt 0.58594 0.53125
vt 0.60156 0.53125
vt 0.60156 0.46875
vt 0.69531 0.46875
vt 0.69531 0.53125
vt 0.71094 0.53125
vt 0.71094 0.46875
vt 0.78125 0.46875
vt 0.78125 0.53125
vt 0.79688 0.53125
vt 0.79688 0.46875
vt 0.86719 0.46875
vt 0.86719 0.53125
vt 0.97656 0.34375
vt 0.97656 0.29688
vt 0.99219 0.29688
vt 0.99219 0.34375
vt 0.88281 0.50000
vt 0.88281 0.46875
vt 0.99219 0.46875
vt 0.99219 0.50000
vt 0.00781 0.59375
vt 0.00781 0.56250
vt 0.10156 0.56250
vt 0.10156 0.59375
vt 0.11719 0.59375
vt 0.11719 0.56250
vt 0.14844 0.56250
vt 0.14844 0.59375
vt 0.16406 0.59375
vt 0.16406 0.56250
vt 0.19531 0.56250
vt 0.19531 0.59375
vt 0.21094 0.59375
vt 0.21094 0.56250
vt 0.24219 0.56250
vt 0.24219 0.59375
vt 0.25781 0.59375
vt 0.25781 0.56250
vt 0.26563 0.56250
vt 0.26563 0.59375
vt 0.28125 0.59375
vt 0.28125 0.56250
vt 0.28906 0.56250
vt 0.28906 0.59375
vt 0.30469 0.59375
vt 0.30469 0.56250
vt 0.31250 0.56250
vt 0.31250 0.59375
vt 0.32813 0.59375
vt 0.32813 0.56250
vt 0.33594 0.56250
vt 0.33594 0.59375
vt 0.35156 0.57813
vt 0.35156 0.56250
vt 0.49219 0.56250
vt 0.49219 0.57813
vt 0.50781 0.57813
vt 0.50781 0.56250
vt 0.64844 0.56250
vt 0.64844 0.57813
vt 0.66406 0.57813
vt 0.66406 0.56250
vt 0.78906 0.56250
vt 0.78906 0.57813
vt 0.80469 0.57813
vt 0.80469 0.56250
vt 0.91406 0.56250
vt 0.91406 0.57813
vt 0.00781 0.64063
vt 0.00781 0.62500
vt 0.11719 0.62500
vt 0.11719 0.64063
vt 0.13281 0.64063
vt 0.13281 0.62500
vt 0.24219 0.62500
vt 0.24219 0.64063
vt 0.25781 0.64063
vt 0.25781 0.62500
vt 0.36719 0.62500
vt 0.36719 0.64063
vt 0.38281 0.64063
vt 0.38281 0.62500
vt 0.47656 0.62500
vt 0.47656 0.64063
vt 0.92969 0.57813
vt 0.92969 0.56250
vt 0.99219 0.56250
vt 0.99219 0.57813
vt 0.49219 0.64063
vt 0.49219 0.62500
vt 0.55469 0.62500
vt 0.55469 0.64063
vt 0.57031 0.64063
vt 0.57031 0.62500
vt 0.62500 0.62500
vt 0.62500 0.64063
vt 0.64063 0.64063
vt 0.64063 0.62500
vt 0.69531 0.62500
vt 0.69531 0.64063
vt 0.71094 0.64063
vt 0.71094 0.62500
vt 0.75781 0.62500
vt 0.75781 0.64063
vt 0.77344 0.64063
vt 0.77344 0.62500
vt 0.82031 0.62500
vt 0.82031 0.64063
vt 0.83594 0.64063
vt 0.83594 0.62500
vt 0.88281 0.62500
vt 0.88281 0.64063
vt 0.89844 0.64063
vt 0.89844 0.62500
vt 0.94531 0.62500
vt 0.94531 0.64063
vt 0.96094 0.64063
vt 0.96094 0.62500
vt 0.99219 0.62500
vt 0.99219 0.64063
vt 0.00781 0.68750
vt 0.00781 0.67188
vt 0.03906 0.67188
vt 0.03906 0.68750
vt 0.05469 0.68750
vt 0.05469 0.67188
vt 0.07813 0.67188
vt 0.07813 0.68750
vt 0.09375 0.68750
vt 0.09375 0.67188
vt 0.11719 0.67188
vt 0.11719 0.68750
vt 0.13281 0.68750
vt 0.13281 0.67188
vt 0.15625 0.67188
vt 0.15625 0.68750
vt 0.17188 0.68750
vt 0.17188 0.67188
vt 0.19531 0.67188
vt 0.19531 0.68750
vt 0.21094 0.68750
vt 0.21094 0.67188
vt 0.22656 0.67188
vt 0.22656 0.68750
vt 0.24219 0.68750
vt 0.24219 0.67188
vt 0.25781 0.67188
vt 0.25781 0.68750
vt 0.27344 0.68750
vt 0.27344 0.67188
vt 0.28906 0.67188
vt 0.28906 0.68750
vt 0.30469 0.68750
vt 0.30469 0.67188
vt 0.32031 0.67188
vt 0.32031 0.68750
vt 0.33594 0.68750
vt 0.33594 0.67188
vt 0.35156 0.67188
vt 0.35156 0.68750
vt 0.36719 0.68750
vt 0.36719 0.67188
vt 0.38281 0.67188
vt 0.38281 0.68750
vt 0.39844 0.68750
vt 0.39844 0.67188
vt 0.41406 0.67188
vt 0.41406 0.68750
vt 0.42969 0.68750
vt 0.42969 0.67188
vt 0.44531 0.67188
vt 0.44531 0.68750
vt 0.46094 0.68750
vt 0.46094 0.67188
vt 0.47656 0.67188
vt 0.47656 0.68750
vt 0.49219 0.68750
vt 0.49219 0.67188
vt 0.50781 0.67188
vt 0.50781 0.68750
vt 0.52344 0.68750
vt 0.52344 0.67188
vt 0.53906 0.67188
vt 0.53906 0.68750
vt 0.55469 0.68750
vt 0.55469 0.67188
vt 0.56250 0.67188
vt 0.56250 0.68750
vt 0.57813 0.68750
vt 0.57813 0.67188
vt 0.58594 0.67188
vt 0.58594 0.68750
vt 0.60156 0.68750
vt 0.60156 0.67188
vt 0.60938 0.67188
vt 0.60938 0.68750
vt 0.62500 0.68750
vt 0.62500 0.67188
vt 0.63281 0.67188
vt 0.63281 0.68750
vt 0.64844 0.68750
vt 0.64844 0.67188
vt 0.65625 0.67188
vt 0.65625 0.68750
vt 0.67188 0.68750
vt 0.67188 0.67188
vt 0.67969 0.67188
vt 0.67969 0.68750
vt 0.69531 0.68750
vt 0.69531 0.67188
vt 0.70313 0.67188
vt 0.70313 0.68750
vt 0.71875 0.68750
vt 0.71875 0.67188
vt 0.72656 0.67188
vt 0.72656 0.68750
vt 0.74219 0.68750
vt 0.74219 0.67188
vt 0.75000 0.67188
vt 0.75000 0.68750
vt 0.76563 0.68750
vt 0.76563 0.67188
vt 0.77344 0.67188
vt 0.77344 0.68750
vt 0.78906 0.68750
vt 0.78906 0.67188
vt 0.79688 0.67188
vt 0.79688 0.68750
vt 0.81250 0.68750
vt 0.81250 0.67188
vt 0.82031 0.67188
vt 0.82031 0.68750
vt 0.83594 0.68750
vt 0.83594 0.67188
vt 0.84375 0.67188
vt 0.84375 0.68750
vt 0.85938 0.68750
vt 0.85938 0.67188
vt 0.86719 0.67188
vt 0.86719 0.68750
vt 0.88281 0.68750
vt 0.88281 0.67188
vt 0.89063 0.67188
vt 0.89063 0.68750
vt 0.90625 0.68750
vt 0.90625 0.67188
vt 0.91406 0.67188
vt 0.91406 0.68750
vt 0.92969 0.68750
vt 0.92969 0.67188
vt 0.93750 0.67188
vt 0.93750 0.68750
vt 0.95313 0.68750
vt 0.95313 0.67188
vt 0.96094 0.67188
vt 0.96094 0.68750

g moai
usemtl moai_Material
f 1/1/2 2/2/2 3/3/2 4/4/2
f 5/125/2 6/126/2 7/127/2 8/128/2
f 9/105/2 10/106/2 11/107/2 12/108/2
f 13/153/2 14/154/2 15/155/2 16/156/2
f 17/217/2 18/218/2 19/219/2 20/220/2
f 21/281/2 22/282/2 23/283/2 24/284/2
f 25/285/2 26/286/2 27/287/2 28/288/2
f 22/309/2 29/310/2 30/311/2 31/312/2
f 32/321/2 33/322/2 34/323/2 27/324/2
f 35/341/2 36/342/2 24/343/2 37/344/2
f 38/369/2 21/370/2 39/371/2 40/372/2
f 41/397/2 42/398/2 28/399/2 43/400/2
f 44/393/2 25/394/2 45/395/2 46/396/2
f 29/61/1 47/62/1 48/63/1 49/64/1
f 50/65/1 51/66/1 52/67/1 34/68/1
f 53/73/1 54/74/1 55/75/1 56/76/1
f 57/45/1 58/46/1 59/47/1 60/48/1
f 61/49/1 62/50/1 63/51/1 64/52/1
f 65/57/1 66/58/1 67/59/1 68/60/1
f 69/53/1 70/54/1 71/55/1 72/56/1
f 73/121/1 38/122/1 43/123/1 74/124/1
f 75/157/1 76/158/1 77/159/1 78/160/1
f 79/141/1 80/142/1 81/143/1 82/144/1
f 47/177/1 83/178/1 84/179/1 52/180/1
f 83/185/1 85/186/1 86/187/1 87/188/1
f 88/181/1 89/182/1 90/183/1 84/184/1
f 91/189/1 92/190/1 93/191/1 94/192/1
f 95/209/1 96/210/1 97/211/1 98/212/1
f 99/221/1 65/222/1 72/223/1 100/224/1
f 85/237/1 101/238/1 102/239/1 90/240/1
f 96/241/1 103/242/1 53/243/1 104/244/1
f 105/261/1 106/262/1 107/263/1 108/264/1
f 109/245/1 56/246/1 110/247/1 97/248/1
f 111/257/1 112/258/1 113/259/1 114/260/1
f 115/325/1 116/326/1 117/327/1 118/328/1
f 119/333/1 120/334/1 121/335/1 122/336/1
f 123/337/1 124/338/1 125/339/1 126/340/1
f 127/401/1 128/402/1 49/403/1 116/404/1
f 117/409/1 50/410/1 129/411/1 130/412/1
f 60/21/3 59/22/3 101/23/3 131/24/3
f 68/29/3 67/30/3 131/31/3 73/32/3
f 4/37/3 132/38/3 58/39/3 57/40/3
f 116/81/3 133/82/3 54/83/3 53/84/3
f 8/129/3 7/130/3 66/131/3 134/132/3
f 12/113/3 11/114/3 135/115/3 99/116/3
f 132/145/3 3/146/3 80/147/3 79/148/3
f 16/161/3 15/162/3 76/163/3 75/164/3
f 37/205/3 23/206/3 103/207/3 95/208/3
f 87/201/3 86/202/3 92/203/3 91/204/3
f 20/233/3 19/234/3 36/235/3 35/236/3
f 136/253/3 137/254/3 42/255/3 41/256/3
f 138/289/3 48/290/3 124/291/3 123/292/3
f 133/329/3 138/330/3 120/331/3 119/332/3
f 31/381/3 30/382/3 106/383/3 105/384/3
f 118/389/3 117/390/3 56/391/3 109/392/3
f 130/385/3 129/386/3 112/387/3 111/388/3
f 139/25/4 102/26/4 62/27/4 61/28/4
f 74/33/4 139/34/4 70/35/4 69/36/4
f 64/41/4 63/42/4 140/43/4 1/44/4
f 56/85/4 55/86/4 141/87/4 117/88/4
f 137/133/4 71/134/4 6/135/4 5/136/4
f 100/117/4 136/118/4 10/119/4 9/120/4
f 78/165/4 77/166/4 14/167/4 13/168/4
f 82/149/4 81/150/4 2/151/4 140/152/4
f 94/193/4 93/194/4 89/195/4 88/196/4
f 98/197/4 110/198/4 26/199/4 44/200/4
f 46/225/4 45/226/4 18/227/4 17/228/4
f 40/249/4 39/250/4 134/251/4 135/252/4
f 126/293/4 125/294/4 51/295/4 142/296/4
f 122/301/4 121/302/4 142/303/4 141/304/4
f 108/373/4 107/374/4 128/375/4 127/376/4
f 104/377/4 53/378/4 116/379/4 115/380/4
f 114/405/4 113/406/4 33/407/4 32/408/4
f 20/13/5 35/14/5 40/15/5 11/16/5
f 10/17/5 41/18/5 46/19/5 17/20/5
f 12/101/5 99/102/5 100/103/5 9/104/5
f 68/109/5 73/110/5 74/111/5 69/112/5
f 58/93/5 143/94/5 101/95/5 59/96/5
f 62/97/5 102/98/5 144/99/5 63/100/5
f 37/213/5 95/214/5 98/215/5 44/216/5
f 143/229/5 79/230/5 82/231/5 144/232/5
f 87/277/5 91/278/5 94/279/5 88/280/5
f 116/297/5 53/298/5 56/299/5 117/300/5
f 54/305/5 119/306/5 122/307/5 55/308/5
f 120/317/5 123/318/5 126/319/5 121/320/5
f 76/69/6 15/70/6 14/71/6 77/72/6
f 36/5/6 19/6/6 8/7/6 39/8/6
f 42/9/6 5/10/6 18/11/6 45/12/6
f 145/77/6 3/78/6 16/79/6 75/80/6
f 78/89/6 13/90/6 2/91/6 146/92/6
f 80/137/6 145/138/6 146/139/6 81/140/6
f 124/169/6 48/170/6 51/171/6 125/172/6
f 4/173/6 7/174/6 6/175/6 1/176/6
f 106/265/6 30/266/6 128/267/6 107/268/6
f 112/269/6 129/270/6 33/271/6 113/272/6
f 92/273/6 86/274/6 89/275/6 93/276/6
f 104/313/6 115/314/6 118/315/6 109/316/6
f 66/345/6 57/346/6 60/347/6 67/348/6
f 70/361/6 61/362/6 64/363/6 71/364/6
f 103/365/6 23/366/6 31/367/6 105/368/6
f 108/357/6 127/358/6 116/359/6 53/360/6
f 56/349/6 117/350/6 130/351/6 111/352/6
f 114/353/6 32/354/6 26/355/6 110/356/6
