# This file was created with Minddesk Qubicle 3.0
# Get Qubicle at www.getqubicle.com

mtllib orange_little_fish.mtl

vn 0.0 0.0 1.0
vn 0.0 0.0 -1.0
vn -1.0 0.0 0.0
vn 1.0 0.0 0.0
vn 0.0 1.0 0.0
vn 0.0 -1.0 0.0

v 0.10000 0.50000 -0.50000
v 0.10000 0.00000 -0.50000
v 0.00000 0.00000 -0.50000
v 0.00000 0.50000 -0.50000
v 0.10000 0.60000 -0.20000
v 0.10000 0.40000 -0.20000
v 0.00000 0.40000 -0.20000
v 0.00000 0.60000 -0.20000
v -0.10000 0.30000 0.10000
v -0.10000 0.10000 0.10000
v -0.20000 0.10000 0.10000
v -0.20000 0.30000 0.10000
v 0.30000 0.30000 0.10000
v 0.30000 0.10000 0.10000
v 0.20000 0.10000 0.10000
v 0.20000 0.30000 0.10000
v 0.20000 0.10000 0.00000
v 0.20000 0.00000 0.00000
v -0.10000 0.00000 0.00000
v -0.10000 0.10000 0.00000
v -0.10000 0.30000 -0.20000
v -0.10000 0.20000 -0.20000
v -0.30000 0.20000 -0.20000
v -0.30000 0.30000 -0.20000
v 0.40000 0.30000 -0.20000
v 0.40000 0.20000 -0.20000
v 0.20000 0.20000 -0.20000
v 0.20000 0.30000 -0.20000
v 0.00000 0.30000 -0.40000
v 0.00000 0.20000 -0.40000
v -0.10000 0.20000 -0.40000
v -0.10000 0.30000 -0.40000
v 0.20000 0.30000 -0.40000
v 0.20000 0.20000 -0.40000
v 0.10000 0.20000 -0.40000
v 0.10000 0.30000 -0.40000
v 0.00000 0.20000 -0.30000
v 0.00000 0.10000 -0.30000
v -0.10000 0.10000 -0.30000
v -0.10000 0.20000 -0.30000
v 0.00000 0.40000 -0.30000
v 0.00000 0.30000 -0.30000
v -0.10000 0.30000 -0.30000
v -0.10000 0.40000 -0.30000
v 0.20000 0.20000 -0.30000
v 0.20000 0.10000 -0.30000
v 0.10000 0.10000 -0.30000
v 0.10000 0.20000 -0.30000
v 0.20000 0.40000 -0.30000
v 0.20000 0.30000 -0.30000
v 0.10000 0.30000 -0.30000
v 0.10000 0.40000 -0.30000
v -0.10000 0.40000 0.40000
v -0.10000 0.20000 0.40000
v 0.20000 0.20000 0.40000
v 0.20000 0.40000 0.40000
v -0.20000 0.30000 0.30000
v -0.20000 0.10000 0.30000
v -0.10000 0.10000 0.30000
v -0.10000 0.30000 0.30000
v 0.20000 0.30000 0.30000
v 0.20000 0.10000 0.30000
v 0.30000 0.10000 0.30000
v 0.30000 0.30000 0.30000
v -0.10000 0.10000 0.40000
v -0.10000 0.00000 0.40000
v 0.20000 0.00000 0.40000
v 0.20000 0.10000 0.40000
v 0.00000 0.00000 -0.30000
v 0.10000 0.00000 -0.30000
v 0.00000 0.50000 -0.30000
v 0.10000 0.50000 -0.30000
v -0.30000 0.30000 -0.10000
v -0.30000 0.20000 -0.10000
v -0.20000 0.20000 -0.10000
v -0.20000 0.30000 -0.10000
v 0.30000 0.30000 -0.10000
v 0.30000 0.20000 -0.10000
v 0.40000 0.20000 -0.10000
v 0.40000 0.30000 -0.10000
v -0.20000 0.30000 0.00000
v -0.20000 0.20000 0.00000
v -0.10000 0.20000 0.00000
v -0.10000 0.30000 0.00000
v 0.00000 0.60000 0.00000
v 0.00000 0.50000 0.00000
v 0.10000 0.50000 0.00000
v 0.10000 0.60000 0.00000
v 0.20000 0.30000 0.00000
v 0.20000 0.20000 0.00000
v 0.30000 0.20000 0.00000
v 0.30000 0.30000 0.00000
v 0.00000 0.50000 0.20000
v 0.00000 0.40000 0.20000
v 0.10000 0.40000 0.20000
v 0.10000 0.50000 0.20000
v 0.00000 0.20000 0.30000
v 0.00000 0.10000 0.30000
v 0.10000 0.10000 0.30000
v 0.10000 0.20000 0.30000
v 0.00000 0.10000 0.40000
v 0.00000 0.20000 0.40000
v 0.10000 0.20000 0.40000
v 0.10000 0.10000 0.40000
v 0.00000 0.20000 -0.50000
v 0.00000 0.30000 -0.50000
v -0.10000 0.30000 0.40000
v -0.10000 0.20000 0.10000
v 0.00000 0.50000 -0.20000
v 0.10000 0.20000 -0.50000
v 0.10000 0.30000 -0.50000
v 0.20000 0.30000 0.40000
v 0.20000 0.20000 0.10000
v 0.10000 0.50000 -0.20000
v -0.10000 0.40000 -0.20000
v -0.10000 0.40000 0.20000
v 0.20000 0.40000 0.20000
v 0.20000 0.40000 -0.20000
v -0.10000 0.30000 -0.10000
v 0.20000 0.30000 -0.10000
v -0.10000 0.20000 -0.10000
v 0.20000 0.20000 -0.10000

vt 0.01563 0.18750
vt 0.01563 0.03125
vt 0.03125 0.03125
vt 0.03125 0.18750
vt 0.06250 0.15625
vt 0.06250 0.03125
vt 0.10938 0.03125
vt 0.10938 0.15625
vt 0.14063 0.15625
vt 0.14063 0.03125
vt 0.15625 0.03125
vt 0.15625 0.15625
vt 0.18750 0.15625
vt 0.18750 0.03125
vt 0.20313 0.03125
vt 0.20313 0.15625
vt 0.23438 0.12500
vt 0.23438 0.03125
vt 0.28125 0.03125
vt 0.28125 0.12500
vt 0.31250 0.09375
vt 0.31250 0.03125
vt 0.35938 0.03125
vt 0.35938 0.09375
vt 0.39063 0.09375
vt 0.39063 0.03125
vt 0.43750 0.03125
vt 0.43750 0.09375
vt 0.46875 0.09375
vt 0.46875 0.03125
vt 0.50000 0.03125
vt 0.50000 0.09375
vt 0.53125 0.09375
vt 0.53125 0.03125
vt 0.56250 0.03125
vt 0.56250 0.09375
vt 0.59375 0.09375
vt 0.59375 0.03125
vt 0.62500 0.03125
vt 0.62500 0.09375
vt 0.65625 0.09375
vt 0.65625 0.03125
vt 0.68750 0.03125
vt 0.68750 0.09375
vt 0.71875 0.09375
vt 0.71875 0.03125
vt 0.75000 0.03125
vt 0.75000 0.09375
vt 0.78125 0.09375
vt 0.78125 0.03125
vt 0.81250 0.03125
vt 0.81250 0.09375
vt 0.84375 0.09375
vt 0.84375 0.03125
vt 0.85938 0.03125
vt 0.85938 0.09375
vt 0.89063 0.09375
vt 0.89063 0.03125
vt 0.90625 0.03125
vt 0.90625 0.09375
vt 0.93750 0.09375
vt 0.93750 0.03125
vt 0.95313 0.03125
vt 0.95313 0.09375
vt 0.01563 0.31250
vt 0.01563 0.25000
vt 0.03125 0.25000
vt 0.03125 0.31250
vt 0.06250 0.31250
vt 0.06250 0.25000
vt 0.07813 0.25000
vt 0.07813 0.31250
vt 0.10938 0.31250
vt 0.10938 0.25000
vt 0.12500 0.25000
vt 0.12500 0.31250
vt 0.15625 0.31250
vt 0.15625 0.25000
vt 0.17188 0.25000
vt 0.17188 0.31250
vt 0.20313 0.31250
vt 0.20313 0.25000
vt 0.21875 0.25000
vt 0.21875 0.31250
vt 0.25000 0.31250
vt 0.25000 0.25000
vt 0.26563 0.25000
vt 0.26563 0.31250
vt 0.29688 0.31250
vt 0.29688 0.25000
vt 0.31250 0.25000
vt 0.31250 0.31250
vt 0.34375 0.31250
vt 0.34375 0.25000
vt 0.35938 0.25000
vt 0.35938 0.31250
vt 0.39063 0.31250
vt 0.39063 0.25000
vt 0.40625 0.25000
vt 0.40625 0.31250
vt 0.43750 0.31250
vt 0.43750 0.25000
vt 0.45313 0.25000
vt 0.45313 0.31250
vt 0.48438 0.31250
vt 0.48438 0.25000
vt 0.50000 0.25000
vt 0.50000 0.31250
vt 0.53125 0.31250
vt 0.53125 0.25000
vt 0.54688 0.25000
vt 0.54688 0.31250
vt 0.57813 0.28125
vt 0.57813 0.25000
vt 0.68750 0.25000
vt 0.68750 0.28125
vt 0.71875 0.28125
vt 0.71875 0.25000
vt 0.82813 0.25000
vt 0.82813 0.28125
vt 0.85938 0.28125
vt 0.85938 0.25000
vt 0.92188 0.25000
vt 0.92188 0.28125
vt 0.01563 0.40625
vt 0.01563 0.37500
vt 0.07813 0.37500
vt 0.07813 0.40625
vt 0.10938 0.40625
vt 0.10938 0.37500
vt 0.17188 0.37500
vt 0.17188 0.40625
vt 0.20313 0.40625
vt 0.20313 0.37500
vt 0.26563 0.37500
vt 0.26563 0.40625
vt 0.29688 0.40625
vt 0.29688 0.37500
vt 0.35938 0.37500
vt 0.35938 0.40625
vt 0.39063 0.40625
vt 0.39063 0.37500
vt 0.45313 0.37500
vt 0.45313 0.40625
vt 0.48438 0.40625
vt 0.48438 0.37500
vt 0.53125 0.37500
vt 0.53125 0.40625
vt 0.56250 0.40625
vt 0.56250 0.37500
vt 0.60938 0.37500
vt 0.60938 0.40625
vt 0.64063 0.40625
vt 0.64063 0.37500
vt 0.68750 0.37500
vt 0.68750 0.40625
vt 0.95313 0.28125
vt 0.95313 0.25000
vt 0.98438 0.25000
vt 0.98438 0.28125
vt 0.71875 0.40625
vt 0.71875 0.37500
vt 0.75000 0.37500
vt 0.75000 0.40625
vt 0.78125 0.40625
vt 0.78125 0.37500
vt 0.81250 0.37500
vt 0.81250 0.40625
vt 0.84375 0.40625
vt 0.84375 0.37500
vt 0.87500 0.37500
vt 0.87500 0.40625
vt 0.90625 0.40625
vt 0.90625 0.37500
vt 0.93750 0.37500
vt 0.93750 0.40625
vt 0.01563 0.50000
vt 0.01563 0.46875
vt 0.04688 0.46875
vt 0.04688 0.50000
vt 0.07813 0.50000
vt 0.07813 0.46875
vt 0.10938 0.46875
vt 0.10938 0.50000
vt 0.14063 0.50000
vt 0.14063 0.46875
vt 0.17188 0.46875
vt 0.17188 0.50000
vt 0.20313 0.50000
vt 0.20313 0.46875
vt 0.23438 0.46875
vt 0.23438 0.50000
vt 0.26563 0.50000
vt 0.26563 0.46875
vt 0.29688 0.46875
vt 0.29688 0.50000
vt 0.96875 0.40625
vt 0.96875 0.37500
vt 0.98438 0.37500
vt 0.98438 0.40625
vt 0.32813 0.50000
vt 0.32813 0.46875
vt 0.34375 0.46875
vt 0.34375 0.50000
vt 0.37500 0.50000
vt 0.37500 0.46875
vt 0.39063 0.46875
vt 0.39063 0.50000
vt 0.42188 0.50000
vt 0.42188 0.46875
vt 0.43750 0.46875
vt 0.43750 0.50000
vt 0.46875 0.50000
vt 0.46875 0.46875
vt 0.48438 0.46875
vt 0.48438 0.50000
vt 0.51563 0.50000
vt 0.51563 0.46875
vt 0.53125 0.46875
vt 0.53125 0.50000
vt 0.56250 0.50000
vt 0.56250 0.46875
vt 0.57813 0.46875
vt 0.57813 0.50000
vt 0.60938 0.50000
vt 0.60938 0.46875
vt 0.62500 0.46875
vt 0.62500 0.50000
vt 0.65625 0.50000
vt 0.65625 0.46875
vt 0.67188 0.46875
vt 0.67188 0.50000
vt 0.70313 0.50000
vt 0.70313 0.46875
vt 0.71875 0.46875
vt 0.71875 0.50000
vt 0.75000 0.50000
vt 0.75000 0.46875
vt 0.76563 0.46875
vt 0.76563 0.50000
vt 0.79688 0.50000
vt 0.79688 0.46875
vt 0.81250 0.46875
vt 0.81250 0.50000
vt 0.84375 0.50000
vt 0.84375 0.46875
vt 0.85938 0.46875
vt 0.85938 0.50000
vt 0.89063 0.50000
vt 0.89063 0.46875
vt 0.90625 0.46875
vt 0.90625 0.50000
vt 0.93750 0.50000
vt 0.93750 0.46875
vt 0.95313 0.46875
vt 0.95313 0.50000
vt 0.01563 0.59375
vt 0.01563 0.56250
vt 0.03125 0.56250
vt 0.03125 0.59375
vt 0.06250 0.59375
vt 0.06250 0.56250
vt 0.07813 0.56250
vt 0.07813 0.59375
vt 0.10938 0.59375
vt 0.10938 0.56250
vt 0.12500 0.56250
vt 0.12500 0.59375
vt 0.15625 0.59375
vt 0.15625 0.56250
vt 0.17188 0.56250
vt 0.17188 0.59375
vt 0.20313 0.59375
vt 0.20313 0.56250
vt 0.21875 0.56250
vt 0.21875 0.59375
vt 0.25000 0.59375
vt 0.25000 0.56250
vt 0.26563 0.56250
vt 0.26563 0.59375
vt 0.29688 0.59375
vt 0.29688 0.56250
vt 0.31250 0.56250
vt 0.31250 0.59375
vt 0.34375 0.59375
vt 0.34375 0.56250
vt 0.35938 0.56250
vt 0.35938 0.59375
vt 0.39063 0.59375
vt 0.39063 0.56250
vt 0.40625 0.56250
vt 0.40625 0.59375
vt 0.43750 0.59375
vt 0.43750 0.56250
vt 0.45313 0.56250
vt 0.45313 0.59375
vt 0.48438 0.59375
vt 0.48438 0.56250
vt 0.50000 0.56250
vt 0.50000 0.59375
vt 0.53125 0.59375
vt 0.53125 0.56250
vt 0.54688 0.56250
vt 0.54688 0.59375
vt 0.57813 0.59375
vt 0.57813 0.56250
vt 0.59375 0.56250
vt 0.59375 0.59375
vt 0.62500 0.59375
vt 0.62500 0.56250
vt 0.64063 0.56250
vt 0.64063 0.59375
vt 0.67188 0.59375
vt 0.67188 0.56250
vt 0.68750 0.56250
vt 0.68750 0.59375
vt 0.71875 0.59375
vt 0.71875 0.56250
vt 0.73438 0.56250
vt 0.73438 0.59375
vt 0.76563 0.59375
vt 0.76563 0.56250
vt 0.78125 0.56250
vt 0.78125 0.59375
vt 0.81250 0.59375
vt 0.81250 0.56250
vt 0.82813 0.56250
vt 0.82813 0.59375
vt 0.85938 0.59375
vt 0.85938 0.56250
vt 0.87500 0.56250
vt 0.87500 0.59375
vt 0.90625 0.59375
vt 0.90625 0.56250
vt 0.92188 0.56250
vt 0.92188 0.59375
vt 0.95313 0.59375
vt 0.95313 0.56250
vt 0.96875 0.56250
vt 0.96875 0.59375
vt 0.01563 0.68750
vt 0.01563 0.65625
vt 0.03125 0.65625
vt 0.03125 0.68750

g orange_little_fish
usemtl orange_little_fish_Material
f 1/1/2 2/2/2 3/3/2 4/4/2
f 66/5/6 19/6/6 18/7/6 67/8/6
f 6/9/5 95/10/5 117/11/5 118/12/5
f 115/13/5 116/14/5 94/15/5 7/16/5
f 20/17/6 39/18/6 46/19/6 17/20/6
f 53/21/1 54/22/1 55/23/1 56/24/1
f 116/25/5 53/26/5 56/27/5 117/28/5
f 4/29/3 106/30/3 42/31/3 71/32/3
f 12/33/3 11/34/3 58/35/3 57/36/3
f 48/37/4 70/38/4 2/39/4 110/40/4
f 105/41/3 3/42/3 69/43/3 37/44/3
f 64/45/4 63/46/4 14/47/4 13/48/4
f 72/49/4 51/50/4 111/51/4 1/52/4
f 4/53/5 71/54/5 72/55/5 1/56/5
f 13/57/2 14/58/2 15/59/2 16/60/2
f 86/61/5 93/62/5 96/63/5 87/64/5
f 8/65/5 85/66/5 88/67/5 5/68/5
f 9/69/2 10/70/2 11/71/2 12/72/2
f 57/73/1 58/74/1 59/75/1 60/76/1
f 112/77/4 68/78/4 62/79/4 61/80/4
f 61/81/1 62/82/1 63/83/1 64/84/1
f 5/85/2 6/86/2 7/87/2 8/88/2
f 58/89/6 11/90/6 10/91/6 59/92/6
f 69/93/6 3/94/6 2/95/6 70/96/6
f 60/97/3 59/98/3 65/99/3 107/100/3
f 12/101/5 57/102/5 60/103/5 9/104/5
f 16/105/5 61/106/5 64/107/5 13/108/5
f 62/109/6 15/110/6 14/111/6 63/112/6
f 56/113/4 112/114/4 50/115/4 49/116/4
f 44/117/3 43/118/3 107/119/3 53/120/3
f 113/121/4 15/122/4 46/123/4 45/124/4
f 96/125/4 95/126/4 6/127/4 114/128/4
f 68/129/4 67/130/4 18/131/4 17/132/4
f 20/133/3 19/134/3 66/135/3 65/136/3
f 109/137/3 7/138/3 94/139/3 93/140/3
f 40/141/3 39/142/3 10/143/3 108/144/3
f 17/145/2 18/146/2 19/147/2 20/148/2
f 65/149/1 66/150/1 67/151/1 68/152/1
f 44/153/5 115/154/5 118/155/5 49/156/5
f 8/157/3 109/158/3 86/159/3 85/160/3
f 32/161/3 31/162/3 22/163/3 21/164/3
f 24/165/5 73/166/5 119/167/5 21/168/5
f 122/169/6 27/170/6 26/171/6 79/172/6
f 74/173/6 23/174/6 22/175/6 121/176/6
f 25/177/2 26/178/2 27/179/2 28/180/2
f 21/181/2 22/182/2 23/183/2 24/184/2
f 28/185/5 120/186/5 80/187/5 25/188/5
f 88/189/4 87/190/4 114/191/4 5/192/4
f 28/193/4 27/194/4 34/195/4 33/196/4
f 89/197/1 90/198/1 91/199/1 92/200/1
f 77/201/1 78/202/1 79/203/1 80/204/1
f 81/205/1 82/206/1 83/207/1 84/208/1
f 85/209/1 86/210/1 87/211/1 88/212/1
f 29/213/2 30/214/2 31/215/2 32/216/2
f 38/217/1 69/218/1 70/219/1 47/220/1
f 71/221/1 41/222/1 52/223/1 72/224/1
f 49/225/2 50/226/2 51/227/2 52/228/2
f 45/229/2 46/230/2 47/231/2 48/232/2
f 37/233/2 38/234/2 39/235/2 40/236/2
f 33/237/2 34/238/2 35/239/2 36/240/2
f 73/241/1 74/242/1 75/243/1 76/244/1
f 41/245/2 42/246/2 43/247/2 44/248/2
f 36/249/5 51/250/5 50/251/5 33/252/5
f 76/253/5 81/254/5 84/255/5 119/256/5
f 120/257/5 89/258/5 92/259/5 77/260/5
f 16/261/4 113/262/4 90/263/4 89/264/4
f 102/265/4 101/266/4 98/267/4 97/268/4
f 32/269/5 43/270/5 42/271/5 29/272/5
f 82/273/6 75/274/6 121/275/6 83/276/6
f 90/277/6 122/278/6 78/279/6 91/280/6
f 102/281/6 97/282/6 100/283/6 103/284/6
f 98/285/5 101/286/5 104/287/5 99/288/5
f 40/289/6 31/290/6 30/291/6 37/292/6
f 48/293/6 35/294/6 34/295/6 45/296/6
f 103/297/1 104/298/1 68/299/1 55/300/1
f 106/301/3 105/302/3 30/303/3 29/304/3
f 24/305/3 23/306/3 74/307/3 73/308/3
f 93/309/1 94/310/1 95/311/1 96/312/1
f 97/313/1 98/314/1 99/315/1 100/316/1
f 54/317/1 65/318/1 101/319/1 102/320/1
f 36/321/4 35/322/4 110/323/4 111/324/4
f 80/325/4 79/326/4 26/327/4 25/328/4
f 92/329/4 91/330/4 78/331/4 77/332/4
f 76/333/3 75/334/3 82/335/3 81/336/3
f 84/337/3 83/338/3 108/339/3 9/340/3
f 100/341/3 99/342/3 104/343/3 103/344/3
