# Blender v2.93.1 OBJ File: 'mb_for_game.blend'
# www.blender.org
mtllib cactus_smol_poly.mtl
o cactus_poly.001_Circle.001
v 0.000000 -0.000001 0.000000
v 0.000000 1.197067 -0.324646
v -0.229559 1.197067 -0.229559
v -0.324646 1.197067 0.000000
v -0.229559 1.197067 0.229559
v 0.000000 1.197067 0.324646
v 0.229559 1.197067 0.229559
v 0.324646 1.197067 -0.000000
v 0.229559 1.197067 -0.229559
v 0.000000 1.278305 0.000000
v -0.261757 0.817217 -0.253633
v -0.370180 0.817217 0.008124
v 0.370180 0.817217 0.008124
v 0.261757 0.817217 -0.253633
v 0.000000 0.817217 0.378304
v 0.261757 0.817217 0.269881
v -0.261757 0.817217 0.269881
v 0.000000 0.817217 -0.362056
v -0.372954 0.395407 0.010155
v 0.263719 0.395407 -0.253564
v 0.263719 0.395407 0.273873
v -0.263718 0.395407 0.273873
v -0.263718 0.395407 -0.253564
v 0.372954 0.395407 0.010155
v 0.000000 0.395407 0.383109
v 0.000000 0.395407 -0.362800
v -0.194563 0.655831 0.282628
v -0.115011 0.620484 0.315712
v -0.200363 0.552400 0.280612
v -0.204209 0.646854 0.432047
v 0.056540 1.054918 0.299907
v 0.157387 0.998021 0.258348
v 0.070644 0.943852 0.294480
v 0.155799 1.030433 0.420766
v 0.034324 0.318526 0.329122
v 0.140566 0.256373 0.281075
v 0.052064 0.176364 0.312533
v 0.112519 0.290579 0.447301
v 0.278484 0.384961 0.176904
v 0.313011 0.337607 0.076281
v 0.280015 0.253777 0.142785
v 0.426488 0.348659 0.105676
v 0.260139 0.713131 0.251685
v 0.298764 0.692320 0.158625
v 0.265331 0.563684 0.240497
v 0.417652 0.697640 0.268569
v 0.196217 0.509355 -0.274359
v 0.097975 0.570476 -0.319024
v 0.182524 0.603720 -0.286164
v 0.191914 0.529390 -0.450001
v -0.043267 0.229563 -0.319440
v -0.143832 0.259861 -0.279754
v -0.071527 0.311911 -0.313087
v -0.128290 0.271716 -0.427952
v -0.050800 0.998771 -0.300393
v -0.165357 1.034766 -0.252808
v -0.079775 1.116138 -0.287953
v -0.156057 1.043968 -0.381671
v -0.272443 0.447755 -0.190899
v -0.325114 0.493275 -0.070885
v -0.300090 0.541666 -0.138891
v -0.401230 0.505244 -0.212139
v 0.332392 0.718984 -0.076472
v 0.284219 0.775747 -0.192261
v 0.325775 0.847767 -0.091285
v 0.480763 0.763869 -0.200264
v 0.306853 0.096510 -0.053203
v 0.258928 0.129226 -0.174039
v 0.295214 0.171437 -0.093060
v 0.437535 0.154258 -0.160806
v -0.286733 1.024435 0.083509
v -0.254681 1.005795 0.161058
v -0.280712 0.921909 0.098969
v -0.399290 1.027270 0.179773
v -0.312798 0.246471 0.061996
v -0.274001 0.200765 0.148489
v -0.305548 0.120325 0.059703
v -0.411790 0.228623 0.165306
v -0.229559 -0.000001 -0.229559
v 0.000000 -0.000001 -0.324646
v -0.324646 -0.000001 0.000000
v -0.229559 -0.000001 0.229559
v 0.000000 -0.000001 0.324646
v 0.229559 -0.000001 0.229559
v 0.324646 -0.000001 -0.000000
v 0.229559 -0.000001 -0.229559
v -0.119660 1.278305 -0.119660
v 0.000000 1.278305 -0.169224
v -0.169224 1.278305 0.000000
v -0.119660 1.278305 0.119660
v 0.000000 1.278305 0.169224
v 0.119660 1.278305 0.119660
v 0.169225 1.278305 -0.000000
v 0.119660 1.278305 -0.119660
v -0.039990 1.314341 -0.191502
v -0.109296 1.314341 -0.162631
v -0.162277 1.314341 -0.109435
v -0.190868 1.314341 -0.040013
v -0.190716 1.314341 0.035066
v -0.161845 1.314341 0.104371
v -0.108649 1.314341 0.157352
v -0.039227 1.314341 0.185944
v 0.035851 1.314341 0.185792
v 0.105157 1.314341 0.156920
v 0.158138 1.314341 0.103725
v 0.186729 1.314341 0.034303
v 0.186578 1.314341 -0.040776
v 0.157706 1.314341 -0.110081
v 0.104510 1.314341 -0.163063
v 0.035089 1.314341 -0.191654
v -0.043071 1.269703 -0.064746
v -0.017135 1.269703 -0.075551
v -0.062898 1.269703 -0.044839
v -0.073598 1.269703 -0.018859
v -0.073541 1.269703 0.009237
v -0.062736 1.269703 0.035174
v -0.042829 1.269703 0.055001
v -0.016849 1.269703 0.065700
v 0.006633 1.264953 0.039478
v 0.021857 1.264953 0.033136
v 0.057011 1.269703 0.034932
v 0.067710 1.269703 0.008952
v 0.067654 1.269703 -0.019145
v 0.056849 1.269703 -0.045081
v 0.036942 1.269703 -0.064908
v 0.010962 1.269703 -0.075608
v -0.040027 1.287866 -0.057485
v -0.014122 1.287866 -0.068277
v -0.059831 1.287866 -0.037602
v -0.070518 1.287866 -0.011654
v -0.070461 1.287866 0.016409
v -0.059669 1.287866 0.042314
v -0.039786 1.287866 0.062118
v -0.013837 1.287866 0.072804
v 0.014225 1.287866 0.072748
v 0.040130 1.287866 0.061956
v 0.059934 1.287866 0.042073
v 0.070621 1.287866 0.016124
v 0.070564 1.287866 -0.011939
v 0.059772 1.287866 -0.037844
v 0.039889 1.287866 -0.057647
v 0.013940 1.287866 -0.068334
v -0.109296 1.334106 -0.162631
v -0.039990 1.334106 -0.191502
v -0.162277 1.334106 -0.109435
v -0.190868 1.334106 -0.040013
v -0.190716 1.334106 0.035066
v -0.161845 1.334106 0.104371
v -0.108649 1.334106 0.157352
v -0.039227 1.334106 0.185944
v 0.035851 1.334106 0.185792
v 0.105157 1.334106 0.156920
v 0.158138 1.334106 0.103725
v 0.186729 1.334106 0.034303
v 0.186578 1.334106 -0.040776
v 0.157706 1.334106 -0.110081
v 0.104510 1.334106 -0.163063
v 0.035089 1.334106 -0.191654
v -0.128856 1.360505 -0.154482
v -0.020429 1.360505 -0.199651
v -0.201515 1.362288 -0.025610
v -0.158095 1.362288 -0.131037
v -0.157246 1.364796 0.115794
v -0.200248 1.364796 0.012569
v -0.043075 1.360505 0.183399
v -0.115662 1.360505 0.153504
v 0.142245 1.360505 0.141470
v -0.001237 1.360505 0.201242
v 0.195798 1.360505 0.012285
v 0.149070 1.360505 0.125743
v 0.140606 1.362029 -0.146034
v 0.196452 1.362029 -0.011976
v 0.002055 1.358117 -0.204259
v 0.123135 1.358117 -0.154393
v -0.026071 1.313450 -0.036689
v -0.009187 1.313450 -0.043722
v -0.038978 1.313450 -0.023729
v -0.045943 1.313450 -0.006817
v -0.045906 1.313450 0.011473
v -0.038873 1.313450 0.028357
v -0.025913 1.313450 0.041265
v -0.009001 1.313450 0.048230
v 0.009290 1.313450 0.048193
v 0.026174 1.313450 0.041159
v 0.039081 1.313450 0.028200
v 0.046046 1.313450 0.011288
v 0.046009 1.313450 -0.007003
v 0.038975 1.313450 -0.023887
v 0.026016 1.313450 -0.036794
v 0.009104 1.313450 -0.043759
vt 0.212714 0.582324
vt 0.212674 0.699124
vt 0.212668 0.709620
vt 0.212720 0.586689
vt 0.212713 0.598639
vt 0.212632 0.746350
vt 0.212666 0.731597
vt 0.212707 0.598460
vt 0.212701 0.593899
vt 0.212670 0.713471
vt 0.212668 0.700833
vt 0.212699 0.587759
vt 0.212704 0.583025
vt 0.212673 0.695753
vt 0.212653 0.728090
vt 0.212719 0.593489
vt 0.212674 0.731788
vt 0.212659 0.718883
vt 0.212664 0.711880
vt 0.212663 0.718575
vt 0.212641 0.730403
vt 0.212634 0.760871
vt 0.212621 0.830727
vt 0.212659 0.761871
vt 0.212676 0.485901
vt 0.212702 0.466038
vt 0.212735 0.512092
vt 0.212691 0.503725
vt 0.212817 0.492103
vt 0.212784 0.507819
vt 0.212813 0.471051
vt 0.212768 0.456228
vt 0.212867 0.169273
vt 0.213113 0.301975
vt 0.212962 0.470032
vt 0.212747 0.487946
vt 0.212550 0.459525
vt 0.212450 0.389358
vt 0.212528 0.287257
vt 0.213113 0.406159
vt 0.220522 0.500261
vt 0.220522 0.499886
vt 0.220522 0.499474
vt 0.220520 0.499956
vt 0.220511 0.499474
vt 0.220510 0.499889
vt 0.220508 0.499972
vt 0.220511 0.500280
vt 0.220505 0.500396
vt 0.220505 0.499898
vt 0.220505 0.499474
vt 0.220503 0.499808
vt 0.220525 0.500219
vt 0.220524 0.499839
vt 0.220525 0.499474
vt 0.220522 0.499786
vt 0.220500 0.500350
vt 0.220499 0.499920
vt 0.220500 0.499474
vt 0.220498 0.499952
vt 0.220513 0.499474
vt 0.220511 0.499948
vt 0.220512 0.499828
vt 0.220513 0.500207
vt 0.220536 0.500229
vt 0.220536 0.499474
vt 0.220535 0.499836
vt 0.220534 0.499868
vt 0.220529 0.500263
vt 0.220529 0.499474
vt 0.220528 0.499875
vt 0.220527 0.499909
vt 0.220944 0.500526
vt 0.221341 0.499737
vt 0.220944 0.500000
vt 0.220548 0.499737
vt 0.220495 0.500499
vt 0.220495 0.499474
vt 0.220494 0.499990
vt 0.220492 0.500021
vt 0.220515 0.500409
vt 0.220515 0.499474
vt 0.220515 0.499913
vt 0.220513 0.499980
vt 0.220534 0.499474
vt 0.220533 0.499857
vt 0.220531 0.499840
vt 0.220534 0.500184
vt 0.220518 0.499474
vt 0.220517 0.499872
vt 0.220515 0.499885
vt 0.220518 0.500246
vt 0.213113 0.406159
vt 0.213113 0.301975
vt 0.212867 0.169273
vt 0.212528 0.287257
vt 0.212450 0.389358
vt 0.212550 0.459525
vt 0.212747 0.487946
vt 0.212962 0.470032
vt 0.212646 0.738418
vt 0.212657 0.727055
vt 0.212660 0.722964
vt 0.212660 0.727392
vt 0.212663 0.739197
vt 0.212653 0.762214
vt 0.212637 0.786153
vt 0.212639 0.761606
vt 0.103818 0.332656
vt 0.103828 0.331269
vt 0.103838 0.330500
vt 0.103849 0.330484
vt 0.103858 0.331152
vt 0.103865 0.332736
vt 0.103865 0.334706
vt 0.103860 0.337054
vt 0.103847 0.337494
vt 0.103841 0.338373
vt 0.103834 0.340975
vt 0.103823 0.340897
vt 0.103813 0.340226
vt 0.103806 0.338689
vt 0.103806 0.336766
vt 0.103811 0.334542
vt 0.103810 0.330354
vt 0.103824 0.328107
vt 0.103801 0.332700
vt 0.103792 0.336575
vt 0.103787 0.340718
vt 0.103806 0.343278
vt 0.103819 0.344023
vt 0.103835 0.344021
vt 0.103847 0.343141
vt 0.103861 0.341063
vt 0.103871 0.339034
vt 0.103879 0.335036
vt 0.103886 0.330730
vt 0.103866 0.328131
vt 0.103853 0.327211
vt 0.103836 0.327371
vt 0.298186 0.306598
vt 0.298542 0.270256
vt 0.298629 0.380702
vt 0.298435 0.401353
vt 0.104786 0.455280
vt 0.104671 0.538287
vt 0.103806 0.330045
vt 0.103799 0.332062
vt 0.103794 0.332876
vt 0.104669 0.266775
vt 0.104786 0.336886
vt 0.103789 0.337071
vt 0.103788 0.340161
vt 0.103834 0.326706
vt 0.103910 0.577790
vt 0.103844 0.325504
vt 0.104155 0.170005
vt 0.104391 0.193389
vt 0.103806 0.344039
vt 0.103816 0.344582
vt 0.103794 0.342954
vt 0.103790 0.341491
vt 0.103633 0.195333
vt 0.103819 0.171209
vt 0.103837 0.344773
vt 0.103846 0.343874
vt 0.104219 0.579995
vt 0.103824 0.327194
vt 0.103819 0.327179
vt 0.103314 0.279410
vt 0.103454 0.247906
vt 0.103864 0.341366
vt 0.103872 0.339797
vt 0.103195 0.408162
vt 0.103197 0.349184
vt 0.103882 0.334555
vt 0.103885 0.331294
vt 0.103531 0.539185
vt 0.103856 0.326537
vt 0.103851 0.325860
vt 0.103339 0.491210
vt 0.103866 0.327450
vt 0.103812 0.327743
vt 0.103789 0.334335
vt 0.103821 0.345280
vt 0.103827 0.345743
vt 0.103851 0.344005
vt 0.103858 0.343645
vt 0.103878 0.339009
vt 0.103883 0.337399
vt 0.103883 0.329883
vt 0.103878 0.328327
vt 0.299205 0.386421
vt 0.299400 0.436339
vt 0.299506 0.501561
vt 0.299506 0.572156
vt 0.299400 0.637378
vt 0.299205 0.687296
vt 0.298951 0.714312
vt 0.298675 0.714312
vt 0.298420 0.687296
vt 0.298225 0.637379
vt 0.298120 0.572157
vt 0.298120 0.501562
vt 0.298225 0.436340
vt 0.298420 0.386421
vt 0.298675 0.359406
vt 0.298951 0.359406
vt 0.298918 0.764301
vt 0.298534 0.764805
vt 0.298611 0.652930
vt 0.298822 0.653297
vt 0.298921 0.270267
vt 0.298838 0.381129
vt 0.298179 0.727519
vt 0.298418 0.631940
vt 0.299277 0.308071
vt 0.299029 0.402507
vt 0.297907 0.658043
vt 0.298272 0.593462
vt 0.299544 0.378455
vt 0.299180 0.440679
vt 0.297760 0.566972
vt 0.298196 0.543426
vt 0.299688 0.468096
vt 0.299688 0.565707
vt 0.299252 0.545064
vt 0.299256 0.490975
vt 0.297761 0.468235
vt 0.298201 0.489438
vt 0.299542 0.656383
vt 0.299168 0.594856
vt 0.297910 0.376815
vt 0.298286 0.439605
vt 0.299272 0.726163
vt 0.299017 0.632908
vn -0.9191 0.1020 -0.3807
vn 0.9191 0.1020 -0.3807
vn 0.3795 0.1294 0.9161
vn -0.9174 0.1181 0.3800
vn -0.3811 0.0906 -0.9201
vn 0.3811 0.0906 -0.9201
vn 0.9174 0.1181 0.3800
vn -0.3795 0.1294 0.9161
vn 0.1884 0.8704 0.4549
vn -0.4549 0.8704 0.1884
vn -0.1884 0.8704 -0.4549
vn 0.1884 0.8704 -0.4549
vn 0.4549 0.8704 0.1884
vn -0.1884 0.8704 0.4549
vn -0.4549 0.8704 -0.1884
vn 0.4549 0.8704 -0.1884
vn -0.3827 0.0105 0.9238
vn 0.9239 0.0079 0.3827
vn 0.3827 0.0016 -0.9239
vn -0.3827 0.0016 -0.9239
vn -0.9239 0.0079 0.3827
vn 0.3827 0.0105 0.9238
vn 0.9239 0.0042 -0.3827
vn -0.9239 0.0042 -0.3827
vn -0.9190 -0.1025 -0.3807
vn 0.9190 -0.1025 -0.3807
vn 0.3792 -0.1353 0.9154
vn -0.9170 -0.1218 0.3798
vn -0.3812 -0.0888 -0.9202
vn 0.3812 -0.0888 -0.9202
vn 0.9170 -0.1218 0.3798
vn -0.3792 -0.1353 0.9154
vn 0.3769 0.9228 0.0798
vn 0.4116 -0.7685 0.4898
vn -0.9965 0.0571 -0.0609
vn 0.4290 0.8866 -0.1727
vn 0.5712 -0.8039 0.1660
vn -0.7790 -0.1289 0.6136
vn 0.4676 0.8780 -0.1018
vn 0.6968 -0.6703 0.2555
vn -0.8400 -0.1651 0.5168
vn 0.0204 0.9073 -0.4200
vn 0.2480 -0.6601 -0.7091
vn 0.3759 -0.2291 0.8979
vn 0.1146 0.9785 -0.1713
vn 0.5851 -0.5382 -0.6067
vn -0.1138 -0.0781 0.9904
vn -0.4977 -0.8630 -0.0863
vn -0.1888 0.8902 -0.4147
vn 0.9897 0.1426 -0.0080
vn -0.3260 -0.9390 -0.1093
vn -0.5831 0.8124 0.0038
vn 0.8027 0.3146 -0.5067
vn -0.3327 -0.9386 -0.0910
vn -0.6886 0.7251 0.0021
vn 0.6556 0.2378 -0.7167
vn -0.4237 -0.8928 0.1527
vn -0.5322 0.7699 0.3520
vn 0.3633 0.5309 -0.7656
vn 0.9222 0.0599 0.3820
vn -0.0717 -0.9071 -0.4148
vn 0.0250 0.8090 -0.5873
vn 0.6140 0.1213 0.7799
vn 0.1546 -0.9365 -0.3148
vn -0.0945 0.8995 -0.4266
vn 0.4242 0.4758 0.7705
vn 0.1658 0.9722 0.1652
vn 0.0149 -0.5978 0.8015
vn -0.6447 -0.1509 -0.7494
vn 0.2274 0.8994 0.3733
vn -0.0639 -0.7282 0.6824
vn -0.7193 -0.0287 -0.6942
vn 0.0000 -1.0000 0.0000
vn 0.0000 1.0000 -0.0000
vn -0.0061 -0.9999 -0.0145
vn -0.1383 -0.9331 -0.3320
vn -0.2545 -0.9333 -0.2534
vn -0.3309 -0.9338 -0.1363
vn -0.3559 -0.9345 0.0007
vn -0.3264 -0.9354 0.1360
vn -0.2479 -0.9363 0.2489
vn -0.1331 -0.9370 0.3231
vn 0.0432 -0.9425 0.3314
vn 0.1230 -0.9475 0.2953
vn 0.2048 -0.9425 0.2641
vn 0.3231 -0.9370 0.1331
vn 0.3513 -0.9363 -0.0007
vn 0.3264 -0.9354 -0.1360
vn 0.2511 -0.9345 -0.2521
vn 0.1363 -0.9338 -0.3309
vn -0.0007 -0.9333 -0.3591
vn 0.7213 0.6926 -0.0015
vn 0.2488 0.9363 0.2478
vn 0.2498 -0.6122 -0.7503
vn 0.3588 0.9334 -0.0007
vn -0.4444 -0.8111 -0.3803
vn 0.2612 0.9290 -0.2622
vn -0.9231 -0.0048 0.3845
vn -0.0008 0.9256 -0.3785
vn 0.6844 -0.6237 -0.3777
vn -0.2682 0.9256 -0.2671
vn -0.3701 0.9290 0.0007
vn 0.7461 -0.6422 0.1757
vn -0.2532 0.9334 0.2542
vn -0.7501 -0.6237 0.2199
vn 0.0007 0.9363 0.3512
vn 0.3808 0.0000 -0.9247
vn 0.0020 0.0000 1.0000
vn -0.3845 0.0000 -0.9231
vn -0.0020 0.0000 -1.0000
vn 0.3845 0.0000 0.9231
vn -0.7085 0.0000 -0.7057
vn 0.7085 0.0000 0.7057
vn -0.9247 0.0000 -0.3808
vn 0.9247 0.0000 0.3808
vn -1.0000 0.0000 0.0020
vn 1.0000 0.0000 -0.0020
vn -0.9231 0.0000 0.3846
vn 0.9231 0.0000 -0.3846
vn -0.7057 0.0000 0.7085
vn 0.7057 0.0000 -0.7085
vn -0.3808 0.0000 0.9247
vn 0.1947 0.8623 0.4674
vn 0.4690 0.8618 0.1932
vn 0.5032 0.8384 -0.2096
vn 0.2054 0.8420 -0.4988
vn -0.2084 0.8405 -0.5002
vn -0.4960 0.8440 -0.2043
vn -0.4966 0.8430 0.2069
vn -0.1910 0.8651 0.4638
vn -0.3822 -0.5309 0.7563
vn -0.3806 0.0336 0.9241
vn -0.3480 -0.6221 -0.7013
vn 0.3528 -0.3724 0.8584
vn -0.8369 -0.2900 -0.4643
vn 0.9754 0.1571 0.1547
vn -0.4085 -0.8148 0.4114
vn 0.5798 -0.8148 -0.0003
vn 0.9208 0.0700 -0.3836
vn -0.1485 -0.6630 0.7338
vn 0.3671 -0.6669 -0.6484
vn 0.3805 0.0385 -0.9240
vn 0.4235 -0.7186 0.5515
vn -0.9138 -0.1529 -0.3763
vn -0.0598 -0.8020 -0.5944
vn -0.6659 0.6926 0.2774
vn 0.6659 0.6926 -0.2774
vn -0.5090 0.6926 0.5111
vn 0.5090 0.6926 -0.5111
vn -0.2747 0.6926 0.6670
vn 0.2747 0.6926 -0.6670
vn 0.0015 0.6926 0.7213
vn -0.2774 0.6926 -0.6659
vn -0.0015 0.6926 -0.7213
vn 0.2774 0.6926 0.6659
vn -0.5111 0.6926 -0.5090
vn 0.5111 0.6926 0.5090
vn -0.6670 0.6926 -0.2747
vn 0.6670 0.6926 0.2747
vn -0.7213 0.6926 0.0015
usemtl cactus_polyMat
s off
f 12/1/1 4/2/1 3/3/1 11/4/1
f 14/5/2 9/6/2 8/7/2 13/8/2
f 16/9/3 7/10/3 6/11/3 15/12/3
f 17/13/4 5/14/4 4/2/4 12/1/4
f 11/4/5 3/3/5 2/15/5 18/16/5
f 18/16/6 2/15/6 9/6/6 14/5/6
f 13/8/7 8/7/7 7/10/7 16/9/7
f 15/12/8 6/11/8 5/14/8 17/13/8
f 7/10/9 92/17/9 91/18/9 6/11/9
f 5/14/10 90/19/10 89/20/10 4/2/10
f 3/3/11 87/21/11 88/22/11 2/15/11
f 2/15/12 88/22/12 94/23/12 9/6/12
f 8/7/13 93/24/13 92/17/13 7/10/13
f 6/11/14 91/18/14 90/19/14 5/14/14
f 4/2/15 89/20/15 87/21/15 3/3/15
f 9/6/16 94/23/16 93/24/16 8/7/16
f 25/25/17 15/12/17 17/13/17 22/26/17
f 24/27/18 13/8/18 16/9/18 21/28/18
f 26/29/19 18/16/19 14/5/19 20/30/19
f 23/31/20 11/4/20 18/16/20 26/29/20
f 22/26/21 17/13/21 12/1/21 19/32/21
f 21/28/22 16/9/22 15/12/22 25/25/22
f 20/30/23 14/5/23 13/8/23 24/27/23
f 19/32/24 12/1/24 11/4/24 23/31/24
f 81/33/25 19/32/25 23/31/25 79/34/25
f 86/35/26 20/30/26 24/27/26 85/36/26
f 84/37/27 21/28/27 25/25/27 83/38/27
f 82/39/28 22/26/28 19/32/28 81/33/28
f 79/34/29 23/31/29 26/29/29 80/40/29
f 80/40/30 26/29/30 20/30/30 86/35/30
f 85/36/31 24/27/31 21/28/31 84/37/31
f 83/38/32 25/25/32 22/26/32 82/39/32
f 27/41/33 30/42/33 28/43/33
f 28/43/34 30/42/34 29/44/34
f 29/44/35 30/42/35 27/41/35
f 31/45/36 34/46/36 32/47/36
f 32/47/37 34/46/37 33/48/37
f 33/48/38 34/46/38 31/45/38
f 35/49/39 38/50/39 36/51/39
f 36/51/40 38/50/40 37/52/40
f 37/52/41 38/50/41 35/49/41
f 39/53/42 42/54/42 40/55/42
f 40/55/43 42/54/43 41/56/43
f 41/56/44 42/54/44 39/53/44
f 43/57/45 46/58/45 44/59/45
f 44/59/46 46/58/46 45/60/46
f 45/60/47 46/58/47 43/57/47
f 47/61/48 48/62/48 50/63/48
f 48/62/49 49/64/49 50/63/49
f 49/64/50 47/61/50 50/63/50
f 51/65/51 52/66/51 54/67/51
f 52/66/52 53/68/52 54/67/52
f 53/68/53 51/65/53 54/67/53
f 55/69/54 56/70/54 58/71/54
f 56/70/55 57/72/55 58/71/55
f 57/72/56 55/69/56 58/71/56
f 59/73/57 60/74/57 62/75/57
f 60/74/58 61/76/58 62/75/58
f 61/76/59 59/73/59 62/75/59
f 59/73/60 61/76/60 60/74/60
f 63/77/61 64/78/61 66/79/61
f 64/78/62 65/80/62 66/79/62
f 65/80/63 63/77/63 66/79/63
f 67/81/64 68/82/64 70/83/64
f 68/82/65 69/84/65 70/83/65
f 69/84/66 67/81/66 70/83/66
f 71/85/67 74/86/67 72/87/67
f 72/87/68 74/86/68 73/88/68
f 73/88/69 74/86/69 71/85/69
f 75/89/70 78/90/70 76/91/70
f 76/91/71 78/90/71 77/92/71
f 77/92/72 78/90/72 75/89/72
f 1/93/73 79/34/73 80/40/73
f 1/94/73 81/33/73 79/34/73
f 1/95/73 82/39/73 81/33/73
f 1/96/73 83/38/73 82/39/73
f 1/97/73 84/37/73 83/38/73
f 1/98/73 85/36/73 84/37/73
f 1/99/73 86/35/73 85/36/73
f 1/100/73 80/40/73 86/35/73
f 10/101/74 88/22/74 87/21/74
f 10/102/74 87/21/74 89/20/74
f 10/103/74 89/20/74 90/19/74
f 10/104/74 90/19/74 91/18/74
f 10/105/74 91/18/74 92/17/74
f 10/106/74 92/17/74 93/24/74
f 10/107/74 93/24/74 94/23/74
f 10/108/74 94/23/74 88/22/74
f 111/109/75 112/110/75 126/111/75 125/112/75 124/113/75 123/114/75 122/115/75 121/116/75 120/117/75 119/118/75 118/119/75 117/120/75 116/121/75 115/122/75 114/123/75 113/124/75
f 111/109/76 96/125/76 95/126/76 112/110/76
f 113/124/77 97/127/77 96/125/77 111/109/77
f 114/123/78 98/128/78 97/127/78 113/124/78
f 115/122/79 99/129/79 98/128/79 114/123/79
f 116/121/80 100/130/80 99/129/80 115/122/80
f 117/120/81 101/131/81 100/130/81 116/121/81
f 118/119/82 102/132/82 101/131/82 117/120/82
f 119/118/83 103/133/83 102/132/83 118/119/83
f 120/117/84 104/134/84 103/133/84 119/118/84
f 121/116/85 105/135/85 104/134/85 120/117/85
f 122/115/86 106/136/86 105/135/86 121/116/86
f 123/114/87 107/137/87 106/136/87 122/115/87
f 124/113/88 108/138/88 107/137/88 123/114/88
f 125/112/89 109/139/89 108/138/89 124/113/89
f 126/111/90 110/140/90 109/139/90 125/112/90
f 112/110/91 95/126/91 110/140/91 126/111/91
f 138/141/92 139/142/92 187/143/92 186/144/92
f 129/145/93 127/146/93 143/147/93 145/148/93
f 129/145/94 145/148/94 162/149/94
f 131/150/95 130/151/95 146/152/95 147/153/95
f 158/154/96 142/155/96 173/156/96
f 133/157/97 132/158/97 148/159/97 149/160/97
f 147/153/98 148/159/98 163/161/98 164/162/98
f 135/163/99 134/164/99 150/165/99 151/166/99
f 128/167/100 144/168/100 160/169/100
f 137/170/101 136/171/101 152/172/101 153/173/101
f 139/174/102 138/175/102 154/176/102 155/177/102
f 141/178/103 157/179/103 174/180/103
f 141/178/104 140/181/104 156/182/104 157/179/104
f 143/147/105 127/146/105 159/183/105
f 128/167/106 142/155/106 158/154/106 144/168/106
f 109/139/107 110/140/107 158/154/107 157/179/107
f 102/132/108 103/133/108 151/166/108 150/165/108
f 95/126/109 96/125/109 143/147/109 144/168/109
f 110/140/110 95/126/110 144/168/110 158/154/110
f 103/133/111 104/134/111 152/172/111 151/166/111
f 96/125/112 97/127/112 145/148/112 143/147/112
f 104/134/113 105/135/113 153/173/113 152/172/113
f 97/127/114 98/128/114 146/152/114 145/148/114
f 105/135/115 106/136/115 154/176/115 153/173/115
f 98/128/116 99/129/116 147/153/116 146/152/116
f 106/136/117 107/137/117 155/177/117 154/176/117
f 99/129/118 100/130/118 148/159/118 147/153/118
f 107/137/119 108/138/119 156/182/119 155/177/119
f 100/130/120 101/131/120 149/160/120 148/159/120
f 108/138/121 109/139/121 157/179/121 156/182/121
f 101/131/122 102/132/122 150/165/122 149/160/122
f 127/146/123 128/167/123 160/169/123 159/183/123
f 130/151/124 129/145/124 162/149/124 161/184/124
f 132/158/125 131/150/125 164/162/125 163/161/125
f 134/164/126 133/157/126 166/185/126 165/186/126
f 136/171/127 135/163/127 168/187/127 167/188/127
f 138/175/128 137/170/128 170/189/128 169/190/128
f 140/181/129 139/174/129 172/191/129 171/192/129
f 142/155/130 141/178/130 174/180/130 173/156/130
f 146/152/131 130/151/131 161/184/131
f 149/160/132 150/165/132 165/186/132 166/185/132
f 131/150/133 147/153/133 164/162/133
f 148/159/134 132/158/134 163/161/134
f 151/166/111 152/172/111 167/188/111 168/187/111
f 133/157/135 149/160/135 166/185/135
f 150/165/136 134/164/136 165/186/136
f 153/173/115 154/176/115 169/190/115 170/189/115
f 135/163/137 151/166/137 168/187/137
f 152/172/138 136/171/138 167/188/138
f 155/177/139 156/182/139 171/192/139 172/191/139
f 137/170/140 153/173/140 170/189/140
f 144/168/109 143/147/109 159/183/109 160/169/109
f 154/176/141 138/175/141 169/190/141
f 157/179/142 158/154/142 173/156/142 174/180/142
f 139/174/143 155/177/143 172/191/143
f 145/148/144 146/152/144 161/184/144 162/149/144
f 156/182/145 140/181/145 171/192/145
f 175/193/74 177/194/74 178/195/74 179/196/74 180/197/74 181/198/74 182/199/74 183/200/74 184/201/74 185/202/74 186/203/74 187/204/74 188/205/74 189/206/74 190/207/74 176/208/74
f 131/209/146 132/210/146 180/211/146 179/212/146
f 139/142/147 140/213/147 188/214/147 187/143/147
f 132/210/148 133/215/148 181/216/148 180/211/148
f 140/213/149 141/217/149 189/218/149 188/214/149
f 133/215/150 134/219/150 182/220/150 181/216/150
f 141/217/151 142/221/151 190/222/151 189/218/151
f 134/219/152 135/223/152 183/224/152 182/220/152
f 128/225/153 127/226/153 175/227/153 176/228/153
f 142/221/154 128/225/154 176/228/154 190/222/154
f 135/223/155 136/229/155 184/230/155 183/224/155
f 127/226/156 129/231/156 177/232/156 175/227/156
f 136/229/157 137/233/157 185/234/157 184/230/157
f 129/231/158 130/235/158 178/236/158 177/232/158
f 137/233/159 138/141/159 186/144/159 185/234/159
f 130/235/160 131/209/160 179/212/160 178/236/160
