# Blender v2.93.1 OBJ File: 'mb_for_game.blend'
# www.blender.org
mtllib cactus_poly.mtl
o cactus_poly_Circle
v 0.000000 -0.000000 0.000000
v 0.000000 2.062236 -0.324646
v -0.229559 2.062236 -0.229559
v -0.324646 2.062236 0.000000
v -0.229559 2.062236 0.229559
v 0.000000 2.062236 0.324646
v 0.229559 2.062236 0.229559
v 0.324646 2.062236 -0.000000
v 0.229559 2.062236 -0.229559
v 0.000000 2.202187 0.000000
v -0.274865 1.366514 -0.246027
v -0.383288 1.366514 0.015730
v 0.357072 1.366514 0.015730
v 0.248649 1.366514 -0.246027
v -0.013108 1.366514 0.385910
v 0.248649 1.366514 0.277487
v -0.274865 1.366514 0.277487
v -0.013108 1.366514 -0.354450
v -0.356569 0.677686 0.000000
v 0.280104 0.677686 -0.263718
v 0.280104 0.677686 0.263719
v -0.247333 0.677686 0.263718
v -0.247333 0.677686 -0.263718
v 0.389340 0.677686 -0.000000
v 0.016385 0.677686 0.372954
v 0.016385 0.677686 -0.372954
v -0.194563 0.944585 0.282628
v -0.115011 0.911585 0.315712
v -0.200363 0.848022 0.280612
v -0.204209 0.936205 0.432047
v -0.153191 1.789459 0.270811
v -0.066235 1.765721 0.308323
v -0.150201 1.642712 0.281283
v -0.164227 1.801343 0.475205
v 0.058248 1.857627 0.305934
v 0.176398 1.798562 0.260711
v 0.055239 1.750589 0.313915
v 0.155978 1.845960 0.453156
v 0.099720 1.172057 0.321089
v 0.200567 1.118938 0.279530
v 0.113824 1.068366 0.315663
v 0.198979 1.149198 0.441949
v 0.034324 0.375605 0.329122
v 0.140566 0.317578 0.281075
v 0.052064 0.242882 0.312533
v 0.112519 0.349513 0.447301
v 0.278484 0.435732 0.166750
v 0.313011 0.393418 0.076281
v 0.280015 0.315155 0.142785
v 0.426488 0.403736 0.105676
v 0.287501 1.020681 0.182340
v 0.326125 1.001253 0.089280
v 0.292693 0.881158 0.171152
v 0.445014 1.006220 0.199224
v 0.288326 1.659690 0.130892
v 0.332423 1.636227 0.027997
v 0.301525 1.550834 0.115562
v 0.425962 1.654440 0.116725
v 0.231654 1.208306 -0.266187
v 0.125788 1.256900 -0.309844
v 0.201539 1.310526 -0.278252
v 0.224475 1.283440 -0.408248
v 0.196217 0.553761 -0.274359
v 0.097975 0.610824 -0.319024
v 0.182524 0.641861 -0.286164
v 0.191914 0.572467 -0.450001
v -0.043267 0.292549 -0.319440
v -0.143832 0.320835 -0.279754
v -0.071527 0.369429 -0.313087
v -0.128290 0.331903 -0.427952
v -0.066035 1.017486 -0.335466
v -0.180593 1.051091 -0.287880
v -0.095011 1.127059 -0.323026
v -0.171292 1.059682 -0.416744
v -0.015931 1.812587 -0.326101
v -0.145854 1.845714 -0.270201
v -0.044831 1.883572 -0.309664
v -0.104956 1.802796 -0.422096
v -0.271774 1.761942 -0.154714
v -0.312875 1.816272 -0.047235
v -0.277120 1.877091 -0.124316
v -0.444234 1.882682 -0.128442
v -0.302756 1.164842 -0.143512
v -0.345040 1.223413 -0.040865
v -0.309314 1.278908 -0.126580
v -0.479852 1.220819 -0.124435
v -0.272443 0.496252 -0.190899
v -0.325114 0.538750 -0.070885
v -0.300090 0.583927 -0.138891
v -0.401230 0.549924 -0.212139
v 0.332392 0.749471 -0.076472
v 0.284219 0.802465 -0.192261
v 0.325775 0.869703 -0.091285
v 0.480763 0.791376 -0.200264
v 0.311984 1.787426 -0.054264
v 0.267362 1.821075 -0.156881
v 0.296841 1.892256 -0.074898
v 0.408683 1.821993 -0.124511
v 0.306853 0.168331 -0.053203
v 0.258928 0.198874 -0.174039
v 0.295214 0.238282 -0.093060
v 0.437535 0.222244 -0.160806
v -0.328856 0.891583 0.083248
v -0.296804 0.874181 0.160797
v -0.322835 0.795865 0.098709
v -0.441413 0.894230 0.179513
v -0.312798 0.308334 0.061996
v -0.274001 0.265663 0.148489
v -0.305548 0.190564 0.059703
v -0.411790 0.291671 0.165306
v -0.317637 1.578037 0.072034
v -0.274416 1.525994 0.184285
v -0.333524 1.440154 0.103693
v -0.460800 1.573022 0.196703
v -0.229559 -0.000000 -0.229559
v 0.000000 -0.000000 -0.324646
v -0.324646 -0.000000 0.000000
v -0.229559 -0.000000 0.229559
v 0.000000 -0.000000 0.324646
v 0.229559 -0.000000 0.229559
v 0.324646 -0.000000 -0.000000
v 0.229559 -0.000000 -0.229559
v -0.119660 2.202187 -0.119660
v 0.000000 2.202187 -0.169224
v -0.169224 2.202187 0.000000
v -0.119660 2.202187 0.119660
v 0.000000 2.202187 0.169224
v 0.119660 2.202187 0.119660
v 0.169225 2.202187 -0.000000
v 0.119660 2.202187 -0.119660
vt 0.212714 0.582324
vt 0.212674 0.699124
vt 0.212668 0.709620
vt 0.212720 0.586689
vt 0.212713 0.598639
vt 0.212632 0.746350
vt 0.212666 0.731597
vt 0.212707 0.598460
vt 0.212701 0.593899
vt 0.212670 0.713471
vt 0.212668 0.700833
vt 0.212699 0.587759
vt 0.212704 0.583025
vt 0.212673 0.695753
vt 0.212653 0.728090
vt 0.212719 0.593489
vt 0.212674 0.731788
vt 0.212659 0.718883
vt 0.212664 0.711880
vt 0.212663 0.718575
vt 0.212641 0.730403
vt 0.212634 0.760871
vt 0.212621 0.830727
vt 0.212659 0.761871
vt 0.212676 0.485901
vt 0.212702 0.466038
vt 0.212735 0.512092
vt 0.212691 0.503725
vt 0.212817 0.492103
vt 0.212784 0.507819
vt 0.212813 0.471051
vt 0.212768 0.456228
vt 0.212867 0.169273
vt 0.213113 0.301975
vt 0.212962 0.470032
vt 0.212747 0.487946
vt 0.212550 0.459525
vt 0.212450 0.389358
vt 0.212528 0.287257
vt 0.213113 0.406159
vt 0.220522 0.500261
vt 0.220522 0.499886
vt 0.220522 0.499474
vt 0.220520 0.499956
vt 0.220489 0.500004
vt 0.220492 0.499900
vt 0.220492 0.500510
vt 0.220492 0.499474
vt 0.220495 0.499863
vt 0.220497 0.499988
vt 0.220498 0.500450
vt 0.220498 0.499474
vt 0.220511 0.499474
vt 0.220510 0.499889
vt 0.220508 0.499972
vt 0.220511 0.500280
vt 0.220505 0.500396
vt 0.220505 0.499898
vt 0.220505 0.499474
vt 0.220503 0.499808
vt 0.220525 0.500219
vt 0.220524 0.499839
vt 0.220525 0.499474
vt 0.220522 0.499786
vt 0.220500 0.500350
vt 0.220499 0.499920
vt 0.220500 0.499474
vt 0.220498 0.499952
vt 0.220944 0.500526
vt 0.220944 0.500000
vt 0.221341 0.499737
vt 0.220548 0.499737
vt 0.220525 0.499790
vt 0.220527 0.500233
vt 0.220526 0.499847
vt 0.220527 0.499474
vt 0.220513 0.499474
vt 0.220511 0.499948
vt 0.220512 0.499828
vt 0.220513 0.500207
vt 0.220536 0.500229
vt 0.220536 0.499474
vt 0.220535 0.499836
vt 0.220534 0.499868
vt 0.220529 0.500263
vt 0.220529 0.499474
vt 0.220528 0.499875
vt 0.220527 0.499909
vt 0.220520 0.499474
vt 0.220518 0.499890
vt 0.220519 0.499797
vt 0.220520 0.500163
vt 0.220503 0.500361
vt 0.220503 0.499474
vt 0.220502 0.499950
vt 0.220500 0.499991
vt 0.220508 0.499474
vt 0.220505 0.499919
vt 0.220507 0.499864
vt 0.220508 0.500288
vt 0.220944 0.500526
vt 0.221341 0.499737
vt 0.220944 0.500000
vt 0.220548 0.499737
vt 0.220495 0.500499
vt 0.220495 0.499474
vt 0.220494 0.499990
vt 0.220492 0.500021
vt 0.220531 0.499474
vt 0.220529 0.499895
vt 0.220531 0.499858
vt 0.220531 0.500220
vt 0.220515 0.500409
vt 0.220515 0.499474
vt 0.220515 0.499913
vt 0.220513 0.499980
vt 0.220534 0.499474
vt 0.220533 0.499857
vt 0.220531 0.499840
vt 0.220534 0.500184
vt 0.220518 0.499474
vt 0.220517 0.499872
vt 0.220515 0.499885
vt 0.220518 0.500246
vt 0.220489 0.500526
vt 0.220488 0.499991
vt 0.220489 0.499474
vt 0.220486 0.499964
vt 0.213113 0.406159
vt 0.213113 0.301975
vt 0.212867 0.169273
vt 0.212528 0.287257
vt 0.212450 0.389358
vt 0.212550 0.459525
vt 0.212747 0.487946
vt 0.212962 0.470032
vt 0.212646 0.738418
vt 0.212657 0.727055
vt 0.212660 0.722964
vt 0.212660 0.727392
vt 0.212663 0.739197
vt 0.212653 0.762214
vt 0.212637 0.786153
vt 0.212639 0.761606
vn -0.9217 0.0691 -0.3818
vn 0.9233 0.0344 -0.3825
vn 0.3816 0.0739 0.9214
vn -0.9204 0.0862 0.3813
vn -0.3823 0.0467 -0.9229
vn 0.3825 0.0324 -0.9234
vn 0.9226 0.0516 0.3822
vn -0.3812 0.0882 0.9203
vn 0.2671 0.7161 0.6448
vn -0.6448 0.7161 0.2671
vn -0.2671 0.7161 -0.6448
vn 0.2671 0.7161 -0.6448
vn 0.6448 0.7161 0.2671
vn -0.2671 0.7161 0.6448
vn -0.6448 0.7161 -0.2671
vn 0.6448 0.7161 -0.2671
vn -0.3825 -0.0337 0.9234
vn 0.9233 0.0345 0.3825
vn 0.3824 0.0412 -0.9231
vn -0.3827 0.0084 -0.9238
vn -0.9230 -0.0445 0.3823
vn 0.3827 -0.0010 0.9239
vn 0.9226 0.0519 -0.3822
vn -0.9235 -0.0271 -0.3825
vn -0.9230 -0.0435 -0.3823
vn 0.9203 -0.0879 -0.3812
vn 0.3816 -0.0749 0.9213
vn -0.9230 -0.0435 0.3823
vn -0.3821 -0.0565 -0.9224
vn 0.3816 -0.0749 -0.9213
vn 0.9203 -0.0879 0.3812
vn -0.3821 -0.0565 0.9224
vn 0.3552 0.9317 0.0752
vn 0.3948 -0.7896 0.4698
vn -0.9963 0.0611 -0.0609
vn 0.2794 0.9593 -0.0407
vn 0.6570 -0.5595 0.5052
vn -0.9983 -0.0241 -0.0525
vn 0.3829 0.9056 -0.1824
vn 0.4516 -0.8540 0.2583
vn -0.8290 0.0647 0.5555
vn 0.4062 0.8990 -0.1635
vn 0.5458 -0.8228 0.1586
vn -0.7780 -0.1379 0.6129
vn 0.4432 0.8912 -0.0965
vn 0.6748 -0.6953 0.2474
vn -0.8384 -0.1765 0.5157
vn 0.0250 0.9092 -0.4157
vn 0.2404 -0.6854 -0.6873
vn 0.3420 -0.1790 0.9225
vn 0.1073 0.9812 -0.1603
vn 0.5730 -0.5645 -0.5941
vn -0.1138 -0.0836 0.9900
vn 0.0150 0.9762 -0.2162
vn 0.5702 -0.6796 -0.4616
vn 0.0968 -0.1273 0.9871
vn -0.9223 -0.0580 -0.3820
vn -0.2136 -0.8680 -0.4483
vn -0.4836 0.8360 -0.2595
vn 0.9503 0.2926 0.1067
vn -0.4725 -0.8775 -0.0819
vn -0.1787 0.9023 -0.3924
vn 0.9883 0.1525 -0.0080
vn -0.3067 -0.9462 -0.1028
vn -0.5566 0.8307 0.0037
vn 0.7969 0.3345 -0.5031
vn -0.3130 -0.9459 -0.0857
vn -0.6634 0.7483 0.0020
vn 0.6528 0.2537 -0.7138
vn -0.1451 -0.9617 0.2327
vn -0.4460 0.8227 -0.3525
vn 0.6468 0.4120 -0.6418
vn -0.5400 -0.8161 0.2060
vn 0.0108 0.7826 0.6225
vn 0.0324 0.2565 -0.9660
vn -0.2352 -0.8827 0.4068
vn -0.2856 0.8544 0.4341
vn -0.0612 0.1431 -0.9878
vn -0.4008 -0.9047 0.1444
vn -0.5104 0.7909 0.3376
vn 0.3560 0.5572 -0.7502
vn 0.9220 0.0642 0.3819
vn -0.0677 -0.9176 -0.3918
vn 0.0239 0.8276 -0.5609
vn 0.6134 0.1297 0.7791
vn 0.0848 -0.9353 -0.3435
vn 0.1507 0.7190 -0.6785
vn 0.5143 0.2366 0.8243
vn 0.1455 -0.9440 -0.2963
vn -0.0893 0.9107 -0.4032
vn 0.4173 0.5013 0.7580
vn 0.1553 0.9757 0.1548
vn 0.0146 -0.6241 0.7812
vn -0.6436 -0.1613 -0.7481
vn 0.2150 0.9107 0.3529
vn -0.0616 -0.7512 0.6572
vn -0.7192 -0.0308 -0.6941
vn 0.2517 0.9114 0.3257
vn -0.1104 -0.6388 0.7614
vn -0.6516 -0.0976 -0.7522
vn 0.0000 -1.0000 0.0000
vn 0.0000 1.0000 -0.0000
g cactus_poly_Circle_cactus_polyMat
usemtl cactus_polyMat
s off
f 12/1/1 4/2/1 3/3/1 11/4/1
f 14/5/2 9/6/2 8/7/2 13/8/2
f 16/9/3 7/10/3 6/11/3 15/12/3
f 17/13/4 5/14/4 4/2/4 12/1/4
f 11/4/5 3/3/5 2/15/5 18/16/5
f 18/16/6 2/15/6 9/6/6 14/5/6
f 13/8/7 8/7/7 7/10/7 16/9/7
f 15/12/8 6/11/8 5/14/8 17/13/8
f 7/10/9 128/17/9 127/18/9 6/11/9
f 5/14/10 126/19/10 125/20/10 4/2/10
f 3/3/11 123/21/11 124/22/11 2/15/11
f 2/15/12 124/22/12 130/23/12 9/6/12
f 8/7/13 129/24/13 128/17/13 7/10/13
f 6/11/14 127/18/14 126/19/14 5/14/14
f 4/2/15 125/20/15 123/21/15 3/3/15
f 9/6/16 130/23/16 129/24/16 8/7/16
f 25/25/17 15/12/17 17/13/17 22/26/17
f 24/27/18 13/8/18 16/9/18 21/28/18
f 26/29/19 18/16/19 14/5/19 20/30/19
f 23/31/20 11/4/20 18/16/20 26/29/20
f 22/26/21 17/13/21 12/1/21 19/32/21
f 21/28/22 16/9/22 15/12/22 25/25/22
f 20/30/23 14/5/23 13/8/23 24/27/23
f 19/32/24 12/1/24 11/4/24 23/31/24
f 117/33/25 19/32/25 23/31/25 115/34/25
f 122/35/26 20/30/26 24/27/26 121/36/26
f 120/37/27 21/28/27 25/25/27 119/38/27
f 118/39/28 22/26/28 19/32/28 117/33/28
f 115/34/29 23/31/29 26/29/29 116/40/29
f 116/40/30 26/29/30 20/30/30 122/35/30
f 121/36/31 24/27/31 21/28/31 120/37/31
f 119/38/32 25/25/32 22/26/32 118/39/32
f 27/41/33 30/42/33 28/43/33
f 28/43/34 30/42/34 29/44/34
f 29/44/35 30/42/35 27/41/35
f 31/45/36 34/46/36 32/47/36
f 32/47/37 34/46/37 33/48/37
f 33/48/38 34/46/38 31/45/38
f 35/49/39 38/50/39 36/51/39
f 36/51/40 38/50/40 37/52/40
f 37/52/41 38/50/41 35/49/41
f 39/53/42 42/54/42 40/55/42
f 40/55/43 42/54/43 41/56/43
f 41/56/44 42/54/44 39/53/44
f 43/57/45 46/58/45 44/59/45
f 44/59/46 46/58/46 45/60/46
f 45/60/47 46/58/47 43/57/47
f 47/61/48 50/62/48 48/63/48
f 48/63/49 50/62/49 49/64/49
f 49/64/50 50/62/50 47/61/50
f 51/65/51 54/66/51 52/67/51
f 52/67/52 54/66/52 53/68/52
f 53/68/53 54/66/53 51/65/53
f 55/69/54 58/70/54 56/71/54
f 56/71/55 58/70/55 57/72/55
f 57/72/56 58/70/56 55/69/56
f 55/69/57 56/71/57 57/72/57
f 59/73/58 60/74/58 62/75/58
f 60/74/59 61/76/59 62/75/59
f 61/76/60 59/73/60 62/75/60
f 63/77/61 64/78/61 66/79/61
f 64/78/62 65/80/62 66/79/62
f 65/80/63 63/77/63 66/79/63
f 67/81/64 68/82/64 70/83/64
f 68/82/65 69/84/65 70/83/65
f 69/84/66 67/81/66 70/83/66
f 71/85/67 72/86/67 74/87/67
f 72/86/68 73/88/68 74/87/68
f 73/88/69 71/85/69 74/87/69
f 75/89/70 76/90/70 78/91/70
f 76/90/71 77/92/71 78/91/71
f 77/92/72 75/89/72 78/91/72
f 79/93/73 80/94/73 82/95/73
f 80/94/74 81/96/74 82/95/74
f 81/96/75 79/93/75 82/95/75
f 83/97/76 84/98/76 86/99/76
f 84/98/77 85/100/77 86/99/77
f 85/100/78 83/97/78 86/99/78
f 87/101/79 88/102/79 90/103/79
f 88/102/80 89/104/80 90/103/80
f 89/104/81 87/101/81 90/103/81
f 87/101/82 89/104/82 88/102/82
f 91/105/83 92/106/83 94/107/83
f 92/106/84 93/108/84 94/107/84
f 93/108/85 91/105/85 94/107/85
f 95/109/86 96/110/86 98/111/86
f 96/110/87 97/112/87 98/111/87
f 97/112/88 95/109/88 98/111/88
f 99/113/89 100/114/89 102/115/89
f 100/114/90 101/116/90 102/115/90
f 101/116/91 99/113/91 102/115/91
f 103/117/92 106/118/92 104/119/92
f 104/119/93 106/118/93 105/120/93
f 105/120/94 106/118/94 103/117/94
f 107/121/95 110/122/95 108/123/95
f 108/123/96 110/122/96 109/124/96
f 109/124/97 110/122/97 107/121/97
f 111/125/98 114/126/98 112/127/98
f 112/127/99 114/126/99 113/128/99
f 113/128/100 114/126/100 111/125/100
f 1/129/101 115/34/101 116/40/101
f 1/130/101 117/33/101 115/34/101
f 1/131/101 118/39/101 117/33/101
f 1/132/101 119/38/101 118/39/101
f 1/133/101 120/37/101 119/38/101
f 1/134/101 121/36/101 120/37/101
f 1/135/101 122/35/101 121/36/101
f 1/136/101 116/40/101 122/35/101
f 10/137/102 124/22/102 123/21/102
f 10/138/102 123/21/102 125/20/102
f 10/139/102 125/20/102 126/19/102
f 10/140/102 126/19/102 127/18/102
f 10/141/102 127/18/102 128/17/102
f 10/142/102 128/17/102 129/24/102
f 10/143/102 129/24/102 130/23/102
f 10/144/102 130/23/102 124/22/102
