# Blender v2.93.1 OBJ File: 'mb_for_game.blend'
# www.blender.org
mtllib chair_poly.mtl
o chair_poly_Cube.001
v 0.326282 0.000005 0.376245
v 0.338183 0.486013 0.389831
v 0.321140 0.000005 -0.183234
v 0.338183 0.519038 -0.202690
v 0.338183 0.429094 0.260605
v 0.224984 0.424109 0.376823
v 0.338183 0.454793 0.389831
v 0.236884 0.000005 0.376245
v 0.224984 0.497717 0.389831
v 0.242026 0.000005 -0.183234
v 0.224984 0.519038 -0.202690
v 0.321140 0.000005 -0.092919
v 0.326282 0.000005 0.274190
v 0.338183 0.507334 0.260605
v 0.338183 0.507334 -0.073464
v 0.224984 0.519038 -0.073464
v 0.224984 0.519038 0.260605
v 0.236884 0.000005 0.274190
v 0.242026 0.000005 -0.092919
v 0.225086 0.429094 0.260605
v 0.224984 1.085563 -0.141935
v 0.224984 1.054232 -0.266112
v 0.338183 1.085563 -0.141935
v 0.338183 1.054232 -0.266112
v 0.338183 1.037400 -0.126099
v 0.338183 0.726179 -0.129909
v 0.224984 0.726179 -0.104467
v 0.224984 1.037400 -0.100657
v 0.224984 1.006069 -0.250276
v 0.224984 0.726179 -0.259135
v 0.338183 0.726179 -0.259135
v 0.338183 1.006069 -0.250276
v 0.338183 0.464035 -0.202690
v 0.224984 0.433352 -0.202690
v 0.338183 0.429094 -0.073464
v 0.232134 0.429094 -0.082167
v -0.326282 0.000005 0.376245
v -0.338183 0.486013 0.389831
v -0.321140 0.000005 -0.183234
v -0.338183 0.519038 -0.202690
v -0.338183 0.429094 0.260605
v -0.224984 0.424109 0.376823
v -0.338183 0.454793 0.389831
v -0.236884 0.000005 0.376245
v -0.224984 0.497717 0.389831
v -0.242026 0.000005 -0.183234
v -0.224984 0.519038 -0.202690
v -0.321140 0.000005 -0.092919
v -0.326282 0.000005 0.274190
v -0.338183 0.507334 0.260605
v -0.338183 0.507334 -0.073464
v -0.224984 0.519038 -0.073464
v -0.224984 0.519038 0.260605
v -0.236884 0.000005 0.274190
v -0.242026 0.000005 -0.092919
v -0.225086 0.429094 0.260605
v 0.000000 0.424109 0.376823
v 0.000000 0.497717 0.389831
v 0.000000 0.519038 0.260605
v 0.000000 0.429094 0.260605
v -0.000000 0.519038 -0.073464
v -0.224984 1.085563 -0.141935
v -0.224984 1.054232 -0.266112
v -0.338183 1.085563 -0.141935
v -0.338183 1.054232 -0.266112
v -0.338183 1.037400 -0.126098
v -0.338183 0.726179 -0.129909
v -0.224984 0.726179 -0.104467
v -0.224984 1.037400 -0.100657
v -0.224984 1.006069 -0.250276
v -0.224984 0.726179 -0.259135
v -0.338183 0.726179 -0.259135
v -0.338183 1.006069 -0.250276
v -0.000000 0.726179 -0.104467
v -0.000000 1.037400 -0.100657
v -0.000000 1.006069 -0.250276
v -0.000000 0.726179 -0.259135
v -0.338183 0.464035 -0.202690
v -0.224984 0.433352 -0.202690
v -0.338183 0.429094 -0.073464
v -0.232134 0.429094 -0.082167
v -0.000000 0.424169 -0.164927
v -0.000000 0.429094 -0.025831
v -0.000000 0.519038 -0.164927
vt 0.243827 0.597544
vt 0.243831 0.597717
vt 0.243831 0.596470
vt 0.243823 0.595765
vt 0.243832 0.640626
vt 0.243839 0.654357
vt 0.243831 0.641637
vt 0.243829 0.630592
vt 0.243834 0.630209
vt 0.243827 0.646165
vt 0.243840 0.599812
vt 0.243835 0.600556
vt 0.243837 0.713253
vt 0.243822 0.709145
vt 0.243830 0.626683
vt 0.243829 0.626865
vt 0.243830 0.626908
vt 0.243831 0.626918
vt 0.243824 0.598876
vt 0.243823 0.597007
vt 0.243823 0.596929
vt 0.243823 0.597058
vt 0.243823 0.596916
vt 0.243816 0.595879
vt 0.243833 0.586401
vt 0.243830 0.584843
vt 0.243821 0.583783
vt 0.243818 0.582459
vt 0.243842 0.637530
vt 0.243830 0.590503
vt 0.243830 0.795863
vt 0.243841 0.811426
vt 0.243826 0.867241
vt 0.243816 0.810207
vt 0.243826 0.715886
vt 0.243829 0.797921
vt 0.243832 0.785207
vt 0.243841 0.711653
vt 0.243838 0.794805
vt 0.243827 0.822614
vt 0.243883 0.777332
vt 0.243795 0.781995
vt 0.243792 0.723212
vt 0.243878 0.724852
vt 0.243829 0.617638
vt 0.243836 0.579161
vt 0.243851 0.582172
vt 0.243838 0.587765
vt 0.243817 0.570319
vt 0.243815 0.571616
vt 0.243824 0.572774
vt 0.243821 0.570742
vt 0.243832 0.532486
vt 0.243846 0.522754
vt 0.243849 0.538654
vt 0.243837 0.537551
vt 0.243845 0.527309
vt 0.243834 0.542288
vt 0.243831 0.572812
vt 0.243824 0.569451
vt 0.243841 0.542037
vt 0.243840 0.541832
vt 0.243851 0.132759
vt 0.243883 0.173182
vt 0.243849 0.190891
vt 0.243838 0.176190
vt 0.243814 0.568132
vt 0.243813 0.569799
vt 0.243813 0.569870
vt 0.243813 0.569734
vt 0.243813 0.569838
vt 0.243806 0.569307
vt 0.243844 0.552292
vt 0.243841 0.542598
vt 0.243841 0.542538
vt 0.243841 0.542584
vt 0.243841 0.542657
vt 0.243840 0.542491
vt 0.243841 0.542500
vt 0.243841 0.542602
vt 0.243841 0.543369
vt 0.243841 0.542716
vt 0.243841 0.542575
vt 0.243841 0.542758
vt 0.243841 0.542722
vt 0.243841 0.542766
vt 0.243841 0.542958
vt 0.243926 0.132759
vt 0.243926 0.155031
vt 0.243883 0.155167
vt 0.243885 0.135132
vt 0.243829 0.531128
vt 0.000032 0.630540
vt 0.000034 0.612269
vt 0.000059 0.607778
vt 0.000050 0.660165
vt 0.000043 0.634620
vt 0.000049 0.677801
vn -0.0466 -0.1230 0.9913
vn 1.0000 0.0000 0.0000
vn -0.0000 0.0000 -1.0000
vn 0.1015 0.9816 0.1620
vn 0.0000 -1.0000 0.0000
vn -0.0616 -0.0161 0.9980
vn 0.9996 -0.0269 0.0030
vn -0.9996 -0.0278 -0.0011
vn 0.0000 0.9867 0.1628
vn 0.0000 -0.9991 -0.0429
vn 0.0000 -0.1740 0.9847
vn 0.0000 -0.0316 -0.9995
vn 0.0000 1.0000 0.0000
vn 0.1028 0.9947 0.0000
vn 0.0000 0.9696 -0.2446
vn 0.0000 -0.2629 -0.9648
vn 0.0000 -0.3123 -0.9500
vn 0.1196 0.1996 0.9725
vn -1.0000 0.0000 0.0000
vn 0.0962 0.5076 0.8562
vn 0.0000 0.9788 -0.2050
vn 0.0000 0.0316 -0.9995
vn 0.2193 -0.0119 0.9756
vn 0.0000 -0.0122 0.9999
vn 0.0069 -0.0433 -0.9990
vn 0.9993 -0.0381 -0.0061
vn -0.9990 -0.0309 0.0333
vn -0.0469 -0.0347 0.9983
vn 0.0205 -0.9998 0.0020
vn -0.1655 0.0000 -0.9862
vn 0.0466 -0.1230 0.9913
vn -0.1015 0.9816 0.1619
vn 0.0616 -0.0161 0.9980
vn -0.9996 -0.0269 0.0030
vn 0.9996 -0.0278 -0.0011
vn -0.1028 0.9947 0.0000
vn -0.1196 0.1996 0.9725
vn -0.0962 0.5076 0.8562
vn -0.2193 -0.0119 0.9756
vn -0.0069 -0.0433 -0.9990
vn -0.9993 -0.0381 -0.0061
vn 0.9990 -0.0309 0.0333
vn 0.0469 -0.0347 0.9983
vn -0.0205 -0.9998 0.0020
vn 0.1655 0.0000 -0.9862
usemtl chair_polyMat
s off
f 7/1/1 2/2/1 9/3/1 6/4/1
f 33/5/2 4/6/2 15/7/2 35/8/2
f 34/9/3 11/10/3 4/6/3 33/5/3
f 17/11/4 9/3/4 2/2/4 14/12/4
f 15/7/2 4/6/2 31/13/2 26/14/2
f 19/15/5 10/16/5 3/17/5 12/18/5
f 5/19/2 14/12/2 2/2/2 7/1/2
f 1/20/6 7/1/6 6/4/6 8/21/6
f 13/22/7 5/19/7 7/1/7 1/20/7
f 8/21/5 18/23/5 13/22/5 1/20/5
f 18/23/8 8/21/8 6/4/8 20/24/8
f 59/25/9 58/26/9 9/3/9 17/11/9
f 57/27/10 60/28/10 20/24/10 6/4/10
f 58/26/11 57/27/11 6/4/11 9/3/11
f 18/23/12 20/24/12 5/19/12 13/22/12
f 59/25/13 17/11/13 16/29/13 61/30/13
f 17/11/14 14/12/14 15/7/14 16/29/14
f 22/31/15 21/32/15 23/33/15 24/34/15
f 4/6/16 11/10/16 30/35/16 31/13/16
f 32/36/17 29/37/17 22/31/17 24/34/17
f 16/29/18 15/7/18 26/14/18 27/38/18
f 11/10/19 16/29/19 27/38/19 30/35/19
f 29/37/19 28/39/19 21/32/19 22/31/19
f 28/39/20 25/40/20 23/33/20 21/32/20
f 32/36/2 25/40/2 26/14/2 31/13/2
f 29/37/21 76/41/21 75/42/21 28/39/21
f 29/37/22 32/36/22 31/13/22 30/35/22
f 25/40/23 28/39/23 27/38/23 26/14/23
f 25/40/2 32/36/2 24/34/2 23/33/2
f 27/38/5 74/43/5 77/44/5 30/35/5
f 29/37/22 30/35/22 77/44/22 76/41/22
f 28/39/24 75/42/24 74/43/24 27/38/24
f 10/16/25 34/9/25 33/5/25 3/17/25
f 3/17/26 33/5/26 35/8/26 12/18/26
f 14/12/2 5/19/2 35/8/2 15/7/2
f 34/9/27 10/16/27 19/15/27 36/45/27
f 19/15/28 12/18/28 35/8/28 36/45/28
f 34/9/29 36/45/29 83/46/29 82/47/29
f 84/48/13 61/30/13 16/29/13 11/10/13
f 11/10/30 34/9/30 82/47/30 84/48/30
f 43/49/31 42/50/31 45/51/31 38/52/31
f 78/53/19 80/54/19 51/55/19 40/56/19
f 79/57/3 78/53/3 40/56/3 47/58/3
f 53/59/32 50/60/32 38/52/32 45/51/32
f 51/55/19 67/61/19 72/62/19 40/56/19
f 55/63/5 48/64/5 39/65/5 46/66/5
f 41/67/19 43/49/19 38/52/19 50/60/19
f 37/68/33 44/69/33 42/50/33 43/49/33
f 49/70/34 37/68/34 43/49/34 41/67/34
f 44/69/5 37/68/5 49/70/5 54/71/5
f 54/71/35 56/72/35 42/50/35 44/69/35
f 59/25/9 53/59/9 45/51/9 58/26/9
f 57/27/10 42/50/10 56/72/10 60/28/10
f 58/26/11 45/51/11 42/50/11 57/27/11
f 54/71/12 49/70/12 41/67/12 56/72/12
f 59/25/13 61/30/13 52/73/13 53/59/13
f 53/59/36 52/73/36 51/55/36 50/60/36
f 63/74/15 65/75/15 64/76/15 62/77/15
f 40/56/16 72/62/16 71/78/16 47/58/16
f 73/79/17 65/75/17 63/74/17 70/80/17
f 52/73/37 68/81/37 67/61/37 51/55/37
f 47/58/2 71/78/2 68/81/2 52/73/2
f 70/80/2 63/74/2 62/77/2 69/82/2
f 69/82/38 62/77/38 64/76/38 66/83/38
f 73/79/19 72/62/19 67/61/19 66/83/19
f 70/80/21 69/82/21 75/84/21 76/85/21
f 70/80/22 71/78/22 72/62/22 73/79/22
f 66/83/39 67/61/39 68/81/39 69/82/39
f 66/83/19 64/76/19 65/75/19 73/79/19
f 68/81/5 71/78/5 77/86/5 74/87/5
f 70/80/22 76/85/22 77/86/22 71/78/22
f 75/88/2 74/89/2 77/90/2 76/91/2
f 69/82/24 68/81/24 74/87/24 75/84/24
f 46/66/40 39/65/40 78/53/40 79/57/40
f 39/65/41 48/64/41 80/54/41 78/53/41
f 50/60/19 51/55/19 80/54/19 41/67/19
f 79/57/42 81/92/42 55/63/42 46/66/42
f 55/63/43 81/92/43 80/54/43 48/64/43
f 79/57/44 82/47/44 83/46/44 81/92/44
f 84/48/13 47/58/13 52/73/13 61/30/13
f 47/58/45 84/48/45 82/47/45 79/57/45
f 56/72/5 41/67/5 80/54/5 81/92/5
f 60/28/5 56/72/5 81/92/5 83/46/5
f 20/93/5 60/94/5 83/95/5 36/96/5
f 5/97/5 20/93/5 36/96/5 35/98/5
