# This file was created with Minddesk Qubicle 3.0
# Get Qubicle at www.getqubicle.com

mtllib cactus_smol.mtl

vn 0.0 0.0 1.0
vn 0.0 0.0 -1.0
vn -1.0 0.0 0.0
vn 1.0 0.0 0.0
vn 0.0 1.0 0.0
vn 0.0 -1.0 0.0

v -0.10000 1.20000 -0.20000
v -0.10000 0.10000 -0.20000
v -0.20000 0.10000 -0.20000
v -0.20000 1.20000 -0.20000
v 0.30000 1.20000 -0.20000
v 0.30000 0.10000 -0.20000
v 0.20000 0.10000 -0.20000
v 0.20000 1.20000 -0.20000
v -0.20000 1.20000 -0.10000
v -0.20000 0.10000 -0.10000
v -0.30000 0.10000 -0.10000
v -0.30000 1.20000 -0.10000
v 0.40000 1.20000 -0.10000
v 0.40000 0.10000 -0.10000
v 0.30000 0.10000 -0.10000
v 0.30000 1.20000 -0.10000
v 0.20000 1.20000 -0.30000
v 0.20000 0.80000 -0.30000
v -0.10000 0.80000 -0.30000
v -0.10000 1.20000 -0.30000
v 0.20000 0.70000 -0.30000
v 0.20000 0.50000 -0.30000
v -0.10000 0.50000 -0.30000
v -0.10000 0.70000 -0.30000
v -0.10000 1.40000 -0.10000
v -0.10000 1.20000 -0.10000
v -0.20000 1.40000 -0.10000
v 0.30000 0.00000 -0.20000
v -0.20000 0.00000 -0.20000
v 0.20000 0.20000 -0.30000
v 0.20000 0.10000 -0.30000
v -0.10000 0.10000 -0.30000
v -0.10000 0.20000 -0.30000
v 0.20000 0.40000 -0.30000
v 0.20000 0.30000 -0.30000
v -0.10000 0.30000 -0.30000
v -0.10000 0.40000 -0.30000
v 0.20000 1.30000 -0.20000
v -0.10000 1.30000 -0.20000
v 0.10000 1.40000 -0.20000
v 0.10000 1.30000 -0.20000
v -0.10000 1.40000 -0.20000
v 0.10000 0.30000 -0.40000
v 0.10000 0.20000 -0.40000
v 0.00000 0.20000 -0.40000
v 0.00000 0.30000 -0.40000
v 0.10000 0.50000 -0.40000
v 0.10000 0.40000 -0.40000
v 0.00000 0.40000 -0.40000
v 0.00000 0.50000 -0.40000
v 0.10000 0.80000 -0.40000
v 0.10000 0.70000 -0.40000
v 0.00000 0.70000 -0.40000
v 0.00000 0.80000 -0.40000
v 0.00000 0.30000 -0.30000
v 0.00000 0.20000 -0.30000
v 0.00000 0.50000 -0.30000
v 0.00000 0.40000 -0.30000
v 0.00000 0.80000 -0.30000
v 0.00000 0.70000 -0.30000
v 0.10000 0.20000 -0.30000
v 0.10000 0.30000 -0.30000
v 0.10000 0.40000 -0.30000
v 0.10000 0.50000 -0.30000
v 0.10000 0.70000 -0.30000
v 0.10000 0.80000 -0.30000
v 0.20000 1.40000 -0.10000
v 0.20000 1.30000 -0.10000
v 0.10000 1.30000 -0.10000
v 0.10000 1.40000 -0.10000
v 0.30000 1.30000 -0.10000
v 0.20000 1.20000 -0.10000
v -0.30000 0.30000 0.00000
v -0.30000 0.20000 0.00000
v -0.40000 0.20000 0.00000
v -0.40000 0.30000 0.00000
v -0.30000 0.90000 0.00000
v -0.30000 0.80000 0.00000
v -0.40000 0.80000 0.00000
v -0.40000 0.90000 0.00000
v 0.50000 0.50000 0.00000
v 0.50000 0.40000 0.00000
v 0.40000 0.40000 0.00000
v 0.40000 0.50000 0.00000
v 0.50000 0.90000 0.00000
v 0.50000 0.80000 0.00000
v 0.40000 0.80000 0.00000
v 0.40000 0.90000 0.00000
v -0.30000 1.20000 0.20000
v -0.30000 0.10000 0.20000
v -0.20000 0.10000 0.20000
v -0.20000 1.20000 0.20000
v 0.30000 1.20000 0.20000
v 0.30000 0.10000 0.20000
v 0.40000 0.10000 0.20000
v 0.40000 1.20000 0.20000
v -0.20000 1.20000 0.30000
v -0.20000 0.10000 0.30000
v -0.10000 0.10000 0.30000
v -0.10000 1.20000 0.30000
v 0.20000 1.20000 0.30000
v 0.20000 0.10000 0.30000
v 0.30000 0.10000 0.30000
v 0.30000 1.20000 0.30000
v -0.10000 0.40000 0.40000
v -0.10000 0.10000 0.40000
v 0.20000 0.10000 0.40000
v 0.20000 0.40000 0.40000
v -0.10000 0.70000 0.40000
v -0.10000 0.50000 0.40000
v 0.20000 0.50000 0.40000
v 0.20000 0.70000 0.40000
v -0.10000 1.00000 0.40000
v -0.10000 0.80000 0.40000
v 0.20000 0.80000 0.40000
v 0.20000 1.00000 0.40000
v -0.20000 0.00000 0.30000
v 0.30000 0.00000 0.30000
v -0.10000 1.30000 0.30000
v 0.20000 1.30000 0.30000
v -0.10000 1.20000 0.40000
v -0.10000 1.10000 0.40000
v 0.20000 1.10000 0.40000
v 0.20000 1.20000 0.40000
v -0.10000 1.40000 0.20000
v -0.10000 1.30000 0.20000
v 0.10000 1.30000 0.20000
v 0.10000 1.40000 0.20000
v -0.40000 0.30000 0.10000
v -0.40000 0.20000 0.10000
v -0.30000 0.20000 0.10000
v -0.30000 0.30000 0.10000
v -0.40000 0.90000 0.10000
v -0.40000 0.80000 0.10000
v -0.30000 0.80000 0.10000
v -0.30000 0.90000 0.10000
v -0.20000 1.40000 0.10000
v -0.20000 1.30000 0.10000
v -0.10000 1.30000 0.10000
v -0.10000 1.40000 0.10000
v 0.10000 1.40000 0.10000
v 0.10000 1.30000 0.10000
v 0.20000 1.30000 0.10000
v 0.20000 1.40000 0.10000
v 0.40000 0.50000 0.10000
v 0.40000 0.40000 0.10000
v 0.50000 0.40000 0.10000
v 0.50000 0.50000 0.10000
v 0.40000 0.90000 0.10000
v 0.40000 0.80000 0.10000
v 0.50000 0.80000 0.10000
v 0.50000 0.90000 0.10000
v -0.20000 1.30000 0.20000
v -0.10000 1.20000 0.20000
v 0.20000 1.30000 0.20000
v 0.20000 1.20000 0.20000
v 0.30000 1.30000 0.20000
v 0.00000 0.40000 0.40000
v 0.00000 0.50000 0.40000
v 0.00000 0.70000 0.40000
v 0.00000 0.80000 0.40000
v 0.00000 1.00000 0.40000
v 0.00000 1.10000 0.40000
v 0.10000 0.50000 0.40000
v 0.10000 0.40000 0.40000
v 0.10000 0.80000 0.40000
v 0.10000 0.70000 0.40000
v 0.10000 1.10000 0.40000
v 0.10000 1.00000 0.40000
v 0.00000 0.50000 0.50000
v 0.00000 0.40000 0.50000
v 0.10000 0.40000 0.50000
v 0.10000 0.50000 0.50000
v 0.00000 0.80000 0.50000
v 0.00000 0.70000 0.50000
v 0.10000 0.70000 0.50000
v 0.10000 0.80000 0.50000
v 0.00000 1.10000 0.50000
v 0.00000 1.00000 0.50000
v 0.10000 1.00000 0.50000
v 0.10000 1.10000 0.50000
v -0.30000 0.80000 -0.10000
v -0.30000 0.30000 -0.10000
v -0.30000 0.30000 0.20000
v -0.30000 0.80000 0.20000
v -0.30000 0.90000 -0.10000
v -0.30000 0.90000 0.20000
v -0.30000 0.20000 -0.10000
v -0.30000 0.20000 0.20000
v -0.20000 1.30000 -0.10000
v 0.40000 0.40000 0.20000
v 0.40000 0.40000 -0.10000
v 0.40000 0.80000 0.20000
v 0.40000 0.50000 0.20000
v 0.40000 0.50000 -0.10000
v 0.40000 0.80000 -0.10000
v 0.40000 0.90000 0.20000
v 0.40000 0.90000 -0.10000
v 0.30000 1.30000 0.10000

vt 0.01563 0.18750
vt 0.01563 0.01563
vt 0.03125 0.01563
vt 0.03125 0.18750
vt 0.06250 0.18750
vt 0.06250 0.01563
vt 0.07813 0.01563
vt 0.07813 0.18750
vt 0.10938 0.18750
vt 0.10938 0.01563
vt 0.12500 0.01563
vt 0.12500 0.18750
vt 0.15625 0.18750
vt 0.15625 0.01563
vt 0.17188 0.01563
vt 0.17188 0.18750
vt 0.20313 0.18750
vt 0.20313 0.01563
vt 0.21875 0.01563
vt 0.21875 0.18750
vt 0.25000 0.18750
vt 0.25000 0.01563
vt 0.26563 0.01563
vt 0.26563 0.18750
vt 0.29688 0.18750
vt 0.29688 0.01563
vt 0.31250 0.01563
vt 0.31250 0.18750
vt 0.34375 0.18750
vt 0.34375 0.01563
vt 0.35938 0.01563
vt 0.35938 0.18750
vt 0.39063 0.18750
vt 0.39063 0.01563
vt 0.40625 0.01563
vt 0.40625 0.18750
vt 0.43750 0.18750
vt 0.43750 0.01563
vt 0.45313 0.01563
vt 0.45313 0.18750
vt 0.48438 0.18750
vt 0.48438 0.01563
vt 0.50000 0.01563
vt 0.50000 0.18750
vt 0.53125 0.18750
vt 0.53125 0.01563
vt 0.54688 0.01563
vt 0.54688 0.18750
vt 0.57813 0.18750
vt 0.57813 0.01563
vt 0.59375 0.01563
vt 0.59375 0.18750
vt 0.62500 0.18750
vt 0.62500 0.01563
vt 0.64063 0.01563
vt 0.64063 0.18750
vt 0.67188 0.18750
vt 0.67188 0.01563
vt 0.68750 0.01563
vt 0.68750 0.18750
vt 0.71875 0.18750
vt 0.71875 0.01563
vt 0.73438 0.01563
vt 0.73438 0.18750
vt 0.76563 0.09375
vt 0.76563 0.01563
vt 0.84375 0.01563
vt 0.84375 0.09375
vt 0.87500 0.09375
vt 0.87500 0.01563
vt 0.92188 0.01563
vt 0.92188 0.09375
vt 0.76563 0.18750
vt 0.76563 0.12500
vt 0.81250 0.12500
vt 0.81250 0.18750
vt 0.84375 0.17188
vt 0.84375 0.12500
vt 0.89063 0.12500
vt 0.89063 0.17188
vt 0.92188 0.17188
vt 0.92188 0.12500
vt 0.96875 0.12500
vt 0.96875 0.17188
vt 0.01563 0.26563
vt 0.01563 0.21875
vt 0.06250 0.21875
vt 0.06250 0.26563
vt 0.09375 0.26563
vt 0.09375 0.21875
vt 0.14063 0.21875
vt 0.14063 0.26563
vt 0.17188 0.26563
vt 0.17188 0.21875
vt 0.21875 0.21875
vt 0.21875 0.26563
vt 0.95313 0.06250
vt 0.95313 0.01563
vt 0.96875 0.01563
vt 0.96875 0.06250
vt 0.25000 0.26563
vt 0.25000 0.21875
vt 0.26563 0.21875
vt 0.26563 0.26563
vt 0.29688 0.26563
vt 0.29688 0.21875
vt 0.31250 0.21875
vt 0.31250 0.26563
vt 0.34375 0.26563
vt 0.34375 0.21875
vt 0.35938 0.21875
vt 0.35938 0.26563
vt 0.39063 0.25000
vt 0.39063 0.21875
vt 0.45313 0.21875
vt 0.45313 0.25000
vt 0.48438 0.25000
vt 0.48438 0.21875
vt 0.53125 0.21875
vt 0.53125 0.25000
vt 0.56250 0.25000
vt 0.56250 0.21875
vt 0.60938 0.21875
vt 0.60938 0.25000
vt 0.64063 0.25000
vt 0.64063 0.21875
vt 0.68750 0.21875
vt 0.68750 0.25000
vt 0.71875 0.25000
vt 0.71875 0.21875
vt 0.73438 0.21875
vt 0.73438 0.25000
vt 0.76563 0.25000
vt 0.76563 0.21875
vt 0.78125 0.21875
vt 0.78125 0.25000
vt 0.81250 0.25000
vt 0.81250 0.21875
vt 0.82813 0.21875
vt 0.82813 0.25000
vt 0.85938 0.23438
vt 0.85938 0.21875
vt 0.93750 0.21875
vt 0.93750 0.23438
vt 0.01563 0.31250
vt 0.01563 0.29688
vt 0.09375 0.29688
vt 0.09375 0.31250
vt 0.12500 0.31250
vt 0.12500 0.29688
vt 0.20313 0.29688
vt 0.20313 0.31250
vt 0.23438 0.31250
vt 0.23438 0.29688
vt 0.31250 0.29688
vt 0.31250 0.31250
vt 0.34375 0.31250
vt 0.34375 0.29688
vt 0.39063 0.29688
vt 0.39063 0.31250
vt 0.42188 0.31250
vt 0.42188 0.29688
vt 0.46875 0.29688
vt 0.46875 0.31250
vt 0.50000 0.31250
vt 0.50000 0.29688
vt 0.54688 0.29688
vt 0.54688 0.31250
vt 0.57813 0.31250
vt 0.57813 0.29688
vt 0.62500 0.29688
vt 0.62500 0.31250
vt 0.65625 0.31250
vt 0.65625 0.29688
vt 0.70313 0.29688
vt 0.70313 0.31250
vt 0.73438 0.31250
vt 0.73438 0.29688
vt 0.78125 0.29688
vt 0.78125 0.31250
vt 0.81250 0.31250
vt 0.81250 0.29688
vt 0.85938 0.29688
vt 0.85938 0.31250
vt 0.89063 0.31250
vt 0.89063 0.29688
vt 0.93750 0.29688
vt 0.93750 0.31250
vt 0.01563 0.35938
vt 0.01563 0.34375
vt 0.06250 0.34375
vt 0.06250 0.35938
vt 0.09375 0.35938
vt 0.09375 0.34375
vt 0.14063 0.34375
vt 0.14063 0.35938
vt 0.17188 0.35938
vt 0.17188 0.34375
vt 0.21875 0.34375
vt 0.21875 0.35938
vt 0.25000 0.35938
vt 0.25000 0.34375
vt 0.29688 0.34375
vt 0.29688 0.35938
vt 0.32813 0.35938
vt 0.32813 0.34375
vt 0.37500 0.34375
vt 0.37500 0.35938
vt 0.40625 0.35938
vt 0.40625 0.34375
vt 0.43750 0.34375
vt 0.43750 0.35938
vt 0.46875 0.35938
vt 0.46875 0.34375
vt 0.50000 0.34375
vt 0.50000 0.35938
vt 0.53125 0.35938
vt 0.53125 0.34375
vt 0.56250 0.34375
vt 0.56250 0.35938
vt 0.59375 0.35938
vt 0.59375 0.34375
vt 0.62500 0.34375
vt 0.62500 0.35938
vt 0.65625 0.35938
vt 0.65625 0.34375
vt 0.68750 0.34375
vt 0.68750 0.35938
vt 0.71875 0.35938
vt 0.71875 0.34375
vt 0.75000 0.34375
vt 0.75000 0.35938
vt 0.78125 0.35938
vt 0.78125 0.34375
vt 0.81250 0.34375
vt 0.81250 0.35938
vt 0.96875 0.23438
vt 0.96875 0.21875
vt 0.98438 0.21875
vt 0.98438 0.23438
vt 0.96875 0.31250
vt 0.96875 0.29688
vt 0.98438 0.29688
vt 0.98438 0.31250
vt 0.84375 0.35938
vt 0.84375 0.34375
vt 0.85938 0.34375
vt 0.85938 0.35938
vt 0.89063 0.35938
vt 0.89063 0.34375
vt 0.90625 0.34375
vt 0.90625 0.35938
vt 0.93750 0.35938
vt 0.93750 0.34375
vt 0.95313 0.34375
vt 0.95313 0.35938
vt 0.01563 0.40625
vt 0.01563 0.39063
vt 0.03125 0.39063
vt 0.03125 0.40625
vt 0.06250 0.40625
vt 0.06250 0.39063
vt 0.07813 0.39063
vt 0.07813 0.40625
vt 0.10938 0.40625
vt 0.10938 0.39063
vt 0.12500 0.39063
vt 0.12500 0.40625
vt 0.15625 0.40625
vt 0.15625 0.39063
vt 0.17188 0.39063
vt 0.17188 0.40625
vt 0.20313 0.40625
vt 0.20313 0.39063
vt 0.21875 0.39063
vt 0.21875 0.40625
vt 0.25000 0.40625
vt 0.25000 0.39063
vt 0.26563 0.39063
vt 0.26563 0.40625
vt 0.29688 0.40625
vt 0.29688 0.39063
vt 0.31250 0.39063
vt 0.31250 0.40625
vt 0.34375 0.40625
vt 0.34375 0.39063
vt 0.35938 0.39063
vt 0.35938 0.40625
vt 0.39063 0.40625
vt 0.39063 0.39063
vt 0.40625 0.39063
vt 0.40625 0.40625
vt 0.43750 0.40625
vt 0.43750 0.39063
vt 0.45313 0.39063
vt 0.45313 0.40625
vt 0.48438 0.40625
vt 0.48438 0.39063
vt 0.50000 0.39063
vt 0.50000 0.40625
vt 0.53125 0.40625
vt 0.53125 0.39063
vt 0.54688 0.39063
vt 0.54688 0.40625
vt 0.57813 0.40625
vt 0.57813 0.39063
vt 0.59375 0.39063
vt 0.59375 0.40625
vt 0.62500 0.40625
vt 0.62500 0.39063
vt 0.64063 0.39063
vt 0.64063 0.40625
vt 0.67188 0.40625
vt 0.67188 0.39063
vt 0.68750 0.39063
vt 0.68750 0.40625
vt 0.71875 0.40625
vt 0.71875 0.39063
vt 0.73438 0.39063
vt 0.73438 0.40625
vt 0.76563 0.40625
vt 0.76563 0.39063
vt 0.78125 0.39063
vt 0.78125 0.40625
vt 0.81250 0.40625
vt 0.81250 0.39063
vt 0.82813 0.39063
vt 0.82813 0.40625
vt 0.85938 0.40625
vt 0.85938 0.39063
vt 0.87500 0.39063
vt 0.87500 0.40625
vt 0.90625 0.40625
vt 0.90625 0.39063
vt 0.92188 0.39063
vt 0.92188 0.40625
vt 0.95313 0.40625
vt 0.95313 0.39063
vt 0.96875 0.39063
vt 0.96875 0.40625
vt 0.01563 0.45313
vt 0.01563 0.43750
vt 0.03125 0.43750
vt 0.03125 0.45313
vt 0.06250 0.45313
vt 0.06250 0.43750
vt 0.07813 0.43750
vt 0.07813 0.45313
vt 0.10938 0.45313
vt 0.10938 0.43750
vt 0.12500 0.43750
vt 0.12500 0.45313
vt 0.15625 0.45313
vt 0.15625 0.43750
vt 0.17188 0.43750
vt 0.17188 0.45313
vt 0.20313 0.45313
vt 0.20313 0.43750
vt 0.21875 0.43750
vt 0.21875 0.45313
vt 0.25000 0.45313
vt 0.25000 0.43750
vt 0.26563 0.43750
vt 0.26563 0.45313
vt 0.29688 0.45313
vt 0.29688 0.43750
vt 0.31250 0.43750
vt 0.31250 0.45313
vt 0.34375 0.45313
vt 0.34375 0.43750
vt 0.35938 0.43750
vt 0.35938 0.45313
vt 0.39063 0.45313
vt 0.39063 0.43750
vt 0.40625 0.43750
vt 0.40625 0.45313
vt 0.43750 0.45313
vt 0.43750 0.43750
vt 0.45313 0.43750
vt 0.45313 0.45313
vt 0.48438 0.45313
vt 0.48438 0.43750
vt 0.50000 0.43750
vt 0.50000 0.45313
vt 0.53125 0.45313
vt 0.53125 0.43750
vt 0.54688 0.43750
vt 0.54688 0.45313
vt 0.57813 0.45313
vt 0.57813 0.43750
vt 0.59375 0.43750
vt 0.59375 0.45313
vt 0.62500 0.45313
vt 0.62500 0.43750
vt 0.64063 0.43750
vt 0.64063 0.45313
vt 0.67188 0.45313
vt 0.67188 0.43750
vt 0.68750 0.43750
vt 0.68750 0.45313
vt 0.71875 0.45313
vt 0.71875 0.43750
vt 0.73438 0.43750
vt 0.73438 0.45313
vt 0.76563 0.45313
vt 0.76563 0.43750
vt 0.78125 0.43750
vt 0.78125 0.45313
vt 0.81250 0.45313
vt 0.81250 0.43750
vt 0.82813 0.43750
vt 0.82813 0.45313
vt 0.85938 0.45313
vt 0.85938 0.43750
vt 0.87500 0.43750
vt 0.87500 0.45313
vt 0.90625 0.45313
vt 0.90625 0.43750
vt 0.92188 0.43750
vt 0.92188 0.45313
vt 0.95313 0.45313
vt 0.95313 0.43750
vt 0.96875 0.43750
vt 0.96875 0.45313
vt 0.01563 0.50000
vt 0.01563 0.48438
vt 0.03125 0.48438
vt 0.03125 0.50000
vt 0.06250 0.50000
vt 0.06250 0.48438
vt 0.07813 0.48438
vt 0.07813 0.50000
vt 0.10938 0.50000
vt 0.10938 0.48438
vt 0.12500 0.48438
vt 0.12500 0.50000
vt 0.15625 0.50000
vt 0.15625 0.48438
vt 0.17188 0.48438
vt 0.17188 0.50000
vt 0.20313 0.50000
vt 0.20313 0.48438
vt 0.21875 0.48438
vt 0.21875 0.50000
vt 0.25000 0.50000
vt 0.25000 0.48438
vt 0.26563 0.48438
vt 0.26563 0.50000
vt 0.29688 0.50000
vt 0.29688 0.48438
vt 0.31250 0.48438
vt 0.31250 0.50000
vt 0.34375 0.50000
vt 0.34375 0.48438
vt 0.35938 0.48438
vt 0.35938 0.50000
vt 0.39063 0.50000
vt 0.39063 0.48438
vt 0.40625 0.48438
vt 0.40625 0.50000
vt 0.43750 0.50000
vt 0.43750 0.48438
vt 0.45313 0.48438
vt 0.45313 0.50000
vt 0.48438 0.50000
vt 0.48438 0.48438
vt 0.50000 0.48438
vt 0.50000 0.50000
vt 0.53125 0.50000
vt 0.53125 0.48438
vt 0.54688 0.48438
vt 0.54688 0.50000
vt 0.57813 0.50000
vt 0.57813 0.48438
vt 0.59375 0.48438
vt 0.59375 0.50000
vt 0.62500 0.50000
vt 0.62500 0.48438
vt 0.64063 0.48438
vt 0.64063 0.50000
vt 0.67188 0.50000
vt 0.67188 0.48438
vt 0.68750 0.48438
vt 0.68750 0.50000
vt 0.71875 0.50000
vt 0.71875 0.48438
vt 0.73438 0.48438
vt 0.73438 0.50000
vt 0.76563 0.50000
vt 0.76563 0.48438
vt 0.78125 0.48438
vt 0.78125 0.50000
vt 0.81250 0.50000
vt 0.81250 0.48438
vt 0.82813 0.48438
vt 0.82813 0.50000
vt 0.85938 0.50000
vt 0.85938 0.48438
vt 0.87500 0.48438
vt 0.87500 0.50000
vt 0.90625 0.50000
vt 0.90625 0.48438
vt 0.92188 0.48438
vt 0.92188 0.50000
vt 0.95313 0.50000
vt 0.95313 0.48438
vt 0.96875 0.48438
vt 0.96875 0.50000
vt 0.01563 0.54688
vt 0.01563 0.53125
vt 0.03125 0.53125
vt 0.03125 0.54688
vt 0.06250 0.54688
vt 0.06250 0.53125
vt 0.07813 0.53125
vt 0.07813 0.54688
vt 0.10938 0.54688
vt 0.10938 0.53125
vt 0.12500 0.53125
vt 0.12500 0.54688
vt 0.15625 0.54688
vt 0.15625 0.53125
vt 0.17188 0.53125
vt 0.17188 0.54688
vt 0.20313 0.54688
vt 0.20313 0.53125
vt 0.21875 0.53125
vt 0.21875 0.54688
vt 0.25000 0.54688
vt 0.25000 0.53125
vt 0.26563 0.53125
vt 0.26563 0.54688
vt 0.29688 0.54688
vt 0.29688 0.53125
vt 0.31250 0.53125
vt 0.31250 0.54688
vt 0.34375 0.54688
vt 0.34375 0.53125
vt 0.35938 0.53125
vt 0.35938 0.54688
vt 0.39063 0.54688
vt 0.39063 0.53125
vt 0.40625 0.53125
vt 0.40625 0.54688
vt 0.43750 0.54688
vt 0.43750 0.53125
vt 0.45313 0.53125
vt 0.45313 0.54688
vt 0.48438 0.54688
vt 0.48438 0.53125
vt 0.50000 0.53125
vt 0.50000 0.54688
vt 0.53125 0.54688
vt 0.53125 0.53125
vt 0.54688 0.53125
vt 0.54688 0.54688
vt 0.57813 0.54688
vt 0.57813 0.53125
vt 0.59375 0.53125
vt 0.59375 0.54688
vt 0.62500 0.54688
vt 0.62500 0.53125
vt 0.64063 0.53125
vt 0.64063 0.54688
vt 0.67188 0.54688
vt 0.67188 0.53125
vt 0.68750 0.53125
vt 0.68750 0.54688
vt 0.71875 0.54688
vt 0.71875 0.53125
vt 0.73438 0.53125
vt 0.73438 0.54688
vt 0.76563 0.54688
vt 0.76563 0.53125
vt 0.78125 0.53125
vt 0.78125 0.54688
vt 0.81250 0.54688
vt 0.81250 0.53125
vt 0.82813 0.53125
vt 0.82813 0.54688
vt 0.85938 0.54688
vt 0.85938 0.53125
vt 0.87500 0.53125
vt 0.87500 0.54688
vt 0.90625 0.54688
vt 0.90625 0.53125
vt 0.92188 0.53125
vt 0.92188 0.54688

g cactus_smol
usemtl cactus_smol_Material
f 101/1/1 102/2/1 103/3/1 104/4/1
f 124/5/4 107/6/4 102/7/4 101/8/4
f 104/9/4 103/10/4 94/11/4 93/12/4
f 89/13/1 90/14/1 91/15/1 92/16/1
f 93/17/1 94/18/1 95/19/1 96/20/1
f 97/21/1 98/22/1 99/23/1 100/24/1
f 100/25/3 99/26/3 106/27/3 121/28/3
f 92/29/3 91/30/3 98/31/3 97/32/3
f 4/33/3 3/34/3 10/35/3 9/36/3
f 16/37/4 15/38/4 6/39/4 5/40/4
f 8/41/4 7/42/4 31/43/4 17/44/4
f 20/45/3 32/46/3 2/47/3 1/48/3
f 5/49/2 6/50/2 7/51/2 8/52/2
f 9/53/2 10/54/2 11/55/2 12/56/2
f 13/57/2 14/58/2 15/59/2 16/60/2
f 1/61/2 2/62/2 3/63/2 4/64/2
f 117/65/6 29/66/6 28/67/6 118/68/6
f 182/69/3 183/70/3 184/71/3 185/72/3
f 17/73/2 18/74/2 19/75/2 20/76/2
f 193/77/4 194/78/4 195/79/4 196/80/4
f 96/81/4 197/82/4 198/83/4 13/84/4
f 105/85/1 106/86/1 107/87/1 108/88/1
f 12/89/3 186/90/3 187/91/3 89/92/3
f 191/93/4 95/94/4 14/95/4 192/96/4
f 12/97/5 89/98/5 92/99/5 9/100/5
f 90/101/6 11/102/6 10/103/6 91/104/6
f 16/105/5 93/106/5 96/107/5 13/108/5
f 94/109/6 15/110/6 14/111/6 95/112/6
f 27/113/5 137/114/5 144/115/5 67/116/5
f 113/117/1 114/118/1 115/119/1 116/120/1
f 109/121/1 110/122/1 111/123/1 112/124/1
f 21/125/2 22/126/2 23/127/2 24/128/2
f 68/129/5 143/130/5 199/131/5 71/132/5
f 42/133/3 1/134/3 26/135/3 25/136/3
f 25/137/2 26/138/2 9/139/2 27/140/2
f 98/141/1 117/142/1 118/143/1 103/144/1
f 103/145/4 118/146/4 28/147/4 6/148/4
f 6/149/2 28/150/2 29/151/2 3/152/2
f 3/153/3 29/154/3 117/155/3 98/156/3
f 188/157/3 11/158/3 90/159/3 189/160/3
f 119/161/1 100/162/1 101/163/1 120/164/1
f 30/165/2 31/166/2 32/167/2 33/168/2
f 157/169/4 93/170/4 16/171/4 71/172/4
f 121/173/1 122/174/1 123/175/1 124/176/1
f 190/177/3 9/178/3 92/179/3 153/180/3
f 20/181/5 1/182/5 8/183/5 17/184/5
f 126/185/5 119/186/5 120/187/5 155/188/5
f 100/189/5 121/190/5 124/191/5 101/192/5
f 38/193/2 8/194/2 1/195/2 39/196/2
f 34/197/2 35/198/2 36/199/2 37/200/2
f 106/201/6 99/202/6 102/203/6 107/204/6
f 2/205/6 32/206/6 31/207/6 7/208/6
f 42/209/5 25/210/5 70/211/5 40/212/5
f 144/213/4 143/214/4 68/215/4 67/216/4
f 140/217/5 125/218/5 128/219/5 141/220/5
f 27/221/3 190/222/3 138/223/3 137/224/3
f 142/225/5 127/226/5 157/227/5 199/228/5
f 40/229/2 41/230/2 39/231/2 42/232/2
f 125/233/1 126/234/1 127/235/1 128/236/1
f 174/237/1 175/238/1 176/239/1 177/240/1
f 178/241/1 179/242/1 180/243/1 181/244/1
f 22/245/2 34/246/2 63/247/2 64/248/2
f 170/249/1 171/250/1 172/251/1 173/252/1
f 164/253/1 165/254/1 108/255/1 111/256/1
f 166/257/1 167/258/1 112/259/1 115/260/1
f 168/261/1 169/262/1 116/263/1 123/264/1
f 55/265/2 56/266/2 33/267/2 36/268/2
f 47/269/2 48/270/2 49/271/2 50/272/2
f 43/273/2 44/274/2 45/275/2 46/276/2
f 57/277/2 58/278/2 37/279/2 23/280/2
f 51/281/2 52/282/2 53/283/2 54/284/2
f 35/285/2 30/286/2 61/287/2 62/288/2
f 59/289/2 60/290/2 24/291/2 19/292/2
f 122/293/1 113/294/1 162/295/1 163/296/1
f 81/297/2 82/298/2 83/299/2 84/300/2
f 141/301/1 142/302/1 143/303/1 144/304/1
f 73/305/2 74/306/2 75/307/2 76/308/2
f 77/309/2 78/310/2 79/311/2 80/312/2
f 129/313/1 130/314/1 131/315/1 132/316/1
f 85/317/2 86/318/2 87/319/2 88/320/2
f 137/321/1 138/322/1 139/323/1 140/324/1
f 133/325/1 134/326/1 135/327/1 136/328/1
f 71/329/2 16/330/2 72/331/2 68/332/2
f 155/333/1 156/334/1 93/335/1 157/336/1
f 153/337/1 92/338/1 154/339/1 126/340/1
f 114/341/1 109/342/1 160/343/1 161/344/1
f 110/345/1 105/346/1 158/347/1 159/348/1
f 18/349/2 21/350/2 65/351/2 66/352/2
f 67/353/2 68/354/2 69/355/2 70/356/2
f 149/357/1 150/358/1 151/359/1 152/360/1
f 145/361/1 146/362/1 147/363/1 148/364/1
f 80/365/5 133/366/5 136/367/5 77/368/5
f 76/369/5 129/370/5 132/371/5 73/372/5
f 8/373/5 72/374/5 16/375/5 5/376/5
f 84/377/5 145/378/5 148/379/5 81/380/5
f 92/381/5 97/382/5 100/383/5 154/384/5
f 138/385/5 153/386/5 126/387/5 139/388/5
f 88/389/5 149/390/5 152/391/5 85/392/5
f 46/393/5 55/394/5 62/395/5 43/396/5
f 181/397/4 180/398/4 169/399/4 168/400/4
f 177/401/4 176/402/4 167/403/4 166/404/4
f 50/405/5 57/406/5 64/407/5 47/408/5
f 41/409/5 69/410/5 68/411/5 38/412/5
f 4/413/5 9/414/5 26/415/5 1/416/5
f 54/417/5 59/418/5 66/419/5 51/420/5
f 146/421/6 83/422/6 82/423/6 147/424/6
f 134/425/6 79/426/6 78/427/6 135/428/6
f 130/429/6 75/430/6 74/431/6 131/432/6
f 150/433/6 87/434/6 86/435/6 151/436/6
f 179/437/6 162/438/6 169/439/6 180/440/6
f 175/441/6 160/442/6 167/443/6 176/444/6
f 171/445/6 158/446/6 165/447/6 172/448/6
f 161/449/5 174/450/5 177/451/5 166/452/5
f 159/453/5 170/454/5 173/455/5 164/456/5
f 156/457/5 101/458/5 104/459/5 93/460/5
f 163/461/5 178/462/5 181/463/5 168/464/5
f 60/465/6 53/466/6 52/467/6 65/468/6
f 58/469/6 49/470/6 48/471/6 63/472/6
f 56/473/6 45/474/6 44/475/6 61/476/6
f 140/477/3 139/478/3 126/479/3 125/480/3
f 136/481/3 135/482/3 185/483/3 187/484/3
f 132/485/3 131/486/3 189/487/3 184/488/3
f 126/489/3 154/490/3 100/491/3 119/492/3
f 163/493/3 162/494/3 179/495/3 178/496/3
f 161/497/3 160/498/3 175/499/3 174/500/3
f 159/501/3 158/502/3 171/503/3 170/504/3
f 54/505/3 53/506/3 60/507/3 59/508/3
f 50/509/3 49/510/3 58/511/3 57/512/3
f 46/513/3 45/514/3 56/515/3 55/516/3
f 183/517/3 188/518/3 74/519/3 73/520/3
f 80/521/3 79/522/3 134/523/3 133/524/3
f 76/525/3 75/526/3 130/527/3 129/528/3
f 186/529/3 182/530/3 78/531/3 77/532/3
f 128/533/4 127/534/4 142/535/4 141/536/4
f 152/537/4 151/538/4 86/539/4 85/540/4
f 148/541/4 147/542/4 82/543/4 81/544/4
f 194/545/4 191/546/4 146/547/4 145/548/4
f 173/549/4 172/550/4 165/551/4 164/552/4
f 120/553/4 101/554/4 156/555/4 155/556/4
f 197/557/4 193/558/4 150/559/4 149/560/4
f 66/561/4 65/562/4 52/563/4 51/564/4
f 64/565/4 63/566/4 48/567/4 47/568/4
f 62/569/4 61/570/4 44/571/4 43/572/4
f 70/573/4 69/574/4 41/575/4 40/576/4
f 88/577/4 87/578/4 196/579/4 198/580/4
f 84/581/4 83/582/4 192/583/4 195/584/4
f 68/585/4 72/586/4 8/587/4 38/588/4
