# This file was created with Minddesk Qubicle 3.0
# Get Qubicle at www.getqubicle.com

mtllib chair_west.mtl

vn 0.0 0.0 1.0
vn 0.0 0.0 -1.0
vn -1.0 0.0 0.0
vn 1.0 0.0 0.0
vn 0.0 1.0 0.0
vn 0.0 -1.0 0.0

v -0.20000 0.30000 -0.20000
v -0.20000 0.00000 -0.20000
v -0.30000 0.00000 -0.20000
v -0.30000 0.30000 -0.20000
v 0.40000 0.30000 -0.20000
v 0.40000 0.00000 -0.20000
v 0.30000 0.00000 -0.20000
v 0.30000 0.30000 -0.20000
v -0.20000 0.30000 0.30000
v -0.20000 0.00000 0.30000
v -0.30000 0.00000 0.30000
v -0.30000 0.30000 0.30000
v 0.40000 0.30000 0.30000
v 0.40000 0.00000 0.30000
v 0.30000 0.00000 0.30000
v 0.30000 0.30000 0.30000
v 0.40000 1.10000 -0.30000
v 0.40000 0.90000 -0.30000
v -0.30000 0.90000 -0.30000
v -0.30000 1.10000 -0.30000
v 0.40000 0.50000 -0.20000
v -0.30000 0.50000 -0.20000
v 0.40000 0.90000 -0.20000
v 0.40000 0.70000 -0.20000
v -0.30000 0.70000 -0.20000
v -0.30000 0.90000 -0.20000
v -0.20000 0.70000 -0.20000
v -0.20000 0.50000 -0.20000
v 0.30000 0.50000 -0.20000
v 0.30000 0.70000 -0.20000
v 0.40000 0.40000 0.20000
v 0.40000 0.30000 0.20000
v -0.30000 0.30000 0.20000
v -0.30000 0.40000 0.20000
v -0.30000 1.00000 -0.10000
v -0.30000 0.70000 -0.10000
v 0.40000 0.70000 -0.10000
v 0.40000 1.00000 -0.10000
v -0.30000 0.30000 -0.10000
v -0.30000 0.00000 -0.10000
v -0.20000 0.00000 -0.10000
v -0.20000 0.30000 -0.10000
v 0.30000 0.30000 -0.10000
v 0.30000 0.00000 -0.10000
v 0.40000 0.00000 -0.10000
v 0.40000 0.30000 -0.10000
v -0.30000 0.30000 0.40000
v -0.30000 0.00000 0.40000
v -0.20000 0.00000 0.40000
v -0.20000 0.30000 0.40000
v 0.30000 0.30000 0.40000
v 0.30000 0.00000 0.40000
v 0.40000 0.00000 0.40000
v 0.40000 0.30000 0.40000
v -0.30000 0.50000 -0.10000
v -0.20000 0.50000 -0.10000
v -0.20000 0.70000 -0.10000
v 0.30000 0.70000 -0.10000
v 0.30000 0.50000 -0.10000
v 0.40000 0.50000 -0.10000
v -0.30000 1.10000 -0.20000
v -0.30000 1.00000 -0.20000
v 0.40000 1.00000 -0.20000
v 0.40000 1.10000 -0.20000
v -0.30000 0.40000 -0.10000
v 0.40000 0.40000 -0.10000
v -0.30000 0.50000 0.30000
v -0.30000 0.40000 0.30000
v 0.40000 0.40000 0.30000
v 0.40000 0.50000 0.30000
v -0.30000 0.40000 0.40000
v 0.40000 0.40000 0.40000
v -0.30000 0.40000 -0.20000
v -0.30000 0.90000 -0.10000
v -0.30000 1.00000 -0.30000
v 0.40000 0.40000 -0.20000
v 0.40000 0.90000 -0.10000
v 0.40000 1.00000 -0.30000

vt 0.01563 0.15625
vt 0.01563 0.03125
vt 0.12500 0.03125
vt 0.12500 0.15625
vt 0.15625 0.15625
vt 0.15625 0.03125
vt 0.17188 0.03125
vt 0.17188 0.15625
vt 0.20313 0.15625
vt 0.20313 0.03125
vt 0.21875 0.03125
vt 0.21875 0.15625
vt 0.25000 0.15625
vt 0.25000 0.03125
vt 0.26563 0.03125
vt 0.26563 0.15625
vt 0.29688 0.15625
vt 0.29688 0.03125
vt 0.31250 0.03125
vt 0.31250 0.15625
vt 0.34375 0.12500
vt 0.34375 0.03125
vt 0.45313 0.03125
vt 0.45313 0.12500
vt 0.48438 0.12500
vt 0.48438 0.03125
vt 0.59375 0.03125
vt 0.59375 0.12500
vt 0.62500 0.12500
vt 0.62500 0.03125
vt 0.64063 0.03125
vt 0.64063 0.12500
vt 0.67188 0.12500
vt 0.67188 0.03125
vt 0.68750 0.03125
vt 0.68750 0.12500
vt 0.71875 0.12500
vt 0.71875 0.03125
vt 0.73438 0.03125
vt 0.73438 0.12500
vt 0.76563 0.12500
vt 0.76563 0.03125
vt 0.78125 0.03125
vt 0.78125 0.12500
vt 0.81250 0.12500
vt 0.81250 0.03125
vt 0.82813 0.03125
vt 0.82813 0.12500
vt 0.85938 0.12500
vt 0.85938 0.03125
vt 0.87500 0.03125
vt 0.87500 0.12500
vt 0.90625 0.12500
vt 0.90625 0.03125
vt 0.92188 0.03125
vt 0.92188 0.12500
vt 0.95313 0.12500
vt 0.95313 0.03125
vt 0.96875 0.03125
vt 0.96875 0.12500
vt 0.01563 0.31250
vt 0.01563 0.21875
vt 0.03125 0.21875
vt 0.03125 0.31250
vt 0.06250 0.31250
vt 0.06250 0.21875
vt 0.07813 0.21875
vt 0.07813 0.31250
vt 0.10938 0.31250
vt 0.10938 0.21875
vt 0.12500 0.21875
vt 0.12500 0.31250
vt 0.15625 0.31250
vt 0.15625 0.21875
vt 0.17188 0.21875
vt 0.17188 0.31250
vt 0.20313 0.31250
vt 0.20313 0.21875
vt 0.21875 0.21875
vt 0.21875 0.31250
vt 0.25000 0.31250
vt 0.25000 0.21875
vt 0.26563 0.21875
vt 0.26563 0.31250
vt 0.29688 0.28125
vt 0.29688 0.21875
vt 0.40625 0.21875
vt 0.40625 0.28125
vt 0.43750 0.28125
vt 0.43750 0.21875
vt 0.54688 0.21875
vt 0.54688 0.28125
vt 0.57813 0.28125
vt 0.57813 0.21875
vt 0.68750 0.21875
vt 0.68750 0.28125
vt 0.71875 0.28125
vt 0.71875 0.21875
vt 0.73438 0.21875
vt 0.73438 0.28125
vt 0.76563 0.28125
vt 0.76563 0.21875
vt 0.78125 0.21875
vt 0.78125 0.28125
vt 0.81250 0.28125
vt 0.81250 0.21875
vt 0.82813 0.21875
vt 0.82813 0.28125
vt 0.85938 0.28125
vt 0.85938 0.21875
vt 0.87500 0.21875
vt 0.87500 0.28125
vt 0.90625 0.28125
vt 0.90625 0.21875
vt 0.92188 0.21875
vt 0.92188 0.28125
vt 0.95313 0.28125
vt 0.95313 0.21875
vt 0.96875 0.21875
vt 0.96875 0.28125
vt 0.01563 0.40625
vt 0.01563 0.37500
vt 0.12500 0.37500
vt 0.12500 0.40625
vt 0.15625 0.40625
vt 0.15625 0.37500
vt 0.26563 0.37500
vt 0.26563 0.40625
vt 0.29688 0.40625
vt 0.29688 0.37500
vt 0.40625 0.37500
vt 0.40625 0.40625
vt 0.43750 0.40625
vt 0.43750 0.37500
vt 0.54688 0.37500
vt 0.54688 0.40625
vt 0.57813 0.40625
vt 0.57813 0.37500
vt 0.68750 0.37500
vt 0.68750 0.40625
vt 0.71875 0.40625
vt 0.71875 0.37500
vt 0.82813 0.37500
vt 0.82813 0.40625
vt 0.85938 0.40625
vt 0.85938 0.37500
vt 0.96875 0.37500
vt 0.96875 0.40625
vt 0.01563 0.50000
vt 0.01563 0.46875
vt 0.12500 0.46875
vt 0.12500 0.50000
vt 0.15625 0.50000
vt 0.15625 0.46875
vt 0.26563 0.46875
vt 0.26563 0.50000
vt 0.29688 0.50000
vt 0.29688 0.46875
vt 0.40625 0.46875
vt 0.40625 0.50000
vt 0.43750 0.50000
vt 0.43750 0.46875
vt 0.51563 0.46875
vt 0.51563 0.50000
vt 0.54688 0.50000
vt 0.54688 0.46875
vt 0.62500 0.46875
vt 0.62500 0.50000
vt 0.65625 0.50000
vt 0.65625 0.46875
vt 0.73438 0.46875
vt 0.73438 0.50000
vt 0.76563 0.50000
vt 0.76563 0.46875
vt 0.84375 0.46875
vt 0.84375 0.50000
vt 0.87500 0.50000
vt 0.87500 0.46875
vt 0.95313 0.46875
vt 0.95313 0.50000
vt 0.01563 0.59375
vt 0.01563 0.56250
vt 0.09375 0.56250
vt 0.09375 0.59375
vt 0.12500 0.59375
vt 0.12500 0.56250
vt 0.15625 0.56250
vt 0.15625 0.59375
vt 0.18750 0.59375
vt 0.18750 0.56250
vt 0.21875 0.56250
vt 0.21875 0.59375
vt 0.25000 0.59375
vt 0.25000 0.56250
vt 0.28125 0.56250
vt 0.28125 0.59375
vt 0.31250 0.59375
vt 0.31250 0.56250
vt 0.34375 0.56250
vt 0.34375 0.59375
vt 0.37500 0.59375
vt 0.37500 0.56250
vt 0.39063 0.56250
vt 0.39063 0.59375
vt 0.42188 0.59375
vt 0.42188 0.56250
vt 0.43750 0.56250
vt 0.43750 0.59375
vt 0.46875 0.59375
vt 0.46875 0.56250
vt 0.48438 0.56250
vt 0.48438 0.59375
vt 0.51563 0.59375
vt 0.51563 0.56250
vt 0.53125 0.56250
vt 0.53125 0.59375
vt 0.56250 0.59375
vt 0.56250 0.56250
vt 0.57813 0.56250
vt 0.57813 0.59375
vt 0.60938 0.59375
vt 0.60938 0.56250
vt 0.62500 0.56250
vt 0.62500 0.59375

g chair_west
usemtl chair_west_Material
f 55/1/5 67/2/5 70/3/5 60/4/5
f 66/5/4 45/6/4 6/7/4 76/8/4
f 77/9/4 60/10/4 21/11/4 23/12/4
f 73/13/3 3/14/3 40/15/3 65/16/3
f 26/17/3 22/18/3 55/19/3 74/20/3
f 35/21/1 36/22/1 37/23/1 38/24/1
f 34/25/6 65/26/6 66/27/6 31/28/6
f 39/29/1 40/30/1 41/31/1 42/32/1
f 54/33/4 53/34/4 14/35/4 13/36/4
f 50/37/4 49/38/4 10/39/4 9/40/4
f 16/41/3 15/42/3 52/43/3 51/44/3
f 12/45/3 11/46/3 48/47/3 47/48/3
f 8/49/3 7/50/3 44/51/3 43/52/3
f 51/53/1 52/54/1 53/55/1 54/56/1
f 42/57/4 41/58/4 2/59/4 1/60/4
f 43/61/1 44/62/1 45/63/1 46/64/1
f 47/65/1 48/66/1 49/67/1 50/68/1
f 9/69/2 10/70/2 11/71/2 12/72/2
f 13/73/2 14/74/2 15/75/2 16/76/2
f 5/77/2 6/78/2 7/79/2 8/80/2
f 1/81/2 2/82/2 3/83/2 4/84/2
f 23/85/2 24/86/2 25/87/2 26/88/2
f 21/89/2 5/90/2 4/91/2 22/92/2
f 17/93/2 18/94/2 19/95/2 20/96/2
f 58/97/1 59/98/1 60/99/1 37/100/1
f 30/101/3 29/102/3 59/103/3 58/104/3
f 36/105/1 55/106/1 56/107/1 57/108/1
f 27/109/2 28/110/2 22/111/2 25/112/2
f 57/113/4 56/114/4 28/115/4 27/116/4
f 24/117/2 21/118/2 29/119/2 30/120/2
f 67/121/1 68/122/1 69/123/1 70/124/1
f 71/125/1 47/126/1 54/127/1 72/128/1
f 65/129/1 39/130/1 46/131/1 66/132/1
f 31/133/2 32/134/2 33/135/2 34/136/2
f 61/137/1 62/138/1 63/139/1 64/140/1
f 62/141/5 35/142/5 38/143/5 63/144/5
f 68/145/5 71/146/5 72/147/5 69/148/5
f 20/149/5 61/150/5 64/151/5 17/152/5
f 12/153/6 33/154/6 32/155/6 13/156/6
f 26/157/6 19/158/6 18/159/6 23/160/6
f 42/161/6 1/162/6 8/163/6 43/164/6
f 28/165/5 56/166/5 59/167/5 29/168/5
f 50/169/6 9/170/6 16/171/6 51/172/6
f 57/173/6 27/174/6 30/175/6 58/176/6
f 70/177/4 69/178/4 76/179/4 21/180/4
f 22/181/3 73/182/3 68/183/3 67/184/3
f 34/185/3 33/186/3 47/187/3 71/188/3
f 75/189/3 19/190/3 74/191/3 35/192/3
f 72/193/4 54/194/4 32/195/4 31/196/4
f 38/197/4 77/198/4 18/199/4 78/200/4
f 44/201/6 7/202/6 6/203/6 45/204/6
f 52/205/6 15/206/6 14/207/6 53/208/6
f 48/209/6 11/210/6 10/211/6 49/212/6
f 20/213/3 75/214/3 62/215/3 61/216/3
f 64/217/4 63/218/4 78/219/4 17/220/4
f 40/221/6 3/222/6 2/223/6 41/224/6
