# This file was created with Minddesk Qubicle 3.0
# Get Qubicle at www.getqubicle.com

mtllib cowboy_hat.mtl

vn 0.0 0.0 1.0
vn 0.0 0.0 -1.0
vn -1.0 0.0 0.0
vn 1.0 0.0 0.0
vn 0.0 1.0 0.0
vn 0.0 -1.0 0.0

v 0.30000 0.30000 -0.20000
v 0.30000 0.10000 -0.20000
v -0.20000 0.10000 -0.20000
v -0.20000 0.30000 -0.20000
v -0.30000 0.20000 -0.30000
v -0.30000 0.00000 -0.30000
v -0.40000 0.00000 -0.30000
v -0.40000 0.20000 -0.30000
v 0.50000 0.20000 -0.30000
v 0.50000 0.00000 -0.30000
v 0.40000 0.00000 -0.30000
v 0.40000 0.20000 -0.30000
v 0.40000 0.10000 -0.40000
v 0.40000 0.00000 -0.40000
v -0.30000 0.00000 -0.40000
v -0.30000 0.10000 -0.40000
v 0.30000 0.10000 0.30000
v 0.30000 0.00000 0.30000
v -0.20000 0.00000 0.30000
v -0.20000 0.10000 0.30000
v 0.00000 0.40000 -0.20000
v 0.00000 0.30000 -0.20000
v -0.20000 0.40000 -0.20000
v 0.30000 0.40000 -0.20000
v 0.10000 0.30000 -0.20000
v 0.10000 0.40000 -0.20000
v -0.20000 0.30000 0.30000
v 0.30000 0.30000 0.30000
v -0.40000 0.20000 0.40000
v -0.40000 0.00000 0.40000
v -0.30000 0.00000 0.40000
v -0.30000 0.20000 0.40000
v 0.40000 0.20000 0.40000
v 0.40000 0.00000 0.40000
v 0.50000 0.00000 0.40000
v 0.50000 0.20000 0.40000
v -0.20000 0.00000 -0.20000
v 0.30000 0.00000 -0.20000
v -0.30000 0.10000 0.50000
v -0.30000 0.00000 0.50000
v 0.40000 0.00000 0.50000
v 0.40000 0.10000 0.50000
v -0.20000 0.40000 0.30000
v 0.00000 0.30000 0.30000
v 0.00000 0.40000 0.30000
v 0.10000 0.40000 0.30000
v 0.10000 0.30000 0.30000
v 0.30000 0.40000 0.30000
v 0.40000 0.10000 -0.30000
v 0.40000 0.10000 0.40000
v -0.30000 0.10000 -0.30000
v -0.30000 0.10000 0.40000
v -0.30000 0.10000 -0.20000
v -0.30000 0.10000 0.30000
v 0.40000 0.10000 0.30000
v 0.40000 0.10000 -0.20000
v -0.40000 0.00000 0.30000
v -0.40000 0.00000 -0.20000
v 0.50000 0.00000 -0.20000
v 0.50000 0.00000 0.30000

vt 0.01563 0.25000
vt 0.01563 0.03125
vt 0.03125 0.03125
vt 0.03125 0.25000
vt 0.06250 0.25000
vt 0.06250 0.03125
vt 0.07813 0.03125
vt 0.07813 0.25000
vt 0.10938 0.18750
vt 0.10938 0.03125
vt 0.18750 0.03125
vt 0.18750 0.18750
vt 0.21875 0.18750
vt 0.21875 0.03125
vt 0.25000 0.03125
vt 0.25000 0.18750
vt 0.28125 0.18750
vt 0.28125 0.03125
vt 0.31250 0.03125
vt 0.31250 0.18750
vt 0.34375 0.18750
vt 0.34375 0.03125
vt 0.37500 0.03125
vt 0.37500 0.18750
vt 0.40625 0.18750
vt 0.40625 0.03125
vt 0.43750 0.03125
vt 0.43750 0.18750
vt 0.46875 0.18750
vt 0.46875 0.03125
vt 0.48438 0.03125
vt 0.48438 0.18750
vt 0.51563 0.18750
vt 0.51563 0.03125
vt 0.53125 0.03125
vt 0.53125 0.18750
vt 0.56250 0.18750
vt 0.56250 0.03125
vt 0.57813 0.03125
vt 0.57813 0.18750
vt 0.60938 0.12500
vt 0.60938 0.03125
vt 0.68750 0.03125
vt 0.68750 0.12500
vt 0.71875 0.12500
vt 0.71875 0.03125
vt 0.79688 0.03125
vt 0.79688 0.12500
vt 0.82813 0.09375
vt 0.82813 0.03125
vt 0.93750 0.03125
vt 0.93750 0.09375
vt 0.01563 0.37500
vt 0.01563 0.31250
vt 0.12500 0.31250
vt 0.12500 0.37500
vt 0.15625 0.37500
vt 0.15625 0.31250
vt 0.26563 0.31250
vt 0.26563 0.37500
vt 0.29688 0.37500
vt 0.29688 0.31250
vt 0.40625 0.31250
vt 0.40625 0.37500
vt 0.43750 0.37500
vt 0.43750 0.31250
vt 0.51563 0.31250
vt 0.51563 0.37500
vt 0.54688 0.37500
vt 0.54688 0.31250
vt 0.62500 0.31250
vt 0.62500 0.37500
vt 0.96875 0.09375
vt 0.96875 0.03125
vt 0.98438 0.03125
vt 0.98438 0.09375
vt 0.65625 0.37500
vt 0.65625 0.31250
vt 0.67188 0.31250
vt 0.67188 0.37500
vt 0.70313 0.37500
vt 0.70313 0.31250
vt 0.71875 0.31250
vt 0.71875 0.37500
vt 0.75000 0.37500
vt 0.75000 0.31250
vt 0.76563 0.31250
vt 0.76563 0.37500
vt 0.79688 0.34375
vt 0.79688 0.31250
vt 0.93750 0.31250
vt 0.93750 0.34375
vt 0.01563 0.46875
vt 0.01563 0.43750
vt 0.15625 0.43750
vt 0.15625 0.46875
vt 0.18750 0.46875
vt 0.18750 0.43750
vt 0.29688 0.43750
vt 0.29688 0.46875
vt 0.32813 0.46875
vt 0.32813 0.43750
vt 0.43750 0.43750
vt 0.43750 0.46875
vt 0.46875 0.46875
vt 0.46875 0.43750
vt 0.57813 0.43750
vt 0.57813 0.46875
vt 0.60938 0.46875
vt 0.60938 0.43750
vt 0.71875 0.43750
vt 0.71875 0.46875
vt 0.75000 0.46875
vt 0.75000 0.43750
vt 0.85938 0.43750
vt 0.85938 0.46875
vt 0.01563 0.56250
vt 0.01563 0.53125
vt 0.12500 0.53125
vt 0.12500 0.56250
vt 0.89063 0.46875
vt 0.89063 0.43750
vt 0.96875 0.43750
vt 0.96875 0.46875
vt 0.15625 0.56250
vt 0.15625 0.53125
vt 0.23438 0.53125
vt 0.23438 0.56250
vt 0.26563 0.56250
vt 0.26563 0.53125
vt 0.34375 0.53125
vt 0.34375 0.56250
vt 0.37500 0.56250
vt 0.37500 0.53125
vt 0.45313 0.53125
vt 0.45313 0.56250
vt 0.48438 0.56250
vt 0.48438 0.53125
vt 0.56250 0.53125
vt 0.56250 0.56250
vt 0.59375 0.56250
vt 0.59375 0.53125
vt 0.67188 0.53125
vt 0.67188 0.56250
vt 0.70313 0.56250
vt 0.70313 0.53125
vt 0.73438 0.53125
vt 0.73438 0.56250
vt 0.76563 0.56250
vt 0.76563 0.53125
vt 0.79688 0.53125
vt 0.79688 0.56250
vt 0.82813 0.56250
vt 0.82813 0.53125
vt 0.85938 0.53125
vt 0.85938 0.56250
vt 0.89063 0.56250
vt 0.89063 0.53125
vt 0.92188 0.53125
vt 0.92188 0.56250
vt 0.96875 0.34375
vt 0.96875 0.31250
vt 0.98438 0.31250
vt 0.98438 0.34375
vt 0.95313 0.56250
vt 0.95313 0.53125
vt 0.96875 0.53125
vt 0.96875 0.56250
vt 0.01563 0.65625
vt 0.01563 0.62500
vt 0.03125 0.62500
vt 0.03125 0.65625
vt 0.06250 0.65625
vt 0.06250 0.62500
vt 0.07813 0.62500
vt 0.07813 0.65625

g cowboy_hat
usemtl cowboy_hat_Material
f 8/1/5 29/2/5 32/3/5 5/4/5
f 12/5/5 33/6/5 36/7/5 9/8/5
f 20/9/6 3/10/6 2/11/6 17/12/6
f 57/13/6 58/14/6 37/15/6 19/16/6
f 23/17/5 43/18/5 45/19/5 21/20/5
f 26/21/5 46/22/5 48/23/5 24/24/5
f 18/25/6 38/26/6 59/27/6 60/28/6
f 2/29/5 17/30/5 55/31/5 56/32/5
f 22/33/5 44/34/5 47/35/5 25/36/5
f 53/37/5 54/38/5 20/39/5 3/40/5
f 48/41/4 17/42/4 2/43/4 24/44/4
f 23/45/3 3/46/3 20/47/3 43/48/3
f 36/49/4 35/50/4 10/51/4 9/52/4
f 8/53/3 7/54/3 30/55/3 29/56/3
f 54/57/5 39/58/5 42/59/5 55/60/5
f 16/61/5 53/62/5 56/63/5 13/64/5
f 27/65/1 20/66/1 17/67/1 28/68/1
f 1/69/2 2/70/2 3/71/2 4/72/2
f 29/73/1 30/74/1 31/75/1 32/76/1
f 33/77/1 34/78/1 35/79/1 36/80/1
f 9/81/2 10/82/2 11/83/2 12/84/2
f 5/85/2 6/86/2 7/87/2 8/88/2
f 58/89/6 7/90/6 10/91/6 59/92/6
f 30/93/6 57/94/6 60/95/6 35/96/6
f 40/97/6 31/98/6 34/99/6 41/100/6
f 13/101/2 14/102/2 15/103/2 16/104/2
f 39/105/1 40/106/1 41/107/1 42/108/1
f 12/109/3 49/110/3 50/111/3 33/112/3
f 6/113/6 15/114/6 14/115/6 11/116/6
f 32/117/4 52/118/4 51/119/4 5/120/4
f 3/121/1 37/122/1 38/123/1 2/124/1
f 2/125/3 38/126/3 18/127/3 17/128/3
f 26/129/3 25/130/3 47/131/3 46/132/3
f 20/133/4 19/134/4 37/135/4 3/136/4
f 45/137/4 44/138/4 22/139/4 21/140/4
f 17/141/2 18/142/2 19/143/2 20/144/2
f 21/145/2 22/146/2 4/147/2 23/148/2
f 24/149/2 1/150/2 25/151/2 26/152/2
f 43/153/1 27/154/1 44/155/1 45/156/1
f 46/157/1 47/158/1 28/159/1 48/160/1
f 49/161/4 11/162/4 14/163/4 13/164/4
f 42/165/4 41/166/4 34/167/4 50/168/4
f 16/169/3 15/170/3 6/171/3 51/172/3
f 52/173/3 31/174/3 40/175/3 39/176/3
