# This file was created with Minddesk Qubicle 3.0
# Get Qubicle at www.getqubicle.com

mtllib wardrobe.mtl

vn 0.0 0.0 1.0
vn 0.0 0.0 -1.0
vn -1.0 0.0 0.0
vn 1.0 0.0 0.0
vn 0.0 1.0 0.0
vn 0.0 -1.0 0.0

v -0.60000 2.20000 -0.80000
v -0.60000 0.00000 -0.80000
v -0.70000 0.00000 -0.80000
v -0.70000 2.20000 -0.80000
v 0.80000 2.20000 -0.80000
v 0.80000 0.00000 -0.80000
v 0.70000 0.00000 -0.80000
v 0.70000 2.20000 -0.80000
v 0.70000 1.00000 -0.90000
v 0.70000 0.00000 -0.90000
v -0.60000 0.00000 -0.90000
v -0.60000 1.00000 -0.90000
v 0.70000 2.20000 -0.90000
v 0.70000 1.20000 -0.90000
v -0.60000 1.20000 -0.90000
v -0.60000 2.20000 -0.90000
v -0.20000 1.20000 -0.90000
v -0.20000 1.00000 -0.90000
v 0.20000 1.20000 -0.90000
v 0.20000 1.00000 -0.90000
v -0.10000 1.00000 -0.90000
v -0.10000 1.20000 -0.90000
v 0.30000 1.00000 -0.90000
v 0.30000 1.20000 -0.90000
v -0.10000 1.20000 -1.00000
v -0.10000 1.00000 -1.00000
v -0.20000 1.00000 -1.00000
v -0.20000 1.20000 -1.00000
v 0.30000 1.20000 -1.00000
v 0.30000 1.00000 -1.00000
v 0.20000 1.00000 -1.00000
v 0.20000 1.20000 -1.00000
v 0.60000 2.30000 -0.90000
v 0.60000 2.20000 -0.90000
v -0.50000 2.20000 -0.90000
v -0.50000 2.30000 -0.90000
v 0.60000 2.40000 -0.80000
v 0.60000 2.30000 -0.80000
v -0.50000 2.30000 -0.80000
v -0.50000 2.40000 -0.80000
v -0.50000 2.20000 -0.80000
v -0.70000 2.30000 -0.80000
v 0.80000 2.30000 -0.80000
v 0.60000 2.20000 -0.80000
v -0.70000 2.30000 -0.30000
v -0.70000 0.00000 -0.30000
v 0.80000 0.00000 -0.30000
v 0.80000 2.30000 -0.30000
v -0.50000 2.40000 -0.30000
v -0.50000 2.30000 -0.30000
v 0.60000 2.30000 -0.30000
v 0.60000 2.40000 -0.30000

vt 0.01563 0.37500
vt 0.01563 0.01563
vt 0.25000 0.01563
vt 0.25000 0.37500
vt 0.28125 0.37500
vt 0.28125 0.01563
vt 0.35938 0.01563
vt 0.35938 0.37500
vt 0.39063 0.37500
vt 0.39063 0.01563
vt 0.46875 0.01563
vt 0.46875 0.37500
vt 0.50000 0.35938
vt 0.50000 0.01563
vt 0.51563 0.01563
vt 0.51563 0.35938
vt 0.54688 0.35938
vt 0.54688 0.01563
vt 0.56250 0.01563
vt 0.56250 0.35938
vt 0.59375 0.35938
vt 0.59375 0.01563
vt 0.60938 0.01563
vt 0.60938 0.35938
vt 0.64063 0.35938
vt 0.64063 0.01563
vt 0.65625 0.01563
vt 0.65625 0.35938
vt 0.68750 0.17188
vt 0.68750 0.01563
vt 0.89063 0.01563
vt 0.89063 0.17188
vt 0.68750 0.35938
vt 0.68750 0.20313
vt 0.89063 0.20313
vt 0.89063 0.35938
vt 0.01563 0.48438
vt 0.01563 0.40625
vt 0.25000 0.40625
vt 0.25000 0.48438
vt 0.28125 0.48438
vt 0.28125 0.40625
vt 0.45313 0.40625
vt 0.45313 0.48438
vt 0.92188 0.09375
vt 0.92188 0.01563
vt 0.95313 0.01563
vt 0.95313 0.09375
vt 0.92188 0.28125
vt 0.92188 0.20313
vt 0.95313 0.20313
vt 0.95313 0.28125
vt 0.92188 0.15625
vt 0.92188 0.12500
vt 0.98438 0.12500
vt 0.98438 0.15625
vt 0.92188 0.34375
vt 0.92188 0.31250
vt 0.98438 0.31250
vt 0.98438 0.34375
vt 0.48438 0.43750
vt 0.48438 0.40625
vt 0.53125 0.40625
vt 0.53125 0.43750
vt 0.56250 0.43750
vt 0.56250 0.40625
vt 0.57813 0.40625
vt 0.57813 0.43750
vt 0.60938 0.43750
vt 0.60938 0.40625
vt 0.62500 0.40625
vt 0.62500 0.43750
vt 0.65625 0.43750
vt 0.65625 0.40625
vt 0.67188 0.40625
vt 0.67188 0.43750
vt 0.70313 0.43750
vt 0.70313 0.40625
vt 0.71875 0.40625
vt 0.71875 0.43750
vt 0.75000 0.43750
vt 0.75000 0.40625
vt 0.76563 0.40625
vt 0.76563 0.43750
vt 0.79688 0.43750
vt 0.79688 0.40625
vt 0.81250 0.40625
vt 0.81250 0.43750
vt 0.48438 0.48438
vt 0.48438 0.46875
vt 0.68750 0.46875
vt 0.68750 0.48438
vt 0.71875 0.48438
vt 0.71875 0.46875
vt 0.89063 0.46875
vt 0.89063 0.48438
vt 0.01563 0.53125
vt 0.01563 0.51563
vt 0.18750 0.51563
vt 0.18750 0.53125
vt 0.21875 0.53125
vt 0.21875 0.51563
vt 0.39063 0.51563
vt 0.39063 0.53125
vt 0.42188 0.53125
vt 0.42188 0.51563
vt 0.59375 0.51563
vt 0.59375 0.53125
vt 0.84375 0.42188
vt 0.84375 0.40625
vt 0.92188 0.40625
vt 0.92188 0.42188
vt 0.62500 0.53125
vt 0.62500 0.51563
vt 0.70313 0.51563
vt 0.70313 0.53125
vt 0.95313 0.42188
vt 0.95313 0.40625
vt 0.98438 0.40625
vt 0.98438 0.42188
vt 0.92188 0.48438
vt 0.92188 0.46875
vt 0.95313 0.46875
vt 0.95313 0.48438
vt 0.73438 0.53125
vt 0.73438 0.51563
vt 0.75000 0.51563
vt 0.75000 0.53125
vt 0.78125 0.53125
vt 0.78125 0.51563
vt 0.79688 0.51563
vt 0.79688 0.53125
vt 0.82813 0.53125
vt 0.82813 0.51563
vt 0.84375 0.51563
vt 0.84375 0.53125
vt 0.87500 0.53125
vt 0.87500 0.51563
vt 0.89063 0.51563
vt 0.89063 0.53125
vt 0.92188 0.53125
vt 0.92188 0.51563
vt 0.93750 0.51563
vt 0.93750 0.53125
vt 0.96875 0.53125
vt 0.96875 0.51563
vt 0.98438 0.51563
vt 0.98438 0.53125
vt 0.01563 0.57813
vt 0.01563 0.56250
vt 0.03125 0.56250
vt 0.03125 0.57813
vt 0.06250 0.57813
vt 0.06250 0.56250
vt 0.07813 0.56250
vt 0.07813 0.57813
vt 0.04688 0.37500
vt 0.28125 0.35938
vt 0.46875 0.35938
vt 0.51563 0.17188
vt 0.51563 0.20313
vt 0.64063 0.17188
vt 0.64063 0.20313
vt 0.75000 0.17188
vt 0.70313 0.35938
vt 0.75000 0.20313
vt 0.23438 0.40625
vt 0.03125 0.40625
vt 0.96875 0.40625
vt 0.93750 0.46875

g wardrobe
usemtl wardrobe_Material
f 50/157/1 45/1/1 46/2/1
f 46/2/1 48/4/1 50/157/1
f 48/4/1 46/2/1 47/3/1
f 45/8/3 42/5/3 4/158/3
f 4/158/3 46/7/3 45/8/3
f 46/7/3 4/158/3 3/6/3
f 43/12/4 48/9/4 47/10/4
f 47/10/4 5/159/4 43/12/4
f 5/159/4 47/10/4 6/11/4
f 13/16/4 8/13/4 7/14/4
f 7/14/4 14/161/4 13/16/4
f 14/161/4 7/14/4 10/15/4
f 10/15/4 9/160/4 14/161/4
f 2/18/2 4/20/2 1/17/2
f 2/18/2 3/19/2 4/20/2
f 6/22/2 8/24/2 5/21/2
f 6/22/2 7/23/2 8/24/2
f 1/28/3 16/25/3 15/163/3
f 15/163/3 2/27/3 1/28/3
f 2/27/3 15/163/3 12/162/3
f 12/162/3 11/26/3 2/27/3
f 23/164/2 9/29/2 10/30/2
f 10/30/2 12/32/2 23/164/2
f 12/32/2 10/30/2 11/31/2
f 34/165/2 13/33/2 14/34/2
f 14/34/2 16/36/2 34/165/2
f 16/36/2 14/34/2 24/166/2
f 24/166/2 15/35/2 16/36/2
f 47/40/6 46/37/6 3/38/6
f 3/38/6 2/168/6 47/40/6
f 6/39/6 47/40/6 2/168/6
f 2/168/6 7/167/6 6/39/6
f 40/41/5 49/42/5 37/44/5
f 49/42/5 52/43/5 37/44/5
f 38/45/5 51/46/5 43/48/5
f 51/46/5 48/47/5 43/48/5
f 42/49/5 45/50/5 39/52/5
f 45/50/5 50/51/5 39/52/5
f 18/54/2 15/56/2 17/53/2
f 18/54/2 12/55/2 15/56/2
f 9/58/2 24/60/2 14/57/2
f 9/58/2 23/59/2 24/60/2
f 20/62/2 22/64/2 19/61/2
f 20/62/2 21/63/2 22/64/2
f 27/66/3 17/68/3 28/65/3
f 27/66/3 18/67/3 17/68/3
f 31/70/3 19/72/3 32/69/3
f 31/70/3 20/71/3 19/72/3
f 30/74/2 32/76/2 29/73/2
f 30/74/2 31/75/2 32/76/2
f 23/78/4 29/80/4 24/77/4
f 23/78/4 30/79/4 29/80/4
f 26/82/2 28/84/2 25/81/2
f 26/82/2 27/83/2 28/84/2
f 21/86/4 25/88/4 22/85/4
f 21/86/4 26/87/4 25/88/4
f 2/89/6 11/90/6 7/92/6
f 11/90/6 10/91/6 7/92/6
f 38/94/2 40/96/2 37/93/2
f 38/94/2 39/95/2 40/96/2
f 50/98/1 52/100/1 49/97/1
f 50/98/1 51/99/1 52/100/1
f 34/102/2 36/104/2 33/101/2
f 34/102/2 35/103/2 36/104/2
f 36/105/5 39/106/5 33/108/5
f 39/106/5 38/107/5 33/108/5
f 39/110/3 49/112/3 40/109/3
f 39/110/3 50/111/3 49/112/3
f 51/114/4 37/116/4 52/113/4
f 51/114/4 38/115/4 37/116/4
f 42/120/2 39/117/2 41/118/2
f 41/118/2 4/119/2 42/120/2
f 4/119/2 41/118/2 1/169/2
f 38/124/2 43/121/2 5/122/2
f 5/122/2 44/123/2 38/124/2
f 44/123/2 5/122/2 8/170/2
f 34/125/5 44/126/5 13/128/5
f 44/126/5 8/127/5 13/128/5
f 16/129/5 1/130/5 35/132/5
f 1/130/5 41/131/5 35/132/5
f 20/133/6 31/134/6 23/136/6
f 31/134/6 30/135/6 23/136/6
f 18/137/6 27/138/6 21/140/6
f 27/138/6 26/139/6 21/140/6
f 44/142/4 33/144/4 38/141/4
f 44/142/4 34/143/4 33/144/4
f 35/146/3 39/148/3 36/145/3
f 35/146/3 41/147/3 39/148/3
f 32/149/5 19/150/5 29/152/5
f 19/150/5 24/151/5 29/152/5
f 28/153/5 17/154/5 25/156/5
f 17/154/5 22/155/5 25/156/5
