# This file was created with Minddesk Qubicle 3.0
# Get Qubicle at www.getqubicle.com

mtllib bin.mtl

vn 0.0 0.0 1.0
vn 0.0 0.0 -1.0
vn -1.0 0.0 0.0
vn 1.0 0.0 0.0
vn 0.0 1.0 0.0
vn 0.0 -1.0 0.0

v 0.40000 0.80000 -0.20000
v 0.40000 0.20000 -0.20000
v -0.10000 0.20000 -0.20000
v -0.10000 0.80000 -0.20000
v 0.50000 0.60000 0.00000
v 0.50000 0.10000 0.00000
v 0.40000 0.10000 0.00000
v 0.40000 0.60000 0.00000
v -0.10000 0.50000 0.00000
v -0.10000 0.10000 0.00000
v -0.20000 0.10000 0.00000
v -0.20000 0.50000 0.00000
v 0.30000 0.80000 0.20000
v 0.30000 0.70000 0.20000
v 0.00000 0.70000 0.20000
v 0.00000 0.80000 0.20000
v -0.10000 0.10000 -0.20000
v -0.10000 0.00000 -0.20000
v -0.20000 0.00000 -0.20000
v -0.20000 0.10000 -0.20000
v 0.50000 0.10000 -0.20000
v 0.50000 0.00000 -0.20000
v 0.40000 0.00000 -0.20000
v 0.40000 0.10000 -0.20000
v -0.10000 0.80000 0.30000
v -0.10000 0.20000 0.30000
v 0.40000 0.20000 0.30000
v 0.40000 0.80000 0.30000
v 0.40000 0.60000 0.10000
v 0.40000 0.10000 0.10000
v 0.50000 0.10000 0.10000
v 0.50000 0.60000 0.10000
v -0.20000 0.50000 0.10000
v -0.20000 0.10000 0.10000
v -0.10000 0.10000 0.10000
v -0.10000 0.50000 0.10000
v 0.00000 0.80000 -0.10000
v 0.00000 0.70000 -0.10000
v 0.30000 0.70000 -0.10000
v 0.30000 0.80000 -0.10000
v -0.20000 0.10000 0.30000
v -0.20000 0.00000 0.30000
v -0.10000 0.00000 0.30000
v -0.10000 0.10000 0.30000
v 0.40000 0.10000 0.30000
v 0.40000 0.00000 0.30000
v 0.50000 0.00000 0.30000
v 0.50000 0.10000 0.30000
v -0.10000 0.50000 -0.20000
v -0.10000 0.50000 0.30000
v -0.10000 0.20000 0.00000
v -0.10000 0.20000 0.10000
v 0.40000 0.20000 0.00000
v 0.40000 0.20000 0.10000
v 0.40000 0.60000 -0.20000
v 0.40000 0.60000 0.30000
v -0.10000 0.80000 -0.10000
v -0.10000 0.80000 0.20000
v 0.40000 0.80000 0.20000
v 0.40000 0.80000 -0.10000

vt 0.03125 0.21875
vt 0.03125 0.03125
vt 0.18750 0.03125
vt 0.18750 0.21875
vt 0.25000 0.21875
vt 0.25000 0.03125
vt 0.40625 0.03125
vt 0.40625 0.21875
vt 0.46875 0.18750
vt 0.46875 0.03125
vt 0.62500 0.03125
vt 0.62500 0.18750
vt 0.68750 0.18750
vt 0.68750 0.03125
vt 0.71875 0.03125
vt 0.71875 0.18750
vt 0.78125 0.18750
vt 0.78125 0.03125
vt 0.81250 0.03125
vt 0.81250 0.18750
vt 0.87500 0.18750
vt 0.87500 0.03125
vt 0.90625 0.03125
vt 0.90625 0.18750
vt 0.03125 0.43750
vt 0.03125 0.28125
vt 0.06250 0.28125
vt 0.06250 0.43750
vt 0.12500 0.43750
vt 0.12500 0.28125
vt 0.15625 0.28125
vt 0.15625 0.43750
vt 0.21875 0.40625
vt 0.21875 0.28125
vt 0.28125 0.28125
vt 0.28125 0.40625
vt 0.34375 0.40625
vt 0.34375 0.28125
vt 0.40625 0.28125
vt 0.40625 0.40625
vt 0.46875 0.40625
vt 0.46875 0.28125
vt 0.50000 0.28125
vt 0.50000 0.40625
vt 0.56250 0.40625
vt 0.56250 0.28125
vt 0.59375 0.28125
vt 0.59375 0.40625
vt 0.65625 0.40625
vt 0.65625 0.28125
vt 0.68750 0.28125
vt 0.68750 0.40625
vt 0.75000 0.37500
vt 0.75000 0.28125
vt 0.90625 0.28125
vt 0.90625 0.37500
vt 0.03125 0.59375
vt 0.03125 0.50000
vt 0.12500 0.50000
vt 0.12500 0.59375
vt 0.18750 0.59375
vt 0.18750 0.50000
vt 0.25000 0.50000
vt 0.25000 0.59375
vt 0.31250 0.59375
vt 0.31250 0.50000
vt 0.37500 0.50000
vt 0.37500 0.59375
vt 0.43750 0.59375
vt 0.43750 0.50000
vt 0.46875 0.50000
vt 0.46875 0.59375
vt 0.53125 0.59375
vt 0.53125 0.50000
vt 0.56250 0.50000
vt 0.56250 0.59375
vt 0.62500 0.56250
vt 0.62500 0.50000
vt 0.78125 0.50000
vt 0.78125 0.56250
vt 0.84375 0.56250
vt 0.84375 0.50000
vt 0.87500 0.50000
vt 0.87500 0.56250
vt 0.93750 0.56250
vt 0.93750 0.50000
vt 0.96875 0.50000
vt 0.96875 0.56250
vt 0.03125 0.71875
vt 0.03125 0.65625
vt 0.06250 0.65625
vt 0.06250 0.71875
vt 0.12500 0.71875
vt 0.12500 0.65625
vt 0.15625 0.65625
vt 0.15625 0.71875
vt 0.21875 0.68750
vt 0.21875 0.65625
vt 0.37500 0.65625
vt 0.37500 0.68750
vt 0.43750 0.68750
vt 0.43750 0.65625
vt 0.59375 0.65625
vt 0.59375 0.68750
vt 0.65625 0.68750
vt 0.65625 0.65625
vt 0.81250 0.65625
vt 0.81250 0.68750
vt 0.03125 0.81250
vt 0.03125 0.78125
vt 0.18750 0.78125
vt 0.18750 0.81250
vt 0.25000 0.81250
vt 0.25000 0.78125
vt 0.40625 0.78125
vt 0.40625 0.81250
vt 0.46875 0.81250
vt 0.46875 0.78125
vt 0.62500 0.78125
vt 0.62500 0.81250
vt 0.87500 0.68750
vt 0.87500 0.65625
vt 0.96875 0.65625
vt 0.96875 0.68750
vt 0.68750 0.81250
vt 0.68750 0.78125
vt 0.78125 0.78125
vt 0.78125 0.81250
vt 0.84375 0.81250
vt 0.84375 0.78125
vt 0.93750 0.78125
vt 0.93750 0.81250
vt 0.03125 0.90625
vt 0.03125 0.87500
vt 0.12500 0.87500
vt 0.12500 0.90625
vt 0.18750 0.90625
vt 0.18750 0.87500
vt 0.21875 0.87500
vt 0.21875 0.90625
vt 0.28125 0.90625
vt 0.28125 0.87500
vt 0.31250 0.87500
vt 0.31250 0.90625
vt 0.37500 0.90625
vt 0.37500 0.87500
vt 0.40625 0.87500
vt 0.40625 0.90625
vt 0.46875 0.90625
vt 0.46875 0.87500
vt 0.50000 0.87500
vt 0.50000 0.90625
vt 0.56250 0.90625
vt 0.56250 0.87500
vt 0.59375 0.87500
vt 0.59375 0.90625
vt 0.65625 0.90625
vt 0.65625 0.87500
vt 0.68750 0.87500
vt 0.68750 0.90625
vt 0.75000 0.90625
vt 0.75000 0.87500
vt 0.78125 0.87500
vt 0.78125 0.90625
vt 0.84375 0.90625
vt 0.84375 0.87500
vt 0.87500 0.87500
vt 0.87500 0.90625

g bin
usemtl bin_Material
f 25/1/1 26/2/1 27/3/1 28/4/1
f 1/5/2 2/6/2 3/7/2 4/8/2
f 26/9/6 3/10/6 2/11/6 27/12/6
f 32/13/4 31/14/4 6/15/4 5/16/4
f 29/17/1 30/18/1 31/19/1 32/20/1
f 5/21/2 6/22/2 7/23/2 8/24/2
f 42/25/6 19/26/6 18/27/6 43/28/6
f 46/29/6 23/30/6 22/31/6 47/32/6
f 56/33/4 27/34/4 54/35/4 29/36/4
f 8/37/4 53/38/4 2/39/4 55/40/4
f 12/41/3 11/42/3 34/43/3 33/44/3
f 9/45/2 10/46/2 11/47/2 12/48/2
f 33/49/1 34/50/1 35/51/1 36/52/1
f 4/53/3 49/54/3 50/55/3 25/56/3
f 38/57/5 15/58/5 14/59/5 39/60/5
f 49/61/3 3/62/3 51/63/3 9/64/3
f 36/65/3 52/66/3 26/67/3 50/68/3
f 57/69/5 58/70/5 16/71/5 37/72/5
f 40/73/5 13/74/5 59/75/5 60/76/5
f 28/77/4 56/78/4 55/79/4 1/80/4
f 30/81/5 45/82/5 48/83/5 31/84/5
f 20/85/5 11/86/5 10/87/5 17/88/5
f 24/89/5 7/90/5 6/91/5 21/92/5
f 34/93/5 41/94/5 44/95/5 35/96/5
f 20/97/3 19/98/3 42/99/3 41/100/3
f 44/101/4 43/102/4 18/103/4 17/104/4
f 48/105/4 47/106/4 22/107/4 21/108/4
f 4/109/5 57/110/5 60/111/5 1/112/5
f 58/113/5 25/114/5 28/115/5 59/116/5
f 24/117/3 23/118/3 46/119/3 45/120/3
f 40/121/3 39/122/3 14/123/3 13/124/3
f 13/125/2 14/126/2 15/127/2 16/128/2
f 37/129/1 38/130/1 39/131/1 40/132/1
f 16/133/4 15/134/4 38/135/4 37/136/4
f 17/137/2 18/138/2 19/139/2 20/140/2
f 52/141/4 35/142/4 10/143/4 51/144/4
f 21/145/2 22/146/2 23/147/2 24/148/2
f 45/149/1 46/150/1 47/151/1 48/152/1
f 53/153/3 7/154/3 30/155/3 54/156/3
f 41/157/1 42/158/1 43/159/1 44/160/1
f 8/161/5 29/162/5 32/163/5 5/164/5
f 12/165/5 33/166/5 36/167/5 9/168/5
