# This file was created with Minddesk Qubicle 3.0
# Get Qubicle at www.getqubicle.com

mtllib pigeon.mtl

vn 0.0 0.0 1.0
vn 0.0 0.0 -1.0
vn -1.0 0.0 0.0
vn 1.0 0.0 0.0
vn 0.0 1.0 0.0
vn 0.0 -1.0 0.0

v 0.20000 0.90000 0.00000
v 0.20000 0.50000 0.00000
v -0.10000 0.50000 0.00000
v -0.10000 0.90000 0.00000
v 0.00000 0.20000 0.00000
v 0.00000 0.00000 0.00000
v -0.10000 0.00000 0.00000
v -0.10000 0.20000 0.00000
v 0.20000 0.20000 0.00000
v 0.20000 0.00000 0.00000
v 0.10000 0.00000 0.00000
v 0.10000 0.20000 0.00000
v -0.10000 0.80000 0.10000
v -0.10000 0.60000 0.10000
v -0.20000 0.60000 0.10000
v -0.20000 0.80000 0.10000
v 0.30000 0.80000 0.10000
v 0.30000 0.60000 0.10000
v 0.20000 0.60000 0.10000
v 0.20000 0.80000 0.10000
v 0.30000 0.40000 -0.30000
v 0.30000 0.30000 -0.30000
v -0.20000 0.30000 -0.30000
v -0.20000 0.40000 -0.30000
v 0.10000 0.30000 -0.30000
v 0.10000 0.20000 -0.30000
v 0.00000 0.20000 -0.30000
v 0.00000 0.30000 -0.30000
v -0.10000 0.50000 -0.20000
v -0.10000 0.40000 -0.20000
v -0.20000 0.40000 -0.20000
v -0.20000 0.50000 -0.20000
v 0.00000 0.30000 -0.20000
v 0.00000 0.20000 -0.20000
v -0.10000 0.20000 -0.20000
v -0.10000 0.30000 -0.20000
v 0.10000 0.50000 -0.20000
v 0.10000 0.40000 -0.20000
v 0.00000 0.40000 -0.20000
v 0.00000 0.50000 -0.20000
v 0.20000 0.30000 -0.20000
v 0.20000 0.20000 -0.20000
v 0.10000 0.20000 -0.20000
v 0.10000 0.30000 -0.20000
v 0.30000 0.50000 -0.20000
v 0.30000 0.40000 -0.20000
v 0.20000 0.40000 -0.20000
v 0.20000 0.50000 -0.20000
v -0.10000 0.30000 -0.10000
v -0.10000 0.20000 -0.10000
v -0.20000 0.20000 -0.10000
v -0.20000 0.30000 -0.10000
v 0.00000 0.50000 -0.10000
v 0.00000 0.40000 -0.10000
v -0.10000 0.40000 -0.10000
v -0.10000 0.50000 -0.10000
v 0.20000 0.50000 -0.10000
v 0.20000 0.40000 -0.10000
v 0.10000 0.40000 -0.10000
v 0.10000 0.50000 -0.10000
v 0.30000 0.30000 -0.10000
v 0.30000 0.20000 -0.10000
v 0.20000 0.20000 -0.10000
v 0.20000 0.30000 -0.10000
v -0.10000 0.60000 0.30000
v -0.10000 0.30000 0.30000
v 0.20000 0.30000 0.30000
v 0.20000 0.60000 0.30000
v -0.20000 0.50000 0.20000
v -0.20000 0.30000 0.20000
v -0.10000 0.30000 0.20000
v -0.10000 0.50000 0.20000
v 0.20000 0.50000 0.20000
v 0.20000 0.30000 0.20000
v 0.30000 0.30000 0.20000
v 0.30000 0.50000 0.20000
v -0.20000 0.80000 0.30000
v -0.20000 0.70000 0.30000
v 0.30000 0.70000 0.30000
v 0.30000 0.80000 0.30000
v -0.10000 0.90000 0.30000
v -0.10000 0.80000 0.30000
v 0.20000 0.80000 0.30000
v 0.20000 0.90000 0.30000
v -0.20000 0.60000 0.30000
v 0.00000 0.60000 0.30000
v 0.00000 0.70000 0.30000
v 0.10000 0.70000 0.30000
v 0.10000 0.60000 0.30000
v 0.30000 0.60000 0.30000
v -0.20000 0.30000 0.10000
v -0.20000 0.20000 0.10000
v -0.10000 0.20000 0.10000
v -0.10000 0.30000 0.10000
v -0.10000 0.10000 0.10000
v 0.00000 0.10000 0.10000
v 0.00000 0.20000 0.10000
v 0.10000 0.20000 0.10000
v 0.10000 0.10000 0.10000
v 0.20000 0.10000 0.10000
v 0.20000 0.20000 0.10000
v 0.20000 0.30000 0.10000
v 0.30000 0.20000 0.10000
v 0.30000 0.30000 0.10000
v -0.10000 0.10000 0.20000
v -0.10000 0.00000 0.20000
v 0.00000 0.00000 0.20000
v 0.00000 0.10000 0.20000
v -0.10000 0.20000 0.20000
v 0.00000 0.20000 0.20000
v 0.00000 0.30000 0.20000
v 0.10000 0.10000 0.20000
v 0.10000 0.00000 0.20000
v 0.20000 0.00000 0.20000
v 0.20000 0.10000 0.20000
v 0.10000 0.30000 0.20000
v 0.10000 0.20000 0.20000
v 0.20000 0.20000 0.20000
v 0.00000 0.30000 0.30000
v 0.00000 0.20000 0.30000
v 0.10000 0.20000 0.30000
v 0.10000 0.30000 0.30000
v 0.00000 0.70000 0.40000
v 0.00000 0.60000 0.40000
v 0.10000 0.60000 0.40000
v 0.10000 0.70000 0.40000
v -0.10000 0.80000 0.00000
v -0.10000 0.60000 0.00000
v -0.10000 0.50000 0.30000
v -0.20000 0.40000 0.20000
v -0.10000 0.10000 0.00000
v 0.10000 0.10000 0.00000
v 0.20000 0.60000 0.00000
v 0.20000 0.80000 0.00000
v 0.20000 0.50000 0.30000
v 0.30000 0.40000 0.20000
v 0.00000 0.10000 0.00000
v 0.20000 0.10000 0.00000
v -0.20000 0.50000 0.00000
v 0.30000 0.50000 0.00000
v -0.20000 0.50000 -0.10000
v 0.30000 0.50000 -0.10000
v -0.20000 0.20000 0.00000
v 0.30000 0.20000 0.00000
v -0.20000 0.30000 -0.20000
v 0.30000 0.30000 -0.20000

vt 0.01563 0.15625
vt 0.01563 0.03125
vt 0.06250 0.03125
vt 0.06250 0.15625
vt 0.09375 0.12500
vt 0.09375 0.03125
vt 0.14063 0.03125
vt 0.14063 0.12500
vt 0.17188 0.12500
vt 0.17188 0.03125
vt 0.21875 0.03125
vt 0.21875 0.12500
vt 0.25000 0.09375
vt 0.25000 0.03125
vt 0.28125 0.03125
vt 0.28125 0.09375
vt 0.31250 0.09375
vt 0.31250 0.03125
vt 0.34375 0.03125
vt 0.34375 0.09375
vt 0.37500 0.09375
vt 0.37500 0.03125
vt 0.39063 0.03125
vt 0.39063 0.09375
vt 0.42188 0.09375
vt 0.42188 0.03125
vt 0.43750 0.03125
vt 0.43750 0.09375
vt 0.46875 0.09375
vt 0.46875 0.03125
vt 0.48438 0.03125
vt 0.48438 0.09375
vt 0.51563 0.09375
vt 0.51563 0.03125
vt 0.53125 0.03125
vt 0.53125 0.09375
vt 0.56250 0.09375
vt 0.56250 0.03125
vt 0.57813 0.03125
vt 0.57813 0.09375
vt 0.60938 0.09375
vt 0.60938 0.03125
vt 0.62500 0.03125
vt 0.62500 0.09375
vt 0.65625 0.09375
vt 0.65625 0.03125
vt 0.67188 0.03125
vt 0.67188 0.09375
vt 0.70313 0.09375
vt 0.70313 0.03125
vt 0.71875 0.03125
vt 0.71875 0.09375
vt 0.75000 0.09375
vt 0.75000 0.03125
vt 0.76563 0.03125
vt 0.76563 0.09375
vt 0.79688 0.09375
vt 0.79688 0.03125
vt 0.81250 0.03125
vt 0.81250 0.09375
vt 0.84375 0.09375
vt 0.84375 0.03125
vt 0.85938 0.03125
vt 0.85938 0.09375
vt 0.89063 0.09375
vt 0.89063 0.03125
vt 0.90625 0.03125
vt 0.90625 0.09375
vt 0.93750 0.09375
vt 0.93750 0.03125
vt 0.95313 0.03125
vt 0.95313 0.09375
vt 0.01563 0.28125
vt 0.01563 0.21875
vt 0.03125 0.21875
vt 0.03125 0.28125
vt 0.06250 0.28125
vt 0.06250 0.21875
vt 0.07813 0.21875
vt 0.07813 0.28125
vt 0.10938 0.28125
vt 0.10938 0.21875
vt 0.12500 0.21875
vt 0.12500 0.28125
vt 0.15625 0.28125
vt 0.15625 0.21875
vt 0.17188 0.21875
vt 0.17188 0.28125
vt 0.20313 0.28125
vt 0.20313 0.21875
vt 0.21875 0.21875
vt 0.21875 0.28125
vt 0.25000 0.25000
vt 0.25000 0.21875
vt 0.32813 0.21875
vt 0.32813 0.25000
vt 0.35938 0.25000
vt 0.35938 0.21875
vt 0.43750 0.21875
vt 0.43750 0.25000
vt 0.46875 0.25000
vt 0.46875 0.21875
vt 0.54688 0.21875
vt 0.54688 0.25000
vt 0.57813 0.25000
vt 0.57813 0.21875
vt 0.65625 0.21875
vt 0.65625 0.25000
vt 0.68750 0.25000
vt 0.68750 0.21875
vt 0.76563 0.21875
vt 0.76563 0.25000
vt 0.79688 0.25000
vt 0.79688 0.21875
vt 0.87500 0.21875
vt 0.87500 0.25000
vt 0.90625 0.25000
vt 0.90625 0.21875
vt 0.98438 0.21875
vt 0.98438 0.25000
vt 0.01563 0.37500
vt 0.01563 0.34375
vt 0.07813 0.34375
vt 0.07813 0.37500
vt 0.10938 0.37500
vt 0.10938 0.34375
vt 0.17188 0.34375
vt 0.17188 0.37500
vt 0.20313 0.37500
vt 0.20313 0.34375
vt 0.25000 0.34375
vt 0.25000 0.37500
vt 0.28125 0.37500
vt 0.28125 0.34375
vt 0.32813 0.34375
vt 0.32813 0.37500
vt 0.35938 0.37500
vt 0.35938 0.34375
vt 0.40625 0.34375
vt 0.40625 0.37500
vt 0.43750 0.37500
vt 0.43750 0.34375
vt 0.48438 0.34375
vt 0.48438 0.37500
vt 0.51563 0.37500
vt 0.51563 0.34375
vt 0.56250 0.34375
vt 0.56250 0.37500
vt 0.59375 0.37500
vt 0.59375 0.34375
vt 0.64063 0.34375
vt 0.64063 0.37500
vt 0.67188 0.37500
vt 0.67188 0.34375
vt 0.71875 0.34375
vt 0.71875 0.37500
vt 0.75000 0.37500
vt 0.75000 0.34375
vt 0.78125 0.34375
vt 0.78125 0.37500
vt 0.81250 0.37500
vt 0.81250 0.34375
vt 0.84375 0.34375
vt 0.84375 0.37500
vt 0.87500 0.37500
vt 0.87500 0.34375
vt 0.90625 0.34375
vt 0.90625 0.37500
vt 0.93750 0.37500
vt 0.93750 0.34375
vt 0.96875 0.34375
vt 0.96875 0.37500
vt 0.01563 0.46875
vt 0.01563 0.43750
vt 0.04688 0.43750
vt 0.04688 0.46875
vt 0.07813 0.46875
vt 0.07813 0.43750
vt 0.10938 0.43750
vt 0.10938 0.46875
vt 0.14063 0.46875
vt 0.14063 0.43750
vt 0.17188 0.43750
vt 0.17188 0.46875
vt 0.20313 0.46875
vt 0.20313 0.43750
vt 0.23438 0.43750
vt 0.23438 0.46875
vt 0.26563 0.46875
vt 0.26563 0.43750
vt 0.29688 0.43750
vt 0.29688 0.46875
vt 0.32813 0.46875
vt 0.32813 0.43750
vt 0.35938 0.43750
vt 0.35938 0.46875
vt 0.39063 0.46875
vt 0.39063 0.43750
vt 0.40625 0.43750
vt 0.40625 0.46875
vt 0.43750 0.46875
vt 0.43750 0.43750
vt 0.45313 0.43750
vt 0.45313 0.46875
vt 0.48438 0.46875
vt 0.48438 0.43750
vt 0.50000 0.43750
vt 0.50000 0.46875
vt 0.53125 0.46875
vt 0.53125 0.43750
vt 0.54688 0.43750
vt 0.54688 0.46875
vt 0.57813 0.46875
vt 0.57813 0.43750
vt 0.59375 0.43750
vt 0.59375 0.46875
vt 0.62500 0.46875
vt 0.62500 0.43750
vt 0.64063 0.43750
vt 0.64063 0.46875
vt 0.67188 0.46875
vt 0.67188 0.43750
vt 0.68750 0.43750
vt 0.68750 0.46875
vt 0.71875 0.46875
vt 0.71875 0.43750
vt 0.73438 0.43750
vt 0.73438 0.46875
vt 0.76563 0.46875
vt 0.76563 0.43750
vt 0.78125 0.43750
vt 0.78125 0.46875
vt 0.81250 0.46875
vt 0.81250 0.43750
vt 0.82813 0.43750
vt 0.82813 0.46875
vt 0.85938 0.46875
vt 0.85938 0.43750
vt 0.87500 0.43750
vt 0.87500 0.46875
vt 0.90625 0.46875
vt 0.90625 0.43750
vt 0.92188 0.43750
vt 0.92188 0.46875
vt 0.95313 0.46875
vt 0.95313 0.43750
vt 0.96875 0.43750
vt 0.96875 0.46875
vt 0.01563 0.56250
vt 0.01563 0.53125
vt 0.03125 0.53125
vt 0.03125 0.56250
vt 0.06250 0.56250
vt 0.06250 0.53125
vt 0.07813 0.53125
vt 0.07813 0.56250
vt 0.10938 0.56250
vt 0.10938 0.53125
vt 0.12500 0.53125
vt 0.12500 0.56250
vt 0.15625 0.56250
vt 0.15625 0.53125
vt 0.17188 0.53125
vt 0.17188 0.56250
vt 0.20313 0.56250
vt 0.20313 0.53125
vt 0.21875 0.53125
vt 0.21875 0.56250
vt 0.25000 0.56250
vt 0.25000 0.53125
vt 0.26563 0.53125
vt 0.26563 0.56250
vt 0.29688 0.56250
vt 0.29688 0.53125
vt 0.31250 0.53125
vt 0.31250 0.56250
vt 0.34375 0.56250
vt 0.34375 0.53125
vt 0.35938 0.53125
vt 0.35938 0.56250
vt 0.39063 0.56250
vt 0.39063 0.53125
vt 0.40625 0.53125
vt 0.40625 0.56250
vt 0.43750 0.56250
vt 0.43750 0.53125
vt 0.45313 0.53125
vt 0.45313 0.56250
vt 0.48438 0.56250
vt 0.48438 0.53125
vt 0.50000 0.53125
vt 0.50000 0.56250
vt 0.53125 0.56250
vt 0.53125 0.53125
vt 0.54688 0.53125
vt 0.54688 0.56250
vt 0.57813 0.56250
vt 0.57813 0.53125
vt 0.59375 0.53125
vt 0.59375 0.56250
vt 0.62500 0.56250
vt 0.62500 0.53125
vt 0.64063 0.53125
vt 0.64063 0.56250
vt 0.67188 0.56250
vt 0.67188 0.53125
vt 0.68750 0.53125
vt 0.68750 0.56250
vt 0.71875 0.56250
vt 0.71875 0.53125
vt 0.73438 0.53125
vt 0.73438 0.56250
vt 0.76563 0.56250
vt 0.76563 0.53125
vt 0.78125 0.53125
vt 0.78125 0.56250
vt 0.81250 0.56250
vt 0.81250 0.53125
vt 0.82813 0.53125
vt 0.82813 0.56250
vt 0.85938 0.56250
vt 0.85938 0.53125
vt 0.87500 0.53125
vt 0.87500 0.56250
vt 0.90625 0.56250
vt 0.90625 0.53125
vt 0.92188 0.53125
vt 0.92188 0.56250
vt 0.95313 0.56250
vt 0.95313 0.53125
vt 0.96875 0.53125
vt 0.96875 0.56250
vt 0.01563 0.65625
vt 0.01563 0.62500
vt 0.03125 0.62500
vt 0.03125 0.65625
vt 0.06250 0.65625
vt 0.06250 0.62500
vt 0.07813 0.62500
vt 0.07813 0.65625
vt 0.10938 0.65625
vt 0.10938 0.62500
vt 0.12500 0.62500
vt 0.12500 0.65625
vt 0.15625 0.65625
vt 0.15625 0.62500
vt 0.17188 0.62500
vt 0.17188 0.65625
vt 0.20313 0.65625
vt 0.20313 0.62500
vt 0.21875 0.62500
vt 0.21875 0.65625
vt 0.25000 0.65625
vt 0.25000 0.62500
vt 0.26563 0.62500
vt 0.26563 0.65625
vt 0.29688 0.65625
vt 0.29688 0.62500
vt 0.31250 0.62500
vt 0.31250 0.65625
vt 0.34375 0.65625
vt 0.34375 0.62500
vt 0.35938 0.62500
vt 0.35938 0.65625
vt 0.39063 0.65625
vt 0.39063 0.62500
vt 0.40625 0.62500
vt 0.40625 0.65625
vt 0.43750 0.65625
vt 0.43750 0.62500
vt 0.45313 0.62500
vt 0.45313 0.65625
vt 0.48438 0.65625
vt 0.48438 0.62500
vt 0.50000 0.62500
vt 0.50000 0.65625
vt 0.53125 0.65625
vt 0.53125 0.62500
vt 0.54688 0.62500
vt 0.54688 0.65625
vt 0.57813 0.65625
vt 0.57813 0.62500
vt 0.59375 0.62500
vt 0.59375 0.65625
vt 0.62500 0.65625
vt 0.62500 0.62500
vt 0.64063 0.62500
vt 0.64063 0.65625
vt 0.67188 0.65625
vt 0.67188 0.62500
vt 0.68750 0.62500
vt 0.68750 0.65625
vt 0.71875 0.65625
vt 0.71875 0.62500
vt 0.73438 0.62500
vt 0.73438 0.65625
vt 0.76563 0.65625
vt 0.76563 0.62500
vt 0.78125 0.62500
vt 0.78125 0.65625
vt 0.81250 0.65625
vt 0.81250 0.62500
vt 0.82813 0.62500
vt 0.82813 0.65625
vt 0.85938 0.65625
vt 0.85938 0.62500
vt 0.87500 0.62500
vt 0.87500 0.65625
vt 0.90625 0.65625
vt 0.90625 0.62500
vt 0.92188 0.62500
vt 0.92188 0.65625
vt 0.95313 0.65625
vt 0.95313 0.62500
vt 0.96875 0.62500
vt 0.96875 0.65625
vt 0.01563 0.75000
vt 0.01563 0.71875
vt 0.03125 0.71875
vt 0.03125 0.75000
vt 0.06250 0.75000
vt 0.06250 0.71875
vt 0.07813 0.71875
vt 0.07813 0.75000
vt 0.10938 0.75000
vt 0.10938 0.71875
vt 0.12500 0.71875
vt 0.12500 0.75000

g pigeon
usemtl pigeon_Material
f 1/1/2 2/2/2 3/3/2 4/4/2
f 65/5/1 66/6/1 67/7/1 68/8/1
f 4/9/5 81/10/5 84/11/5 1/12/5
f 16/13/3 15/14/3 85/15/3 77/16/3
f 80/17/4 90/18/4 18/19/4 17/20/4
f 20/21/4 19/22/4 133/23/4 134/24/4
f 135/25/4 67/26/4 74/27/4 73/28/4
f 20/29/5 83/30/5 80/31/5 17/32/5
f 106/33/6 7/34/6 6/35/6 107/36/6
f 16/37/5 77/38/5 82/39/5 13/40/5
f 139/41/5 69/42/5 72/43/5 3/44/5
f 2/45/5 73/46/5 76/47/5 140/48/5
f 13/49/2 14/50/2 15/51/2 16/52/2
f 17/53/2 18/54/2 19/55/2 20/56/2
f 5/57/2 6/58/2 7/59/2 8/60/2
f 9/61/2 10/62/2 11/63/2 12/64/2
f 127/65/3 128/66/3 14/67/3 13/68/3
f 72/69/3 71/70/3 66/71/3 129/72/3
f 69/73/1 70/74/1 71/75/1 72/76/1
f 73/77/1 74/78/1 75/79/1 76/80/1
f 68/81/6 19/82/6 18/83/6 90/84/6
f 85/85/6 15/86/6 14/87/6 65/88/6
f 113/89/6 11/90/6 10/91/6 114/92/6
f 24/93/5 31/94/5 46/95/5 21/96/5
f 141/97/5 139/98/5 140/99/5 142/100/5
f 77/101/1 78/102/1 79/103/1 80/104/1
f 143/105/6 51/106/6 62/107/6 144/108/6
f 136/109/4 75/110/4 22/111/4 21/112/4
f 21/113/2 22/114/2 23/115/2 24/116/2
f 24/117/3 23/118/3 70/119/3 130/120/3
f 76/121/4 136/122/4 46/123/4 45/124/4
f 32/125/3 31/126/3 130/127/3 69/128/3
f 109/129/6 93/130/6 101/131/6 118/132/6
f 81/133/1 82/134/1 83/135/1 84/136/1
f 50/137/6 35/138/6 42/139/6 63/140/6
f 68/141/4 135/142/4 2/143/4 133/144/4
f 84/145/4 83/146/4 134/147/4 1/148/4
f 128/149/3 3/150/3 129/151/3 65/152/3
f 4/153/3 127/154/3 82/155/3 81/156/3
f 145/157/6 23/158/6 28/159/6 33/160/6
f 104/161/4 103/162/4 62/163/4 61/164/4
f 52/165/3 51/166/3 92/167/3 91/168/3
f 131/169/3 7/170/3 106/171/3 105/172/3
f 132/173/3 11/174/3 113/175/3 112/176/3
f 44/177/6 25/178/6 22/179/6 146/180/6
f 78/181/1 85/182/1 86/183/1 87/184/1
f 88/185/1 89/186/1 90/187/1 79/188/1
f 115/189/4 114/190/4 10/191/4 138/192/4
f 108/193/4 107/194/4 6/195/4 137/196/4
f 25/197/2 26/198/2 27/199/2 28/200/2
f 74/201/6 102/202/6 104/203/6 75/204/6
f 66/205/6 71/206/6 111/207/6 119/208/6
f 98/209/1 99/210/1 100/211/1 101/212/1
f 102/213/1 101/214/1 103/215/1 104/216/1
f 29/217/2 30/218/2 31/219/2 32/220/2
f 120/221/6 110/222/6 117/223/6 121/224/6
f 71/225/1 109/226/1 110/227/1 111/228/1
f 112/229/1 113/230/1 114/231/1 115/232/1
f 116/233/1 117/234/1 118/235/1 74/236/1
f 122/237/6 116/238/6 74/239/6 67/240/6
f 124/241/6 86/242/6 89/243/6 125/244/6
f 105/245/1 106/246/1 107/247/1 108/248/1
f 53/249/2 54/250/2 55/251/2 56/252/2
f 49/253/2 50/254/2 51/255/2 52/256/2
f 101/257/6 9/258/6 144/259/6 103/260/6
f 70/261/6 91/262/6 94/263/6 71/264/6
f 61/265/2 62/266/2 63/267/2 64/268/2
f 57/269/2 58/270/2 59/271/2 60/272/2
f 97/273/6 5/274/6 12/275/6 98/276/6
f 33/277/2 34/278/2 35/279/2 36/280/2
f 91/281/1 92/282/1 93/283/1 94/284/1
f 93/285/1 95/286/1 96/287/1 97/288/1
f 45/289/2 46/290/2 47/291/2 48/292/2
f 41/293/2 42/294/2 43/295/2 44/296/2
f 37/297/2 38/298/2 39/299/2 40/300/2
f 119/301/1 120/302/1 121/303/1 122/304/1
f 74/305/4 118/306/4 101/307/4 102/308/4
f 122/309/4 121/310/4 117/311/4 116/312/4
f 126/313/4 125/314/4 89/315/4 88/316/4
f 101/317/4 100/318/4 138/319/4 9/320/4
f 60/321/4 59/322/4 38/323/4 37/324/4
f 64/325/4 63/326/4 42/327/4 41/328/4
f 97/329/4 96/330/4 137/331/4 5/332/4
f 32/333/5 141/334/5 56/335/5 29/336/5
f 95/337/5 105/338/5 108/339/5 96/340/5
f 99/341/5 112/342/5 115/343/5 100/344/5
f 87/345/5 123/346/5 126/347/5 88/348/5
f 48/349/5 57/350/5 142/351/5 45/352/5
f 30/353/5 55/354/5 54/355/5 39/356/5
f 40/357/5 53/358/5 60/359/5 37/360/5
f 38/361/5 59/362/5 58/363/5 47/364/5
f 56/365/4 55/366/4 30/367/4 29/368/4
f 28/369/3 27/370/3 34/371/3 33/372/3
f 36/373/3 35/374/3 50/375/3 49/376/3
f 40/377/3 39/378/3 54/379/3 53/380/3
f 52/381/6 145/382/6 36/383/6 49/384/6
f 123/385/1 124/386/1 125/387/1 126/388/1
f 92/389/6 143/390/6 8/391/6 93/392/6
f 64/393/6 41/394/6 146/395/6 61/396/6
f 48/397/3 47/398/3 58/399/3 57/400/3
f 87/401/3 86/402/3 124/403/3 123/404/3
f 34/405/6 27/406/6 26/407/6 43/408/6
f 44/409/4 43/410/4 26/411/4 25/412/4
f 111/413/3 110/414/3 120/415/3 119/416/3
f 8/417/3 131/418/3 95/419/3 93/420/3
f 12/421/3 132/422/3 99/423/3 98/424/3
f 94/425/3 93/426/3 109/427/3 71/428/3
