# This file was created with Minddesk Qubicle 3.0
# Get Qubicle at www.getqubicle.com

mtllib tree.mtl

vn 0.0 0.0 1.0
vn 0.0 0.0 -1.0
vn -1.0 0.0 0.0
vn 1.0 0.0 0.0
vn 0.0 1.0 0.0
vn 0.0 -1.0 0.0

v 0.90000 4.20000 -0.80000
v 0.90000 2.30000 -0.80000
v -0.80000 2.30000 -0.80000
v -0.80000 4.20000 -0.80000
v 0.20000 1.30000 -0.10000
v 0.20000 0.00000 -0.10000
v -0.10000 0.00000 -0.10000
v -0.10000 1.30000 -0.10000
v 0.10000 2.10000 -0.60000
v 0.10000 1.50000 -0.60000
v -0.10000 1.50000 -0.60000
v -0.10000 2.10000 -0.60000
v 0.80000 2.10000 -0.10000
v 0.80000 1.60000 -0.10000
v 0.60000 1.60000 -0.10000
v 0.60000 2.10000 -0.10000
v 0.20000 2.10000 0.30000
v 0.20000 1.60000 0.30000
v 0.10000 1.60000 0.30000
v 0.10000 2.10000 0.30000
v -0.50000 2.10000 0.00000
v -0.50000 1.80000 0.00000
v -0.70000 1.80000 0.00000
v -0.70000 2.10000 0.00000
v -0.20000 2.10000 0.00000
v -0.20000 1.80000 0.00000
v -0.40000 1.80000 0.00000
v -0.40000 2.10000 0.00000
v 0.80000 2.10000 0.20000
v 0.80000 1.80000 0.20000
v 0.60000 1.80000 0.20000
v 0.60000 2.10000 0.20000
v 0.70000 2.30000 -0.80000
v 0.70000 2.10000 -0.80000
v -0.60000 2.10000 -0.80000
v -0.60000 2.30000 -0.80000
v 0.70000 4.40000 -0.80000
v 0.70000 4.20000 -0.80000
v -0.60000 4.20000 -0.80000
v -0.60000 4.40000 -0.80000
v 0.40000 1.50000 -0.10000
v 0.40000 1.30000 -0.10000
v -0.10000 1.50000 -0.10000
v -0.60000 2.30000 -0.60000
v -0.60000 2.10000 -0.60000
v -0.80000 2.10000 -0.60000
v -0.80000 2.30000 -0.60000
v -0.60000 4.40000 -0.60000
v -0.60000 4.20000 -0.60000
v -0.80000 4.20000 -0.60000
v -0.80000 4.40000 -0.60000
v 0.90000 2.30000 -0.60000
v 0.90000 2.10000 -0.60000
v 0.70000 2.10000 -0.60000
v 0.70000 2.30000 -0.60000
v 0.90000 4.40000 -0.60000
v 0.90000 4.20000 -0.60000
v 0.70000 4.20000 -0.60000
v 0.70000 4.40000 -0.60000
v -0.10000 1.50000 0.00000
v -0.10000 1.30000 0.00000
v -0.20000 1.30000 0.00000
v -0.20000 1.50000 0.00000
v 0.80000 1.50000 -0.10000
v 0.10000 1.50000 -0.10000
v 0.10000 1.60000 -0.10000
v -0.20000 1.70000 0.00000
v -0.70000 1.70000 0.00000
v -0.10000 1.60000 0.00000
v -0.40000 1.50000 0.00000
v -0.40000 1.60000 0.00000
v -0.20000 1.60000 0.00000
v -0.40000 1.70000 0.00000
v -0.80000 4.20000 0.90000
v -0.80000 2.30000 0.90000
v 0.90000 2.30000 0.90000
v 0.90000 4.20000 0.90000
v -0.10000 1.30000 0.20000
v -0.10000 0.00000 0.20000
v 0.20000 0.00000 0.20000
v 0.20000 1.30000 0.20000
v -0.10000 2.10000 -0.40000
v -0.10000 1.60000 -0.40000
v 0.10000 1.60000 -0.40000
v 0.10000 2.10000 -0.40000
v 0.10000 2.10000 0.50000
v 0.10000 1.50000 0.50000
v 0.20000 1.50000 0.50000
v 0.20000 2.10000 0.50000
v 0.60000 2.10000 0.00000
v 0.60000 1.80000 0.00000
v 0.80000 1.80000 0.00000
v 0.80000 2.10000 0.00000
v -0.70000 2.10000 0.20000
v -0.70000 1.80000 0.20000
v -0.50000 1.80000 0.20000
v -0.50000 2.10000 0.20000
v -0.40000 2.10000 0.20000
v -0.40000 1.80000 0.20000
v -0.20000 1.80000 0.20000
v -0.20000 2.10000 0.20000
v 0.60000 2.10000 0.30000
v 0.60000 1.70000 0.30000
v 0.80000 1.70000 0.30000
v 0.80000 2.10000 0.30000
v -0.60000 2.30000 0.90000
v -0.60000 2.10000 0.90000
v 0.70000 2.10000 0.90000
v 0.70000 2.30000 0.90000
v -0.60000 4.40000 0.90000
v -0.60000 4.20000 0.90000
v 0.70000 4.20000 0.90000
v 0.70000 4.40000 0.90000
v -0.20000 1.50000 0.20000
v -0.20000 1.30000 0.20000
v 0.20000 1.50000 0.20000
v 0.20000 1.50000 0.10000
v 0.20000 1.30000 0.10000
v 0.40000 1.30000 0.10000
v 0.40000 1.50000 0.10000
v -0.80000 2.30000 0.70000
v -0.80000 2.10000 0.70000
v -0.60000 2.10000 0.70000
v -0.60000 2.30000 0.70000
v -0.80000 4.40000 0.70000
v -0.80000 4.20000 0.70000
v -0.60000 4.20000 0.70000
v -0.60000 4.40000 0.70000
v 0.70000 2.30000 0.70000
v 0.70000 2.10000 0.70000
v 0.90000 2.10000 0.70000
v 0.90000 2.30000 0.70000
v 0.70000 4.40000 0.70000
v 0.70000 4.20000 0.70000
v 0.90000 4.20000 0.70000
v 0.90000 4.40000 0.70000
v 0.20000 1.60000 0.10000
v 0.80000 1.50000 0.10000
v 0.80000 1.60000 0.10000
v -0.70000 1.70000 0.20000
v -0.20000 1.70000 0.20000
v -0.40000 1.60000 0.20000
v -0.40000 1.50000 0.20000
v 0.10000 1.50000 0.20000
v 0.10000 1.60000 0.20000
v 0.60000 1.70000 0.10000
v 0.60000 1.60000 0.10000
v 0.80000 1.70000 0.10000
v -0.40000 1.70000 0.20000
v -0.20000 1.60000 0.20000
v -0.10000 1.60000 -0.60000
v 0.10000 1.60000 0.50000
v 0.60000 1.80000 -0.10000
v 0.60000 1.80000 0.30000
v 0.60000 1.70000 -0.10000
v 0.10000 1.60000 -0.60000
v 0.20000 1.60000 0.50000
v 0.80000 1.80000 -0.10000
v 0.80000 1.80000 0.30000
v 0.80000 1.70000 -0.10000
v -0.10000 1.60000 -0.10000
v 0.60000 1.60000 0.00000
v -0.20000 1.60000 0.10000
v 0.20000 1.60000 0.20000
v -0.80000 2.10000 -0.10000
v -0.80000 2.10000 -0.40000
v 0.90000 2.10000 -0.40000
v 0.90000 2.10000 -0.10000
v -0.80000 2.10000 0.50000
v 0.90000 2.10000 0.50000
v 0.90000 2.10000 0.00000
v 0.90000 2.10000 0.20000
v -0.80000 2.10000 0.30000
v 0.90000 2.10000 0.30000
v -0.80000 2.10000 0.20000
v -0.80000 2.10000 0.00000

vt 0.00781 0.31250
vt 0.00781 0.01563
vt 0.14063 0.01563
vt 0.14063 0.31250
vt 0.15625 0.31250
vt 0.15625 0.01563
vt 0.28906 0.01563
vt 0.28906 0.31250
vt 0.30469 0.31250
vt 0.30469 0.01563
vt 0.43750 0.01563
vt 0.43750 0.31250
vt 0.45313 0.31250
vt 0.45313 0.01563
vt 0.58594 0.01563
vt 0.58594 0.31250
vt 0.60156 0.21875
vt 0.60156 0.01563
vt 0.73438 0.01563
vt 0.73438 0.21875
vt 0.75000 0.21875
vt 0.75000 0.01563
vt 0.77344 0.01563
vt 0.77344 0.21875
vt 0.78906 0.21875
vt 0.78906 0.01563
vt 0.81250 0.01563
vt 0.81250 0.21875
vt 0.82813 0.21875
vt 0.82813 0.01563
vt 0.85156 0.01563
vt 0.85156 0.21875
vt 0.86719 0.21875
vt 0.86719 0.01563
vt 0.89063 0.01563
vt 0.89063 0.21875
vt 0.90625 0.10938
vt 0.90625 0.01563
vt 0.92188 0.01563
vt 0.92188 0.10938
vt 0.93750 0.10938
vt 0.93750 0.01563
vt 0.94531 0.01563
vt 0.94531 0.10938
vt 0.96094 0.09375
vt 0.96094 0.01563
vt 0.97656 0.01563
vt 0.97656 0.09375
vt 0.90625 0.21875
vt 0.90625 0.14063
vt 0.92188 0.14063
vt 0.92188 0.21875
vt 0.93750 0.21875
vt 0.93750 0.14063
vt 0.95313 0.14063
vt 0.95313 0.21875
vt 0.96875 0.21875
vt 0.96875 0.14063
vt 0.98438 0.14063
vt 0.98438 0.21875
vt 0.00781 0.42188
vt 0.00781 0.34375
vt 0.02344 0.34375
vt 0.02344 0.42188
vt 0.03906 0.42188
vt 0.03906 0.34375
vt 0.05469 0.34375
vt 0.05469 0.42188
vt 0.07031 0.42188
vt 0.07031 0.34375
vt 0.08594 0.34375
vt 0.08594 0.42188
vt 0.10156 0.42188
vt 0.10156 0.34375
vt 0.11719 0.34375
vt 0.11719 0.42188
vt 0.13281 0.42188
vt 0.13281 0.34375
vt 0.14063 0.34375
vt 0.14063 0.42188
vt 0.60156 0.31250
vt 0.60156 0.25000
vt 0.61719 0.25000
vt 0.61719 0.31250
vt 0.63281 0.31250
vt 0.63281 0.25000
vt 0.64844 0.25000
vt 0.64844 0.31250
vt 0.66406 0.29688
vt 0.66406 0.25000
vt 0.79688 0.25000
vt 0.79688 0.29688
vt 0.81250 0.29688
vt 0.81250 0.25000
vt 0.83594 0.25000
vt 0.83594 0.29688
vt 0.85156 0.29688
vt 0.85156 0.25000
vt 0.86719 0.25000
vt 0.86719 0.29688
vt 0.88281 0.29688
vt 0.88281 0.25000
vt 0.89844 0.25000
vt 0.89844 0.29688
vt 0.91406 0.29688
vt 0.91406 0.25000
vt 0.92969 0.25000
vt 0.92969 0.29688
vt 0.94531 0.29688
vt 0.94531 0.25000
vt 0.96094 0.25000
vt 0.96094 0.29688
vt 0.97656 0.29688
vt 0.97656 0.25000
vt 0.99219 0.25000
vt 0.99219 0.29688
vt 0.15625 0.39063
vt 0.15625 0.34375
vt 0.17188 0.34375
vt 0.17188 0.39063
vt 0.18750 0.39063
vt 0.18750 0.34375
vt 0.20313 0.34375
vt 0.20313 0.39063
vt 0.21875 0.39063
vt 0.21875 0.34375
vt 0.23438 0.34375
vt 0.23438 0.39063
vt 0.25000 0.39063
vt 0.25000 0.34375
vt 0.26563 0.34375
vt 0.26563 0.39063
vt 0.28125 0.39063
vt 0.28125 0.34375
vt 0.28906 0.34375
vt 0.28906 0.39063
vt 0.30469 0.39063
vt 0.30469 0.34375
vt 0.31250 0.34375
vt 0.31250 0.39063
vt 0.32813 0.39063
vt 0.32813 0.34375
vt 0.33594 0.34375
vt 0.33594 0.39063
vt 0.35156 0.39063
vt 0.35156 0.34375
vt 0.35938 0.34375
vt 0.35938 0.39063
vt 0.37500 0.39063
vt 0.37500 0.34375
vt 0.38281 0.34375
vt 0.38281 0.39063
vt 0.39844 0.37500
vt 0.39844 0.34375
vt 0.53125 0.34375
vt 0.53125 0.37500
vt 0.54688 0.37500
vt 0.54688 0.34375
vt 0.64844 0.34375
vt 0.64844 0.37500
vt 0.66406 0.37500
vt 0.66406 0.34375
vt 0.76563 0.34375
vt 0.76563 0.37500
vt 0.78125 0.37500
vt 0.78125 0.34375
vt 0.88281 0.34375
vt 0.88281 0.37500
vt 0.00781 0.48438
vt 0.00781 0.45313
vt 0.10938 0.45313
vt 0.10938 0.48438
vt 0.12500 0.48438
vt 0.12500 0.45313
vt 0.22656 0.45313
vt 0.22656 0.48438
vt 0.24219 0.48438
vt 0.24219 0.45313
vt 0.34375 0.45313
vt 0.34375 0.48438
vt 0.35938 0.48438
vt 0.35938 0.45313
vt 0.46094 0.45313
vt 0.46094 0.48438
vt 0.47656 0.48438
vt 0.47656 0.45313
vt 0.57813 0.45313
vt 0.57813 0.48438
vt 0.59375 0.48438
vt 0.59375 0.45313
vt 0.69531 0.45313
vt 0.69531 0.48438
vt 0.71094 0.48438
vt 0.71094 0.45313
vt 0.81250 0.45313
vt 0.81250 0.48438
vt 0.82813 0.48438
vt 0.82813 0.45313
vt 0.92969 0.45313
vt 0.92969 0.48438
vt 0.00781 0.54688
vt 0.00781 0.51563
vt 0.10938 0.51563
vt 0.10938 0.54688
vt 0.89844 0.37500
vt 0.89844 0.34375
vt 0.98438 0.34375
vt 0.98438 0.37500
vt 0.12500 0.54688
vt 0.12500 0.51563
vt 0.19531 0.51563
vt 0.19531 0.54688
vt 0.21094 0.54688
vt 0.21094 0.51563
vt 0.27344 0.51563
vt 0.27344 0.54688
vt 0.28906 0.54688
vt 0.28906 0.51563
vt 0.34375 0.51563
vt 0.34375 0.54688
vt 0.35938 0.54688
vt 0.35938 0.51563
vt 0.41406 0.51563
vt 0.41406 0.54688
vt 0.94531 0.48438
vt 0.94531 0.45313
vt 0.98438 0.45313
vt 0.98438 0.48438
vt 0.42969 0.54688
vt 0.42969 0.51563
vt 0.46094 0.51563
vt 0.46094 0.54688
vt 0.47656 0.54688
vt 0.47656 0.51563
vt 0.50781 0.51563
vt 0.50781 0.54688
vt 0.52344 0.54688
vt 0.52344 0.51563
vt 0.54688 0.51563
vt 0.54688 0.54688
vt 0.56250 0.54688
vt 0.56250 0.51563
vt 0.57813 0.51563
vt 0.57813 0.54688
vt 0.59375 0.54688
vt 0.59375 0.51563
vt 0.60938 0.51563
vt 0.60938 0.54688
vt 0.62500 0.54688
vt 0.62500 0.51563
vt 0.64063 0.51563
vt 0.64063 0.54688
vt 0.65625 0.54688
vt 0.65625 0.51563
vt 0.67188 0.51563
vt 0.67188 0.54688
vt 0.68750 0.54688
vt 0.68750 0.51563
vt 0.70313 0.51563
vt 0.70313 0.54688
vt 0.71875 0.54688
vt 0.71875 0.51563
vt 0.73438 0.51563
vt 0.73438 0.54688
vt 0.75000 0.54688
vt 0.75000 0.51563
vt 0.76563 0.51563
vt 0.76563 0.54688
vt 0.78125 0.54688
vt 0.78125 0.51563
vt 0.79688 0.51563
vt 0.79688 0.54688
vt 0.81250 0.54688
vt 0.81250 0.51563
vt 0.82813 0.51563
vt 0.82813 0.54688
vt 0.84375 0.54688
vt 0.84375 0.51563
vt 0.85938 0.51563
vt 0.85938 0.54688
vt 0.87500 0.54688
vt 0.87500 0.51563
vt 0.89063 0.51563
vt 0.89063 0.54688
vt 0.90625 0.54688
vt 0.90625 0.51563
vt 0.92188 0.51563
vt 0.92188 0.54688
vt 0.93750 0.54688
vt 0.93750 0.51563
vt 0.95313 0.51563
vt 0.95313 0.54688
vt 0.96875 0.54688
vt 0.96875 0.51563
vt 0.98438 0.51563
vt 0.98438 0.54688
vt 0.00781 0.60938
vt 0.00781 0.57813
vt 0.02344 0.57813
vt 0.02344 0.60938
vt 0.03906 0.60938
vt 0.03906 0.57813
vt 0.05469 0.57813
vt 0.05469 0.60938
vt 0.07031 0.60938
vt 0.07031 0.57813
vt 0.08594 0.57813
vt 0.08594 0.60938
vt 0.10156 0.60938
vt 0.10156 0.57813
vt 0.11719 0.57813
vt 0.11719 0.60938
vt 0.13281 0.60938
vt 0.13281 0.57813
vt 0.14844 0.57813
vt 0.14844 0.60938
vt 0.16406 0.60938
vt 0.16406 0.57813
vt 0.17969 0.57813
vt 0.17969 0.60938
vt 0.19531 0.60938
vt 0.19531 0.57813
vt 0.21094 0.57813
vt 0.21094 0.60938
vt 0.22656 0.60938
vt 0.22656 0.57813
vt 0.24219 0.57813
vt 0.24219 0.60938
vt 0.25781 0.60938
vt 0.25781 0.57813
vt 0.27344 0.57813
vt 0.27344 0.60938
vt 0.28906 0.60938
vt 0.28906 0.57813
vt 0.30469 0.57813
vt 0.30469 0.60938
vt 0.32031 0.60938
vt 0.32031 0.57813
vt 0.33594 0.57813
vt 0.33594 0.60938
vt 0.35156 0.60938
vt 0.35156 0.57813
vt 0.36719 0.57813
vt 0.36719 0.60938
vt 0.38281 0.60938
vt 0.38281 0.57813
vt 0.39844 0.57813
vt 0.39844 0.60938
vt 0.41406 0.60938
vt 0.41406 0.57813
vt 0.42969 0.57813
vt 0.42969 0.60938
vt 0.44531 0.60938
vt 0.44531 0.57813
vt 0.46094 0.57813
vt 0.46094 0.60938
vt 0.47656 0.60938
vt 0.47656 0.57813
vt 0.49219 0.57813
vt 0.49219 0.60938
vt 0.50781 0.60938
vt 0.50781 0.57813
vt 0.52344 0.57813
vt 0.52344 0.60938
vt 0.53906 0.60938
vt 0.53906 0.57813
vt 0.55469 0.57813
vt 0.55469 0.60938
vt 0.57031 0.60938
vt 0.57031 0.57813
vt 0.58594 0.57813
vt 0.58594 0.60938
vt 0.60156 0.60938
vt 0.60156 0.57813
vt 0.60938 0.57813
vt 0.60938 0.60938
vt 0.62500 0.60938
vt 0.62500 0.57813
vt 0.63281 0.57813
vt 0.63281 0.60938
vt 0.64844 0.60938
vt 0.64844 0.57813
vt 0.65625 0.57813
vt 0.65625 0.60938
vt 0.67188 0.60938
vt 0.67188 0.57813
vt 0.67969 0.57813
vt 0.67969 0.60938
vt 0.69531 0.60938
vt 0.69531 0.57813
vt 0.70313 0.57813
vt 0.70313 0.60938
vt 0.71875 0.60938
vt 0.71875 0.57813
vt 0.72656 0.57813
vt 0.72656 0.60938
vt 0.74219 0.60938
vt 0.74219 0.57813
vt 0.75000 0.57813
vt 0.75000 0.60938
vt 0.76563 0.59375
vt 0.76563 0.57813
vt 0.87500 0.57813
vt 0.87500 0.59375
vt 0.00781 0.65625
vt 0.00781 0.64063
vt 0.11719 0.64063
vt 0.11719 0.65625
vt 0.89063 0.59375
vt 0.89063 0.57813
vt 0.95313 0.57813
vt 0.95313 0.59375
vt 0.13281 0.65625
vt 0.13281 0.64063
vt 0.18750 0.64063
vt 0.18750 0.65625
vt 0.20313 0.65625
vt 0.20313 0.64063
vt 0.25781 0.64063
vt 0.25781 0.65625
vt 0.27344 0.65625
vt 0.27344 0.64063
vt 0.32031 0.64063
vt 0.32031 0.65625
vt 0.33594 0.65625
vt 0.33594 0.64063
vt 0.38281 0.64063
vt 0.38281 0.65625
vt 0.39844 0.65625
vt 0.39844 0.64063
vt 0.43750 0.64063
vt 0.43750 0.65625
vt 0.45313 0.65625
vt 0.45313 0.64063
vt 0.49219 0.64063
vt 0.49219 0.65625
vt 0.50781 0.65625
vt 0.50781 0.64063
vt 0.54688 0.64063
vt 0.54688 0.65625
vt 0.56250 0.65625
vt 0.56250 0.64063
vt 0.60156 0.64063
vt 0.60156 0.65625
vt 0.61719 0.65625
vt 0.61719 0.64063
vt 0.64844 0.64063
vt 0.64844 0.65625
vt 0.66406 0.65625
vt 0.66406 0.64063
vt 0.69531 0.64063
vt 0.69531 0.65625
vt 0.71094 0.65625
vt 0.71094 0.64063
vt 0.74219 0.64063
vt 0.74219 0.65625
vt 0.75781 0.65625
vt 0.75781 0.64063
vt 0.78906 0.64063
vt 0.78906 0.65625
vt 0.96875 0.59375
vt 0.96875 0.57813
vt 0.99219 0.57813
vt 0.99219 0.59375
vt 0.80469 0.65625
vt 0.80469 0.64063
vt 0.82813 0.64063
vt 0.82813 0.65625
vt 0.84375 0.65625
vt 0.84375 0.64063
vt 0.85938 0.64063
vt 0.85938 0.65625
vt 0.87500 0.65625
vt 0.87500 0.64063
vt 0.89063 0.64063
vt 0.89063 0.65625
vt 0.90625 0.65625
vt 0.90625 0.64063
vt 0.92188 0.64063
vt 0.92188 0.65625
vt 0.93750 0.65625
vt 0.93750 0.64063
vt 0.95313 0.64063
vt 0.95313 0.65625
vt 0.96875 0.65625
vt 0.96875 0.64063
vt 0.97656 0.64063
vt 0.97656 0.65625
vt 0.00781 0.70313
vt 0.00781 0.68750
vt 0.01563 0.68750
vt 0.01563 0.70313
vt 0.03125 0.70313
vt 0.03125 0.68750
vt 0.03906 0.68750
vt 0.03906 0.70313

g tree
usemtl tree_Material
f 77/1/4 76/2/4 2/3/4 1/4/4
f 4/5/3 3/6/3 75/7/3 74/8/3
f 74/9/1 75/10/1 76/11/1 77/12/1
f 1/13/2 2/14/2 3/15/2 4/16/2
f 51/17/5 125/18/5 136/19/5 56/20/5
f 8/21/3 7/22/3 79/23/3 78/24/3
f 81/25/4 80/26/4 6/27/4 5/28/4
f 78/29/1 79/30/1 80/31/1 81/32/1
f 5/33/2 6/34/2 7/35/2 8/36/2
f 9/37/2 10/38/2 11/39/2 12/40/2
f 86/41/1 87/42/1 88/43/1 89/44/1
f 101/45/4 150/46/4 72/47/4 25/48/4
f 43/49/6 11/50/6 10/51/6 65/52/6
f 89/53/4 157/54/4 18/55/4 17/56/4
f 12/57/3 151/58/3 83/59/3 82/60/3
f 82/61/1 83/62/1 84/63/1 85/64/1
f 20/65/3 19/66/3 152/67/3 86/68/3
f 85/69/4 84/70/4 156/71/4 9/72/4
f 13/73/2 14/74/2 15/75/2 16/76/2
f 17/77/2 18/78/2 19/79/2 20/80/2
f 102/81/1 103/82/1 104/83/1 105/84/1
f 24/85/3 68/86/3 140/87/3 94/88/3
f 165/89/6 166/90/6 167/91/6 168/92/6
f 79/93/6 7/94/6 6/95/6 80/96/6
f 25/97/2 26/98/2 27/99/2 28/100/2
f 21/101/2 22/102/2 23/103/2 24/104/2
f 97/105/4 96/106/4 22/107/4 21/108/4
f 83/109/5 161/110/5 66/111/5 84/112/5
f 94/113/1 95/114/1 96/115/1 97/116/1
f 90/117/1 91/118/1 92/119/1 93/120/1
f 98/121/1 99/122/1 100/123/1 101/124/1
f 28/125/3 27/126/3 99/127/3 98/128/3
f 29/129/2 30/130/2 31/131/2 32/132/2
f 105/133/4 159/134/4 30/135/4 29/136/4
f 87/137/6 144/138/6 116/139/6 88/140/6
f 32/141/3 31/142/3 154/143/3 102/144/3
f 16/145/3 153/146/3 91/147/3 90/148/3
f 93/149/4 92/150/4 158/151/4 13/152/4
f 122/153/6 169/154/6 170/155/6 131/156/6
f 106/157/1 107/158/1 108/159/1 109/160/1
f 51/161/3 50/162/3 126/163/3 125/164/3
f 110/165/1 111/166/1 112/167/1 113/168/1
f 132/169/4 131/170/4 53/171/4 52/172/4
f 107/173/6 123/174/6 130/175/6 108/176/6
f 47/177/3 46/178/3 122/179/3 121/180/3
f 136/181/4 135/182/4 57/183/4 56/184/4
f 128/185/5 110/186/5 113/187/5 133/188/5
f 40/189/5 48/190/5 59/191/5 37/192/5
f 37/193/2 38/194/2 39/195/2 40/196/2
f 33/197/2 34/198/2 35/199/2 36/200/2
f 45/201/6 35/202/6 34/203/6 54/204/6
f 101/205/6 25/206/6 171/207/6 172/208/6
f 169/209/6 173/210/6 20/211/6 86/212/6
f 85/213/6 9/214/6 53/215/6 167/216/6
f 166/217/6 46/218/6 12/219/6 82/220/6
f 89/221/6 17/222/6 174/223/6 170/224/6
f 41/225/2 42/226/2 8/227/2 43/228/2
f 114/229/1 115/230/1 81/231/1 116/232/1
f 120/233/6 41/234/6 64/235/6 138/236/6
f 140/237/6 68/238/6 73/239/6 149/240/6
f 109/241/6 129/242/6 132/243/6 76/244/6
f 103/245/6 146/246/6 148/247/6 104/248/6
f 75/249/6 121/250/6 124/251/6 106/252/6
f 125/253/1 126/254/1 127/255/1 128/256/1
f 56/257/2 57/258/2 58/259/2 59/260/2
f 117/261/1 118/262/1 119/263/1 120/264/1
f 121/265/1 122/266/1 123/267/1 124/268/1
f 52/269/2 53/270/2 54/271/2 55/272/2
f 133/273/1 134/274/1 135/275/1 136/276/1
f 44/277/2 45/278/2 46/279/2 47/280/2
f 48/281/2 49/282/2 50/283/2 51/284/2
f 129/285/1 130/286/1 131/287/1 132/288/1
f 36/289/3 35/290/3 45/291/3 44/292/3
f 59/293/4 58/294/4 38/295/4 37/296/4
f 120/297/4 119/298/4 42/299/4 41/300/4
f 148/301/4 138/302/4 64/303/4 160/304/4
f 55/305/6 33/306/6 2/307/6 52/308/6
f 47/309/6 3/310/6 36/311/6 44/312/6
f 55/313/4 54/314/4 34/315/4 33/316/4
f 109/317/4 108/318/4 130/319/4 129/320/4
f 91/321/5 31/322/5 30/323/5 92/324/5
f 126/325/5 74/326/5 111/327/5 127/328/5
f 134/329/5 112/330/5 77/331/5 135/332/5
f 113/333/4 112/334/4 134/335/4 133/336/4
f 4/337/5 50/338/5 49/339/5 39/340/5
f 38/341/5 58/342/5 57/343/5 1/344/5
f 63/345/3 62/346/3 115/347/3 114/348/3
f 143/349/6 70/350/6 63/351/6 114/352/6
f 128/353/3 127/354/3 111/355/3 110/356/3
f 124/357/3 123/358/3 107/359/3 106/360/3
f 40/361/3 39/362/3 49/363/3 48/364/3
f 73/365/3 70/366/3 143/367/3 149/368/3
f 118/369/6 5/370/6 42/371/6 119/372/6
f 115/373/6 62/374/6 61/375/6 78/376/6
f 97/377/6 21/378/6 28/379/6 98/380/6
f 60/381/2 61/382/2 62/383/2 63/384/2
f 22/385/5 96/386/5 99/387/5 27/388/5
f 116/389/4 81/390/4 118/391/4 117/392/4
f 43/393/3 8/394/3 61/395/3 60/396/3
f 175/397/6 176/398/6 24/399/6 94/400/6
f 176/401/6 165/402/6 16/403/6 90/404/6
f 173/405/6 175/406/6 32/407/6 102/408/6
f 72/409/5 163/410/5 147/411/5 162/412/5
f 14/413/2 64/414/2 65/415/2 66/416/2
f 161/417/5 69/418/5 162/419/5 15/420/5
f 151/421/3 11/422/3 60/423/3 69/424/3
f 137/425/1 117/426/1 138/427/1 139/428/1
f 142/429/1 143/430/1 144/431/1 145/432/1
f 66/433/4 65/434/4 10/435/4 156/436/4
f 95/437/1 140/438/1 141/439/1 100/440/1
f 26/441/2 67/442/2 68/443/2 23/444/2
f 159/445/4 104/446/4 160/447/4 158/448/4
f 163/449/5 150/450/5 164/451/5 137/452/5
f 157/453/4 88/454/4 117/455/4 137/456/4
f 153/457/3 155/458/3 103/459/3 154/460/3
f 145/461/3 144/462/3 87/463/3 152/464/3
f 69/465/2 60/466/2 70/467/2 71/468/2
f 149/469/1 142/470/1 150/471/1 141/472/1
f 155/473/3 15/474/3 147/475/3 146/476/3
f 67/477/2 72/478/2 71/479/2 73/480/2
f 146/481/1 147/482/1 139/483/1 148/484/1
f 105/485/6 29/486/6 172/487/6 174/488/6
f 93/489/6 13/490/6 168/491/6 171/492/6
f 145/493/5 19/494/5 18/495/5 164/496/5
