# This file was created with Minddesk Qubicle 3.0
# Get Qubicle at www.getqubicle.com

mtllib bluish_swordfish.mtl

vn 0.0 0.0 1.0
vn 0.0 0.0 -1.0
vn -1.0 0.0 0.0
vn 1.0 0.0 0.0
vn 0.0 1.0 0.0
vn 0.0 -1.0 0.0

v 0.10000 0.70000 -0.80000
v 0.10000 0.00000 -0.80000
v 0.00000 0.00000 -0.80000
v 0.00000 0.70000 -0.80000
v 0.00000 0.40000 -0.60000
v 0.00000 0.20000 -0.60000
v -0.10000 0.20000 -0.60000
v -0.10000 0.40000 -0.60000
v 0.20000 0.40000 -0.60000
v 0.20000 0.20000 -0.60000
v 0.10000 0.20000 -0.60000
v 0.10000 0.40000 -0.60000
v -0.10000 0.30000 0.10000
v -0.10000 0.10000 0.10000
v -0.20000 0.10000 0.10000
v -0.20000 0.30000 0.10000
v 0.30000 0.30000 0.10000
v 0.30000 0.10000 0.10000
v 0.20000 0.10000 0.10000
v 0.20000 0.30000 0.10000
v 0.20000 0.20000 -0.20000
v 0.20000 0.10000 -0.20000
v -0.10000 0.10000 -0.20000
v -0.10000 0.20000 -0.20000
v 0.20000 0.10000 0.00000
v 0.20000 0.00000 0.00000
v -0.10000 0.00000 0.00000
v -0.10000 0.10000 0.00000
v -0.10000 0.40000 -0.20000
v -0.10000 0.30000 -0.20000
v -0.30000 0.30000 -0.20000
v -0.30000 0.40000 -0.20000
v 0.40000 0.40000 -0.20000
v 0.40000 0.30000 -0.20000
v 0.20000 0.30000 -0.20000
v 0.20000 0.40000 -0.20000
v 0.00000 0.50000 -0.40000
v 0.00000 0.40000 -0.40000
v -0.10000 0.40000 -0.40000
v -0.10000 0.50000 -0.40000
v 0.20000 0.50000 -0.40000
v 0.20000 0.40000 -0.40000
v 0.10000 0.40000 -0.40000
v 0.10000 0.50000 -0.40000
v 0.10000 0.60000 -0.10000
v 0.10000 0.50000 -0.10000
v 0.00000 0.50000 -0.10000
v 0.00000 0.60000 -0.10000
v 0.10000 0.30000 0.40000
v 0.10000 0.20000 0.40000
v 0.00000 0.20000 0.40000
v 0.00000 0.30000 0.40000
v -0.10000 0.40000 0.40000
v -0.10000 0.10000 0.40000
v 0.00000 0.10000 0.40000
v 0.00000 0.40000 0.40000
v 0.10000 0.40000 0.40000
v 0.10000 0.10000 0.40000
v 0.20000 0.10000 0.40000
v 0.20000 0.40000 0.40000
v -0.20000 0.30000 0.30000
v -0.20000 0.10000 0.30000
v -0.10000 0.10000 0.30000
v -0.10000 0.30000 0.30000
v 0.00000 0.30000 0.30000
v 0.00000 0.10000 0.30000
v 0.10000 0.10000 0.30000
v 0.10000 0.30000 0.30000
v 0.20000 0.30000 0.30000
v 0.20000 0.10000 0.30000
v 0.30000 0.10000 0.30000
v 0.30000 0.30000 0.30000
v -0.10000 0.00000 0.40000
v 0.20000 0.00000 0.40000
v 0.00000 0.10000 -0.60000
v 0.00000 0.00000 -0.60000
v 0.10000 0.00000 -0.60000
v 0.10000 0.10000 -0.60000
v 0.00000 0.70000 -0.60000
v 0.00000 0.60000 -0.60000
v 0.10000 0.60000 -0.60000
v 0.10000 0.70000 -0.60000
v 0.00000 0.20000 -0.40000
v 0.00000 0.10000 -0.40000
v 0.10000 0.10000 -0.40000
v 0.10000 0.20000 -0.40000
v 0.00000 0.60000 -0.40000
v 0.10000 0.60000 -0.40000
v -0.30000 0.40000 -0.10000
v -0.30000 0.30000 -0.10000
v -0.20000 0.30000 -0.10000
v -0.20000 0.40000 -0.10000
v 0.30000 0.40000 -0.10000
v 0.30000 0.30000 -0.10000
v 0.40000 0.30000 -0.10000
v 0.40000 0.40000 -0.10000
v -0.20000 0.40000 0.00000
v -0.20000 0.30000 0.00000
v -0.10000 0.30000 0.00000
v -0.10000 0.40000 0.00000
v 0.20000 0.40000 0.00000
v 0.20000 0.30000 0.00000
v 0.30000 0.30000 0.00000
v 0.30000 0.40000 0.00000
v 0.00000 0.60000 0.20000
v 0.00000 0.50000 0.20000
v 0.10000 0.50000 0.20000
v 0.10000 0.60000 0.20000
v -0.10000 0.50000 0.30000
v -0.10000 0.40000 0.30000
v 0.00000 0.40000 0.30000
v 0.00000 0.50000 0.30000
v 0.10000 0.50000 0.30000
v 0.10000 0.40000 0.30000
v 0.20000 0.40000 0.30000
v 0.20000 0.50000 0.30000
v 0.00000 0.50000 0.40000
v 0.10000 0.50000 0.40000
v 0.00000 0.40000 0.50000
v 0.00000 0.30000 0.50000
v 0.10000 0.30000 0.50000
v 0.10000 0.40000 0.50000
v 0.00000 0.30000 1.10000
v 0.00000 0.20000 1.10000
v 0.10000 0.20000 1.10000
v 0.10000 0.30000 1.10000
v 0.00000 0.60000 -0.80000
v 0.00000 0.40000 -0.80000
v 0.00000 0.20000 -0.80000
v -0.10000 0.30000 0.40000
v -0.10000 0.30000 -0.60000
v -0.10000 0.20000 0.10000
v 0.00000 0.10000 -0.80000
v 0.10000 0.40000 -0.80000
v 0.10000 0.60000 -0.80000
v 0.10000 0.20000 -0.80000
v 0.20000 0.30000 0.40000
v 0.20000 0.20000 0.10000
v 0.20000 0.30000 -0.60000
v 0.10000 0.10000 -0.80000
v -0.10000 0.50000 -0.10000
v 0.20000 0.50000 -0.10000
v -0.10000 0.50000 0.20000
v 0.20000 0.50000 0.20000
v -0.10000 0.40000 -0.10000
v 0.20000 0.40000 -0.10000
v -0.10000 0.20000 -0.40000
v 0.20000 0.20000 -0.40000
v -0.10000 0.30000 -0.10000
v 0.20000 0.30000 -0.10000

vt 0.01563 0.25000
vt 0.01563 0.03125
vt 0.03125 0.03125
vt 0.03125 0.25000
vt 0.06250 0.25000
vt 0.06250 0.03125
vt 0.07813 0.03125
vt 0.07813 0.25000
vt 0.10938 0.21875
vt 0.10938 0.03125
vt 0.12500 0.03125
vt 0.12500 0.21875
vt 0.15625 0.15625
vt 0.15625 0.03125
vt 0.20313 0.03125
vt 0.20313 0.15625
vt 0.23438 0.12500
vt 0.23438 0.03125
vt 0.28125 0.03125
vt 0.28125 0.12500
vt 0.31250 0.12500
vt 0.31250 0.03125
vt 0.32813 0.03125
vt 0.32813 0.12500
vt 0.35938 0.12500
vt 0.35938 0.03125
vt 0.37500 0.03125
vt 0.37500 0.12500
vt 0.40625 0.12500
vt 0.40625 0.03125
vt 0.42188 0.03125
vt 0.42188 0.12500
vt 0.45313 0.12500
vt 0.45313 0.03125
vt 0.46875 0.03125
vt 0.46875 0.12500
vt 0.50000 0.12500
vt 0.50000 0.03125
vt 0.51563 0.03125
vt 0.51563 0.12500
vt 0.54688 0.09375
vt 0.54688 0.03125
vt 0.60938 0.03125
vt 0.60938 0.09375
vt 0.64063 0.09375
vt 0.64063 0.03125
vt 0.70313 0.03125
vt 0.70313 0.09375
vt 0.73438 0.09375
vt 0.73438 0.03125
vt 0.78125 0.03125
vt 0.78125 0.09375
vt 0.81250 0.09375
vt 0.81250 0.03125
vt 0.85938 0.03125
vt 0.85938 0.09375
vt 0.89063 0.09375
vt 0.89063 0.03125
vt 0.92188 0.03125
vt 0.92188 0.09375
vt 0.95313 0.09375
vt 0.95313 0.03125
vt 0.98438 0.03125
vt 0.98438 0.09375
vt 0.01563 0.37500
vt 0.01563 0.31250
vt 0.04688 0.31250
vt 0.04688 0.37500
vt 0.07813 0.37500
vt 0.07813 0.31250
vt 0.10938 0.31250
vt 0.10938 0.37500
vt 0.14063 0.37500
vt 0.14063 0.31250
vt 0.15625 0.31250
vt 0.15625 0.37500
vt 0.18750 0.37500
vt 0.18750 0.31250
vt 0.20313 0.31250
vt 0.20313 0.37500
vt 0.23438 0.37500
vt 0.23438 0.31250
vt 0.25000 0.31250
vt 0.25000 0.37500
vt 0.28125 0.37500
vt 0.28125 0.31250
vt 0.29688 0.31250
vt 0.29688 0.37500
vt 0.32813 0.37500
vt 0.32813 0.31250
vt 0.34375 0.31250
vt 0.34375 0.37500
vt 0.37500 0.37500
vt 0.37500 0.31250
vt 0.39063 0.31250
vt 0.39063 0.37500
vt 0.42188 0.37500
vt 0.42188 0.31250
vt 0.43750 0.31250
vt 0.43750 0.37500
vt 0.46875 0.37500
vt 0.46875 0.31250
vt 0.48438 0.31250
vt 0.48438 0.37500
vt 0.51563 0.37500
vt 0.51563 0.31250
vt 0.53125 0.31250
vt 0.53125 0.37500
vt 0.56250 0.37500
vt 0.56250 0.31250
vt 0.57813 0.31250
vt 0.57813 0.37500
vt 0.60938 0.37500
vt 0.60938 0.31250
vt 0.62500 0.31250
vt 0.62500 0.37500
vt 0.65625 0.37500
vt 0.65625 0.31250
vt 0.67188 0.31250
vt 0.67188 0.37500
vt 0.70313 0.37500
vt 0.70313 0.31250
vt 0.71875 0.31250
vt 0.71875 0.37500
vt 0.75000 0.37500
vt 0.75000 0.31250
vt 0.76563 0.31250
vt 0.76563 0.37500
vt 0.79688 0.37500
vt 0.79688 0.31250
vt 0.81250 0.31250
vt 0.81250 0.37500
vt 0.84375 0.37500
vt 0.84375 0.31250
vt 0.85938 0.31250
vt 0.85938 0.37500
vt 0.89063 0.37500
vt 0.89063 0.31250
vt 0.90625 0.31250
vt 0.90625 0.37500
vt 0.93750 0.37500
vt 0.93750 0.31250
vt 0.95313 0.31250
vt 0.95313 0.37500
vt 0.01563 0.50000
vt 0.01563 0.43750
vt 0.03125 0.43750
vt 0.03125 0.50000
vt 0.06250 0.50000
vt 0.06250 0.43750
vt 0.07813 0.43750
vt 0.07813 0.50000
vt 0.10938 0.50000
vt 0.10938 0.43750
vt 0.12500 0.43750
vt 0.12500 0.50000
vt 0.15625 0.50000
vt 0.15625 0.43750
vt 0.17188 0.43750
vt 0.17188 0.50000
vt 0.20313 0.50000
vt 0.20313 0.43750
vt 0.21875 0.43750
vt 0.21875 0.50000
vt 0.25000 0.46875
vt 0.25000 0.43750
vt 0.35938 0.43750
vt 0.35938 0.46875
vt 0.39063 0.46875
vt 0.39063 0.43750
vt 0.50000 0.43750
vt 0.50000 0.46875
vt 0.53125 0.46875
vt 0.53125 0.43750
vt 0.64063 0.43750
vt 0.64063 0.46875
vt 0.67188 0.46875
vt 0.67188 0.43750
vt 0.78125 0.43750
vt 0.78125 0.46875
vt 0.81250 0.46875
vt 0.81250 0.43750
vt 0.92188 0.43750
vt 0.92188 0.46875
vt 0.01563 0.59375
vt 0.01563 0.56250
vt 0.12500 0.56250
vt 0.12500 0.59375
vt 0.15625 0.59375
vt 0.15625 0.56250
vt 0.21875 0.56250
vt 0.21875 0.59375
vt 0.25000 0.59375
vt 0.25000 0.56250
vt 0.31250 0.56250
vt 0.31250 0.59375
vt 0.34375 0.59375
vt 0.34375 0.56250
vt 0.40625 0.56250
vt 0.40625 0.59375
vt 0.43750 0.59375
vt 0.43750 0.56250
vt 0.50000 0.56250
vt 0.50000 0.59375
vt 0.53125 0.59375
vt 0.53125 0.56250
vt 0.59375 0.56250
vt 0.59375 0.59375
vt 0.62500 0.59375
vt 0.62500 0.56250
vt 0.68750 0.56250
vt 0.68750 0.59375
vt 0.71875 0.59375
vt 0.71875 0.56250
vt 0.78125 0.56250
vt 0.78125 0.59375
vt 0.81250 0.59375
vt 0.81250 0.56250
vt 0.87500 0.56250
vt 0.87500 0.59375
vt 0.90625 0.59375
vt 0.90625 0.56250
vt 0.95313 0.56250
vt 0.95313 0.59375
vt 0.01563 0.68750
vt 0.01563 0.65625
vt 0.06250 0.65625
vt 0.06250 0.68750
vt 0.09375 0.68750
vt 0.09375 0.65625
vt 0.14063 0.65625
vt 0.14063 0.68750
vt 0.17188 0.68750
vt 0.17188 0.65625
vt 0.21875 0.65625
vt 0.21875 0.68750
vt 0.25000 0.68750
vt 0.25000 0.65625
vt 0.29688 0.65625
vt 0.29688 0.68750
vt 0.32813 0.68750
vt 0.32813 0.65625
vt 0.37500 0.65625
vt 0.37500 0.68750
vt 0.40625 0.68750
vt 0.40625 0.65625
vt 0.45313 0.65625
vt 0.45313 0.68750
vt 0.48438 0.68750
vt 0.48438 0.65625
vt 0.53125 0.65625
vt 0.53125 0.68750
vt 0.95313 0.46875
vt 0.95313 0.43750
vt 0.98438 0.43750
vt 0.98438 0.46875
vt 0.56250 0.68750
vt 0.56250 0.65625
vt 0.59375 0.65625
vt 0.59375 0.68750
vt 0.62500 0.68750
vt 0.62500 0.65625
vt 0.65625 0.65625
vt 0.65625 0.68750
vt 0.68750 0.68750
vt 0.68750 0.65625
vt 0.71875 0.65625
vt 0.71875 0.68750
vt 0.75000 0.68750
vt 0.75000 0.65625
vt 0.78125 0.65625
vt 0.78125 0.68750
vt 0.81250 0.68750
vt 0.81250 0.65625
vt 0.84375 0.65625
vt 0.84375 0.68750
vt 0.87500 0.68750
vt 0.87500 0.65625
vt 0.90625 0.65625
vt 0.90625 0.68750
vt 0.93750 0.68750
vt 0.93750 0.65625
vt 0.96875 0.65625
vt 0.96875 0.68750
vt 0.01563 0.78125
vt 0.01563 0.75000
vt 0.04688 0.75000
vt 0.04688 0.78125
vt 0.07813 0.78125
vt 0.07813 0.75000
vt 0.10938 0.75000
vt 0.10938 0.78125
vt 0.14063 0.78125
vt 0.14063 0.75000
vt 0.15625 0.75000
vt 0.15625 0.78125
vt 0.18750 0.78125
vt 0.18750 0.75000
vt 0.20313 0.75000
vt 0.20313 0.78125
vt 0.23438 0.78125
vt 0.23438 0.75000
vt 0.25000 0.75000
vt 0.25000 0.78125
vt 0.28125 0.78125
vt 0.28125 0.75000
vt 0.29688 0.75000
vt 0.29688 0.78125
vt 0.32813 0.78125
vt 0.32813 0.75000
vt 0.34375 0.75000
vt 0.34375 0.78125
vt 0.37500 0.78125
vt 0.37500 0.75000
vt 0.39063 0.75000
vt 0.39063 0.78125
vt 0.42188 0.78125
vt 0.42188 0.75000
vt 0.43750 0.75000
vt 0.43750 0.78125
vt 0.46875 0.78125
vt 0.46875 0.75000
vt 0.48438 0.75000
vt 0.48438 0.78125
vt 0.51563 0.78125
vt 0.51563 0.75000
vt 0.53125 0.75000
vt 0.53125 0.78125
vt 0.56250 0.78125
vt 0.56250 0.75000
vt 0.57813 0.75000
vt 0.57813 0.78125
vt 0.60938 0.78125
vt 0.60938 0.75000
vt 0.62500 0.75000
vt 0.62500 0.78125
vt 0.65625 0.78125
vt 0.65625 0.75000
vt 0.67188 0.75000
vt 0.67188 0.78125
vt 0.70313 0.78125
vt 0.70313 0.75000
vt 0.71875 0.75000
vt 0.71875 0.78125
vt 0.75000 0.78125
vt 0.75000 0.75000
vt 0.76563 0.75000
vt 0.76563 0.78125
vt 0.79688 0.78125
vt 0.79688 0.75000
vt 0.81250 0.75000
vt 0.81250 0.78125
vt 0.84375 0.78125
vt 0.84375 0.75000
vt 0.85938 0.75000
vt 0.85938 0.78125
vt 0.89063 0.78125
vt 0.89063 0.75000
vt 0.90625 0.75000
vt 0.90625 0.78125
vt 0.93750 0.78125
vt 0.93750 0.75000
vt 0.95313 0.75000
vt 0.95313 0.78125
vt 0.01563 0.87500
vt 0.01563 0.84375
vt 0.03125 0.84375
vt 0.03125 0.87500
vt 0.06250 0.87500
vt 0.06250 0.84375
vt 0.07813 0.84375
vt 0.07813 0.87500
vt 0.10938 0.87500
vt 0.10938 0.84375
vt 0.12500 0.84375
vt 0.12500 0.87500
vt 0.15625 0.87500
vt 0.15625 0.84375
vt 0.17188 0.84375
vt 0.17188 0.87500
vt 0.20313 0.87500
vt 0.20313 0.84375
vt 0.21875 0.84375
vt 0.21875 0.87500
vt 0.25000 0.87500
vt 0.25000 0.84375
vt 0.26563 0.84375
vt 0.26563 0.87500
vt 0.29688 0.87500
vt 0.29688 0.84375
vt 0.31250 0.84375
vt 0.31250 0.87500
vt 0.34375 0.87500
vt 0.34375 0.84375
vt 0.35938 0.84375
vt 0.35938 0.87500
vt 0.39063 0.87500
vt 0.39063 0.84375
vt 0.40625 0.84375
vt 0.40625 0.87500
vt 0.43750 0.87500
vt 0.43750 0.84375
vt 0.45313 0.84375
vt 0.45313 0.87500
vt 0.48438 0.87500
vt 0.48438 0.84375
vt 0.50000 0.84375
vt 0.50000 0.87500
vt 0.53125 0.87500
vt 0.53125 0.84375
vt 0.54688 0.84375
vt 0.54688 0.87500
vt 0.57813 0.87500
vt 0.57813 0.84375
vt 0.59375 0.84375
vt 0.59375 0.87500
vt 0.62500 0.87500
vt 0.62500 0.84375
vt 0.64063 0.84375
vt 0.64063 0.87500
vt 0.67188 0.87500
vt 0.67188 0.84375
vt 0.68750 0.84375
vt 0.68750 0.87500
vt 0.71875 0.87500
vt 0.71875 0.84375
vt 0.73438 0.84375
vt 0.73438 0.87500
vt 0.76563 0.87500
vt 0.76563 0.84375
vt 0.78125 0.84375
vt 0.78125 0.87500
vt 0.81250 0.87500
vt 0.81250 0.84375
vt 0.82813 0.84375
vt 0.82813 0.87500

g bluish_swordfish
usemtl bluish_swordfish_Material
f 124/1/6 51/2/6 50/3/6 125/4/6
f 1/5/2 2/6/2 3/7/2 4/8/2
f 120/9/5 123/10/5 126/11/5 121/12/5
f 73/13/6 27/14/6 26/15/6 74/16/6
f 40/17/5 141/18/5 142/19/5 41/20/5
f 141/21/5 143/22/5 106/23/5 47/24/5
f 57/25/1 58/26/1 59/27/1 60/28/1
f 53/29/1 54/30/1 55/31/1 56/32/1
f 46/33/5 107/34/5 144/35/5 142/36/5
f 48/37/5 105/38/5 108/39/5 45/40/5
f 127/41/3 128/42/3 38/43/3 87/44/3
f 88/45/4 43/46/4 134/47/4 135/48/4
f 24/49/6 147/50/6 148/51/6 21/52/6
f 28/53/6 23/54/6 22/55/6 25/56/6
f 12/57/4 11/58/4 136/59/4 134/60/4
f 16/61/3 15/62/3 62/63/3 61/64/3
f 128/65/3 129/66/3 6/67/3 5/68/3
f 72/69/4 71/70/4 18/71/4 17/72/4
f 68/73/3 67/74/3 58/75/3 49/76/3
f 76/77/6 3/78/6 2/79/6 77/80/6
f 64/81/3 63/82/3 54/83/3 130/84/3
f 4/85/5 79/86/5 82/87/5 1/88/5
f 70/89/6 19/90/6 18/91/6 71/92/6
f 147/93/6 7/94/6 6/95/6 83/96/6
f 52/97/4 55/98/4 66/99/4 65/100/4
f 137/101/4 59/102/4 70/103/4 69/104/4
f 84/105/6 75/106/6 78/107/6 85/108/6
f 62/109/6 15/110/6 14/111/6 63/112/6
f 86/113/6 11/114/6 10/115/6 148/116/6
f 8/117/5 39/118/5 38/119/5 5/120/5
f 13/121/2 14/122/2 15/123/2 16/124/2
f 9/125/2 10/126/2 11/127/2 12/128/2
f 17/129/2 18/130/2 19/131/2 20/132/2
f 5/133/2 6/134/2 7/135/2 8/136/2
f 61/137/1 62/138/1 63/139/1 64/140/1
f 65/141/1 66/142/1 67/143/1 68/144/1
f 12/145/5 43/146/5 42/147/5 9/148/5
f 80/149/5 87/150/5 88/151/5 81/152/5
f 16/153/5 61/154/5 64/155/5 13/156/5
f 69/157/1 70/158/1 71/159/1 72/160/1
f 20/161/5 69/162/5 72/163/5 17/164/5
f 126/165/4 125/166/4 50/167/4 49/168/4
f 40/169/3 39/170/3 110/171/3 109/172/3
f 131/173/3 7/174/3 132/175/3 13/176/3
f 52/177/3 51/178/3 124/179/3 123/180/3
f 116/181/4 115/182/4 42/183/4 41/184/4
f 20/185/4 138/186/4 10/187/4 139/188/4
f 8/189/3 131/190/3 30/191/3 29/192/3
f 129/193/3 133/194/3 84/195/3 83/196/3
f 100/197/3 99/198/3 130/199/3 53/200/3
f 28/201/3 27/202/3 73/203/3 54/204/3
f 60/205/4 137/206/4 102/207/4 101/208/4
f 59/209/4 74/210/4 26/211/4 25/212/4
f 86/213/4 85/214/4 140/215/4 136/216/4
f 36/217/4 35/218/4 139/219/4 9/220/4
f 24/221/3 23/222/3 14/223/3 132/224/3
f 48/225/3 47/226/3 106/227/3 105/228/3
f 21/229/2 22/230/2 23/231/2 24/232/2
f 54/233/1 73/234/1 74/235/1 59/236/1
f 143/237/5 109/238/5 116/239/5 144/240/5
f 25/241/2 26/242/2 27/243/2 28/244/2
f 108/245/4 107/246/4 46/247/4 45/248/4
f 138/249/4 19/250/4 22/251/4 21/252/4
f 90/253/6 31/254/6 30/255/6 149/256/6
f 33/257/2 34/258/2 35/259/2 36/260/2
f 29/261/2 30/262/2 31/263/2 32/264/2
f 32/265/5 89/266/5 145/267/5 29/268/5
f 36/269/5 146/270/5 96/271/5 33/272/5
f 150/273/6 35/274/6 34/275/6 95/276/6
f 4/277/3 127/278/3 80/279/3 79/280/3
f 82/281/4 81/282/4 135/283/4 1/284/4
f 78/285/4 77/286/4 2/287/4 140/288/4
f 133/289/3 3/290/3 76/291/3 75/292/3
f 146/293/5 101/294/5 104/295/5 93/296/5
f 98/297/6 91/298/6 149/299/6 99/300/6
f 83/301/1 84/302/1 85/303/1 86/304/1
f 75/305/1 76/306/1 77/307/1 78/308/1
f 79/309/1 80/310/1 81/311/1 82/312/1
f 102/313/6 150/314/6 94/315/6 103/316/6
f 92/317/5 97/318/5 100/319/5 145/320/5
f 37/321/2 38/322/2 39/323/2 40/324/2
f 52/325/6 65/326/6 68/327/6 49/328/6
f 66/329/5 55/330/5 58/331/5 67/332/5
f 45/333/2 46/334/2 47/335/2 48/336/2
f 49/337/2 50/338/2 51/339/2 52/340/2
f 41/341/2 42/342/2 43/343/2 44/344/2
f 110/345/5 53/346/5 56/347/5 111/348/5
f 122/349/4 121/350/4 49/351/4 57/352/4
f 118/353/4 57/354/4 114/355/4 113/356/4
f 56/357/5 119/358/5 122/359/5 57/360/5
f 112/361/5 117/362/5 118/363/5 113/364/5
f 114/365/5 57/366/5 60/367/5 115/368/5
f 104/369/4 103/370/4 94/371/4 93/372/4
f 112/373/3 111/374/3 56/375/3 117/376/3
f 56/377/3 52/378/3 120/379/3 119/380/3
f 92/381/3 91/382/3 98/383/3 97/384/3
f 96/385/4 95/386/4 34/387/4 33/388/4
f 32/389/3 31/390/3 90/391/3 89/392/3
f 97/393/1 98/394/1 99/395/1 100/396/1
f 101/397/1 102/398/1 103/399/1 104/400/1
f 93/401/1 94/402/1 95/403/1 96/404/1
f 87/405/1 37/406/1 44/407/1 88/408/1
f 89/409/1 90/410/1 91/411/1 92/412/1
f 105/413/1 106/414/1 107/415/1 108/416/1
f 119/417/1 120/418/1 121/419/1 122/420/1
f 123/421/1 124/422/1 125/423/1 126/424/1
f 117/425/1 56/426/1 57/427/1 118/428/1
f 109/429/1 110/430/1 111/431/1 112/432/1
f 113/433/1 114/434/1 115/435/1 116/436/1
