# This file was created with Minddesk Qubicle 3.0
# Get Qubicle at www.getqubicle.com

mtllib bench.mtl

vn 0.0 0.0 1.0
vn 0.0 0.0 -1.0
vn -1.0 0.0 0.0
vn 1.0 0.0 0.0
vn 0.0 1.0 0.0
vn 0.0 -1.0 0.0

v -1.10000 0.30000 -0.30000
v -1.10000 0.00000 -0.30000
v -1.20000 0.00000 -0.30000
v -1.20000 0.30000 -0.30000
v 1.30000 0.30000 -0.30000
v 1.30000 0.00000 -0.30000
v 1.20000 0.00000 -0.30000
v 1.20000 0.30000 -0.30000
v -1.10000 0.30000 0.20000
v -1.10000 0.00000 0.20000
v -1.20000 0.00000 0.20000
v -1.20000 0.30000 0.20000
v 1.30000 0.30000 0.20000
v 1.30000 0.00000 0.20000
v 1.20000 0.00000 0.20000
v 1.20000 0.30000 0.20000
v 1.30000 1.10000 -0.40000
v 1.30000 0.90000 -0.40000
v -1.20000 0.90000 -0.40000
v -1.20000 1.10000 -0.40000
v 1.30000 0.50000 -0.30000
v -1.20000 0.50000 -0.30000
v 1.30000 0.90000 -0.30000
v 1.30000 0.70000 -0.30000
v -1.20000 0.70000 -0.30000
v -1.20000 0.90000 -0.30000
v -1.10000 0.70000 -0.30000
v -1.10000 0.50000 -0.30000
v 1.20000 0.50000 -0.30000
v 1.20000 0.70000 -0.30000
v 1.30000 0.40000 0.10000
v 1.30000 0.30000 0.10000
v -1.20000 0.30000 0.10000
v -1.20000 0.40000 0.10000
v -1.20000 1.00000 -0.20000
v -1.20000 0.70000 -0.20000
v 1.30000 0.70000 -0.20000
v 1.30000 1.00000 -0.20000
v -1.20000 0.30000 -0.20000
v -1.20000 0.00000 -0.20000
v -1.10000 0.00000 -0.20000
v -1.10000 0.30000 -0.20000
v 1.20000 0.30000 -0.20000
v 1.20000 0.00000 -0.20000
v 1.30000 0.00000 -0.20000
v 1.30000 0.30000 -0.20000
v -1.20000 0.30000 0.30000
v -1.20000 0.00000 0.30000
v -1.10000 0.00000 0.30000
v -1.10000 0.30000 0.30000
v 1.20000 0.30000 0.30000
v 1.20000 0.00000 0.30000
v 1.30000 0.00000 0.30000
v 1.30000 0.30000 0.30000
v -1.20000 0.50000 -0.20000
v -1.10000 0.50000 -0.20000
v -1.10000 0.70000 -0.20000
v 1.20000 0.70000 -0.20000
v 1.20000 0.50000 -0.20000
v 1.30000 0.50000 -0.20000
v -1.20000 1.10000 -0.30000
v -1.20000 1.00000 -0.30000
v 1.30000 1.00000 -0.30000
v 1.30000 1.10000 -0.30000
v -1.20000 0.40000 -0.20000
v 1.30000 0.40000 -0.20000
v -1.20000 0.50000 0.20000
v -1.20000 0.40000 0.20000
v 1.30000 0.40000 0.20000
v 1.30000 0.50000 0.20000
v -1.20000 0.40000 0.30000
v 1.30000 0.40000 0.30000
v -1.20000 0.40000 -0.30000
v -1.20000 0.90000 -0.20000
v -1.20000 1.00000 -0.40000
v 1.30000 0.40000 -0.30000
v 1.30000 0.90000 -0.20000
v 1.30000 1.00000 -0.40000

vt 0.01563 0.07813
vt 0.01563 0.01563
vt 0.40625 0.01563
vt 0.40625 0.07813
vt 0.43750 0.07813
vt 0.43750 0.01563
vt 0.45313 0.01563
vt 0.45313 0.07813
vt 0.48438 0.07813
vt 0.48438 0.01563
vt 0.50000 0.01563
vt 0.50000 0.07813
vt 0.53125 0.07813
vt 0.53125 0.01563
vt 0.54688 0.01563
vt 0.54688 0.07813
vt 0.57813 0.07813
vt 0.57813 0.01563
vt 0.59375 0.01563
vt 0.59375 0.07813
vt 0.01563 0.15625
vt 0.01563 0.10938
vt 0.40625 0.10938
vt 0.40625 0.15625
vt 0.43750 0.15625
vt 0.43750 0.10938
vt 0.82813 0.10938
vt 0.82813 0.15625
vt 0.62500 0.06250
vt 0.62500 0.01563
vt 0.64063 0.01563
vt 0.64063 0.06250
vt 0.67188 0.06250
vt 0.67188 0.01563
vt 0.68750 0.01563
vt 0.68750 0.06250
vt 0.71875 0.06250
vt 0.71875 0.01563
vt 0.73438 0.01563
vt 0.73438 0.06250
vt 0.76563 0.06250
vt 0.76563 0.01563
vt 0.78125 0.01563
vt 0.78125 0.06250
vt 0.81250 0.06250
vt 0.81250 0.01563
vt 0.82813 0.01563
vt 0.82813 0.06250
vt 0.85938 0.06250
vt 0.85938 0.01563
vt 0.87500 0.01563
vt 0.87500 0.06250
vt 0.90625 0.06250
vt 0.90625 0.01563
vt 0.92188 0.01563
vt 0.92188 0.06250
vt 0.95313 0.06250
vt 0.95313 0.01563
vt 0.96875 0.01563
vt 0.96875 0.06250
vt 0.85938 0.15625
vt 0.85938 0.10938
vt 0.87500 0.10938
vt 0.87500 0.15625
vt 0.90625 0.15625
vt 0.90625 0.10938
vt 0.92188 0.10938
vt 0.92188 0.15625
vt 0.95313 0.15625
vt 0.95313 0.10938
vt 0.96875 0.10938
vt 0.96875 0.15625
vt 0.01563 0.23438
vt 0.01563 0.18750
vt 0.03125 0.18750
vt 0.03125 0.23438
vt 0.06250 0.23438
vt 0.06250 0.18750
vt 0.07813 0.18750
vt 0.07813 0.23438
vt 0.10938 0.23438
vt 0.10938 0.18750
vt 0.12500 0.18750
vt 0.12500 0.23438
vt 0.15625 0.21875
vt 0.15625 0.18750
vt 0.54688 0.18750
vt 0.54688 0.21875
vt 0.57813 0.21875
vt 0.57813 0.18750
vt 0.96875 0.18750
vt 0.96875 0.21875
vt 0.01563 0.29688
vt 0.01563 0.26563
vt 0.40625 0.26563
vt 0.40625 0.29688
vt 0.43750 0.29688
vt 0.43750 0.26563
vt 0.45313 0.26563
vt 0.45313 0.29688
vt 0.48438 0.29688
vt 0.48438 0.26563
vt 0.50000 0.26563
vt 0.50000 0.29688
vt 0.53125 0.29688
vt 0.53125 0.26563
vt 0.54688 0.26563
vt 0.54688 0.29688
vt 0.57813 0.29688
vt 0.57813 0.26563
vt 0.59375 0.26563
vt 0.59375 0.29688
vt 0.62500 0.29688
vt 0.62500 0.26563
vt 0.64063 0.26563
vt 0.64063 0.29688
vt 0.67188 0.29688
vt 0.67188 0.26563
vt 0.68750 0.26563
vt 0.68750 0.29688
vt 0.01563 0.34375
vt 0.01563 0.32813
vt 0.40625 0.32813
vt 0.40625 0.34375
vt 0.43750 0.34375
vt 0.43750 0.32813
vt 0.82813 0.32813
vt 0.82813 0.34375
vt 0.01563 0.39063
vt 0.01563 0.37500
vt 0.40625 0.37500
vt 0.40625 0.39063
vt 0.43750 0.39063
vt 0.43750 0.37500
vt 0.82813 0.37500
vt 0.82813 0.39063
vt 0.01563 0.43750
vt 0.01563 0.42188
vt 0.40625 0.42188
vt 0.40625 0.43750
vt 0.43750 0.43750
vt 0.43750 0.42188
vt 0.82813 0.42188
vt 0.82813 0.43750
vt 0.01563 0.48438
vt 0.01563 0.46875
vt 0.40625 0.46875
vt 0.40625 0.48438
vt 0.43750 0.48438
vt 0.43750 0.46875
vt 0.82813 0.46875
vt 0.82813 0.48438
vt 0.01563 0.53125
vt 0.01563 0.51563
vt 0.40625 0.51563
vt 0.40625 0.53125
vt 0.43750 0.53125
vt 0.43750 0.51563
vt 0.82813 0.51563
vt 0.82813 0.53125
vt 0.01563 0.57813
vt 0.01563 0.56250
vt 0.37500 0.56250
vt 0.37500 0.57813
vt 0.40625 0.57813
vt 0.40625 0.56250
vt 0.76563 0.56250
vt 0.76563 0.57813
vt 0.01563 0.62500
vt 0.01563 0.60938
vt 0.37500 0.60938
vt 0.37500 0.62500
vt 0.40625 0.62500
vt 0.40625 0.60938
vt 0.76563 0.60938
vt 0.76563 0.62500
vt 0.71875 0.28125
vt 0.71875 0.26563
vt 0.79688 0.26563
vt 0.79688 0.28125
vt 0.82813 0.28125
vt 0.82813 0.26563
vt 0.90625 0.26563
vt 0.90625 0.28125
vt 0.93750 0.28125
vt 0.93750 0.26563
vt 0.96875 0.26563
vt 0.96875 0.28125
vt 0.85938 0.34375
vt 0.85938 0.32813
vt 0.89063 0.32813
vt 0.89063 0.34375
vt 0.92188 0.34375
vt 0.92188 0.32813
vt 0.95313 0.32813
vt 0.95313 0.34375
vt 0.85938 0.39063
vt 0.85938 0.37500
vt 0.89063 0.37500
vt 0.89063 0.39063
vt 0.92188 0.39063
vt 0.92188 0.37500
vt 0.93750 0.37500
vt 0.93750 0.39063
vt 0.96875 0.39063
vt 0.96875 0.37500
vt 0.98438 0.37500
vt 0.98438 0.39063
vt 0.85938 0.43750
vt 0.85938 0.42188
vt 0.87500 0.42188
vt 0.87500 0.43750
vt 0.90625 0.43750
vt 0.90625 0.42188
vt 0.92188 0.42188
vt 0.92188 0.43750
vt 0.95313 0.43750
vt 0.95313 0.42188
vt 0.96875 0.42188
vt 0.96875 0.43750
vt 0.85938 0.48438
vt 0.85938 0.46875
vt 0.87500 0.46875
vt 0.87500 0.48438

g bench
usemtl bench_Material
f 55/1/5 67/2/5 70/3/5 60/4/5
f 77/5/4 60/6/4 21/7/4 23/8/4
f 66/9/4 45/10/4 6/11/4 76/12/4
f 73/13/3 3/14/3 40/15/3 65/16/3
f 26/17/3 22/18/3 55/19/3 74/20/3
f 34/21/6 65/22/6 66/23/6 31/24/6
f 35/25/1 36/26/1 37/27/1 38/28/1
f 50/29/4 49/30/4 10/31/4 9/32/4
f 39/33/1 40/34/1 41/35/1 42/36/1
f 16/37/3 15/38/3 52/39/3 51/40/3
f 9/41/2 10/42/2 11/43/2 12/44/2
f 42/45/4 41/46/4 2/47/4 1/48/4
f 13/49/2 14/50/2 15/51/2 16/52/2
f 51/53/1 52/54/1 53/55/1 54/56/1
f 47/57/1 48/58/1 49/59/1 50/60/1
f 43/61/1 44/62/1 45/63/1 46/64/1
f 1/65/2 2/66/2 3/67/2 4/68/2
f 12/69/3 11/70/3 48/71/3 47/72/3
f 8/73/3 7/74/3 44/75/3 43/76/3
f 5/77/2 6/78/2 7/79/2 8/80/2
f 54/81/4 53/82/4 14/83/4 13/84/4
f 21/85/2 5/86/2 4/87/2 22/88/2
f 17/89/2 18/90/2 19/91/2 20/92/2
f 23/93/2 24/94/2 25/95/2 26/96/2
f 57/97/4 56/98/4 28/99/4 27/100/4
f 58/101/1 59/102/1 60/103/1 37/104/1
f 30/105/3 29/106/3 59/107/3 58/108/3
f 27/109/2 28/110/2 22/111/2 25/112/2
f 24/113/2 21/114/2 29/115/2 30/116/2
f 36/117/1 55/118/1 56/119/1 57/120/1
f 67/121/1 68/122/1 69/123/1 70/124/1
f 71/125/1 47/126/1 54/127/1 72/128/1
f 61/129/1 62/130/1 63/131/1 64/132/1
f 65/133/1 39/134/1 46/135/1 66/136/1
f 26/137/6 19/138/6 18/139/6 23/140/6
f 20/141/5 61/142/5 64/143/5 17/144/5
f 12/145/6 33/146/6 32/147/6 13/148/6
f 31/149/2 32/150/2 33/151/2 34/152/2
f 68/153/5 71/154/5 72/155/5 69/156/5
f 62/157/5 35/158/5 38/159/5 63/160/5
f 57/161/6 27/162/6 30/163/6 58/164/6
f 42/165/6 1/166/6 8/167/6 43/168/6
f 50/169/6 9/170/6 16/171/6 51/172/6
f 28/173/5 56/174/5 59/175/5 29/176/5
f 70/177/4 69/178/4 76/179/4 21/180/4
f 22/181/3 73/182/3 68/183/3 67/184/3
f 38/185/4 77/186/4 18/187/4 78/188/4
f 72/189/4 54/190/4 32/191/4 31/192/4
f 75/193/3 19/194/3 74/195/3 35/196/3
f 34/197/3 33/198/3 47/199/3 71/200/3
f 44/201/6 7/202/6 6/203/6 45/204/6
f 48/205/6 11/206/6 10/207/6 49/208/6
f 52/209/6 15/210/6 14/211/6 53/212/6
f 20/213/3 75/214/3 62/215/3 61/216/3
f 64/217/4 63/218/4 78/219/4 17/220/4
f 40/221/6 3/222/6 2/223/6 41/224/6
