# This file was created with Minddesk Qubicle 3.0
# Get Qubicle at www.getqubicle.com

mtllib charlie.mtl

vn 0.0 0.0 1.0
vn 0.0 0.0 -1.0
vn -1.0 0.0 0.0
vn 1.0 0.0 0.0
vn 0.0 1.0 0.0
vn 0.0 -1.0 0.0

v 0.30000 0.50000 -0.60000
v 0.30000 0.20000 -0.60000
v -0.20000 0.20000 -0.60000
v -0.20000 0.50000 -0.60000
v 0.40000 0.90000 0.10000
v 0.40000 0.60000 0.10000
v -0.30000 0.60000 0.10000
v -0.30000 0.90000 0.10000
v 0.10000 0.70000 -0.70000
v 0.10000 0.50000 -0.70000
v 0.00000 0.50000 -0.70000
v 0.00000 0.70000 -0.70000
v -0.10000 0.20000 -0.60000
v -0.10000 0.00000 -0.60000
v -0.20000 0.00000 -0.60000
v 0.30000 0.00000 -0.60000
v 0.20000 0.00000 -0.60000
v 0.20000 0.20000 -0.60000
v 0.20000 1.00000 0.10000
v 0.20000 0.90000 0.10000
v -0.10000 0.90000 0.10000
v -0.10000 1.00000 0.10000
v 0.20000 0.20000 0.20000
v 0.20000 0.10000 0.20000
v -0.10000 0.10000 0.20000
v -0.10000 0.20000 0.20000
v 0.00000 0.60000 -0.60000
v 0.00000 0.50000 -0.60000
v -0.20000 0.60000 -0.60000
v 0.30000 0.60000 -0.60000
v 0.10000 0.50000 -0.60000
v 0.10000 0.60000 -0.60000
v -0.20000 0.60000 0.10000
v -0.20000 0.50000 0.10000
v -0.30000 0.50000 0.10000
v 0.40000 0.50000 0.10000
v 0.30000 0.50000 0.10000
v 0.30000 0.60000 0.10000
v -0.10000 0.00000 0.20000
v -0.20000 0.00000 0.20000
v -0.20000 0.10000 0.20000
v 0.30000 0.10000 0.20000
v 0.30000 0.00000 0.20000
v 0.20000 0.00000 0.20000
v -0.20000 0.60000 0.30000
v -0.20000 0.10000 0.30000
v 0.30000 0.10000 0.30000
v 0.30000 0.60000 0.30000
v -0.30000 0.80000 0.40000
v -0.30000 0.50000 0.40000
v -0.20000 0.50000 0.40000
v -0.20000 0.80000 0.40000
v 0.30000 0.80000 0.40000
v 0.30000 0.50000 0.40000
v 0.40000 0.50000 0.40000
v 0.40000 0.80000 0.40000
v -0.20000 0.80000 0.30000
v -0.10000 0.60000 0.30000
v -0.10000 0.80000 0.30000
v 0.20000 0.80000 0.30000
v 0.20000 0.60000 0.30000
v 0.30000 0.80000 0.30000
v -0.10000 1.00000 0.40000
v -0.10000 0.90000 0.40000
v 0.20000 0.90000 0.40000
v 0.20000 1.00000 0.40000
v -0.10000 0.90000 0.50000
v -0.10000 0.80000 0.50000
v 0.20000 0.80000 0.50000
v 0.20000 0.90000 0.50000
v -0.10000 0.70000 0.60000
v -0.10000 0.60000 0.60000
v 0.20000 0.60000 0.60000
v 0.20000 0.70000 0.60000
v -0.30000 0.90000 0.30000
v -0.30000 0.80000 0.30000
v -0.10000 0.90000 0.30000
v 0.20000 0.90000 0.30000
v 0.40000 0.80000 0.30000
v 0.40000 0.90000 0.30000
v 0.00000 0.70000 -0.60000
v 0.10000 0.70000 -0.60000
v -0.20000 0.10000 -0.50000
v -0.20000 0.00000 -0.50000
v -0.10000 0.00000 -0.50000
v -0.10000 0.10000 -0.50000
v 0.20000 0.10000 -0.50000
v 0.20000 0.00000 -0.50000
v 0.30000 0.00000 -0.50000
v 0.30000 0.10000 -0.50000
v -0.20000 0.00000 0.30000
v -0.10000 0.00000 0.30000
v -0.10000 0.10000 0.30000
v 0.20000 0.10000 0.30000
v 0.20000 0.00000 0.30000
v 0.30000 0.00000 0.30000
v -0.10000 0.80000 0.60000
v 0.00000 0.70000 0.60000
v 0.00000 0.80000 0.60000
v 0.10000 0.80000 0.60000
v 0.10000 0.70000 0.60000
v 0.20000 0.80000 0.60000
v 0.00000 0.80000 0.70000
v 0.00000 0.70000 0.70000
v 0.10000 0.70000 0.70000
v 0.10000 0.80000 0.70000
v -0.20000 0.10000 -0.60000
v -0.20000 0.50000 0.30000
v -0.30000 0.80000 0.10000
v 0.30000 0.50000 0.30000
v 0.20000 0.10000 -0.60000
v 0.30000 0.10000 -0.60000
v 0.40000 0.80000 0.10000
v -0.10000 0.10000 -0.60000

vt 0.01563 0.28125
vt 0.01563 0.03125
vt 0.06250 0.03125
vt 0.06250 0.28125
vt 0.09375 0.25000
vt 0.09375 0.03125
vt 0.17188 0.03125
vt 0.17188 0.25000
vt 0.20313 0.25000
vt 0.20313 0.03125
vt 0.21875 0.03125
vt 0.21875 0.25000
vt 0.25000 0.25000
vt 0.25000 0.03125
vt 0.26563 0.03125
vt 0.26563 0.25000
vt 0.29688 0.18750
vt 0.29688 0.03125
vt 0.37500 0.03125
vt 0.37500 0.18750
vt 0.40625 0.15625
vt 0.40625 0.03125
vt 0.54688 0.03125
vt 0.54688 0.15625
vt 0.57813 0.15625
vt 0.57813 0.03125
vt 0.71875 0.03125
vt 0.71875 0.15625
vt 0.75000 0.12500
vt 0.75000 0.03125
vt 0.85938 0.03125
vt 0.85938 0.12500
vt 0.89063 0.12500
vt 0.89063 0.03125
vt 0.96875 0.03125
vt 0.96875 0.12500
vt 0.01563 0.43750
vt 0.01563 0.34375
vt 0.06250 0.34375
vt 0.06250 0.43750
vt 0.09375 0.43750
vt 0.09375 0.34375
vt 0.14063 0.34375
vt 0.14063 0.43750
vt 0.17188 0.43750
vt 0.17188 0.34375
vt 0.21875 0.34375
vt 0.21875 0.43750
vt 0.25000 0.43750
vt 0.25000 0.34375
vt 0.29688 0.34375
vt 0.29688 0.43750
vt 0.32813 0.43750
vt 0.32813 0.34375
vt 0.34375 0.34375
vt 0.34375 0.43750
vt 0.37500 0.43750
vt 0.37500 0.34375
vt 0.39063 0.34375
vt 0.39063 0.43750
vt 0.42188 0.43750
vt 0.42188 0.34375
vt 0.43750 0.34375
vt 0.43750 0.43750
vt 0.46875 0.43750
vt 0.46875 0.34375
vt 0.48438 0.34375
vt 0.48438 0.43750
vt 0.51563 0.43750
vt 0.51563 0.34375
vt 0.53125 0.34375
vt 0.53125 0.43750
vt 0.56250 0.43750
vt 0.56250 0.34375
vt 0.57813 0.34375
vt 0.57813 0.43750
vt 0.60938 0.40625
vt 0.60938 0.34375
vt 0.65625 0.34375
vt 0.65625 0.40625
vt 0.68750 0.40625
vt 0.68750 0.34375
vt 0.73438 0.34375
vt 0.73438 0.40625
vt 0.76563 0.40625
vt 0.76563 0.34375
vt 0.79688 0.34375
vt 0.79688 0.40625
vt 0.82813 0.40625
vt 0.82813 0.34375
vt 0.85938 0.34375
vt 0.85938 0.40625
vt 0.89063 0.40625
vt 0.89063 0.34375
vt 0.90625 0.34375
vt 0.90625 0.40625
vt 0.93750 0.40625
vt 0.93750 0.34375
vt 0.95313 0.34375
vt 0.95313 0.40625
vt 0.01563 0.56250
vt 0.01563 0.50000
vt 0.03125 0.50000
vt 0.03125 0.56250
vt 0.06250 0.56250
vt 0.06250 0.50000
vt 0.07813 0.50000
vt 0.07813 0.56250
vt 0.10938 0.56250
vt 0.10938 0.50000
vt 0.12500 0.50000
vt 0.12500 0.56250
vt 0.15625 0.56250
vt 0.15625 0.50000
vt 0.17188 0.50000
vt 0.17188 0.56250
vt 0.20313 0.56250
vt 0.20313 0.50000
vt 0.21875 0.50000
vt 0.21875 0.56250
vt 0.25000 0.53125
vt 0.25000 0.50000
vt 0.37500 0.50000
vt 0.37500 0.53125
vt 0.40625 0.53125
vt 0.40625 0.50000
vt 0.53125 0.50000
vt 0.53125 0.53125
vt 0.56250 0.53125
vt 0.56250 0.50000
vt 0.67188 0.50000
vt 0.67188 0.53125
vt 0.70313 0.53125
vt 0.70313 0.50000
vt 0.81250 0.50000
vt 0.81250 0.53125
vt 0.84375 0.53125
vt 0.84375 0.50000
vt 0.89063 0.50000
vt 0.89063 0.53125
vt 0.92188 0.53125
vt 0.92188 0.50000
vt 0.96875 0.50000
vt 0.96875 0.53125
vt 0.01563 0.65625
vt 0.01563 0.62500
vt 0.06250 0.62500
vt 0.06250 0.65625
vt 0.09375 0.65625
vt 0.09375 0.62500
vt 0.14063 0.62500
vt 0.14063 0.65625
vt 0.17188 0.65625
vt 0.17188 0.62500
vt 0.21875 0.62500
vt 0.21875 0.65625
vt 0.25000 0.65625
vt 0.25000 0.62500
vt 0.29688 0.62500
vt 0.29688 0.65625
vt 0.32813 0.65625
vt 0.32813 0.62500
vt 0.37500 0.62500
vt 0.37500 0.65625
vt 0.40625 0.65625
vt 0.40625 0.62500
vt 0.45313 0.62500
vt 0.45313 0.65625
vt 0.48438 0.65625
vt 0.48438 0.62500
vt 0.53125 0.62500
vt 0.53125 0.65625
vt 0.56250 0.65625
vt 0.56250 0.62500
vt 0.60938 0.62500
vt 0.60938 0.65625
vt 0.64063 0.65625
vt 0.64063 0.62500
vt 0.67188 0.62500
vt 0.67188 0.65625
vt 0.70313 0.65625
vt 0.70313 0.62500
vt 0.73438 0.62500
vt 0.73438 0.65625
vt 0.76563 0.65625
vt 0.76563 0.62500
vt 0.79688 0.62500
vt 0.79688 0.65625
vt 0.82813 0.65625
vt 0.82813 0.62500
vt 0.85938 0.62500
vt 0.85938 0.65625
vt 0.89063 0.65625
vt 0.89063 0.62500
vt 0.92188 0.62500
vt 0.92188 0.65625
vt 0.95313 0.65625
vt 0.95313 0.62500
vt 0.98438 0.62500
vt 0.98438 0.65625
vt 0.01563 0.75000
vt 0.01563 0.71875
vt 0.04688 0.71875
vt 0.04688 0.75000
vt 0.07813 0.75000
vt 0.07813 0.71875
vt 0.10938 0.71875
vt 0.10938 0.75000
vt 0.14063 0.75000
vt 0.14063 0.71875
vt 0.15625 0.71875
vt 0.15625 0.75000
vt 0.18750 0.75000
vt 0.18750 0.71875
vt 0.20313 0.71875
vt 0.20313 0.75000
vt 0.23438 0.75000
vt 0.23438 0.71875
vt 0.25000 0.71875
vt 0.25000 0.75000
vt 0.28125 0.75000
vt 0.28125 0.71875
vt 0.29688 0.71875
vt 0.29688 0.75000
vt 0.32813 0.75000
vt 0.32813 0.71875
vt 0.34375 0.71875
vt 0.34375 0.75000
vt 0.37500 0.75000
vt 0.37500 0.71875
vt 0.39063 0.71875
vt 0.39063 0.75000
vt 0.42188 0.75000
vt 0.42188 0.71875
vt 0.43750 0.71875
vt 0.43750 0.75000
vt 0.46875 0.75000
vt 0.46875 0.71875
vt 0.48438 0.71875
vt 0.48438 0.75000
vt 0.51563 0.75000
vt 0.51563 0.71875
vt 0.53125 0.71875
vt 0.53125 0.75000
vt 0.56250 0.75000
vt 0.56250 0.71875
vt 0.57813 0.71875
vt 0.57813 0.75000
vt 0.60938 0.75000
vt 0.60938 0.71875
vt 0.62500 0.71875
vt 0.62500 0.75000
vt 0.65625 0.75000
vt 0.65625 0.71875
vt 0.67188 0.71875
vt 0.67188 0.75000
vt 0.70313 0.75000
vt 0.70313 0.71875
vt 0.71875 0.71875
vt 0.71875 0.75000
vt 0.75000 0.75000
vt 0.75000 0.71875
vt 0.76563 0.71875
vt 0.76563 0.75000
vt 0.79688 0.75000
vt 0.79688 0.71875
vt 0.81250 0.71875
vt 0.81250 0.75000
vt 0.84375 0.75000
vt 0.84375 0.71875
vt 0.85938 0.71875
vt 0.85938 0.75000
vt 0.89063 0.75000
vt 0.89063 0.71875
vt 0.90625 0.71875
vt 0.90625 0.75000
vt 0.93750 0.75000
vt 0.93750 0.71875
vt 0.95313 0.71875
vt 0.95313 0.75000
vt 0.01563 0.84375
vt 0.01563 0.81250
vt 0.03125 0.81250
vt 0.03125 0.84375
vt 0.06250 0.84375
vt 0.06250 0.81250
vt 0.07813 0.81250
vt 0.07813 0.84375
vt 0.10938 0.84375
vt 0.10938 0.81250
vt 0.12500 0.81250
vt 0.12500 0.84375
vt 0.15625 0.84375
vt 0.15625 0.81250
vt 0.17188 0.81250
vt 0.17188 0.84375
vt 0.20313 0.84375
vt 0.20313 0.81250
vt 0.21875 0.81250
vt 0.21875 0.84375
vt 0.25000 0.84375
vt 0.25000 0.81250
vt 0.26563 0.81250
vt 0.26563 0.84375
vt 0.29688 0.84375
vt 0.29688 0.81250
vt 0.31250 0.81250
vt 0.31250 0.84375
vt 0.34375 0.84375
vt 0.34375 0.81250
vt 0.35938 0.81250
vt 0.35938 0.84375
vt 0.39063 0.84375
vt 0.39063 0.81250
vt 0.40625 0.81250
vt 0.40625 0.84375
vt 0.43750 0.84375
vt 0.43750 0.81250
vt 0.45313 0.81250
vt 0.45313 0.84375
vt 0.48438 0.84375
vt 0.48438 0.81250
vt 0.50000 0.81250
vt 0.50000 0.84375
vt 0.53125 0.84375
vt 0.53125 0.81250
vt 0.54688 0.81250
vt 0.54688 0.84375
vt 0.57813 0.84375
vt 0.57813 0.81250
vt 0.59375 0.81250
vt 0.59375 0.84375
vt 0.62500 0.84375
vt 0.62500 0.81250
vt 0.64063 0.81250
vt 0.64063 0.84375

g charlie
usemtl charlie_Material
f 26/1/6 13/2/6 18/3/6 23/4/6
f 29/5/5 33/6/5 38/7/5 30/8/5
f 41/9/6 83/10/6 86/11/6 25/12/6
f 24/13/6 87/14/6 90/15/6 42/16/6
f 45/17/1 46/18/1 47/19/1 48/20/1
f 4/21/3 107/22/3 46/23/3 108/24/3
f 110/25/4 47/26/4 112/27/4 1/28/4
f 5/29/2 6/30/2 7/31/2 8/32/2
f 1/33/2 2/34/2 3/35/2 4/36/2
f 56/37/4 55/38/4 36/39/4 113/40/4
f 109/41/3 35/42/3 50/43/3 49/44/3
f 22/45/5 63/46/5 66/47/5 19/48/5
f 72/49/6 58/50/6 61/51/6 73/52/6
f 62/53/3 110/54/3 54/55/3 53/56/3
f 54/57/6 37/58/6 36/59/6 55/60/6
f 53/61/1 54/62/1 55/63/1 56/64/1
f 52/65/4 51/66/4 108/67/4 57/68/4
f 49/69/1 50/70/1 51/71/1 52/72/1
f 50/73/6 35/74/6 34/75/6 51/76/6
f 59/77/3 58/78/3 72/79/3 97/80/3
f 102/81/4 73/82/4 61/83/4 60/84/4
f 20/85/5 78/86/5 80/87/5 5/88/5
f 8/89/5 75/90/5 77/91/5 21/92/5
f 2/93/2 16/94/2 17/95/2 18/96/2
f 12/97/3 11/98/3 28/99/3 81/100/3
f 82/101/4 31/102/4 10/103/4 9/104/4
f 13/105/2 14/106/2 15/107/2 3/108/2
f 60/109/1 61/110/1 48/111/1 62/112/1
f 57/113/1 45/114/1 58/115/1 59/116/1
f 9/117/2 10/118/2 11/119/2 12/120/2
f 26/121/4 25/122/4 114/123/4 13/124/4
f 18/125/3 111/126/3 24/127/3 23/128/3
f 29/129/3 4/130/3 34/131/3 33/132/3
f 38/133/4 37/134/4 1/135/4 30/136/4
f 63/137/1 64/138/1 65/139/1 66/140/1
f 68/141/5 97/142/5 102/143/5 69/144/5
f 67/145/1 68/146/1 69/147/1 70/148/1
f 22/149/3 21/150/3 64/151/3 63/152/3
f 64/153/5 67/154/5 70/155/5 65/156/5
f 71/157/1 72/158/1 73/159/1 74/160/1
f 19/161/2 20/162/2 21/163/2 22/164/2
f 23/165/2 24/166/2 25/167/2 26/168/2
f 66/169/4 65/170/4 20/171/4 19/172/4
f 93/173/6 25/174/6 24/175/6 94/176/6
f 75/177/1 76/178/1 59/179/1 77/180/1
f 78/181/1 60/182/1 79/183/1 80/184/1
f 70/185/4 69/186/4 60/187/4 78/188/4
f 30/189/2 1/190/2 31/191/2 32/192/2
f 27/193/2 28/194/2 4/195/2 29/196/2
f 8/197/3 109/198/3 76/199/3 75/200/3
f 77/201/3 59/202/3 68/203/3 67/204/3
f 80/205/4 79/206/4 113/207/4 5/208/4
f 83/209/1 84/210/1 85/211/1 86/212/1
f 81/213/1 27/214/1 32/215/1 82/216/1
f 25/217/2 39/218/2 40/219/2 41/220/2
f 42/221/2 43/222/2 44/223/2 24/224/2
f 33/225/2 34/226/2 35/227/2 7/228/2
f 6/229/2 36/230/2 37/231/2 38/232/2
f 87/233/1 88/234/1 89/235/1 90/236/1
f 76/237/5 49/238/5 52/239/5 57/240/5
f 62/241/5 53/242/5 56/243/5 79/244/5
f 99/245/5 103/246/5 106/247/5 100/248/5
f 47/249/4 96/250/4 43/251/4 42/252/4
f 106/253/4 105/254/4 101/255/4 100/256/4
f 12/257/5 81/258/5 82/259/5 9/260/5
f 91/261/6 40/262/6 39/263/6 92/264/6
f 95/265/6 44/266/6 43/267/6 96/268/6
f 104/269/6 98/270/6 101/271/6 105/272/6
f 28/273/6 11/274/6 10/275/6 31/276/6
f 84/277/6 15/278/6 14/279/6 85/280/6
f 88/281/6 17/282/6 16/283/6 89/284/6
f 93/285/4 92/286/4 39/287/4 25/288/4
f 100/289/1 101/290/1 74/291/1 102/292/1
f 103/293/1 104/294/1 105/295/1 106/296/1
f 107/297/3 15/298/3 84/299/3 83/300/3
f 46/301/1 91/302/1 92/303/1 93/304/1
f 94/305/1 95/306/1 96/307/1 47/308/1
f 97/309/1 71/310/1 98/311/1 99/312/1
f 99/313/3 98/314/3 104/315/3 103/316/3
f 86/317/4 85/318/4 14/319/4 114/320/4
f 90/321/4 89/322/4 16/323/4 112/324/4
f 111/325/3 17/326/3 88/327/3 87/328/3
f 41/329/3 40/330/3 91/331/3 46/332/3
f 24/333/3 44/334/3 95/335/3 94/336/3
