# This file was created with Minddesk Qubicle 3.0
# Get Qubicle at www.getqubicle.com

mtllib crow.mtl

vn 0.0 0.0 1.0
vn 0.0 0.0 -1.0
vn -1.0 0.0 0.0
vn 1.0 0.0 0.0
vn 0.0 1.0 0.0
vn 0.0 -1.0 0.0

v 0.20000 0.80000 -0.10000
v 0.20000 0.50000 -0.10000
v -0.10000 0.50000 -0.10000
v -0.10000 0.80000 -0.10000
v 0.00000 0.20000 -0.10000
v 0.00000 0.00000 -0.10000
v -0.10000 0.00000 -0.10000
v -0.10000 0.20000 -0.10000
v 0.20000 0.20000 -0.10000
v 0.20000 0.00000 -0.10000
v 0.10000 0.00000 -0.10000
v 0.10000 0.20000 -0.10000
v -0.10000 0.70000 0.00000
v -0.10000 0.50000 0.00000
v -0.20000 0.50000 0.00000
v -0.20000 0.70000 0.00000
v 0.30000 0.70000 0.00000
v 0.30000 0.50000 0.00000
v 0.20000 0.50000 0.00000
v 0.20000 0.70000 0.00000
v 0.30000 0.40000 -0.40000
v 0.30000 0.30000 -0.40000
v -0.20000 0.30000 -0.40000
v -0.20000 0.40000 -0.40000
v 0.10000 0.30000 -0.40000
v 0.10000 0.20000 -0.40000
v 0.00000 0.20000 -0.40000
v 0.00000 0.30000 -0.40000
v -0.10000 0.50000 -0.30000
v -0.10000 0.40000 -0.30000
v -0.20000 0.40000 -0.30000
v -0.20000 0.50000 -0.30000
v 0.00000 0.30000 -0.30000
v 0.00000 0.20000 -0.30000
v -0.10000 0.20000 -0.30000
v -0.10000 0.30000 -0.30000
v 0.10000 0.50000 -0.30000
v 0.10000 0.40000 -0.30000
v 0.00000 0.40000 -0.30000
v 0.00000 0.50000 -0.30000
v 0.20000 0.30000 -0.30000
v 0.20000 0.20000 -0.30000
v 0.10000 0.20000 -0.30000
v 0.10000 0.30000 -0.30000
v 0.30000 0.50000 -0.30000
v 0.30000 0.40000 -0.30000
v 0.20000 0.40000 -0.30000
v 0.20000 0.50000 -0.30000
v -0.10000 0.30000 -0.20000
v -0.10000 0.20000 -0.20000
v -0.20000 0.20000 -0.20000
v -0.20000 0.30000 -0.20000
v 0.00000 0.50000 -0.20000
v 0.00000 0.40000 -0.20000
v -0.10000 0.40000 -0.20000
v -0.10000 0.50000 -0.20000
v 0.20000 0.50000 -0.20000
v 0.20000 0.40000 -0.20000
v 0.10000 0.40000 -0.20000
v 0.10000 0.50000 -0.20000
v 0.30000 0.30000 -0.20000
v 0.30000 0.20000 -0.20000
v 0.20000 0.20000 -0.20000
v 0.20000 0.30000 -0.20000
v -0.10000 0.50000 0.20000
v -0.10000 0.30000 0.20000
v 0.20000 0.30000 0.20000
v 0.20000 0.50000 0.20000
v -0.20000 0.70000 0.20000
v -0.20000 0.50000 0.20000
v 0.00000 0.50000 0.20000
v 0.00000 0.70000 0.20000
v 0.10000 0.70000 0.20000
v 0.10000 0.50000 0.20000
v 0.30000 0.50000 0.20000
v 0.30000 0.70000 0.20000
v -0.20000 0.50000 0.10000
v -0.20000 0.30000 0.10000
v -0.10000 0.30000 0.10000
v -0.10000 0.50000 0.10000
v 0.20000 0.50000 0.10000
v 0.20000 0.30000 0.10000
v 0.30000 0.30000 0.10000
v 0.30000 0.50000 0.10000
v -0.10000 0.80000 0.20000
v -0.10000 0.70000 0.20000
v 0.20000 0.70000 0.20000
v 0.20000 0.80000 0.20000
v -0.20000 0.30000 0.00000
v -0.20000 0.20000 0.00000
v -0.10000 0.20000 0.00000
v -0.10000 0.30000 0.00000
v -0.10000 0.10000 0.00000
v 0.00000 0.10000 0.00000
v 0.00000 0.20000 0.00000
v 0.10000 0.20000 0.00000
v 0.10000 0.10000 0.00000
v 0.20000 0.10000 0.00000
v 0.20000 0.20000 0.00000
v 0.20000 0.30000 0.00000
v 0.30000 0.20000 0.00000
v 0.30000 0.30000 0.00000
v -0.10000 0.10000 0.10000
v -0.10000 0.00000 0.10000
v 0.00000 0.00000 0.10000
v 0.00000 0.10000 0.10000
v -0.10000 0.20000 0.10000
v 0.00000 0.20000 0.10000
v 0.00000 0.30000 0.10000
v 0.10000 0.10000 0.10000
v 0.10000 0.00000 0.10000
v 0.20000 0.00000 0.10000
v 0.20000 0.10000 0.10000
v 0.10000 0.30000 0.10000
v 0.10000 0.20000 0.10000
v 0.20000 0.20000 0.10000
v 0.00000 0.30000 0.20000
v 0.00000 0.20000 0.20000
v 0.10000 0.20000 0.20000
v 0.10000 0.30000 0.20000
v 0.00000 0.70000 0.30000
v 0.00000 0.60000 0.30000
v 0.10000 0.60000 0.30000
v 0.10000 0.70000 0.30000
v 0.00000 0.60000 0.40000
v 0.00000 0.50000 0.40000
v 0.10000 0.50000 0.40000
v 0.10000 0.60000 0.40000
v -0.10000 0.70000 -0.10000
v -0.20000 0.40000 0.10000
v -0.10000 0.10000 -0.10000
v 0.10000 0.10000 -0.10000
v 0.00000 0.60000 0.20000
v 0.20000 0.70000 -0.10000
v 0.30000 0.40000 0.10000
v 0.00000 0.10000 -0.10000
v 0.20000 0.10000 -0.10000
v 0.10000 0.60000 0.20000
v -0.20000 0.50000 -0.20000
v -0.20000 0.50000 -0.10000
v 0.30000 0.50000 -0.10000
v 0.30000 0.50000 -0.20000
v -0.20000 0.20000 -0.10000
v 0.30000 0.20000 -0.10000
v -0.20000 0.30000 -0.30000
v 0.30000 0.30000 -0.30000

vt 0.01563 0.12500
vt 0.01563 0.03125
vt 0.06250 0.03125
vt 0.06250 0.12500
vt 0.09375 0.12500
vt 0.09375 0.03125
vt 0.14063 0.03125
vt 0.14063 0.12500
vt 0.17188 0.09375
vt 0.17188 0.03125
vt 0.21875 0.03125
vt 0.21875 0.09375
vt 0.25000 0.09375
vt 0.25000 0.03125
vt 0.28125 0.03125
vt 0.28125 0.09375
vt 0.31250 0.09375
vt 0.31250 0.03125
vt 0.34375 0.03125
vt 0.34375 0.09375
vt 0.37500 0.09375
vt 0.37500 0.03125
vt 0.40625 0.03125
vt 0.40625 0.09375
vt 0.43750 0.09375
vt 0.43750 0.03125
vt 0.46875 0.03125
vt 0.46875 0.09375
vt 0.50000 0.09375
vt 0.50000 0.03125
vt 0.51563 0.03125
vt 0.51563 0.09375
vt 0.54688 0.09375
vt 0.54688 0.03125
vt 0.56250 0.03125
vt 0.56250 0.09375
vt 0.59375 0.09375
vt 0.59375 0.03125
vt 0.60938 0.03125
vt 0.60938 0.09375
vt 0.64063 0.09375
vt 0.64063 0.03125
vt 0.65625 0.03125
vt 0.65625 0.09375
vt 0.68750 0.09375
vt 0.68750 0.03125
vt 0.70313 0.03125
vt 0.70313 0.09375
vt 0.73438 0.09375
vt 0.73438 0.03125
vt 0.75000 0.03125
vt 0.75000 0.09375
vt 0.78125 0.09375
vt 0.78125 0.03125
vt 0.79688 0.03125
vt 0.79688 0.09375
vt 0.82813 0.09375
vt 0.82813 0.03125
vt 0.84375 0.03125
vt 0.84375 0.09375
vt 0.87500 0.09375
vt 0.87500 0.03125
vt 0.89063 0.03125
vt 0.89063 0.09375
vt 0.92188 0.09375
vt 0.92188 0.03125
vt 0.93750 0.03125
vt 0.93750 0.09375
vt 0.96875 0.09375
vt 0.96875 0.03125
vt 0.98438 0.03125
vt 0.98438 0.09375
vt 0.01563 0.25000
vt 0.01563 0.18750
vt 0.03125 0.18750
vt 0.03125 0.25000
vt 0.06250 0.25000
vt 0.06250 0.18750
vt 0.07813 0.18750
vt 0.07813 0.25000
vt 0.10938 0.25000
vt 0.10938 0.18750
vt 0.12500 0.18750
vt 0.12500 0.25000
vt 0.15625 0.25000
vt 0.15625 0.18750
vt 0.17188 0.18750
vt 0.17188 0.25000
vt 0.20313 0.21875
vt 0.20313 0.18750
vt 0.28125 0.18750
vt 0.28125 0.21875
vt 0.31250 0.21875
vt 0.31250 0.18750
vt 0.39063 0.18750
vt 0.39063 0.21875
vt 0.42188 0.21875
vt 0.42188 0.18750
vt 0.50000 0.18750
vt 0.50000 0.21875
vt 0.53125 0.21875
vt 0.53125 0.18750
vt 0.60938 0.18750
vt 0.60938 0.21875
vt 0.64063 0.21875
vt 0.64063 0.18750
vt 0.71875 0.18750
vt 0.71875 0.21875
vt 0.75000 0.21875
vt 0.75000 0.18750
vt 0.82813 0.18750
vt 0.82813 0.21875
vt 0.85938 0.21875
vt 0.85938 0.18750
vt 0.92188 0.18750
vt 0.92188 0.21875
vt 0.01563 0.34375
vt 0.01563 0.31250
vt 0.07813 0.31250
vt 0.07813 0.34375
vt 0.10938 0.34375
vt 0.10938 0.31250
vt 0.15625 0.31250
vt 0.15625 0.34375
vt 0.18750 0.34375
vt 0.18750 0.31250
vt 0.23438 0.31250
vt 0.23438 0.34375
vt 0.26563 0.34375
vt 0.26563 0.31250
vt 0.31250 0.31250
vt 0.31250 0.34375
vt 0.34375 0.34375
vt 0.34375 0.31250
vt 0.39063 0.31250
vt 0.39063 0.34375
vt 0.42188 0.34375
vt 0.42188 0.31250
vt 0.46875 0.31250
vt 0.46875 0.34375
vt 0.95313 0.21875
vt 0.95313 0.18750
vt 0.98438 0.18750
vt 0.98438 0.21875
vt 0.50000 0.34375
vt 0.50000 0.31250
vt 0.53125 0.31250
vt 0.53125 0.34375
vt 0.56250 0.34375
vt 0.56250 0.31250
vt 0.59375 0.31250
vt 0.59375 0.34375
vt 0.62500 0.34375
vt 0.62500 0.31250
vt 0.65625 0.31250
vt 0.65625 0.34375
vt 0.68750 0.34375
vt 0.68750 0.31250
vt 0.71875 0.31250
vt 0.71875 0.34375
vt 0.75000 0.34375
vt 0.75000 0.31250
vt 0.78125 0.31250
vt 0.78125 0.34375
vt 0.81250 0.34375
vt 0.81250 0.31250
vt 0.84375 0.31250
vt 0.84375 0.34375
vt 0.87500 0.34375
vt 0.87500 0.31250
vt 0.90625 0.31250
vt 0.90625 0.34375
vt 0.93750 0.34375
vt 0.93750 0.31250
vt 0.96875 0.31250
vt 0.96875 0.34375
vt 0.01563 0.43750
vt 0.01563 0.40625
vt 0.04688 0.40625
vt 0.04688 0.43750
vt 0.07813 0.43750
vt 0.07813 0.40625
vt 0.09375 0.40625
vt 0.09375 0.43750
vt 0.12500 0.43750
vt 0.12500 0.40625
vt 0.14063 0.40625
vt 0.14063 0.43750
vt 0.17188 0.43750
vt 0.17188 0.40625
vt 0.18750 0.40625
vt 0.18750 0.43750
vt 0.21875 0.43750
vt 0.21875 0.40625
vt 0.23438 0.40625
vt 0.23438 0.43750
vt 0.26563 0.43750
vt 0.26563 0.40625
vt 0.28125 0.40625
vt 0.28125 0.43750
vt 0.31250 0.43750
vt 0.31250 0.40625
vt 0.32813 0.40625
vt 0.32813 0.43750
vt 0.35938 0.43750
vt 0.35938 0.40625
vt 0.37500 0.40625
vt 0.37500 0.43750
vt 0.40625 0.43750
vt 0.40625 0.40625
vt 0.42188 0.40625
vt 0.42188 0.43750
vt 0.45313 0.43750
vt 0.45313 0.40625
vt 0.46875 0.40625
vt 0.46875 0.43750
vt 0.50000 0.43750
vt 0.50000 0.40625
vt 0.51563 0.40625
vt 0.51563 0.43750
vt 0.54688 0.43750
vt 0.54688 0.40625
vt 0.56250 0.40625
vt 0.56250 0.43750
vt 0.59375 0.43750
vt 0.59375 0.40625
vt 0.60938 0.40625
vt 0.60938 0.43750
vt 0.64063 0.43750
vt 0.64063 0.40625
vt 0.65625 0.40625
vt 0.65625 0.43750
vt 0.68750 0.43750
vt 0.68750 0.40625
vt 0.70313 0.40625
vt 0.70313 0.43750
vt 0.73438 0.43750
vt 0.73438 0.40625
vt 0.75000 0.40625
vt 0.75000 0.43750
vt 0.78125 0.43750
vt 0.78125 0.40625
vt 0.79688 0.40625
vt 0.79688 0.43750
vt 0.82813 0.43750
vt 0.82813 0.40625
vt 0.84375 0.40625
vt 0.84375 0.43750
vt 0.87500 0.43750
vt 0.87500 0.40625
vt 0.89063 0.40625
vt 0.89063 0.43750
vt 0.92188 0.43750
vt 0.92188 0.40625
vt 0.93750 0.40625
vt 0.93750 0.43750
vt 0.96875 0.43750
vt 0.96875 0.40625
vt 0.98438 0.40625
vt 0.98438 0.43750
vt 0.01563 0.53125
vt 0.01563 0.50000
vt 0.03125 0.50000
vt 0.03125 0.53125
vt 0.06250 0.53125
vt 0.06250 0.50000
vt 0.07813 0.50000
vt 0.07813 0.53125
vt 0.10938 0.53125
vt 0.10938 0.50000
vt 0.12500 0.50000
vt 0.12500 0.53125
vt 0.15625 0.53125
vt 0.15625 0.50000
vt 0.17188 0.50000
vt 0.17188 0.53125
vt 0.20313 0.53125
vt 0.20313 0.50000
vt 0.21875 0.50000
vt 0.21875 0.53125
vt 0.25000 0.53125
vt 0.25000 0.50000
vt 0.26563 0.50000
vt 0.26563 0.53125
vt 0.29688 0.53125
vt 0.29688 0.50000
vt 0.31250 0.50000
vt 0.31250 0.53125
vt 0.34375 0.53125
vt 0.34375 0.50000
vt 0.35938 0.50000
vt 0.35938 0.53125
vt 0.39063 0.53125
vt 0.39063 0.50000
vt 0.40625 0.50000
vt 0.40625 0.53125
vt 0.43750 0.53125
vt 0.43750 0.50000
vt 0.45313 0.50000
vt 0.45313 0.53125
vt 0.48438 0.53125
vt 0.48438 0.50000
vt 0.50000 0.50000
vt 0.50000 0.53125
vt 0.53125 0.53125
vt 0.53125 0.50000
vt 0.54688 0.50000
vt 0.54688 0.53125
vt 0.57813 0.53125
vt 0.57813 0.50000
vt 0.59375 0.50000
vt 0.59375 0.53125
vt 0.62500 0.53125
vt 0.62500 0.50000
vt 0.64063 0.50000
vt 0.64063 0.53125
vt 0.67188 0.53125
vt 0.67188 0.50000
vt 0.68750 0.50000
vt 0.68750 0.53125
vt 0.71875 0.53125
vt 0.71875 0.50000
vt 0.73438 0.50000
vt 0.73438 0.53125
vt 0.76563 0.53125
vt 0.76563 0.50000
vt 0.78125 0.50000
vt 0.78125 0.53125
vt 0.81250 0.53125
vt 0.81250 0.50000
vt 0.82813 0.50000
vt 0.82813 0.53125
vt 0.85938 0.53125
vt 0.85938 0.50000
vt 0.87500 0.50000
vt 0.87500 0.53125
vt 0.90625 0.53125
vt 0.90625 0.50000
vt 0.92188 0.50000
vt 0.92188 0.53125
vt 0.95313 0.53125
vt 0.95313 0.50000
vt 0.96875 0.50000
vt 0.96875 0.53125
vt 0.01563 0.62500
vt 0.01563 0.59375
vt 0.03125 0.59375
vt 0.03125 0.62500
vt 0.06250 0.62500
vt 0.06250 0.59375
vt 0.07813 0.59375
vt 0.07813 0.62500
vt 0.10938 0.62500
vt 0.10938 0.59375
vt 0.12500 0.59375
vt 0.12500 0.62500
vt 0.15625 0.62500
vt 0.15625 0.59375
vt 0.17188 0.59375
vt 0.17188 0.62500
vt 0.20313 0.62500
vt 0.20313 0.59375
vt 0.21875 0.59375
vt 0.21875 0.62500
vt 0.25000 0.62500
vt 0.25000 0.59375
vt 0.26563 0.59375
vt 0.26563 0.62500
vt 0.29688 0.62500
vt 0.29688 0.59375
vt 0.31250 0.59375
vt 0.31250 0.62500
vt 0.34375 0.62500
vt 0.34375 0.59375
vt 0.35938 0.59375
vt 0.35938 0.62500
vt 0.39063 0.62500
vt 0.39063 0.59375
vt 0.40625 0.59375
vt 0.40625 0.62500
vt 0.43750 0.62500
vt 0.43750 0.59375
vt 0.45313 0.59375
vt 0.45313 0.62500
vt 0.48438 0.62500
vt 0.48438 0.59375
vt 0.50000 0.59375
vt 0.50000 0.62500
vt 0.53125 0.62500
vt 0.53125 0.59375
vt 0.54688 0.59375
vt 0.54688 0.62500
vt 0.57813 0.62500
vt 0.57813 0.59375
vt 0.59375 0.59375
vt 0.59375 0.62500
vt 0.62500 0.62500
vt 0.62500 0.59375
vt 0.64063 0.59375
vt 0.64063 0.62500
vt 0.67188 0.62500
vt 0.67188 0.59375
vt 0.68750 0.59375
vt 0.68750 0.62500
vt 0.71875 0.62500
vt 0.71875 0.59375
vt 0.73438 0.59375
vt 0.73438 0.62500
vt 0.76563 0.62500
vt 0.76563 0.59375
vt 0.78125 0.59375
vt 0.78125 0.62500
vt 0.81250 0.62500
vt 0.81250 0.59375
vt 0.82813 0.59375
vt 0.82813 0.62500
vt 0.85938 0.62500
vt 0.85938 0.59375
vt 0.87500 0.59375
vt 0.87500 0.62500
vt 0.90625 0.62500
vt 0.90625 0.59375
vt 0.92188 0.59375
vt 0.92188 0.62500
vt 0.95313 0.62500
vt 0.95313 0.59375
vt 0.96875 0.59375
vt 0.96875 0.62500
vt 0.01563 0.71875
vt 0.01563 0.68750
vt 0.03125 0.68750
vt 0.03125 0.71875

g crow
usemtl crow_Material
f 4/1/5 85/2/5 88/3/5 1/4/5
f 1/5/2 2/6/2 3/7/2 4/8/2
f 65/9/1 66/10/1 67/11/1 68/12/1
f 73/13/1 74/14/1 75/15/1 76/16/1
f 76/17/4 75/18/4 18/19/4 17/20/4
f 16/21/3 15/22/3 70/23/3 69/24/3
f 69/25/1 70/26/1 71/27/1 72/28/1
f 5/29/2 6/30/2 7/31/2 8/32/2
f 68/33/4 67/34/4 82/35/4 81/36/4
f 20/37/4 19/38/4 2/39/4 134/40/4
f 104/41/6 7/42/6 6/43/6 105/44/6
f 20/45/5 87/46/5 76/47/5 17/48/5
f 16/49/5 69/50/5 86/51/5 13/52/5
f 9/53/2 10/54/2 11/55/2 12/56/2
f 81/57/1 82/58/1 83/59/1 84/60/1
f 77/61/1 78/62/1 79/63/1 80/64/1
f 17/65/2 18/66/2 19/67/2 20/68/2
f 80/69/3 79/70/3 66/71/3 65/72/3
f 129/73/3 3/74/3 14/75/3 13/76/3
f 13/77/2 14/78/2 15/79/2 16/80/2
f 126/81/6 71/82/6 74/83/6 127/84/6
f 111/85/6 11/86/6 10/87/6 112/88/6
f 24/89/5 31/90/5 46/91/5 21/92/5
f 139/93/5 140/94/5 141/95/5 142/96/5
f 143/97/6 51/98/6 62/99/6 144/100/6
f 135/101/4 83/102/4 22/103/4 21/104/4
f 21/105/2 22/106/2 23/107/2 24/108/2
f 24/109/3 23/110/3 78/111/3 130/112/3
f 32/113/3 31/114/3 130/115/3 77/116/3
f 84/117/4 135/118/4 46/119/4 45/120/4
f 4/121/3 129/122/3 86/123/3 85/124/3
f 50/125/6 35/126/6 42/127/6 63/128/6
f 88/129/4 87/130/4 134/131/4 1/132/4
f 107/133/6 91/134/6 99/135/6 116/136/6
f 85/137/1 86/138/1 87/139/1 88/140/1
f 102/141/4 101/142/4 62/143/4 61/144/4
f 132/145/3 11/146/3 111/147/3 110/148/3
f 128/149/4 127/150/4 74/151/4 138/152/4
f 113/153/4 112/154/4 10/155/4 137/156/4
f 106/157/4 105/158/4 6/159/4 136/160/4
f 131/161/3 7/162/3 104/163/3 103/164/3
f 52/165/3 51/166/3 90/167/3 89/168/3
f 145/169/6 23/170/6 28/171/6 33/172/6
f 133/173/3 71/174/3 126/175/3 125/176/3
f 44/177/6 25/178/6 22/179/6 146/180/6
f 110/181/1 111/182/1 112/183/1 113/184/1
f 29/185/2 30/186/2 31/187/2 32/188/2
f 25/189/2 26/190/2 27/191/2 28/192/2
f 79/193/1 107/194/1 108/195/1 109/196/1
f 96/197/1 97/198/1 98/199/1 99/200/1
f 100/201/1 99/202/1 101/203/1 102/204/1
f 103/205/1 104/206/1 105/207/1 106/208/1
f 70/209/6 77/210/6 80/211/6 65/212/6
f 114/213/1 115/214/1 116/215/1 82/216/1
f 117/217/1 118/218/1 119/219/1 120/220/1
f 121/221/1 122/222/1 123/223/1 124/224/1
f 68/225/6 81/226/6 84/227/6 75/228/6
f 66/229/6 79/230/6 109/231/6 117/232/6
f 118/233/6 108/234/6 115/235/6 119/236/6
f 120/237/6 114/238/6 82/239/6 67/240/6
f 61/241/2 62/242/2 63/243/2 64/244/2
f 57/245/2 58/246/2 59/247/2 60/248/2
f 53/249/2 54/250/2 55/251/2 56/252/2
f 82/253/6 100/254/6 102/255/6 83/256/6
f 95/257/6 5/258/6 12/259/6 96/260/6
f 99/261/6 9/262/6 144/263/6 101/264/6
f 78/265/6 89/266/6 92/267/6 79/268/6
f 49/269/2 50/270/2 51/271/2 52/272/2
f 33/273/2 34/274/2 35/275/2 36/276/2
f 89/277/1 90/278/1 91/279/1 92/280/1
f 91/281/1 93/282/1 94/283/1 95/284/1
f 90/285/6 143/286/6 8/287/6 91/288/6
f 45/289/2 46/290/2 47/291/2 48/292/2
f 41/293/2 42/294/2 43/295/2 44/296/2
f 37/297/2 38/298/2 39/299/2 40/300/2
f 125/301/1 126/302/1 127/303/1 128/304/1
f 32/305/5 139/306/5 56/307/5 29/308/5
f 124/309/4 123/310/4 138/311/4 73/312/4
f 40/313/5 53/314/5 60/315/5 37/316/5
f 30/317/5 55/318/5 54/319/5 39/320/5
f 99/321/4 98/322/4 137/323/4 9/324/4
f 95/325/4 94/326/4 136/327/4 5/328/4
f 120/329/4 119/330/4 115/331/4 114/332/4
f 82/333/4 116/334/4 99/335/4 100/336/4
f 97/337/5 110/338/5 113/339/5 98/340/5
f 93/341/5 103/342/5 106/343/5 94/344/5
f 122/345/5 125/346/5 128/347/5 123/348/5
f 72/349/5 121/350/5 124/351/5 73/352/5
f 48/353/5 57/354/5 142/355/5 45/356/5
f 38/357/5 59/358/5 58/359/5 47/360/5
f 2/361/5 19/362/5 18/363/5 141/364/5
f 140/365/5 15/366/5 14/367/5 3/368/5
f 40/369/3 39/370/3 54/371/3 53/372/3
f 36/373/3 35/374/3 50/375/3 49/376/3
f 8/377/3 131/378/3 93/379/3 91/380/3
f 48/381/3 47/382/3 58/383/3 57/384/3
f 52/385/6 145/386/6 36/387/6 49/388/6
f 64/389/6 41/390/6 146/391/6 61/392/6
f 28/393/3 27/394/3 34/395/3 33/396/3
f 34/397/6 27/398/6 26/399/6 43/400/6
f 56/401/4 55/402/4 30/403/4 29/404/4
f 44/405/4 43/406/4 26/407/4 25/408/4
f 64/409/4 63/410/4 42/411/4 41/412/4
f 60/413/4 59/414/4 38/415/4 37/416/4
f 92/417/3 91/418/3 107/419/3 79/420/3
f 12/421/3 132/422/3 97/423/3 96/424/3
f 72/425/3 133/426/3 122/427/3 121/428/3
f 109/429/3 108/430/3 118/431/3 117/432/3
