# This file was created with Minddesk Qubicle 3.0
# Get Qubicle at www.getqubicle.com

mtllib rock2.mtl

vn 0.0 0.0 1.0
vn 0.0 0.0 -1.0
vn -1.0 0.0 0.0
vn 1.0 0.0 0.0
vn 0.0 1.0 0.0
vn 0.0 -1.0 0.0

v 0.50000 0.60000 -0.60000
v 0.50000 0.00000 -0.60000
v 0.00000 0.00000 -0.60000
v 0.00000 0.60000 -0.60000
v 0.00000 0.50000 -0.50000
v 0.00000 0.00000 -0.50000
v -0.50000 0.00000 -0.50000
v -0.50000 0.50000 -0.50000
v 0.10000 0.80000 -0.30000
v 0.10000 0.60000 -0.30000
v -0.40000 0.60000 -0.30000
v -0.40000 0.80000 -0.30000
v -0.50000 0.20000 -0.10000
v -0.50000 0.00000 -0.10000
v -0.60000 0.00000 -0.10000
v -0.60000 0.20000 -0.10000
v 0.00000 0.60000 -0.30000
v 0.00000 0.50000 -0.30000
v -0.40000 0.50000 -0.30000
v 0.30000 0.50000 0.00000
v 0.30000 0.00000 0.00000
v 0.50000 0.00000 0.00000
v 0.50000 0.50000 0.00000
v -0.40000 0.80000 0.30000
v -0.40000 0.50000 0.30000
v 0.10000 0.50000 0.30000
v 0.10000 0.80000 0.30000
v -0.50000 0.50000 0.50000
v -0.50000 0.20000 0.50000
v 0.30000 0.20000 0.50000
v 0.30000 0.50000 0.50000
v -0.60000 0.20000 0.60000
v -0.60000 0.00000 0.60000
v 0.00000 0.00000 0.60000
v 0.00000 0.20000 0.60000
v 0.00000 0.20000 0.50000
v 0.00000 0.00000 0.50000
v 0.30000 0.00000 0.50000
v 0.10000 0.60000 0.00000
v 0.10000 0.50000 0.00000
v 0.50000 0.60000 0.00000
v 0.00000 0.50000 -0.60000
v -0.50000 0.20000 -0.50000
v 0.10000 0.60000 0.30000
v -0.50000 0.50000 -0.30000
v -0.50000 0.50000 0.30000
v -0.60000 0.20000 0.50000
v 0.50000 0.60000 -0.30000
v 0.30000 0.50000 0.30000
v -0.60000 0.00000 0.50000
v -0.60000 0.00000 0.00000
v 0.50000 0.00000 -0.50000
v 0.50000 0.00000 -0.10000

vt 0.01563 0.21875
vt 0.01563 0.03125
vt 0.10938 0.03125
vt 0.10938 0.21875
vt 0.14063 0.21875
vt 0.14063 0.03125
vt 0.21875 0.03125
vt 0.21875 0.21875
vt 0.25000 0.21875
vt 0.25000 0.03125
vt 0.32813 0.03125
vt 0.32813 0.21875
vt 0.35938 0.21875
vt 0.35938 0.03125
vt 0.37500 0.03125
vt 0.37500 0.21875
vt 0.40625 0.21875
vt 0.40625 0.03125
vt 0.42188 0.03125
vt 0.42188 0.21875
vt 0.45313 0.18750
vt 0.45313 0.03125
vt 0.59375 0.03125
vt 0.59375 0.18750
vt 0.62500 0.18750
vt 0.62500 0.03125
vt 0.70313 0.03125
vt 0.70313 0.18750
vt 0.73438 0.18750
vt 0.73438 0.03125
vt 0.81250 0.03125
vt 0.81250 0.18750
vt 0.84375 0.18750
vt 0.84375 0.03125
vt 0.87500 0.03125
vt 0.87500 0.18750
vt 0.90625 0.18750
vt 0.90625 0.03125
vt 0.92188 0.03125
vt 0.92188 0.18750
vt 0.01563 0.40625
vt 0.01563 0.28125
vt 0.17188 0.28125
vt 0.17188 0.40625
vt 0.20313 0.37500
vt 0.20313 0.28125
vt 0.35938 0.28125
vt 0.35938 0.37500
vt 0.39063 0.37500
vt 0.39063 0.28125
vt 0.51563 0.28125
vt 0.51563 0.37500
vt 0.54688 0.37500
vt 0.54688 0.28125
vt 0.64063 0.28125
vt 0.64063 0.37500
vt 0.67188 0.37500
vt 0.67188 0.28125
vt 0.75000 0.28125
vt 0.75000 0.37500
vt 0.78125 0.37500
vt 0.78125 0.28125
vt 0.85938 0.28125
vt 0.85938 0.37500
vt 0.89063 0.37500
vt 0.89063 0.28125
vt 0.95313 0.28125
vt 0.95313 0.37500
vt 0.95313 0.12500
vt 0.95313 0.03125
vt 0.98438 0.03125
vt 0.98438 0.12500
vt 0.01563 0.53125
vt 0.01563 0.46875
vt 0.14063 0.46875
vt 0.14063 0.53125
vt 0.17188 0.53125
vt 0.17188 0.46875
vt 0.28125 0.46875
vt 0.28125 0.53125
vt 0.31250 0.53125
vt 0.31250 0.46875
vt 0.40625 0.46875
vt 0.40625 0.53125
vt 0.43750 0.53125
vt 0.43750 0.46875
vt 0.53125 0.46875
vt 0.53125 0.53125
vt 0.56250 0.53125
vt 0.56250 0.46875
vt 0.64063 0.46875
vt 0.64063 0.53125
vt 0.67188 0.53125
vt 0.67188 0.46875
vt 0.75000 0.46875
vt 0.75000 0.53125
vt 0.78125 0.53125
vt 0.78125 0.46875
vt 0.84375 0.46875
vt 0.84375 0.53125
vt 0.87500 0.53125
vt 0.87500 0.46875
vt 0.92188 0.46875
vt 0.92188 0.53125
vt 0.95313 0.53125
vt 0.95313 0.46875
vt 0.96875 0.46875
vt 0.96875 0.53125
vt 0.01563 0.65625
vt 0.01563 0.59375
vt 0.03125 0.59375
vt 0.03125 0.65625
vt 0.06250 0.62500
vt 0.06250 0.59375
vt 0.23438 0.59375
vt 0.23438 0.62500
vt 0.26563 0.62500
vt 0.26563 0.59375
vt 0.35938 0.59375
vt 0.35938 0.62500
vt 0.39063 0.62500
vt 0.39063 0.59375
vt 0.48438 0.59375
vt 0.48438 0.62500
vt 0.51563 0.62500
vt 0.51563 0.59375
vt 0.59375 0.59375
vt 0.59375 0.62500
vt 0.62500 0.62500
vt 0.62500 0.59375
vt 0.68750 0.59375
vt 0.68750 0.62500
vt 0.71875 0.62500
vt 0.71875 0.59375
vt 0.78125 0.59375
vt 0.78125 0.62500
vt 0.81250 0.62500
vt 0.81250 0.59375
vt 0.85938 0.59375
vt 0.85938 0.62500
vt 0.89063 0.62500
vt 0.89063 0.59375
vt 0.93750 0.59375
vt 0.93750 0.62500

g rock2
usemtl rock2_Material
f 41/1/4 22/2/4 2/3/4 1/4/4
f 12/5/5 24/6/5 27/7/5 9/8/5
f 1/9/2 2/10/2 3/11/2 4/12/2
f 16/13/5 47/14/5 29/15/5 13/16/5
f 45/17/5 46/18/5 25/19/5 19/20/5
f 50/21/6 51/22/6 21/23/6 38/24/6
f 31/25/4 38/26/4 21/27/4 20/28/4
f 5/29/2 6/30/2 7/31/2 8/32/2
f 20/33/1 21/34/1 22/35/1 23/36/1
f 42/37/3 3/38/3 6/39/3 5/40/3
f 14/41/6 7/42/6 52/43/6 53/44/6
f 8/45/3 43/46/3 29/47/3 28/48/3
f 28/49/1 29/50/1 30/51/1 31/52/1
f 12/53/3 19/54/3 25/55/3 24/56/3
f 24/57/1 25/58/1 26/59/1 27/60/1
f 4/61/5 17/62/5 48/63/5 1/64/5
f 10/65/5 39/66/5 41/67/5 48/68/5
f 40/69/5 26/70/5 49/71/5 20/72/5
f 46/73/5 28/74/5 31/75/5 49/76/5
f 16/77/3 15/78/3 33/79/3 32/80/3
f 32/81/1 33/82/1 34/83/1 35/84/1
f 27/85/4 44/86/4 10/87/4 9/88/4
f 9/89/2 10/90/2 11/91/2 12/92/2
f 8/93/5 45/94/5 18/95/5 5/96/5
f 43/97/3 7/98/3 14/99/3 13/100/3
f 36/101/1 37/102/1 38/103/1 30/104/1
f 35/105/4 34/106/4 37/107/4 36/108/4
f 13/109/2 14/110/2 15/111/2 16/112/2
f 51/113/6 15/114/6 53/115/6 22/116/6
f 33/117/6 50/118/6 37/119/6 34/120/6
f 47/121/5 32/122/5 35/123/5 36/124/5
f 6/125/6 3/126/6 2/127/6 52/128/6
f 39/129/1 40/130/1 23/131/1 41/132/1
f 17/133/2 18/134/2 19/135/2 11/136/2
f 4/137/3 42/138/3 18/139/3 17/140/3
f 44/141/4 26/142/4 40/143/4 39/144/4
