# This file was created with Minddesk Qubicle 3.0
# Get Qubicle at www.getqubicle.com

mtllib barrel.mtl

vn 0.0 0.0 1.0
vn 0.0 0.0 -1.0
vn -1.0 0.0 0.0
vn 1.0 0.0 0.0
vn 0.0 1.0 0.0
vn 0.0 -1.0 0.0

v 0.40000 1.20000 -0.50000
v 0.40000 0.20000 -0.50000
v -0.40000 0.20000 -0.50000
v -0.40000 1.20000 -0.50000
v -0.40000 1.20000 -0.40000
v -0.40000 0.20000 -0.40000
v -0.50000 0.20000 -0.40000
v -0.50000 1.20000 -0.40000
v 0.50000 1.20000 -0.40000
v 0.50000 0.20000 -0.40000
v 0.40000 0.20000 -0.40000
v 0.40000 1.20000 -0.40000
v 0.30000 0.20000 -0.40000
v 0.30000 0.00000 -0.40000
v -0.30000 0.00000 -0.40000
v -0.30000 0.20000 -0.40000
v 0.30000 1.40000 -0.40000
v 0.30000 1.20000 -0.40000
v -0.30000 1.20000 -0.40000
v -0.30000 1.40000 -0.40000
v -0.30000 0.20000 -0.30000
v -0.30000 0.00000 -0.30000
v -0.40000 0.00000 -0.30000
v -0.40000 0.20000 -0.30000
v -0.30000 1.40000 -0.30000
v -0.30000 1.20000 -0.30000
v -0.40000 1.20000 -0.30000
v -0.40000 1.40000 -0.30000
v 0.40000 0.20000 -0.30000
v 0.40000 0.00000 -0.30000
v 0.30000 0.00000 -0.30000
v 0.30000 0.20000 -0.30000
v 0.40000 1.40000 -0.30000
v 0.40000 1.20000 -0.30000
v 0.30000 1.20000 -0.30000
v 0.30000 1.40000 -0.30000
v -0.40000 1.20000 0.50000
v -0.40000 0.20000 0.50000
v 0.40000 0.20000 0.50000
v 0.40000 1.20000 0.50000
v -0.50000 1.20000 0.40000
v -0.50000 0.20000 0.40000
v -0.40000 0.20000 0.40000
v -0.40000 1.20000 0.40000
v 0.40000 1.20000 0.40000
v 0.40000 0.20000 0.40000
v 0.50000 0.20000 0.40000
v 0.50000 1.20000 0.40000
v -0.30000 0.20000 0.40000
v -0.30000 0.00000 0.40000
v 0.30000 0.00000 0.40000
v 0.30000 0.20000 0.40000
v -0.30000 1.40000 0.40000
v -0.30000 1.20000 0.40000
v 0.30000 1.20000 0.40000
v 0.30000 1.40000 0.40000
v -0.40000 0.20000 0.30000
v -0.40000 0.00000 0.30000
v -0.30000 0.00000 0.30000
v -0.30000 0.20000 0.30000
v -0.40000 1.40000 0.30000
v -0.40000 1.20000 0.30000
v -0.30000 1.20000 0.30000
v -0.30000 1.40000 0.30000
v 0.30000 0.20000 0.30000
v 0.30000 0.00000 0.30000
v 0.40000 0.00000 0.30000
v 0.40000 0.20000 0.30000
v 0.30000 1.40000 0.30000
v 0.30000 1.20000 0.30000
v 0.40000 1.20000 0.30000
v 0.40000 1.40000 0.30000
v -0.50000 1.20000 -0.30000
v -0.50000 1.20000 0.30000
v 0.50000 1.20000 0.30000
v 0.50000 1.20000 -0.30000
v -0.50000 0.20000 0.30000
v -0.50000 0.20000 -0.30000
v 0.50000 0.20000 -0.30000
v 0.50000 0.20000 0.30000

vt 0.01563 0.34375
vt 0.01563 0.03125
vt 0.14063 0.03125
vt 0.14063 0.34375
vt 0.17188 0.34375
vt 0.17188 0.03125
vt 0.29688 0.03125
vt 0.29688 0.34375
vt 0.32813 0.34375
vt 0.32813 0.03125
vt 0.45313 0.03125
vt 0.45313 0.34375
vt 0.48438 0.34375
vt 0.48438 0.03125
vt 0.60938 0.03125
vt 0.60938 0.34375
vt 0.64063 0.34375
vt 0.64063 0.03125
vt 0.65625 0.03125
vt 0.65625 0.34375
vt 0.68750 0.34375
vt 0.68750 0.03125
vt 0.70313 0.03125
vt 0.70313 0.34375
vt 0.73438 0.34375
vt 0.73438 0.03125
vt 0.75000 0.03125
vt 0.75000 0.34375
vt 0.78125 0.34375
vt 0.78125 0.03125
vt 0.79688 0.03125
vt 0.79688 0.34375
vt 0.82813 0.34375
vt 0.82813 0.03125
vt 0.84375 0.03125
vt 0.84375 0.34375
vt 0.87500 0.34375
vt 0.87500 0.03125
vt 0.89063 0.03125
vt 0.89063 0.34375
vt 0.92188 0.34375
vt 0.92188 0.03125
vt 0.93750 0.03125
vt 0.93750 0.34375
vt 0.96875 0.34375
vt 0.96875 0.03125
vt 0.98438 0.03125
vt 0.98438 0.34375
vt 0.01563 0.59375
vt 0.01563 0.40625
vt 0.14063 0.40625
vt 0.14063 0.59375
vt 0.17188 0.59375
vt 0.17188 0.40625
vt 0.29688 0.40625
vt 0.29688 0.59375
vt 0.32813 0.59375
vt 0.32813 0.40625
vt 0.34375 0.40625
vt 0.34375 0.59375
vt 0.37500 0.59375
vt 0.37500 0.40625
vt 0.39063 0.40625
vt 0.39063 0.59375
vt 0.42188 0.59375
vt 0.42188 0.40625
vt 0.43750 0.40625
vt 0.43750 0.59375
vt 0.46875 0.59375
vt 0.46875 0.40625
vt 0.48438 0.40625
vt 0.48438 0.59375
vt 0.51563 0.46875
vt 0.51563 0.40625
vt 0.60938 0.40625
vt 0.60938 0.46875
vt 0.64063 0.46875
vt 0.64063 0.40625
vt 0.73438 0.40625
vt 0.73438 0.46875
vt 0.76563 0.46875
vt 0.76563 0.40625
vt 0.85938 0.40625
vt 0.85938 0.46875
vt 0.89063 0.46875
vt 0.89063 0.40625
vt 0.98438 0.40625
vt 0.98438 0.46875
vt 0.51563 0.59375
vt 0.51563 0.53125
vt 0.60938 0.53125
vt 0.60938 0.59375
vt 0.64063 0.59375
vt 0.64063 0.53125
vt 0.73438 0.53125
vt 0.73438 0.59375
vt 0.76563 0.59375
vt 0.76563 0.53125
vt 0.85938 0.53125
vt 0.85938 0.59375
vt 0.89063 0.59375
vt 0.89063 0.53125
vt 0.98438 0.53125
vt 0.98438 0.59375
vt 0.01563 0.71875
vt 0.01563 0.65625
vt 0.03125 0.65625
vt 0.03125 0.71875
vt 0.06250 0.71875
vt 0.06250 0.65625
vt 0.07813 0.65625
vt 0.07813 0.71875
vt 0.10938 0.71875
vt 0.10938 0.65625
vt 0.12500 0.65625
vt 0.12500 0.71875
vt 0.15625 0.71875
vt 0.15625 0.65625
vt 0.17188 0.65625
vt 0.17188 0.71875
vt 0.20313 0.71875
vt 0.20313 0.65625
vt 0.21875 0.65625
vt 0.21875 0.71875
vt 0.25000 0.71875
vt 0.25000 0.65625
vt 0.26563 0.65625
vt 0.26563 0.71875
vt 0.29688 0.71875
vt 0.29688 0.65625
vt 0.31250 0.65625
vt 0.31250 0.71875
vt 0.34375 0.71875
vt 0.34375 0.65625
vt 0.35938 0.65625
vt 0.35938 0.71875
vt 0.39063 0.71875
vt 0.39063 0.65625
vt 0.40625 0.65625
vt 0.40625 0.71875
vt 0.43750 0.71875
vt 0.43750 0.65625
vt 0.45313 0.65625
vt 0.45313 0.71875
vt 0.48438 0.71875
vt 0.48438 0.65625
vt 0.50000 0.65625
vt 0.50000 0.71875
vt 0.53125 0.71875
vt 0.53125 0.65625
vt 0.54688 0.65625
vt 0.54688 0.71875
vt 0.57813 0.71875
vt 0.57813 0.65625
vt 0.59375 0.65625
vt 0.59375 0.71875
vt 0.62500 0.71875
vt 0.62500 0.65625
vt 0.64063 0.65625
vt 0.64063 0.71875
vt 0.67188 0.71875
vt 0.67188 0.65625
vt 0.68750 0.65625
vt 0.68750 0.71875
vt 0.71875 0.71875
vt 0.71875 0.65625
vt 0.73438 0.65625
vt 0.73438 0.71875
vt 0.76563 0.68750
vt 0.76563 0.65625
vt 0.89063 0.65625
vt 0.89063 0.68750
vt 0.01563 0.81250
vt 0.01563 0.78125
vt 0.14063 0.78125
vt 0.14063 0.81250
vt 0.17188 0.81250
vt 0.17188 0.78125
vt 0.29688 0.78125
vt 0.29688 0.81250
vt 0.32813 0.81250
vt 0.32813 0.78125
vt 0.45313 0.78125
vt 0.45313 0.81250
vt 0.48438 0.81250
vt 0.48438 0.78125
vt 0.57813 0.78125
vt 0.57813 0.81250
vt 0.60938 0.81250
vt 0.60938 0.78125
vt 0.70313 0.78125
vt 0.70313 0.81250
vt 0.73438 0.81250
vt 0.73438 0.78125
vt 0.82813 0.78125
vt 0.82813 0.81250
vt 0.85938 0.81250
vt 0.85938 0.78125
vt 0.95313 0.78125
vt 0.95313 0.81250
vt 0.92188 0.68750
vt 0.92188 0.65625
vt 0.95313 0.65625
vt 0.95313 0.68750
vt 0.01563 0.90625
vt 0.01563 0.87500
vt 0.04688 0.87500
vt 0.04688 0.90625
vt 0.07813 0.90625
vt 0.07813 0.87500
vt 0.10938 0.87500
vt 0.10938 0.90625
vt 0.14063 0.90625
vt 0.14063 0.87500
vt 0.17188 0.87500
vt 0.17188 0.90625
vt 0.20313 0.90625
vt 0.20313 0.87500
vt 0.23438 0.87500
vt 0.23438 0.90625
vt 0.26563 0.90625
vt 0.26563 0.87500
vt 0.29688 0.87500
vt 0.29688 0.90625
vt 0.32813 0.90625
vt 0.32813 0.87500
vt 0.35938 0.87500
vt 0.35938 0.90625
vt 0.39063 0.90625
vt 0.39063 0.87500
vt 0.42188 0.87500
vt 0.42188 0.90625

g barrel
usemtl barrel_Material
f 37/1/1 38/2/1 39/3/1 40/4/1
f 8/5/3 7/6/3 42/7/3 41/8/3
f 48/9/4 47/10/4 10/11/4 9/12/4
f 1/13/2 2/14/2 3/15/2 4/16/2
f 44/17/3 43/18/3 38/19/3 37/20/3
f 40/21/4 39/22/4 46/23/4 45/24/4
f 12/25/4 11/26/4 2/27/4 1/28/4
f 4/29/3 3/30/3 6/31/3 5/32/3
f 41/33/1 42/34/1 43/35/1 44/36/1
f 9/37/2 10/38/2 11/39/2 12/40/2
f 5/41/2 6/42/2 7/43/2 8/44/2
f 45/45/1 46/46/1 47/47/1 48/48/1
f 28/49/5 61/50/5 72/51/5 33/52/5
f 58/53/6 23/54/6 30/55/6 67/56/6
f 34/57/5 71/58/5 75/59/5 76/60/5
f 73/61/5 74/62/5 62/63/5 27/64/5
f 77/65/6 78/66/6 24/67/6 57/68/6
f 68/69/6 29/70/6 79/71/6 80/72/6
f 13/73/2 14/74/2 15/75/2 16/76/2
f 17/77/2 18/78/2 19/79/2 20/80/2
f 68/81/4 67/82/4 30/83/4 29/84/4
f 72/85/4 71/86/4 34/87/4 33/88/4
f 28/89/3 27/90/3 62/91/3 61/92/3
f 24/93/3 23/94/3 58/95/3 57/96/3
f 49/97/1 50/98/1 51/99/1 52/100/1
f 53/101/1 54/102/1 55/103/1 56/104/1
f 61/105/1 62/106/1 63/107/1 64/108/1
f 57/109/1 58/110/1 59/111/1 60/112/1
f 69/113/1 70/114/1 71/115/1 72/116/1
f 65/117/1 66/118/1 67/119/1 68/120/1
f 25/121/2 26/122/2 27/123/2 28/124/2
f 21/125/2 22/126/2 23/127/2 24/128/2
f 33/129/2 34/130/2 35/131/2 36/132/2
f 29/133/2 30/134/2 31/135/2 32/136/2
f 16/137/3 15/138/3 22/139/3 21/140/3
f 60/141/3 59/142/3 50/143/3 49/144/3
f 20/145/3 19/146/3 26/147/3 25/148/3
f 56/149/4 55/150/4 70/151/4 69/152/4
f 64/153/3 63/154/3 54/155/3 53/156/3
f 52/157/4 51/158/4 66/159/4 65/160/4
f 32/161/4 31/162/4 14/163/4 13/164/4
f 36/165/4 35/166/4 18/167/4 17/168/4
f 44/169/5 37/170/5 40/171/5 45/172/5
f 38/173/6 43/174/6 46/175/6 39/176/6
f 6/177/6 3/178/6 2/179/6 11/180/6
f 4/181/5 5/182/5 12/183/5 1/184/5
f 50/185/6 59/186/6 66/187/6 51/188/6
f 64/189/5 53/190/5 56/191/5 69/192/5
f 20/193/5 25/194/5 36/195/5 17/196/5
f 22/197/6 15/198/6 14/199/6 31/200/6
f 32/201/6 13/202/6 10/203/6 79/204/6
f 74/205/5 41/206/5 54/207/5 63/208/5
f 52/209/6 65/210/6 80/211/6 47/212/6
f 42/213/6 77/214/6 60/215/6 49/216/6
f 78/217/6 7/218/6 16/219/6 21/220/6
f 70/221/5 55/222/5 48/223/5 75/224/5
f 18/225/5 35/226/5 76/227/5 9/228/5
f 8/229/5 73/230/5 26/231/5 19/232/5
