# This file was created with Minddesk Qubicle 3.0
# Get Qubicle at www.getqubicle.com

mtllib cowboy_smol.mtl

vn 0.0 0.0 1.0
vn 0.0 0.0 -1.0
vn -1.0 0.0 0.0
vn 1.0 0.0 0.0
vn 0.0 1.0 0.0
vn 0.0 -1.0 0.0

v 0.20000 1.10000 -0.10000
v 0.20000 0.50000 -0.10000
v -0.10000 0.50000 -0.10000
v -0.10000 1.10000 -0.10000
v -0.20000 0.70000 0.00000
v -0.20000 0.40000 0.00000
v -0.30000 0.40000 0.00000
v -0.30000 0.70000 0.00000
v 0.40000 0.70000 0.00000
v 0.40000 0.40000 0.00000
v 0.30000 0.40000 0.00000
v 0.30000 0.70000 0.00000
v 0.00000 0.20000 0.00000
v 0.00000 0.00000 0.00000
v -0.10000 0.00000 0.00000
v -0.10000 0.20000 0.00000
v 0.20000 0.20000 0.00000
v 0.20000 0.00000 0.00000
v 0.10000 0.00000 0.00000
v 0.10000 0.20000 0.00000
v 0.30000 1.20000 -0.20000
v 0.30000 1.10000 -0.20000
v -0.20000 1.10000 -0.20000
v -0.20000 1.20000 -0.20000
v 0.30000 0.30000 0.00000
v -0.20000 0.30000 0.00000
v 0.20000 1.30000 -0.10000
v 0.20000 1.20000 -0.10000
v -0.10000 1.20000 -0.10000
v -0.10000 1.30000 -0.10000
v 0.20000 0.50000 0.00000
v 0.20000 0.40000 0.00000
v -0.10000 0.40000 0.00000
v -0.10000 0.50000 0.00000
v 0.00000 0.30000 0.00000
v -0.20000 0.20000 0.00000
v 0.30000 0.20000 0.00000
v 0.10000 0.30000 0.00000
v 0.00000 1.40000 -0.10000
v 0.00000 1.30000 -0.10000
v -0.10000 1.40000 -0.10000
v 0.20000 1.40000 -0.10000
v 0.10000 1.30000 -0.10000
v 0.10000 1.40000 -0.10000
v -0.10000 0.80000 0.00000
v -0.10000 0.70000 0.00000
v -0.20000 0.80000 0.00000
v 0.30000 0.80000 0.00000
v 0.20000 0.70000 0.00000
v 0.20000 0.80000 0.00000
v -0.10000 1.10000 0.20000
v -0.10000 0.80000 0.20000
v 0.20000 0.80000 0.20000
v 0.20000 1.10000 0.20000
v -0.30000 0.70000 0.10000
v -0.30000 0.40000 0.10000
v -0.20000 0.40000 0.10000
v -0.20000 0.70000 0.10000
v 0.00000 0.80000 0.10000
v 0.00000 0.50000 0.10000
v 0.10000 0.50000 0.10000
v 0.10000 0.80000 0.10000
v 0.30000 0.70000 0.10000
v 0.30000 0.40000 0.10000
v 0.40000 0.40000 0.10000
v 0.40000 0.70000 0.10000
v -0.10000 0.50000 0.20000
v 0.00000 0.50000 0.20000
v 0.00000 0.80000 0.20000
v 0.10000 0.80000 0.20000
v 0.10000 0.50000 0.20000
v 0.20000 0.50000 0.20000
v -0.10000 0.20000 0.10000
v -0.10000 0.00000 0.10000
v 0.00000 0.00000 0.10000
v 0.00000 0.20000 0.10000
v 0.10000 0.20000 0.10000
v 0.10000 0.00000 0.10000
v 0.20000 0.00000 0.10000
v 0.20000 0.20000 0.10000
v -0.20000 0.30000 0.10000
v 0.30000 0.30000 0.10000
v -0.20000 1.20000 0.30000
v -0.20000 1.10000 0.30000
v 0.30000 1.10000 0.30000
v 0.30000 1.20000 0.30000
v -0.10000 0.50000 0.10000
v -0.10000 0.40000 0.10000
v 0.20000 0.40000 0.10000
v 0.20000 0.50000 0.10000
v -0.10000 1.30000 0.20000
v -0.10000 1.20000 0.20000
v 0.20000 1.20000 0.20000
v 0.20000 1.30000 0.20000
v -0.20000 0.20000 0.10000
v 0.00000 0.30000 0.10000
v 0.10000 0.30000 0.10000
v 0.30000 0.20000 0.10000
v -0.20000 0.80000 0.10000
v -0.10000 0.70000 0.10000
v -0.10000 0.80000 0.10000
v 0.20000 0.80000 0.10000
v 0.20000 0.70000 0.10000
v 0.30000 0.80000 0.10000
v -0.10000 1.40000 0.20000
v 0.00000 1.30000 0.20000
v 0.00000 1.40000 0.20000
v 0.10000 1.40000 0.20000
v 0.10000 1.30000 0.20000
v 0.20000 1.40000 0.20000
v -0.10000 0.80000 -0.10000
v -0.10000 0.70000 -0.10000
v -0.10000 0.70000 0.20000
v 0.20000 0.80000 -0.10000
v 0.20000 0.70000 0.20000
v 0.20000 0.70000 -0.10000
v -0.20000 1.20000 -0.10000
v -0.20000 1.20000 0.20000
v 0.30000 1.20000 0.20000
v 0.30000 1.20000 -0.10000
v -0.20000 1.10000 0.20000
v -0.20000 1.10000 -0.10000
v 0.30000 1.10000 -0.10000
v 0.30000 1.10000 0.20000

vt 0.01563 0.21875
vt 0.01563 0.03125
vt 0.06250 0.03125
vt 0.06250 0.21875
vt 0.09375 0.12500
vt 0.09375 0.03125
vt 0.14063 0.03125
vt 0.14063 0.12500
vt 0.17188 0.12500
vt 0.17188 0.03125
vt 0.21875 0.03125
vt 0.21875 0.12500
vt 0.25000 0.12500
vt 0.25000 0.03125
vt 0.29688 0.03125
vt 0.29688 0.12500
vt 0.32813 0.12500
vt 0.32813 0.03125
vt 0.34375 0.03125
vt 0.34375 0.12500
vt 0.37500 0.12500
vt 0.37500 0.03125
vt 0.39063 0.03125
vt 0.39063 0.12500
vt 0.42188 0.12500
vt 0.42188 0.03125
vt 0.43750 0.03125
vt 0.43750 0.12500
vt 0.46875 0.12500
vt 0.46875 0.03125
vt 0.48438 0.03125
vt 0.48438 0.12500
vt 0.51563 0.12500
vt 0.51563 0.03125
vt 0.53125 0.03125
vt 0.53125 0.12500
vt 0.56250 0.12500
vt 0.56250 0.03125
vt 0.57813 0.03125
vt 0.57813 0.12500
vt 0.60938 0.12500
vt 0.60938 0.03125
vt 0.62500 0.03125
vt 0.62500 0.12500
vt 0.65625 0.12500
vt 0.65625 0.03125
vt 0.67188 0.03125
vt 0.67188 0.12500
vt 0.70313 0.12500
vt 0.70313 0.03125
vt 0.71875 0.03125
vt 0.71875 0.12500
vt 0.75000 0.12500
vt 0.75000 0.03125
vt 0.76563 0.03125
vt 0.76563 0.12500
vt 0.79688 0.12500
vt 0.79688 0.03125
vt 0.81250 0.03125
vt 0.81250 0.12500
vt 0.84375 0.12500
vt 0.84375 0.03125
vt 0.85938 0.03125
vt 0.85938 0.12500
vt 0.89063 0.12500
vt 0.89063 0.03125
vt 0.90625 0.03125
vt 0.90625 0.12500
vt 0.93750 0.12500
vt 0.93750 0.03125
vt 0.95313 0.03125
vt 0.95313 0.12500
vt 0.01563 0.37500
vt 0.01563 0.28125
vt 0.03125 0.28125
vt 0.03125 0.37500
vt 0.06250 0.37500
vt 0.06250 0.28125
vt 0.07813 0.28125
vt 0.07813 0.37500
vt 0.10938 0.37500
vt 0.10938 0.28125
vt 0.12500 0.28125
vt 0.12500 0.37500
vt 0.15625 0.37500
vt 0.15625 0.28125
vt 0.17188 0.28125
vt 0.17188 0.37500
vt 0.20313 0.37500
vt 0.20313 0.28125
vt 0.21875 0.28125
vt 0.21875 0.37500
vt 0.25000 0.37500
vt 0.25000 0.28125
vt 0.26563 0.28125
vt 0.26563 0.37500
vt 0.29688 0.37500
vt 0.29688 0.28125
vt 0.31250 0.28125
vt 0.31250 0.37500
vt 0.34375 0.37500
vt 0.34375 0.28125
vt 0.35938 0.28125
vt 0.35938 0.37500
vt 0.39063 0.34375
vt 0.39063 0.28125
vt 0.43750 0.28125
vt 0.43750 0.34375
vt 0.46875 0.34375
vt 0.46875 0.28125
vt 0.51563 0.28125
vt 0.51563 0.34375
vt 0.54688 0.34375
vt 0.54688 0.28125
vt 0.59375 0.28125
vt 0.59375 0.34375
vt 0.62500 0.34375
vt 0.62500 0.28125
vt 0.67188 0.28125
vt 0.67188 0.34375
vt 0.70313 0.34375
vt 0.70313 0.28125
vt 0.71875 0.28125
vt 0.71875 0.34375
vt 0.75000 0.34375
vt 0.75000 0.28125
vt 0.76563 0.28125
vt 0.76563 0.34375
vt 0.79688 0.34375
vt 0.79688 0.28125
vt 0.81250 0.28125
vt 0.81250 0.34375
vt 0.84375 0.34375
vt 0.84375 0.28125
vt 0.85938 0.28125
vt 0.85938 0.34375
vt 0.89063 0.34375
vt 0.89063 0.28125
vt 0.90625 0.28125
vt 0.90625 0.34375
vt 0.93750 0.34375
vt 0.93750 0.28125
vt 0.95313 0.28125
vt 0.95313 0.34375
vt 0.01563 0.50000
vt 0.01563 0.43750
vt 0.03125 0.43750
vt 0.03125 0.50000
vt 0.06250 0.50000
vt 0.06250 0.43750
vt 0.07813 0.43750
vt 0.07813 0.50000
vt 0.09375 0.21875
vt 0.09375 0.18750
vt 0.17188 0.18750
vt 0.17188 0.21875
vt 0.20313 0.21875
vt 0.20313 0.18750
vt 0.28125 0.18750
vt 0.28125 0.21875
vt 0.31250 0.21875
vt 0.31250 0.18750
vt 0.39063 0.18750
vt 0.39063 0.21875
vt 0.42188 0.21875
vt 0.42188 0.18750
vt 0.50000 0.18750
vt 0.50000 0.21875
vt 0.53125 0.21875
vt 0.53125 0.18750
vt 0.60938 0.18750
vt 0.60938 0.21875
vt 0.64063 0.21875
vt 0.64063 0.18750
vt 0.71875 0.18750
vt 0.71875 0.21875
vt 0.75000 0.21875
vt 0.75000 0.18750
vt 0.82813 0.18750
vt 0.82813 0.21875
vt 0.85938 0.21875
vt 0.85938 0.18750
vt 0.93750 0.18750
vt 0.93750 0.21875
vt 0.10938 0.46875
vt 0.10938 0.43750
vt 0.18750 0.43750
vt 0.18750 0.46875
vt 0.21875 0.46875
vt 0.21875 0.43750
vt 0.29688 0.43750
vt 0.29688 0.46875
vt 0.32813 0.46875
vt 0.32813 0.43750
vt 0.37500 0.43750
vt 0.37500 0.46875
vt 0.40625 0.46875
vt 0.40625 0.43750
vt 0.45313 0.43750
vt 0.45313 0.46875
vt 0.48438 0.46875
vt 0.48438 0.43750
vt 0.53125 0.43750
vt 0.53125 0.46875
vt 0.56250 0.46875
vt 0.56250 0.43750
vt 0.60938 0.43750
vt 0.60938 0.46875
vt 0.64063 0.46875
vt 0.64063 0.43750
vt 0.68750 0.43750
vt 0.68750 0.46875
vt 0.71875 0.46875
vt 0.71875 0.43750
vt 0.76563 0.43750
vt 0.76563 0.46875
vt 0.79688 0.46875
vt 0.79688 0.43750
vt 0.84375 0.43750
vt 0.84375 0.46875
vt 0.87500 0.46875
vt 0.87500 0.43750
vt 0.90625 0.43750
vt 0.90625 0.46875
vt 0.93750 0.46875
vt 0.93750 0.43750
vt 0.96875 0.43750
vt 0.96875 0.46875
vt 0.01563 0.59375
vt 0.01563 0.56250
vt 0.04688 0.56250
vt 0.04688 0.59375
vt 0.07813 0.59375
vt 0.07813 0.56250
vt 0.10938 0.56250
vt 0.10938 0.59375
vt 0.96875 0.21875
vt 0.96875 0.18750
vt 0.98438 0.18750
vt 0.98438 0.21875
vt 0.14063 0.59375
vt 0.14063 0.56250
vt 0.15625 0.56250
vt 0.15625 0.59375
vt 0.18750 0.59375
vt 0.18750 0.56250
vt 0.20313 0.56250
vt 0.20313 0.59375
vt 0.23438 0.59375
vt 0.23438 0.56250
vt 0.25000 0.56250
vt 0.25000 0.59375
vt 0.28125 0.59375
vt 0.28125 0.56250
vt 0.29688 0.56250
vt 0.29688 0.59375
vt 0.32813 0.59375
vt 0.32813 0.56250
vt 0.34375 0.56250
vt 0.34375 0.59375
vt 0.37500 0.59375
vt 0.37500 0.56250
vt 0.39063 0.56250
vt 0.39063 0.59375
vt 0.42188 0.59375
vt 0.42188 0.56250
vt 0.43750 0.56250
vt 0.43750 0.59375
vt 0.46875 0.59375
vt 0.46875 0.56250
vt 0.48438 0.56250
vt 0.48438 0.59375
vt 0.51563 0.59375
vt 0.51563 0.56250
vt 0.53125 0.56250
vt 0.53125 0.59375
vt 0.56250 0.59375
vt 0.56250 0.56250
vt 0.57813 0.56250
vt 0.57813 0.59375
vt 0.60938 0.59375
vt 0.60938 0.56250
vt 0.62500 0.56250
vt 0.62500 0.59375
vt 0.65625 0.59375
vt 0.65625 0.56250
vt 0.67188 0.56250
vt 0.67188 0.59375
vt 0.70313 0.59375
vt 0.70313 0.56250
vt 0.71875 0.56250
vt 0.71875 0.59375
vt 0.75000 0.59375
vt 0.75000 0.56250
vt 0.76563 0.56250
vt 0.76563 0.59375
vt 0.79688 0.59375
vt 0.79688 0.56250
vt 0.81250 0.56250
vt 0.81250 0.59375
vt 0.84375 0.59375
vt 0.84375 0.56250
vt 0.85938 0.56250
vt 0.85938 0.59375
vt 0.89063 0.59375
vt 0.89063 0.56250
vt 0.90625 0.56250
vt 0.90625 0.59375
vt 0.93750 0.59375
vt 0.93750 0.56250
vt 0.95313 0.56250
vt 0.95313 0.59375
vt 0.01563 0.68750
vt 0.01563 0.65625
vt 0.03125 0.65625
vt 0.03125 0.68750
vt 0.06250 0.68750
vt 0.06250 0.65625
vt 0.07813 0.65625
vt 0.07813 0.68750
vt 0.10938 0.68750
vt 0.10938 0.65625
vt 0.12500 0.65625
vt 0.12500 0.68750
vt 0.15625 0.68750
vt 0.15625 0.65625
vt 0.17188 0.65625
vt 0.17188 0.68750
vt 0.20313 0.68750
vt 0.20313 0.65625
vt 0.21875 0.65625
vt 0.21875 0.68750
vt 0.25000 0.68750
vt 0.25000 0.65625
vt 0.26563 0.65625
vt 0.26563 0.68750
vt 0.29688 0.68750
vt 0.29688 0.65625
vt 0.31250 0.65625
vt 0.31250 0.68750
vt 0.34375 0.68750
vt 0.34375 0.65625
vt 0.35938 0.65625
vt 0.35938 0.68750
vt 0.39063 0.68750
vt 0.39063 0.65625
vt 0.40625 0.65625
vt 0.40625 0.68750
vt 0.43750 0.68750
vt 0.43750 0.65625
vt 0.45313 0.65625
vt 0.45313 0.68750
vt 0.48438 0.68750
vt 0.48438 0.65625
vt 0.50000 0.65625
vt 0.50000 0.68750
vt 0.53125 0.68750
vt 0.53125 0.65625
vt 0.54688 0.65625
vt 0.54688 0.68750
vt 0.57813 0.68750
vt 0.57813 0.65625
vt 0.59375 0.65625
vt 0.59375 0.68750
vt 0.62500 0.68750
vt 0.62500 0.65625
vt 0.64063 0.65625
vt 0.64063 0.68750
vt 0.67188 0.68750
vt 0.67188 0.65625
vt 0.68750 0.65625
vt 0.68750 0.68750

g cowboy_smol
usemtl cowboy_smol_Material
f 1/1/2 2/2/2 3/3/2 4/4/2
f 54/5/4 53/6/4 114/7/4 1/8/4
f 51/9/1 52/10/1 53/11/1 54/12/1
f 4/13/3 111/14/3 52/15/3 51/16/3
f 41/17/5 105/18/5 107/19/5 39/20/5
f 117/21/5 118/22/5 92/23/5 29/24/5
f 52/25/1 67/26/1 68/27/1 69/28/1
f 63/29/1 64/30/1 65/31/1 66/32/1
f 28/33/5 93/34/5 119/35/5 120/36/5
f 59/37/1 60/38/1 61/39/1 62/40/1
f 40/41/5 106/42/5 109/43/5 43/44/5
f 44/45/5 108/46/5 110/47/5 42/48/5
f 12/49/3 11/50/3 64/51/3 63/52/3
f 62/53/3 61/54/3 71/55/3 70/56/3
f 8/57/3 7/58/3 56/59/3 55/60/3
f 38/61/3 19/62/3 78/63/3 97/64/3
f 58/65/4 57/66/4 6/67/4 5/68/4
f 69/69/4 68/70/4 60/71/4 59/72/4
f 70/73/1 71/74/1 72/75/1 53/76/1
f 96/77/4 75/78/4 14/79/4 35/80/4
f 66/81/4 65/82/4 10/83/4 9/84/4
f 55/85/1 56/86/1 57/87/1 58/88/1
f 9/89/2 10/90/2 11/91/2 12/92/2
f 121/93/6 122/94/6 4/95/6 51/96/6
f 54/97/6 1/98/6 123/99/6 124/100/6
f 5/101/2 6/102/2 7/103/2 8/104/2
f 41/105/3 29/106/3 92/107/3 105/108/3
f 110/109/4 93/110/4 28/111/4 42/112/4
f 115/113/4 72/114/4 2/115/4 116/116/4
f 112/117/3 3/118/3 67/119/3 113/120/3
f 6/121/3 36/122/3 95/123/3 57/124/3
f 16/125/3 15/126/3 74/127/3 73/128/3
f 80/129/4 79/130/4 18/131/4 17/132/4
f 64/133/4 98/134/4 37/135/4 11/136/4
f 13/137/2 14/138/2 15/139/2 16/140/2
f 77/141/1 78/142/1 79/143/1 80/144/1
f 73/145/1 74/146/1 75/147/1 76/148/1
f 17/149/2 18/150/2 19/151/2 20/152/2
f 83/153/1 84/154/1 85/155/1 86/156/1
f 24/157/3 23/158/3 84/159/3 83/160/3
f 11/161/2 25/162/2 26/163/2 6/164/2
f 57/165/1 81/166/1 82/167/1 64/168/1
f 122/169/6 23/170/6 22/171/6 123/172/6
f 24/173/5 117/174/5 120/175/5 21/176/5
f 118/177/5 83/178/5 86/179/5 119/180/5
f 86/181/4 85/182/4 22/183/4 21/184/4
f 21/185/2 22/186/2 23/187/2 24/188/2
f 84/189/6 121/190/6 124/191/6 85/192/6
f 91/193/1 92/194/1 93/195/1 94/196/1
f 44/197/3 43/198/3 109/199/3 108/200/3
f 107/201/4 106/202/4 40/203/4 39/204/4
f 34/205/6 3/206/6 2/207/6 31/208/6
f 31/209/2 32/210/2 33/211/2 34/212/2
f 27/213/2 28/214/2 29/215/2 30/216/2
f 87/217/1 88/218/1 89/219/1 90/220/1
f 81/221/1 95/222/1 76/223/1 96/224/1
f 97/225/1 77/226/1 98/227/1 82/228/1
f 35/229/2 13/230/2 36/231/2 26/232/2
f 25/233/2 37/234/2 20/235/2 38/236/2
f 48/237/2 12/238/2 49/239/2 50/240/2
f 39/241/2 40/242/2 30/243/2 41/244/2
f 42/245/2 27/246/2 43/247/2 44/248/2
f 45/249/2 46/250/2 5/251/2 47/252/2
f 99/253/1 58/254/1 100/255/1 101/256/1
f 58/257/6 5/258/6 46/259/6 100/260/6
f 74/261/6 15/262/6 14/263/6 75/264/6
f 96/265/6 35/266/6 38/267/6 97/268/6
f 95/269/6 36/270/6 16/271/6 73/272/6
f 50/273/5 102/274/5 104/275/5 48/276/5
f 12/277/5 63/278/5 66/279/5 9/280/5
f 56/281/6 7/282/6 6/283/6 57/284/6
f 67/285/6 87/286/6 60/287/6 68/288/6
f 69/289/6 59/290/6 62/291/6 70/292/6
f 71/293/6 61/294/6 90/295/6 72/296/6
f 64/297/6 11/298/6 10/299/6 65/300/6
f 78/301/6 19/302/6 18/303/6 79/304/6
f 80/305/6 17/306/6 37/307/6 98/308/6
f 103/309/6 49/310/6 12/311/6 63/312/6
f 32/313/5 89/314/5 64/315/5 11/316/5
f 47/317/3 5/318/3 58/319/3 99/320/3
f 34/321/3 33/322/3 88/323/3 87/324/3
f 101/325/3 100/326/3 113/327/3 52/328/3
f 111/329/3 112/330/3 46/331/3 45/332/3
f 102/333/1 103/334/1 63/335/1 104/336/1
f 105/337/1 91/338/1 106/339/1 107/340/1
f 108/341/1 109/342/1 94/343/1 110/344/1
f 8/345/5 55/346/5 58/347/5 5/348/5
f 6/349/5 57/350/5 88/351/5 33/352/5
f 47/353/5 99/354/5 101/355/5 45/356/5
f 53/357/4 115/358/4 103/359/4 102/360/4
f 50/361/4 49/362/4 116/363/4 114/364/4
f 90/365/4 89/366/4 32/367/4 31/368/4
f 104/369/4 63/370/4 12/371/4 48/372/4
