# This file was created with Minddesk Qubicle 3.0
# Get Qubicle at www.getqubicle.com

mtllib bed.mtl

vn 0.0 0.0 1.0
vn 0.0 0.0 -1.0
vn -1.0 0.0 0.0
vn 1.0 0.0 0.0
vn 0.0 1.0 0.0
vn 0.0 -1.0 0.0

v 0.80000 0.90000 -1.80000
v 0.80000 0.20000 -1.80000
v -0.70000 0.20000 -1.80000
v -0.70000 0.90000 -1.80000
v -0.60000 0.20000 -1.80000
v -0.60000 0.00000 -1.80000
v -0.70000 0.00000 -1.80000
v 0.80000 0.00000 -1.80000
v 0.70000 0.00000 -1.80000
v 0.70000 0.20000 -1.80000
v -0.60000 0.20000 0.40000
v -0.60000 0.00000 0.40000
v -0.70000 0.00000 0.40000
v -0.70000 0.20000 0.40000
v 0.80000 0.20000 0.40000
v 0.80000 0.00000 0.40000
v 0.70000 0.00000 0.40000
v 0.70000 0.20000 0.40000
v 0.70000 1.00000 -1.80000
v 0.70000 0.90000 -1.80000
v -0.60000 0.90000 -1.80000
v -0.60000 1.00000 -1.80000
v 0.00000 0.60000 -1.20000
v 0.00000 0.50000 -1.20000
v -0.60000 0.50000 -1.20000
v -0.60000 0.60000 -1.20000
v 0.40000 0.70000 -1.20000
v 0.40000 0.60000 -1.20000
v -0.30000 0.60000 -1.20000
v -0.30000 0.70000 -1.20000
v 0.70000 0.60000 -1.20000
v 0.70000 0.50000 -1.20000
v 0.10000 0.50000 -1.20000
v 0.10000 0.60000 -1.20000
v -0.60000 0.50000 0.40000
v -0.60000 0.40000 0.40000
v -0.70000 0.40000 0.40000
v -0.70000 0.50000 0.40000
v 0.80000 0.50000 0.40000
v 0.80000 0.40000 0.40000
v 0.70000 0.40000 0.40000
v 0.70000 0.50000 0.40000
v -0.70000 0.50000 0.50000
v -0.70000 0.20000 0.50000
v 0.80000 0.20000 0.50000
v 0.80000 0.50000 0.50000
v -0.70000 0.90000 -1.70000
v -0.70000 0.70000 -1.70000
v 0.80000 0.70000 -1.70000
v 0.80000 0.90000 -1.70000
v -0.70000 0.20000 -1.70000
v -0.70000 0.00000 -1.70000
v -0.60000 0.00000 -1.70000
v -0.60000 0.20000 -1.70000
v 0.70000 0.20000 -1.70000
v 0.70000 0.00000 -1.70000
v 0.80000 0.00000 -1.70000
v 0.80000 0.20000 -1.70000
v -0.70000 0.00000 0.50000
v -0.60000 0.00000 0.50000
v -0.60000 0.20000 0.50000
v 0.70000 0.20000 0.50000
v 0.70000 0.00000 0.50000
v 0.80000 0.00000 0.50000
v -0.60000 1.00000 -1.70000
v -0.60000 0.90000 -1.70000
v 0.70000 0.90000 -1.70000
v 0.70000 1.00000 -1.70000
v -0.60000 0.60000 0.50000
v -0.60000 0.50000 0.50000
v 0.70000 0.50000 0.50000
v 0.70000 0.60000 0.50000
v -0.70000 0.60000 -1.70000
v -0.10000 0.60000 -1.70000
v -0.10000 0.70000 -1.70000
v 0.20000 0.70000 -1.70000
v 0.20000 0.60000 -1.70000
v 0.80000 0.60000 -1.70000
v -0.30000 0.70000 0.40000
v -0.30000 0.60000 0.40000
v 0.40000 0.60000 0.40000
v 0.40000 0.70000 0.40000
v -0.70000 0.50000 -1.70000
v -0.40000 0.50000 -1.70000
v -0.40000 0.60000 -1.70000
v 0.50000 0.60000 -1.70000
v 0.50000 0.50000 -1.70000
v 0.80000 0.50000 -1.70000
v -0.40000 0.60000 -1.40000
v -0.40000 0.50000 -1.40000
v -0.10000 0.50000 -1.40000
v -0.10000 0.60000 -1.40000
v 0.20000 0.60000 -1.40000
v 0.20000 0.50000 -1.40000
v 0.50000 0.50000 -1.40000
v 0.50000 0.60000 -1.40000
v -0.10000 0.70000 -1.30000
v -0.10000 0.60000 -1.30000
v 0.20000 0.60000 -1.30000
v 0.20000 0.70000 -1.30000
v -0.70000 0.40000 -1.70000
v -0.60000 0.40000 -1.70000
v -0.60000 0.50000 -1.70000
v 0.70000 0.50000 -1.70000
v 0.70000 0.40000 -1.70000
v 0.80000 0.40000 -1.70000
v -0.10000 0.50000 -1.30000
v 0.00000 0.50000 -1.30000
v 0.00000 0.60000 -1.30000
v 0.10000 0.60000 -1.30000
v 0.10000 0.50000 -1.30000
v 0.20000 0.50000 -1.30000
v -0.70000 0.40000 -1.80000
v -0.70000 0.40000 0.50000
v 0.80000 0.40000 -1.80000
v 0.80000 0.40000 0.50000
v -0.60000 0.60000 0.40000
v 0.70000 0.60000 0.40000
v -0.60000 0.50000 -1.40000
v 0.70000 0.50000 -1.40000
v -0.60000 0.50000 -1.30000
v 0.70000 0.50000 -1.30000

vt 0.01563 0.34375
vt 0.01563 0.01563
vt 0.25000 0.01563
vt 0.25000 0.34375
vt 0.28125 0.34375
vt 0.28125 0.01563
vt 0.29688 0.01563
vt 0.29688 0.34375
vt 0.32813 0.34375
vt 0.32813 0.01563
vt 0.34375 0.01563
vt 0.34375 0.34375
vt 0.37500 0.26563
vt 0.37500 0.01563
vt 0.48438 0.01563
vt 0.48438 0.26563
vt 0.51563 0.26563
vt 0.51563 0.01563
vt 0.56250 0.01563
vt 0.56250 0.26563
vt 0.59375 0.26563
vt 0.59375 0.01563
vt 0.64063 0.01563
vt 0.64063 0.26563
vt 0.67188 0.12500
vt 0.67188 0.01563
vt 0.90625 0.01563
vt 0.90625 0.12500
vt 0.93750 0.09375
vt 0.93750 0.01563
vt 0.95313 0.01563
vt 0.95313 0.09375
vt 0.67188 0.23438
vt 0.67188 0.15625
vt 0.68750 0.15625
vt 0.68750 0.23438
vt 0.71875 0.21875
vt 0.71875 0.15625
vt 0.76563 0.15625
vt 0.76563 0.21875
vt 0.37500 0.34375
vt 0.37500 0.29688
vt 0.60938 0.29688
vt 0.60938 0.34375
vt 0.79688 0.20313
vt 0.79688 0.15625
vt 0.84375 0.15625
vt 0.84375 0.20313
vt 0.87500 0.20313
vt 0.87500 0.15625
vt 0.92188 0.15625
vt 0.92188 0.20313
vt 0.95313 0.20313
vt 0.95313 0.15625
vt 0.98438 0.15625
vt 0.98438 0.20313
vt 0.64063 0.34375
vt 0.64063 0.29688
vt 0.67188 0.29688
vt 0.67188 0.34375
vt 0.01563 0.40625
vt 0.01563 0.37500
vt 0.37500 0.37500
vt 0.37500 0.40625
vt 0.40625 0.40625
vt 0.40625 0.37500
vt 0.76563 0.37500
vt 0.76563 0.40625
vt 0.70313 0.32813
vt 0.70313 0.29688
vt 0.93750 0.29688
vt 0.93750 0.32813
vt 0.96875 0.32813
vt 0.96875 0.29688
vt 0.98438 0.29688
vt 0.98438 0.32813
vt 0.79688 0.40625
vt 0.79688 0.37500
vt 0.81250 0.37500
vt 0.81250 0.40625
vt 0.84375 0.40625
vt 0.84375 0.37500
vt 0.85938 0.37500
vt 0.85938 0.40625
vt 0.89063 0.40625
vt 0.89063 0.37500
vt 0.90625 0.37500
vt 0.90625 0.40625
vt 0.93750 0.40625
vt 0.93750 0.37500
vt 0.95313 0.37500
vt 0.95313 0.40625
vt 0.01563 0.46875
vt 0.01563 0.43750
vt 0.03125 0.43750
vt 0.03125 0.46875
vt 0.06250 0.46875
vt 0.06250 0.43750
vt 0.07813 0.43750
vt 0.07813 0.46875
vt 0.10938 0.46875
vt 0.10938 0.43750
vt 0.12500 0.43750
vt 0.12500 0.46875
vt 0.15625 0.46875
vt 0.15625 0.43750
vt 0.17188 0.43750
vt 0.17188 0.46875
vt 0.20313 0.46875
vt 0.20313 0.43750
vt 0.21875 0.43750
vt 0.21875 0.46875
vt 0.25000 0.46875
vt 0.25000 0.43750
vt 0.26563 0.43750
vt 0.26563 0.46875
vt 0.29688 0.46875
vt 0.29688 0.43750
vt 0.31250 0.43750
vt 0.31250 0.46875
vt 0.34375 0.46875
vt 0.34375 0.43750
vt 0.35938 0.43750
vt 0.35938 0.46875
vt 0.39063 0.46875
vt 0.39063 0.43750
vt 0.40625 0.43750
vt 0.40625 0.46875
vt 0.43750 0.46875
vt 0.43750 0.43750
vt 0.45313 0.43750
vt 0.45313 0.46875
vt 0.48438 0.46875
vt 0.48438 0.43750
vt 0.50000 0.43750
vt 0.50000 0.46875
vt 0.53125 0.45313
vt 0.53125 0.43750
vt 0.85938 0.43750
vt 0.85938 0.45313
vt 0.01563 0.51563
vt 0.01563 0.50000
vt 0.34375 0.50000
vt 0.34375 0.51563
vt 0.37500 0.51563
vt 0.37500 0.50000
vt 0.64063 0.50000
vt 0.64063 0.51563
vt 0.67188 0.51563
vt 0.67188 0.50000
vt 0.93750 0.50000
vt 0.93750 0.51563
vt 0.01563 0.56250
vt 0.01563 0.54688
vt 0.26563 0.54688
vt 0.26563 0.56250
vt 0.29688 0.56250
vt 0.29688 0.54688
vt 0.54688 0.54688
vt 0.54688 0.56250
vt 0.57813 0.56250
vt 0.57813 0.54688
vt 0.78125 0.54688
vt 0.78125 0.56250
vt 0.01563 0.60938
vt 0.01563 0.59375
vt 0.21875 0.59375
vt 0.21875 0.60938
vt 0.25000 0.60938
vt 0.25000 0.59375
vt 0.45313 0.59375
vt 0.45313 0.60938
vt 0.48438 0.60938
vt 0.48438 0.59375
vt 0.68750 0.59375
vt 0.68750 0.60938
vt 0.71875 0.60938
vt 0.71875 0.59375
vt 0.92188 0.59375
vt 0.92188 0.60938
vt 0.01563 0.65625
vt 0.01563 0.64063
vt 0.21875 0.64063
vt 0.21875 0.65625
vt 0.25000 0.65625
vt 0.25000 0.64063
vt 0.45313 0.64063
vt 0.45313 0.65625
vt 0.81250 0.56250
vt 0.81250 0.54688
vt 0.92188 0.54688
vt 0.92188 0.56250
vt 0.48438 0.65625
vt 0.48438 0.64063
vt 0.59375 0.64063
vt 0.59375 0.65625
vt 0.89063 0.45313
vt 0.89063 0.43750
vt 0.98438 0.43750
vt 0.98438 0.45313
vt 0.62500 0.65625
vt 0.62500 0.64063
vt 0.71875 0.64063
vt 0.71875 0.65625
vt 0.75000 0.65625
vt 0.75000 0.64063
vt 0.84375 0.64063
vt 0.84375 0.65625
vt 0.87500 0.65625
vt 0.87500 0.64063
vt 0.96875 0.64063
vt 0.96875 0.65625
vt 0.01563 0.70313
vt 0.01563 0.68750
vt 0.10938 0.68750
vt 0.10938 0.70313
vt 0.14063 0.70313
vt 0.14063 0.68750
vt 0.23438 0.68750
vt 0.23438 0.70313
vt 0.26563 0.70313
vt 0.26563 0.68750
vt 0.34375 0.68750
vt 0.34375 0.70313
vt 0.37500 0.70313
vt 0.37500 0.68750
vt 0.45313 0.68750
vt 0.45313 0.70313
vt 0.48438 0.70313
vt 0.48438 0.68750
vt 0.54688 0.68750
vt 0.54688 0.70313
vt 0.57813 0.70313
vt 0.57813 0.68750
vt 0.64063 0.68750
vt 0.64063 0.70313
vt 0.67188 0.70313
vt 0.67188 0.68750
vt 0.71875 0.68750
vt 0.71875 0.70313
vt 0.75000 0.70313
vt 0.75000 0.68750
vt 0.79688 0.68750
vt 0.79688 0.70313
vt 0.82813 0.70313
vt 0.82813 0.68750
vt 0.87500 0.68750
vt 0.87500 0.70313
vt 0.90625 0.70313
vt 0.90625 0.68750
vt 0.95313 0.68750
vt 0.95313 0.70313
vt 0.01563 0.75000
vt 0.01563 0.73438
vt 0.06250 0.73438
vt 0.06250 0.75000
vt 0.09375 0.75000
vt 0.09375 0.73438
vt 0.14063 0.73438
vt 0.14063 0.75000
vt 0.17188 0.75000
vt 0.17188 0.73438
vt 0.21875 0.73438
vt 0.21875 0.75000
vt 0.96875 0.51563
vt 0.96875 0.50000
vt 0.98438 0.50000
vt 0.98438 0.51563
vt 0.95313 0.56250
vt 0.95313 0.54688
vt 0.96875 0.54688
vt 0.96875 0.56250
vt 0.95313 0.60938
vt 0.95313 0.59375
vt 0.96875 0.59375
vt 0.96875 0.60938
vt 0.25000 0.75000
vt 0.25000 0.73438
vt 0.26563 0.73438
vt 0.26563 0.75000
vt 0.29688 0.75000
vt 0.29688 0.73438
vt 0.31250 0.73438
vt 0.31250 0.75000
vt 0.34375 0.75000
vt 0.34375 0.73438
vt 0.35938 0.73438
vt 0.35938 0.75000
vt 0.39063 0.75000
vt 0.39063 0.73438
vt 0.40625 0.73438
vt 0.40625 0.75000
vt 0.43750 0.75000
vt 0.43750 0.73438
vt 0.45313 0.73438
vt 0.45313 0.75000
vt 0.48438 0.75000
vt 0.48438 0.73438
vt 0.50000 0.73438
vt 0.50000 0.75000
vt 0.53125 0.75000
vt 0.53125 0.73438
vt 0.54688 0.73438
vt 0.54688 0.75000
vt 0.57813 0.75000
vt 0.57813 0.73438
vt 0.59375 0.73438
vt 0.59375 0.75000
vt 0.62500 0.75000
vt 0.62500 0.73438
vt 0.64063 0.73438
vt 0.64063 0.75000
vt 0.67188 0.75000
vt 0.67188 0.73438
vt 0.68750 0.73438
vt 0.68750 0.75000
vt 0.71875 0.75000
vt 0.71875 0.73438
vt 0.73438 0.73438
vt 0.73438 0.75000
vt 0.76563 0.75000
vt 0.76563 0.73438
vt 0.78125 0.73438
vt 0.78125 0.75000
vt 0.81250 0.75000
vt 0.81250 0.73438
vt 0.82813 0.73438
vt 0.82813 0.75000
vt 0.85938 0.75000
vt 0.85938 0.73438
vt 0.87500 0.73438
vt 0.87500 0.75000
vt 0.90625 0.75000
vt 0.90625 0.73438
vt 0.92188 0.73438
vt 0.92188 0.75000
vt 0.95313 0.75000
vt 0.95313 0.73438
vt 0.96875 0.73438
vt 0.96875 0.75000
vt 0.01563 0.79688
vt 0.01563 0.78125
vt 0.03125 0.78125
vt 0.03125 0.79688
vt 0.06250 0.79688
vt 0.06250 0.78125
vt 0.07813 0.78125
vt 0.07813 0.79688
vt 0.10938 0.79688
vt 0.10938 0.78125
vt 0.12500 0.78125
vt 0.12500 0.79688
vt 0.15625 0.79688
vt 0.15625 0.78125
vt 0.17188 0.78125
vt 0.17188 0.79688
vt 0.03125 0.01563
vt 0.23438 0.01563
vt 0.23438 0.34375
vt 0.68750 0.12500
vt 0.68750 0.01563
vt 0.89063 0.01563
vt 0.67188 0.04688
vt 0.95313 0.06250
vt 0.95313 0.04688
vt 0.95313 0.03125
vt 0.67188 0.20313
vt 0.67188 0.18750
vt 0.67188 0.17188
vt 0.39063 0.34375
vt 0.59375 0.34375
vt 0.60938 0.32813
vt 0.59375 0.29688
vt 0.37500 0.32813
vt 0.03125 0.40625
vt 0.35937 0.40625
vt 0.35938 0.37500
vt 0.42188 0.40625
vt 0.75000 0.37500
vt 0.42188 0.37500
vt 0.71875 0.32813
vt 0.92188 0.32813
vt 0.81250 0.45313
vt 0.78125 0.45313
vt 0.79688 0.45313
vt 0.06250 0.51563
vt 0.09375 0.51563
vt 0.07812 0.51563
vt 0.62500 0.50000
vt 0.68750 0.51563
vt 0.62500 0.56250
vt 0.73438 0.56250
vt 0.87500 0.54688
vt 0.93750 0.43750
vt 0.67188 0.65625
vt 0.79688 0.64063
vt 0.92188 0.65625
vt 0.09375 0.70313
vt 0.29688 0.70313
vt 0.42188 0.70313
vt 0.50000 0.68750
vt 0.62500 0.68750
vt 0.78125 0.68750
vt 0.92188 0.68750
vt 0.93750 0.68750
vt 0.03125 0.73438

g bed
usemtl bed_Material
f 18/359/6 14/1/6 51/2/6
f 51/2/6 54/357/6 18/359/6
f 15/4/6 18/359/6 54/357/6
f 54/357/6 55/358/6 15/4/6
f 58/3/6 15/4/6 55/358/6
f 101/5/5 37/6/5 102/8/5
f 37/6/5 36/7/5 102/8/5
f 105/9/5 41/10/5 106/12/5
f 41/10/5 40/11/5 106/12/5
f 30/13/5 79/14/5 27/16/5
f 79/14/5 82/15/5 27/16/5
f 26/17/5 117/18/5 29/20/5
f 117/18/5 80/19/5 29/20/5
f 28/21/5 81/22/5 31/24/5
f 81/22/5 118/23/5 31/24/5
f 20/360/2 1/25/2 115/363/2
f 115/363/2 4/28/2 20/360/2
f 4/28/2 115/363/2 2/26/2
f 2/26/2 3/27/2 4/28/2
f 3/27/2 2/26/2 10/361/2
f 10/361/2 5/362/2 3/27/2
f 47/32/3 4/29/3 113/30/3
f 113/30/3 48/364/3 47/32/3
f 48/364/3 113/30/3 101/31/3
f 101/31/3 73/365/3 48/364/3
f 73/365/3 101/31/3 83/366/3
f 1/36/4 50/33/4 49/367/4
f 49/367/4 115/35/4 1/36/4
f 115/35/4 49/367/4 78/368/4
f 78/368/4 106/34/4 115/35/4
f 106/34/4 78/368/4 88/369/4
f 75/37/5 97/38/5 76/40/5
f 97/38/5 100/39/5 76/40/5
f 70/370/1 43/41/1 114/374/1
f 114/374/1 71/371/1 70/370/1
f 71/371/1 114/374/1 44/42/1
f 44/42/1 46/44/1 71/371/1
f 46/44/1 44/42/1 62/373/1
f 62/373/1 116/372/1 46/44/1
f 116/372/1 62/373/1 45/43/1
f 77/45/5 93/46/5 86/48/5
f 93/46/5 96/47/5 86/48/5
f 85/49/5 89/50/5 74/52/5
f 89/50/5 92/51/5 74/52/5
f 87/53/5 95/54/5 104/56/5
f 95/54/5 120/55/5 104/56/5
f 103/57/5 119/58/5 84/60/5
f 119/58/5 90/59/5 84/60/5
f 40/375/4 116/61/4 45/62/4
f 45/62/4 106/376/4 40/375/4
f 106/376/4 45/62/4 58/377/4
f 58/377/4 115/64/4 106/376/4
f 115/64/4 58/377/4 2/63/4
f 101/378/3 113/65/3 3/66/3
f 3/66/3 114/68/3 101/378/3
f 114/68/3 3/66/3 51/380/3
f 51/380/3 44/67/3 114/68/3
f 44/67/3 51/380/3 14/379/3
f 66/381/1 47/69/1 48/70/1
f 48/70/1 67/382/1 66/381/1
f 67/382/1 48/70/1 49/71/1
f 49/71/1 50/72/1 67/382/1
f 52/74/1 54/76/1 51/73/1
f 52/74/1 53/75/1 54/76/1
f 8/78/2 10/80/2 2/77/2
f 8/78/2 9/79/2 10/80/2
f 60/82/4 11/84/4 61/81/4
f 60/82/4 12/83/4 11/84/4
f 12/86/2 14/88/2 11/85/2
f 12/86/2 13/87/2 14/88/2
f 57/90/4 2/92/4 58/89/4
f 57/90/4 8/91/4 2/92/4
f 53/94/4 5/96/4 54/93/4
f 53/94/4 6/95/4 5/96/4
f 6/98/2 3/100/2 5/97/2
f 6/98/2 7/99/2 3/100/2
f 64/102/4 15/104/4 45/101/4
f 64/102/4 16/103/4 15/104/4
f 63/106/1 45/108/1 62/105/1
f 63/106/1 64/107/1 45/108/1
f 17/110/3 62/112/3 18/109/3
f 17/110/3 63/111/3 62/112/3
f 56/114/1 58/116/1 55/113/1
f 56/114/1 57/115/1 58/116/1
f 59/118/1 61/120/1 44/117/1
f 59/118/1 60/119/1 61/120/1
f 7/122/3 51/124/3 3/121/3
f 7/122/3 52/123/3 51/124/3
f 16/126/2 18/128/2 15/125/2
f 16/126/2 17/127/2 18/128/2
f 9/130/3 55/132/3 10/129/3
f 9/130/3 56/131/3 55/132/3
f 13/134/3 44/136/3 14/133/3
f 13/134/3 59/135/3 44/136/3
f 32/384/4 42/137/4 41/138/4
f 41/138/4 122/385/4 32/384/4
f 122/385/4 41/138/4 105/139/4
f 105/139/4 120/383/4 122/385/4
f 120/383/4 105/139/4 104/140/4
f 119/386/3 103/141/3 102/142/3
f 102/142/3 121/388/3 119/386/3
f 121/388/3 102/142/3 36/143/3
f 36/143/3 25/387/3 121/388/3
f 25/387/3 36/143/3 35/144/3
f 69/148/3 26/145/3 25/146/3
f 25/146/3 70/147/3 69/148/3
f 70/147/3 25/146/3 35/389/3
f 118/390/4 72/149/4 71/150/4
f 71/150/4 31/152/4 118/390/4
f 31/152/4 71/150/4 32/151/4
f 29/154/3 79/156/3 30/153/3
f 29/154/3 80/155/3 79/156/3
f 81/158/4 27/160/4 82/157/4
f 81/158/4 28/159/4 27/160/4
f 80/391/5 117/161/5 69/162/5
f 69/162/5 72/163/5 80/391/5
f 81/392/5 80/391/5 72/163/5
f 72/163/5 118/164/5 81/392/5
f 22/165/5 65/166/5 19/168/5
f 65/166/5 68/167/5 19/168/5
f 20/170/2 22/172/2 19/169/2
f 20/170/2 21/171/2 22/172/2
f 54/173/6 5/174/6 55/176/6
f 5/174/6 10/175/6 55/176/6
f 70/178/1 72/180/1 69/177/1
f 70/178/1 71/179/1 72/180/1
f 66/182/1 68/184/1 65/181/1
f 66/182/1 67/183/1 68/184/1
f 61/185/6 11/186/6 62/188/6
f 11/186/6 18/187/6 62/188/6
f 30/192/2 27/189/2 28/190/2
f 28/190/2 29/191/2 30/192/2
f 29/191/2 28/190/2 23/393/2
f 80/194/1 82/196/1 79/193/1
f 80/194/1 81/195/1 82/196/1
f 49/200/1 76/197/1 77/198/1
f 77/198/1 78/199/1 49/200/1
f 78/199/1 77/198/1 86/394/1
f 29/395/2 23/201/2 24/202/2
f 24/202/2 26/204/2 29/395/2
f 26/204/2 24/202/2 25/203/2
f 75/208/1 48/205/1 73/206/1
f 73/206/1 74/207/1 75/208/1
f 74/207/1 73/206/1 85/396/1
f 28/397/2 31/209/2 32/210/2
f 32/210/2 34/212/2 28/397/2
f 34/212/2 32/210/2 33/211/2
f 107/398/5 121/213/5 25/214/5
f 25/214/5 24/215/5 107/398/5
f 108/216/5 107/398/5 24/215/5
f 111/217/5 33/218/5 122/220/5
f 33/218/5 32/219/5 122/220/5
f 90/399/5 119/221/5 121/222/5
f 121/222/5 107/223/5 90/399/5
f 91/224/5 90/399/5 107/223/5
f 95/400/5 94/225/5 112/226/5
f 112/226/5 122/227/5 95/400/5
f 120/228/5 95/400/5 122/227/5
f 76/232/4 100/229/4 99/230/4
f 99/230/4 77/231/4 76/232/4
f 77/231/4 99/230/4 93/401/4
f 97/236/3 75/233/3 74/234/3
f 74/234/3 98/235/3 97/236/3
f 98/235/3 74/234/3 92/402/3
f 94/238/1 96/240/1 93/237/1
f 94/238/1 95/239/1 96/240/1
f 78/244/1 86/241/1 87/242/1
f 87/242/1 88/243/1 78/244/1
f 88/243/1 87/242/1 104/403/1
f 90/246/1 92/248/1 89/245/1
f 90/246/1 91/247/1 92/248/1
f 100/252/1 97/249/1 98/250/1
f 98/250/1 99/251/1 100/252/1
f 99/251/1 98/250/1 109/404/1
f 109/404/1 110/405/1 99/251/1
f 85/256/1 73/253/1 83/254/1
f 83/254/1 84/255/1 85/256/1
f 84/255/1 83/254/1 103/406/1
f 95/258/4 86/260/4 96/257/4
f 95/258/4 87/259/4 86/260/4
f 84/262/3 89/264/3 85/261/3
f 84/262/3 90/263/3 89/264/3
f 36/266/2 38/268/2 35/265/2
f 36/266/2 37/267/2 38/268/2
f 40/270/2 42/272/2 39/269/2
f 40/270/2 41/271/2 42/272/2
f 109/273/5 23/274/5 110/276/5
f 23/274/5 34/275/5 110/276/5
f 38/277/5 43/278/5 35/280/5
f 43/278/5 70/279/5 35/280/5
f 20/281/5 67/282/5 1/284/5
f 67/282/5 50/283/5 1/284/5
f 116/286/4 39/288/4 46/285/4
f 116/286/4 40/287/4 39/288/4
f 4/289/5 47/290/5 21/292/5
f 47/290/5 66/291/5 21/292/5
f 59/293/6 13/294/6 60/296/6
f 13/294/6 12/295/6 60/296/6
f 63/297/6 17/298/6 64/300/6
f 17/298/6 16/299/6 64/300/6
f 56/301/6 9/302/6 57/304/6
f 9/302/6 8/303/6 57/304/6
f 42/305/5 71/306/5 39/308/5
f 71/306/5 46/307/5 39/308/5
f 52/309/6 7/310/6 53/312/6
f 7/310/6 6/311/6 53/312/6
f 33/314/4 110/316/4 34/313/4
f 33/314/4 111/315/4 110/316/4
f 111/318/1 99/320/1 110/317/1
f 111/318/1 112/319/1 99/320/1
f 21/322/3 65/324/3 22/321/3
f 21/322/3 66/323/3 65/324/3
f 107/326/1 109/328/1 98/325/1
f 107/326/1 108/327/1 109/328/1
f 101/330/1 103/332/1 83/329/1
f 101/330/1 102/331/1 103/332/1
f 105/334/1 88/336/1 104/333/1
f 105/334/1 106/335/1 88/336/1
f 67/338/4 19/340/4 68/337/4
f 67/338/4 20/339/4 19/340/4
f 112/342/4 93/344/4 99/341/4
f 112/342/4 94/343/4 93/344/4
f 37/346/3 43/348/3 38/345/3
f 37/346/3 114/347/3 43/348/3
f 91/350/3 98/352/3 92/349/3
f 91/350/3 107/351/3 98/352/3
f 108/354/3 23/356/3 109/353/3
f 108/354/3 24/355/3 23/356/3
