# This file was created with Minddesk Qubicle 3.0
# Get Qubicle at www.getqubicle.com

mtllib commode1.mtl

vn 0.0 0.0 1.0
vn 0.0 0.0 -1.0
vn -1.0 0.0 0.0
vn 1.0 0.0 0.0
vn 0.0 1.0 0.0
vn 0.0 -1.0 0.0

v 0.40000 0.60000 -1.10000
v 0.40000 0.30000 -1.10000
v -0.40000 0.30000 -1.10000
v -0.40000 0.60000 -1.10000
v 0.40000 0.20000 -1.10000
v 0.40000 0.00000 -1.10000
v -0.40000 0.00000 -1.10000
v -0.40000 0.20000 -1.10000
v 0.40000 0.90000 -1.10000
v 0.40000 0.70000 -1.10000
v -0.40000 0.70000 -1.10000
v -0.40000 0.90000 -1.10000
v -0.10000 0.30000 -1.10000
v -0.10000 0.20000 -1.10000
v -0.10000 0.70000 -1.10000
v -0.10000 0.60000 -1.10000
v 0.10000 0.20000 -1.10000
v 0.10000 0.30000 -1.10000
v 0.10000 0.60000 -1.10000
v 0.10000 0.70000 -1.10000
v 0.10000 0.30000 -1.20000
v 0.10000 0.20000 -1.20000
v -0.10000 0.20000 -1.20000
v -0.10000 0.30000 -1.20000
v 0.10000 0.70000 -1.20000
v 0.10000 0.60000 -1.20000
v -0.10000 0.60000 -1.20000
v -0.10000 0.70000 -1.20000
v -0.40000 0.90000 -0.40000
v -0.40000 0.00000 -0.40000
v 0.40000 0.00000 -0.40000
v 0.40000 0.90000 -0.40000

vt 0.03125 0.31250
vt 0.03125 0.03125
vt 0.28125 0.03125
vt 0.28125 0.31250
vt 0.34375 0.31250
vt 0.34375 0.03125
vt 0.56250 0.03125
vt 0.56250 0.31250
vt 0.62500 0.31250
vt 0.62500 0.03125
vt 0.84375 0.03125
vt 0.84375 0.31250
vt 0.03125 0.59375
vt 0.03125 0.37500
vt 0.28125 0.37500
vt 0.28125 0.59375
vt 0.34375 0.59375
vt 0.34375 0.37500
vt 0.59375 0.37500
vt 0.59375 0.59375
vt 0.65625 0.46875
vt 0.65625 0.37500
vt 0.90625 0.37500
vt 0.90625 0.46875
vt 0.65625 0.59375
vt 0.65625 0.53125
vt 0.90625 0.53125
vt 0.90625 0.59375
vt 0.03125 0.71875
vt 0.03125 0.65625
vt 0.28125 0.65625
vt 0.28125 0.71875
vt 0.34375 0.68750
vt 0.34375 0.65625
vt 0.43750 0.65625
vt 0.43750 0.68750
vt 0.50000 0.68750
vt 0.50000 0.65625
vt 0.59375 0.65625
vt 0.59375 0.68750
vt 0.65625 0.68750
vt 0.65625 0.65625
vt 0.75000 0.65625
vt 0.75000 0.68750
vt 0.81250 0.68750
vt 0.81250 0.65625
vt 0.90625 0.65625
vt 0.90625 0.68750
vt 0.90625 0.06250
vt 0.90625 0.03125
vt 0.96875 0.03125
vt 0.96875 0.06250
vt 0.90625 0.15625
vt 0.90625 0.12500
vt 0.96875 0.12500
vt 0.96875 0.15625
vt 0.90625 0.25000
vt 0.90625 0.21875
vt 0.96875 0.21875
vt 0.96875 0.25000
vt 0.03125 0.81250
vt 0.03125 0.78125
vt 0.09375 0.78125
vt 0.09375 0.81250
vt 0.15625 0.81250
vt 0.15625 0.78125
vt 0.21875 0.78125
vt 0.21875 0.81250
vt 0.28125 0.81250
vt 0.28125 0.78125
vt 0.34375 0.78125
vt 0.34375 0.81250
vt 0.40625 0.81250
vt 0.40625 0.78125
vt 0.43750 0.78125
vt 0.43750 0.81250
vt 0.50000 0.81250
vt 0.50000 0.78125
vt 0.53125 0.78125
vt 0.53125 0.81250
vt 0.59375 0.81250
vt 0.59375 0.78125
vt 0.62500 0.78125
vt 0.62500 0.81250
vt 0.68750 0.81250
vt 0.68750 0.78125
vt 0.71875 0.78125
vt 0.71875 0.81250
vt 0.56250 0.21875
vt 0.56250 0.12500
vt 0.56250 0.25000
vt 0.62500 0.12500
vt 0.62500 0.21875
vt 0.62500 0.25000
vt 0.62500 0.09375

g commode1
usemtl commode1_Material
f 30/2/1 32/4/1 29/1/1
f 30/2/1 31/3/1 32/4/1
f 9/8/4 32/5/4 31/6/4
f 31/6/4 10/91/4 9/8/4
f 10/91/4 31/6/4 6/7/4
f 6/7/4 1/89/4 10/91/4
f 1/89/4 6/7/4 2/90/4
f 29/12/3 12/9/3 11/94/3
f 11/94/3 30/11/3 29/12/3
f 30/11/3 11/94/3 4/93/3
f 4/93/3 7/10/3 30/11/3
f 7/10/3 4/93/3 3/92/3
f 3/92/3 8/95/3 7/10/3
f 12/13/5 29/14/5 9/16/5
f 29/14/5 32/15/5 9/16/5
f 30/17/6 7/18/6 31/20/6
f 7/18/6 6/19/6 31/20/6
f 2/22/2 4/24/2 1/21/2
f 2/22/2 3/23/2 4/24/2
f 10/26/2 12/28/2 9/25/2
f 10/26/2 11/27/2 12/28/2
f 6/30/2 8/32/2 5/29/2
f 6/30/2 7/31/2 8/32/2
f 5/34/2 18/36/2 2/33/2
f 5/34/2 17/35/2 18/36/2
f 1/38/2 20/40/2 10/37/2
f 1/38/2 19/39/2 20/40/2
f 14/42/2 3/44/2 13/41/2
f 14/42/2 8/43/2 3/44/2
f 16/46/2 11/48/2 15/45/2
f 16/46/2 4/47/2 11/48/2
f 22/50/2 24/52/2 21/49/2
f 22/50/2 23/51/2 24/52/2
f 26/54/2 28/56/2 25/53/2
f 26/54/2 27/55/2 28/56/2
f 28/57/5 15/58/5 25/60/5
f 15/58/5 20/59/5 25/60/5
f 24/61/5 13/62/5 21/64/5
f 13/62/5 18/63/5 21/64/5
f 16/65/6 27/66/6 19/68/6
f 27/66/6 26/67/6 19/68/6
f 14/69/6 23/70/6 17/72/6
f 23/70/6 22/71/6 17/72/6
f 19/74/4 25/76/4 20/73/4
f 19/74/4 26/75/4 25/76/4
f 23/78/3 13/80/3 24/77/3
f 23/78/3 14/79/3 13/80/3
f 27/82/3 15/84/3 28/81/3
f 27/82/3 16/83/3 15/84/3
f 17/86/4 21/88/4 18/85/4
f 17/86/4 22/87/4 21/88/4
