# This file was created with Minddesk Qubicle 3.0
# Get Qubicle at www.getqubicle.com

mtllib room.mtl

vn 0.0 0.0 1.0
vn 0.0 0.0 -1.0
vn -1.0 0.0 0.0
vn 1.0 0.0 0.0
vn 0.0 1.0 0.0
vn 0.0 -1.0 0.0

v 5.00000 4.00000 -5.00000
v 5.00000 0.00000 -5.00000
v -5.00000 0.00000 -5.00000
v -5.00000 4.00000 -5.00000
v -4.90000 4.00000 -4.90000
v -4.90000 0.10000 -4.90000
v 5.00000 0.10000 -4.90000
v 5.00000 4.00000 -4.90000
v -5.00000 4.00000 5.00000
v -5.00000 0.10000 5.00000
v -4.90000 0.10000 5.00000
v -4.90000 4.00000 5.00000
v -5.00000 0.00000 5.00000
v 5.00000 0.00000 5.00000
v 5.00000 0.10000 5.00000
v 5.00000 0.10000 -5.00000
v -5.00000 4.00000 -4.90000

vt 0.00391 0.39453
vt 0.00391 0.00391
vt 0.39453 0.00391
vt 0.39453 0.39453
vt 0.40234 0.39063
vt 0.40234 0.00391
vt 0.78906 0.00391
vt 0.78906 0.39063
vt 0.79688 0.39063
vt 0.79688 0.00391
vt 0.80078 0.00391
vt 0.80078 0.39063
vt 0.00391 0.55859
vt 0.00391 0.40234
vt 0.39453 0.40234
vt 0.39453 0.55859
vt 0.40234 0.55859
vt 0.40234 0.40234
vt 0.79297 0.40234
vt 0.79297 0.55859
vt 0.00391 0.71875
vt 0.00391 0.56641
vt 0.39063 0.56641
vt 0.39063 0.71875
vt 0.39844 0.71875
vt 0.39844 0.56641
vt 0.78516 0.56641
vt 0.78516 0.71875
vt 0.80859 0.15625
vt 0.80859 0.00391
vt 0.81250 0.00391
vt 0.81250 0.15625
vt 0.82031 0.15625
vt 0.82031 0.00391
vt 0.82422 0.00391
vt 0.82422 0.15625
vt 0.00391 0.73047
vt 0.00391 0.72656
vt 0.39453 0.72656
vt 0.39453 0.73047
vt 0.40234 0.73047
vt 0.40234 0.72656
vt 0.79297 0.72656
vt 0.79297 0.73047
vt 0.00391 0.74219
vt 0.00391 0.73828
vt 0.39453 0.73828
vt 0.39453 0.74219
vt 0.00781 0.55859
vt 0.40234 0.40625
vt 0.00781 0.72656
vt 0.00781 0.74219

g room
usemtl room_Material
f 13/1/6 3/2/6 14/4/6
f 3/2/6 2/3/6 14/4/6
f 6/5/5 11/6/5 7/8/5
f 11/6/5 15/7/5 7/8/5
f 17/9/5 9/10/5 5/12/5
f 9/10/5 12/11/5 5/12/5
f 17/49/3 4/13/3 3/14/3
f 3/14/3 9/16/3 17/49/3
f 9/16/3 3/14/3 13/15/3
f 4/20/2 1/17/2 16/50/2
f 16/50/2 3/19/2 4/20/2
f 3/19/2 16/50/2 2/18/2
f 6/22/1 8/24/1 5/21/1
f 6/22/1 7/23/1 8/24/1
f 11/26/4 5/28/4 12/25/4
f 11/26/4 6/27/4 5/28/4
f 10/30/1 12/32/1 9/29/1
f 10/30/1 11/31/1 12/32/1
f 7/34/4 1/36/4 8/33/4
f 7/34/4 16/35/4 1/36/4
f 1/40/5 4/37/5 17/38/5
f 17/38/5 5/51/5 1/40/5
f 8/39/5 1/40/5 5/51/5
f 14/42/4 16/44/4 15/41/4
f 14/42/4 2/43/4 16/44/4
f 11/52/1 10/45/1 13/46/1
f 13/46/1 15/48/1 11/52/1
f 15/48/1 13/46/1 14/47/1
