# Blender v2.93.1 OBJ File: 'mb_for_game.blend'
# www.blender.org
mtllib barrel_poly.mtl
o barrel_poly_Cube
v 0.332654 1.399382 -0.120168
v 0.120168 1.399382 -0.332655
v 0.120168 1.399382 0.332654
v 0.332654 1.399382 0.120167
v -0.120168 1.399382 -0.332655
v -0.332654 1.399382 -0.120168
v -0.332654 1.399382 0.120167
v -0.120168 1.399382 0.332654
v 0.211995 1.251034 -0.502963
v 0.502963 1.251034 -0.211995
v -0.211995 1.251034 0.502962
v -0.502963 1.251034 0.211994
v 0.502963 1.251034 0.211994
v 0.211995 1.251034 0.502962
v -0.502963 1.251034 -0.211995
v -0.211995 1.251034 -0.502963
v -0.620726 0.857318 -0.270245
v -0.270244 0.857318 -0.620726
v 0.620726 0.857318 -0.270245
v 0.270244 0.857318 -0.620726
v 0.270244 0.857318 0.620726
v 0.620726 0.857318 0.270244
v -0.620726 0.857318 0.270244
v -0.270244 0.857318 0.620726
v -0.606072 0.944423 0.263864
v -0.572026 1.080328 0.249041
v -0.572026 1.080328 -0.249042
v -0.606072 0.944423 -0.263865
v -0.249042 1.080328 -0.572027
v -0.263864 0.944423 -0.606072
v 0.263864 0.944423 -0.606072
v 0.249042 1.080328 -0.572027
v 0.572026 1.080328 -0.249042
v 0.606072 0.944423 -0.263865
v 0.606072 0.944423 0.263864
v 0.572026 1.080328 0.249041
v 0.249042 1.080328 0.572026
v 0.263864 0.944423 0.606071
v -0.263864 0.944423 0.606071
v -0.249042 1.080328 0.572026
v -0.636847 0.948763 0.274202
v -0.601796 1.084370 0.258888
v -0.601796 1.084370 -0.258889
v -0.636847 0.948763 -0.274203
v -0.258888 1.084370 -0.601797
v -0.274203 0.948763 -0.636847
v 0.274203 0.948763 -0.636847
v 0.258888 1.084370 -0.601797
v 0.601796 1.084370 -0.258889
v 0.636847 0.948763 -0.274203
v 0.636847 0.948763 0.274202
v 0.601796 1.084370 0.258888
v 0.258888 1.084370 0.601796
v 0.274203 0.948763 0.636846
v -0.274203 0.948763 0.636846
v -0.258888 1.084370 0.601796
v 0.151436 1.399382 -0.425850
v 0.425850 1.399382 -0.151436
v 0.425850 1.399382 0.151436
v 0.151436 1.399382 0.425849
v -0.425850 1.399382 -0.151436
v -0.151436 1.399382 -0.425850
v -0.151436 1.399382 0.425849
v -0.425850 1.399382 0.151436
v 0.120168 1.355635 -0.332655
v 0.332654 1.355635 -0.120168
v 0.332654 1.355635 0.120167
v 0.120168 1.355635 0.332654
v -0.332654 1.355635 -0.120168
v -0.120168 1.355635 -0.332655
v -0.120168 1.355635 0.332654
v -0.332654 1.355635 0.120167
v 0.332654 -0.000000 -0.120168
v 0.120168 -0.000000 -0.332655
v 0.120168 -0.000000 0.332654
v 0.332654 -0.000000 0.120167
v -0.120168 -0.000000 -0.332655
v -0.332654 -0.000000 -0.120168
v -0.332654 -0.000000 0.120167
v -0.120168 -0.000000 0.332654
v 0.211995 0.148347 -0.502963
v 0.502963 0.148347 -0.211995
v -0.211995 0.148347 0.502962
v -0.502963 0.148347 0.211994
v 0.502963 0.148347 0.211994
v 0.211995 0.148347 0.502962
v -0.502963 0.148347 -0.211995
v -0.211995 0.148347 -0.502963
v -0.620726 0.542064 -0.270245
v -0.270244 0.542064 -0.620726
v 0.620726 0.542064 -0.270245
v 0.270244 0.542064 -0.620726
v 0.270244 0.542064 0.620726
v 0.620726 0.542064 0.270244
v -0.620726 0.542064 0.270244
v -0.270244 0.542064 0.620726
v -0.606072 0.454959 0.263864
v -0.572026 0.319054 0.249041
v -0.572026 0.319054 -0.249042
v -0.606072 0.454959 -0.263865
v -0.249042 0.319054 -0.572027
v -0.263864 0.454959 -0.606072
v 0.263864 0.454959 -0.606072
v 0.249042 0.319054 -0.572027
v 0.572026 0.319054 -0.249042
v 0.606072 0.454959 -0.263865
v 0.606072 0.454959 0.263864
v 0.572026 0.319054 0.249041
v 0.249042 0.319054 0.572026
v 0.263864 0.454959 0.606071
v -0.263864 0.454959 0.606071
v -0.249042 0.319054 0.572026
v -0.636847 0.450618 0.274202
v -0.601796 0.315012 0.258888
v -0.601796 0.315012 -0.258889
v -0.636847 0.450618 -0.274203
v -0.258888 0.315012 -0.601797
v -0.274203 0.450618 -0.636847
v 0.274203 0.450618 -0.636847
v 0.258888 0.315012 -0.601797
v 0.601796 0.315012 -0.258889
v 0.636847 0.450618 -0.274203
v 0.636847 0.450618 0.274202
v 0.601796 0.315012 0.258888
v 0.258888 0.315012 0.601796
v 0.274203 0.450618 0.636846
v -0.274203 0.450618 0.636846
v -0.258888 0.315012 0.601796
v 0.151436 -0.000000 -0.425850
v 0.425850 -0.000000 -0.151436
v 0.425850 -0.000000 0.151436
v 0.151436 -0.000000 0.425849
v -0.425850 -0.000000 -0.151436
v -0.151436 -0.000000 -0.425850
v -0.151436 -0.000000 0.425849
v -0.425850 -0.000000 0.151436
v 0.120168 0.043746 -0.332655
v 0.332654 0.043746 -0.120168
v 0.332654 0.043746 0.120167
v 0.120168 0.043746 0.332654
v -0.332654 0.043746 -0.120168
v -0.120168 0.043746 -0.332655
v -0.120168 0.043746 0.332654
v -0.332654 0.043746 0.120167
v -0.000000 1.355635 -0.000000
v -0.000000 0.043746 -0.000000
vt 0.240686 0.453972
vt 0.240809 0.473622
vt 0.240811 0.528133
vt 0.240681 0.544838
vt 0.241530 0.546028
vt 0.241407 0.526378
vt 0.241404 0.471867
vt 0.241535 0.455162
vt 0.240873 0.479189
vt 0.241019 0.440568
vt 0.241033 0.447813
vt 0.240903 0.481714
vt 0.241283 0.609265
vt 0.241360 0.652628
vt 0.240847 0.652628
vt 0.240928 0.608048
vt 0.241288 0.391952
vt 0.241211 0.423424
vt 0.240998 0.424093
vt 0.240933 0.390735
vt 0.240167 0.347372
vt 0.240512 0.433275
vt 0.240338 0.453972
vt 0.240091 0.390735
vt 0.240856 0.347372
vt 0.241369 0.347372
vt 0.241704 0.435510
vt 0.241704 0.566725
vt 0.240512 0.564490
vt 0.240512 0.433275
vt 0.238656 0.640100
vt 0.238832 0.621860
vt 0.239488 0.793347
vt 0.239404 0.841805
vt 0.241005 0.576576
vt 0.241218 0.575907
vt 0.239447 0.155325
vt 0.240607 0.160137
vt 0.240524 0.208471
vt 0.239515 0.200662
vt 0.241362 0.360728
vt 0.241362 0.657108
vt 0.241172 0.635595
vt 0.241186 0.379081
vt 0.239712 0.674580
vt 0.240322 0.676220
vt 0.240497 0.799402
vt 0.240716 0.578232
vt 0.240711 0.426820
vt 0.239688 0.323526
vt 0.239299 0.421904
vt 0.238841 0.365017
vt 0.239309 0.573980
vt 0.240299 0.328255
vt 0.238652 0.343630
vt 0.240565 0.844675
vt 0.150229 0.587461
vt 0.150424 0.537738
vt 0.150443 0.539452
vt 0.150235 0.592290
vt 0.150426 0.462972
vt 0.150445 0.461418
vt 0.150570 0.446185
vt 0.150570 0.552013
vt 0.150546 0.549001
vt 0.150546 0.449668
vt 0.150287 0.375690
vt 0.150276 0.381947
vt 0.150295 0.624332
vt 0.150281 0.618169
vt 0.150231 0.413024
vt 0.149939 0.412424
vt 0.149933 0.407589
vt 0.150238 0.408276
vt 0.149874 0.375501
vt 0.149887 0.381681
vt 0.149744 0.462224
vt 0.149742 0.537144
vt 0.149723 0.538699
vt 0.149725 0.460509
vt 0.149622 0.550470
vt 0.149622 0.450954
vt 0.149930 0.591886
vt 0.149893 0.618231
vt 0.149881 0.624499
vt 0.149598 0.447937
vt 0.149937 0.587133
vt 0.149598 0.553961
vt 0.240876 0.522838
vt 0.241027 0.560207
vt 0.241197 0.559432
vt 0.241343 0.520811
vt 0.241340 0.477162
vt 0.241189 0.439794
vt 0.241312 0.480719
vt 0.241313 0.518286
vt 0.241108 0.500000
vt 0.240904 0.519281
vt 0.241036 0.552517
vt 0.241179 0.447483
vt 0.241183 0.552187
vt 0.240342 0.544838
vt 0.240212 0.528133
vt 0.240215 0.473622
vt 0.239493 0.546028
vt 0.239489 0.455162
vt 0.239619 0.471867
vt 0.239616 0.526378
vt 0.240151 0.479189
vt 0.240121 0.481714
vt 0.239991 0.447813
vt 0.240005 0.440568
vt 0.240095 0.608048
vt 0.240176 0.652628
vt 0.239664 0.652628
vt 0.239740 0.609265
vt 0.239736 0.391952
vt 0.240025 0.424093
vt 0.239812 0.423424
vt 0.239655 0.347372
vt 0.239319 0.566725
vt 0.239319 0.435510
vt 0.240512 0.564490
vt 0.239411 0.562258
vt 0.239751 0.650553
vt 0.240019 0.576576
vt 0.239806 0.575907
vt 0.239728 0.350280
vt 0.240259 0.352436
vt 0.240609 0.438751
vt 0.240625 0.568333
vt 0.239390 0.431575
vt 0.240280 0.649556
vt 0.150912 0.587576
vt 0.150906 0.592411
vt 0.150698 0.539491
vt 0.150716 0.537776
vt 0.150696 0.461301
vt 0.150715 0.462856
vt 0.150571 0.446039
vt 0.150595 0.449530
vt 0.150595 0.549046
vt 0.150570 0.552063
vt 0.150854 0.375501
vt 0.150866 0.381769
vt 0.150860 0.618319
vt 0.150846 0.624499
vt 0.150909 0.412867
vt 0.150903 0.408114
vt 0.151208 0.407710
vt 0.151202 0.412539
vt 0.151267 0.375667
vt 0.151254 0.381831
vt 0.151397 0.462261
vt 0.151416 0.460547
vt 0.151418 0.538582
vt 0.151399 0.537028
vt 0.151519 0.550332
vt 0.151518 0.450999
vt 0.151248 0.618053
vt 0.151211 0.591724
vt 0.151260 0.624310
vt 0.151543 0.447986
vt 0.151204 0.586975
vt 0.151543 0.553815
vt 0.240148 0.522838
vt 0.239997 0.560207
vt 0.239826 0.559432
vt 0.239680 0.520811
vt 0.239683 0.477162
vt 0.239834 0.439793
vt 0.239712 0.480719
vt 0.239844 0.447483
vt 0.239915 0.500000
vt 0.239987 0.552517
vt 0.240119 0.519281
vt 0.239710 0.518286
vt 0.239840 0.552187
vn 0.0000 0.4612 -0.8873
vn 0.0000 0.4612 0.8873
vn 0.7071 0.0000 0.7071
vn 0.9270 0.3750 0.0000
vn -0.8873 0.4612 0.0000
vn -0.6473 -0.4024 -0.6473
vn -0.9270 0.3750 0.0000
vn 0.0000 0.3750 0.9270
vn 0.6473 0.4024 -0.6473
vn 0.6473 0.4024 0.6473
vn -0.6473 0.4024 0.6473
vn 0.0000 0.3750 -0.9270
vn 0.6970 0.1683 0.6970
vn 0.5912 0.5486 -0.5912
vn 0.5912 0.5486 0.5912
vn -0.5912 0.5486 -0.5912
vn -0.9861 0.1659 0.0000
vn -0.5912 0.5486 0.5912
vn 0.8873 0.4612 0.0000
vn 0.0000 0.1659 -0.9861
vn 1.0000 0.0000 0.0000
vn 0.7071 0.0000 -0.7071
vn -0.0000 0.0000 -1.0000
vn -0.7071 0.0000 0.7071
vn 0.0000 0.0000 1.0000
vn -0.6970 0.1683 -0.6970
vn -1.0000 0.0000 0.0000
vn -0.6970 0.1683 0.6970
vn 0.0000 0.1659 0.9861
vn 0.9861 0.1659 0.0000
vn 0.6970 0.1683 -0.6970
vn -0.1010 0.9898 0.1010
vn -0.1345 0.9909 -0.0000
vn 0.1397 -0.9902 0.0000
vn 0.1044 -0.9890 0.1044
vn 0.1044 -0.9890 -0.1044
vn 0.0000 0.9909 -0.1345
vn -0.0000 -0.9902 0.1397
vn 0.1345 0.9909 0.0000
vn -0.9682 0.2502 0.0000
vn 0.6839 0.2540 0.6839
vn -0.6839 0.2540 -0.6839
vn 0.6839 0.2540 -0.6839
vn -0.6839 0.2540 0.6839
vn -0.0000 0.2502 0.9682
vn 0.9682 0.2502 -0.0000
vn -0.0000 0.2502 -0.9682
vn -0.1010 0.9898 -0.1010
vn 0.0000 -0.9902 -0.1397
vn -0.1044 -0.9890 0.1044
vn 0.1010 0.9898 0.1010
vn -0.0000 0.9909 0.1345
vn -0.1397 -0.9902 0.0000
vn 0.1010 0.9898 -0.1010
vn -0.1044 -0.9890 -0.1044
vn 0.0000 1.0000 -0.0000
vn -0.7071 0.0000 -0.7071
vn 0.0000 -0.4612 -0.8873
vn 0.0000 -0.4612 0.8873
vn 0.9270 -0.3750 0.0000
vn -0.8873 -0.4612 0.0000
vn -0.9270 -0.3750 0.0000
vn 0.0000 -0.3750 0.9270
vn 0.6473 -0.4024 -0.6473
vn 0.6473 -0.4024 0.6473
vn -0.6473 -0.4024 0.6473
vn 0.0000 -0.3750 -0.9270
vn 0.6970 -0.1683 0.6970
vn 0.5912 -0.5486 -0.5912
vn 0.5912 -0.5486 0.5912
vn -0.5912 -0.5486 -0.5912
vn -0.9861 -0.1659 0.0000
vn -0.5912 -0.5486 0.5912
vn 0.8873 -0.4612 0.0000
vn 0.0000 -0.1659 -0.9861
vn -0.6970 -0.1683 -0.6970
vn -0.6970 -0.1683 0.6970
vn 0.0000 -0.1659 0.9861
vn 0.9861 -0.1659 -0.0000
vn 0.6970 -0.1683 -0.6970
vn -0.1010 -0.9898 0.1010
vn -0.1345 -0.9909 -0.0000
vn 0.1397 0.9902 0.0000
vn 0.1044 0.9890 0.1044
vn 0.1044 0.9890 -0.1044
vn 0.0000 -0.9909 -0.1345
vn -0.0000 0.9902 0.1397
vn 0.1345 -0.9909 0.0000
vn -0.9682 -0.2502 0.0000
vn 0.6839 -0.2540 0.6839
vn -0.6839 -0.2540 -0.6839
vn 0.6839 -0.2540 -0.6839
vn -0.6839 -0.2540 0.6839
vn 0.0000 -0.2502 0.9682
vn 0.9682 -0.2502 -0.0000
vn 0.0000 -0.2502 -0.9682
vn -0.1010 -0.9898 -0.1010
vn 0.0000 0.9902 -0.1397
vn -0.1044 0.9890 0.1044
vn 0.1010 -0.9898 0.1010
vn -0.0000 -0.9909 0.1345
vn -0.1397 0.9902 -0.0000
vn 0.1010 -0.9898 -0.1010
vn -0.1044 0.9890 -0.1044
vn 0.0000 -1.0000 -0.0000
vn -0.6473 0.4024 -0.6473
usemtl barrel_polyMat
s off
f 16/1/1 62/2/1 57/3/1 9/4/1
f 14/5/2 60/6/2 63/7/2 11/8/2
f 5/9/3 6/10/3 69/11/3 70/12/3
f 13/13/4 36/14/4 33/15/4 10/16/4
f 12/17/5 64/18/5 61/19/5 15/20/5
f 99/21/6 101/22/6 88/23/6 87/24/6
f 15/20/7 27/25/7 26/26/7 12/17/7
f 11/8/8 40/27/8 37/28/8 14/5/8
f 10/16/9 33/15/9 32/29/9 9/4/9
f 14/5/10 37/28/10 36/14/10 13/13/10
f 12/17/11 26/26/11 40/27/11 11/8/11
f 9/4/12 32/29/12 29/30/12 16/1/12
f 38/31/13 21/32/13 22/33/13 35/34/13
f 9/4/14 57/3/14 58/35/14 10/16/14
f 60/6/15 14/5/15 13/13/15 59/36/15
f 15/20/16 61/19/16 62/2/16 16/1/16
f 25/37/17 28/38/17 17/39/17 23/40/17
f 11/8/18 63/7/18 64/18/18 12/17/18
f 10/16/19 58/35/19 59/36/19 13/13/19
f 30/41/20 31/42/20 20/43/20 18/44/20
f 22/33/21 94/45/21 91/46/21 19/47/21
f 19/47/22 91/46/22 92/48/22 20/43/22
f 20/43/23 92/48/23 90/49/23 18/44/23
f 23/40/24 95/50/24 96/51/24 24/52/24
f 24/52/25 96/51/25 93/53/25 21/32/25
f 21/32/3 93/53/3 94/45/3 22/33/3
f 17/39/26 28/38/26 30/41/26 18/44/26
f 17/39/27 89/54/27 95/50/27 23/40/27
f 25/37/28 23/40/28 24/52/28 39/55/28
f 38/31/29 39/55/29 24/52/29 21/32/29
f 34/56/30 35/34/30 22/33/30 19/47/30
f 34/56/31 19/47/31 20/43/31 31/42/31
f 32/57/32 33/58/32 49/59/32 48/60/32
f 33/58/33 36/61/33 52/62/33 49/59/33
f 35/63/34 34/64/34 50/65/34 51/66/34
f 38/67/35 35/63/35 51/66/35 54/68/35
f 34/64/36 31/69/36 47/70/36 50/65/36
f 37/71/37 40/72/37 56/73/37 53/74/37
f 39/75/38 38/67/38 54/68/38 55/76/38
f 26/77/39 27/78/39 43/79/39 42/80/39
f 44/81/40 41/82/40 42/80/40 43/79/40
f 54/68/41 51/66/41 52/62/41 53/74/41
f 43/79/42 45/83/42 46/84/42 44/81/42
f 50/65/43 47/70/43 48/60/43 49/59/43
f 41/82/44 55/76/44 56/73/44 42/80/44
f 55/76/45 54/68/45 53/74/45 56/73/45
f 51/66/46 50/65/46 49/59/46 52/62/46
f 47/70/47 46/84/47 45/83/47 48/60/47
f 36/61/48 37/71/48 53/74/48 52/62/48
f 31/69/49 30/85/49 46/84/49 47/70/49
f 25/86/50 39/75/50 55/76/50 41/82/50
f 27/78/51 29/87/51 45/83/51 43/79/51
f 29/87/52 32/57/52 48/60/52 45/83/52
f 28/88/53 25/86/53 41/82/53 44/81/53
f 40/72/54 26/77/54 42/80/54 56/73/54
f 30/85/55 28/88/55 44/81/55 46/84/55
f 2/89/56 1/90/56 58/35/56 57/3/56
f 4/91/56 3/92/56 60/6/56 59/36/56
f 6/10/56 5/9/56 62/2/56 61/19/56
f 8/93/56 7/94/56 64/18/56 63/7/56
f 1/90/56 4/91/56 59/36/56 58/35/56
f 5/9/56 2/89/56 57/3/56 62/2/56
f 7/94/56 6/10/56 61/19/56 64/18/56
f 3/92/56 8/93/56 63/7/56 60/6/56
f 71/95/56 68/96/56 145/97/56
f 1/90/24 2/89/24 65/98/24 66/99/24
f 8/93/23 3/92/23 68/96/23 71/95/23
f 2/89/25 5/9/25 70/12/25 65/98/25
f 7/94/22 8/93/22 71/95/22 72/100/22
f 3/92/57 4/91/57 67/101/57 68/96/57
f 6/10/21 7/94/21 72/100/21 69/11/21
f 4/91/27 1/90/27 66/99/27 67/101/27
f 88/23/58 81/102/58 129/103/58 134/104/58
f 86/105/59 83/106/59 135/107/59 132/108/59
f 77/109/3 142/110/3 141/111/3 78/112/3
f 82/113/60 105/114/60 108/115/60 85/116/60
f 84/117/61 87/24/61 133/118/61 136/119/61
f 84/117/62 98/120/62 99/21/62 87/24/62
f 86/105/63 109/121/63 112/122/63 83/106/63
f 81/102/64 104/123/64 105/114/64 82/113/64
f 85/116/65 108/115/65 109/121/65 86/105/65
f 83/106/66 112/122/66 98/120/66 84/117/66
f 88/23/67 101/22/67 104/123/67 81/102/67
f 110/124/68 107/125/68 94/45/68 93/53/68
f 81/102/69 82/113/69 130/126/69 129/103/69
f 132/108/70 131/127/70 85/116/70 86/105/70
f 87/24/71 88/23/71 134/104/71 133/118/71
f 97/128/72 95/50/72 89/54/72 100/129/72
f 83/106/73 84/117/73 136/119/73 135/107/73
f 82/113/74 85/116/74 131/127/74 130/126/74
f 102/130/75 90/49/75 92/48/75 103/131/75
f 89/54/76 90/49/76 102/130/76 100/129/76
f 97/128/77 111/132/77 96/51/77 95/50/77
f 110/124/78 93/53/78 96/51/78 111/132/78
f 106/133/79 91/46/79 94/45/79 107/125/79
f 106/133/80 103/131/80 92/48/80 91/46/80
f 104/134/81 120/135/81 121/136/81 105/137/81
f 105/137/82 121/136/82 124/138/82 108/139/82
f 107/140/83 123/141/83 122/142/83 106/143/83
f 110/144/84 126/145/84 123/141/84 107/140/84
f 106/143/85 122/142/85 119/146/85 103/147/85
f 109/148/86 125/149/86 128/150/86 112/151/86
f 111/152/87 127/153/87 126/145/87 110/144/87
f 98/154/88 114/155/88 115/156/88 99/157/88
f 116/158/89 115/156/89 114/155/89 113/159/89
f 126/145/90 125/149/90 124/138/90 123/141/90
f 115/156/91 116/158/91 118/160/91 117/161/91
f 122/142/92 121/136/92 120/135/92 119/146/92
f 113/159/93 114/155/93 128/150/93 127/153/93
f 127/153/94 128/150/94 125/149/94 126/145/94
f 123/141/95 124/138/95 121/136/95 122/142/95
f 119/146/96 120/135/96 117/161/96 118/160/96
f 108/139/97 124/138/97 125/149/97 109/148/97
f 103/147/98 119/146/98 118/160/98 102/162/98
f 97/163/99 113/159/99 127/153/99 111/152/99
f 99/157/100 115/156/100 117/161/100 101/164/100
f 101/164/101 117/161/101 120/135/101 104/134/101
f 100/165/102 116/158/102 113/159/102 97/163/102
f 112/151/103 128/150/103 114/155/103 98/154/103
f 102/162/104 118/160/104 116/158/104 100/165/104
f 74/166/105 129/103/105 130/126/105 73/167/105
f 76/168/105 131/127/105 132/108/105 75/169/105
f 78/112/105 133/118/105 134/104/105 77/109/105
f 80/170/105 135/107/105 136/119/105 79/171/105
f 73/167/105 130/126/105 131/127/105 76/168/105
f 77/109/105 134/104/105 129/103/105 74/166/105
f 79/171/105 136/119/105 133/118/105 78/112/105
f 75/169/105 132/108/105 135/107/105 80/170/105
f 143/172/105 144/173/105 146/174/105
f 73/167/24 138/175/24 137/176/24 74/166/24
f 80/170/23 143/172/23 140/177/23 75/169/23
f 74/166/25 137/176/25 142/110/25 77/109/25
f 79/171/22 144/173/22 143/172/22 80/170/22
f 75/169/57 140/177/57 139/178/57 76/168/57
f 78/112/21 141/111/21 144/173/21 79/171/21
f 76/168/27 139/178/27 138/175/27 73/167/27
f 89/54/57 17/39/57 18/44/57 90/49/57
f 137/176/105 138/175/105 146/174/105
f 65/98/56 70/12/56 145/97/56
f 72/100/56 71/95/56 145/97/56
f 68/96/56 67/101/56 145/97/56
f 69/11/56 72/100/56 145/97/56
f 67/101/56 66/99/56 145/97/56
f 70/12/56 69/11/56 145/97/56
f 66/99/56 65/98/56 145/97/56
f 141/111/105 142/110/105 146/174/105
f 138/175/105 139/178/105 146/174/105
f 144/173/105 141/111/105 146/174/105
f 139/178/105 140/177/105 146/174/105
f 140/177/105 143/172/105 146/174/105
f 142/110/105 137/176/105 146/174/105
f 27/25/106 15/20/106 16/1/106 29/30/106
